<?xml version="1.0" standalone="no"?>
<!DOCTYPE svg PUBLIC "-//W3C//DTD SVG 1.1//EN" "http://www.w3.org/Graphics/SVG/1.1/DTD/svg11.dtd" >
<svg xmlns="http://www.w3.org/2000/svg" xmlns:xlink="http://www.w3.org/1999/xlink" version="1.1">
<metadata>
Created by FontForge 20200314 at Mon Oct  7 15:32:14 2013
 By Unknown
Copyright (c) 2012 by Yellow Design Studio. All rights reserved.
</metadata>
<defs>
<font id="Veneer" horiz-adv-x="423" >
  <font-face 
    font-family="Veneer"
    font-weight="400"
    font-stretch="normal"
    units-per-em="1000"
    panose-1="2 0 8 6 0 0 0 0 0 0"
    ascent="825"
    descent="-175"
    x-height="724"
    cap-height="724"
    bbox="-173 -236 968 969"
    underline-thickness="50"
    underline-position="-100"
    unicode-range="U+000D-FB02"
  />
<missing-glyph horiz-adv-x="0" 
 />
    <glyph glyph-name=".notdef" horiz-adv-x="0" 
 />
    <glyph glyph-name=".null" horiz-adv-x="0" 
 />
    <glyph glyph-name=".null" horiz-adv-x="0" 
 />
    <glyph glyph-name="nonmarkingreturn" horiz-adv-x="333" 
 />
    <glyph glyph-name="CR" unicode="&#xd;" horiz-adv-x="200" 
 />
    <glyph glyph-name="space" unicode=" " horiz-adv-x="200" 
 />
    <glyph glyph-name="exclam" unicode="!" horiz-adv-x="243" 
d="M184 678l1 -15l-1 -28l-2 -26v-28l-3 -30l1 -29l-3 -8l-1 -27l-3 -33l1 -32l-3 -24v-27l-2 -26l1 -30l-3 -18v-17l-3 -24v-28l-4 -12l-9 -7l-14 -2h-29l-17 3l-10 10l-2 29l-3 32l-1 29v29l-2 29l-1 26l-3 24l2 27l-3 10l2 9l-3 17v17l-2 30l-1 31l-3 29l2 14l-4 26l1 26
l-3 15v43l10 10l16 3l30 -2l24 2l20 -1l30 -11v-24zM182 95l-2 -10l1 -26l-1 -26l-2 -27l-13 2l-3 -8l-19 -1l-37 2l-17 -2l-18 3l-7 12l1 15l-2 14l2 13l-2 28v30l4 15l15 7l33 -2l19 2l33 -1l18 -7zM97 460l14 -3l8 12l10 6l-9 7l-11 -7l-16 5l11 -7zM125 641l-16 8
l11 -20l9 1zM122 495l-6 -4l26 -15zM124 353l-11 -2l11 -15v17zM131 563l-2 5l-10 6l5 -16zM140 423l9 -4l-7 11l-8 -2zM121 391l-2 12l-7 -8zM131 401l7 3l-6 10zM111 546l4 6h-7zM134 304l-7 1l4 -6zM87 52l-3 4v-4h3zM165 329l-3 3v-3h3zM163 296l-3 3v-3h3z" />
    <glyph glyph-name="quotedbl" unicode="&#x22;" horiz-adv-x="307" 
d="M280 697l2 -14l-2 -17v-29l-3 -26l-3 -34l1 -13l-1 -25l-4 -11l2 -34l-4 -27l-12 -10h-29l-24 1l-11 6l-3 20l-2 26v28l-2 25l-3 28l5 15l-5 7l-2 25l1 17l-4 32l1 18l5 11l12 5l30 2l13 -3l11 2l12 -1l21 -14zM107 722l18 -3l5 -22l-1 -31l-4 -34v-25l-3 -8l2 -25
l-2 -20l-2 -27l-3 -32l2 -15l-4 -12l-7 -7l-15 -5l-32 1l-20 7l4 13l-7 14l9 -2l-2 6l-9 2l-1 20l11 11l-10 8l-3 13v27l-2 9l-1 34l1 23l-4 22v23l-2 20l8 12l28 3h46zM64 539l-9 -6l15 -7l-5 -6l4 2l6 -11l19 8l-9 6l-13 4v7zM226 573l18 13l-19 -1l-10 -12l20 -5zM97 502
l-6 -8l11 -6zM224 553v-9l11 9h-11zM85 493l5 -4l-4 12l-7 -7zM233 609l-14 2l4 -7zM97 545l9 -20l-1 12zM209 537l-3 8l-7 -3zM84 592l-3 -5l7 -3zM59 623l-2 -3l6 -7zM234 503l3 5v8zM40 558l2 4l-2 7v-11zM54 619l-3 3v-3h3z" />
    <glyph glyph-name="numbersign" unicode="#" horiz-adv-x="462" 
d="M461 516l6 -12l1 -16l-1 -29l-3 -15l-13 -6h-24l-25 2l-21 -3l-9 -8l-3 -25l-5 -36l-5 -9v-20l-5 -29l1 -23l33 -5l12 1l26 -1l14 -10l2 -13l-2 -23l1 -12l-3 -12l-9 -8l-16 -1h-30l-38 -3l-7 -18l-5 -27l-3 -26l-3 -39l-6 -21l-4 -38l-4 -23l-9 -7l-11 -3h-25l-24 1
l-12 3l-6 12l1 19l7 38l2 26l4 32l5 30l4 29l-7 13l-14 3l-32 -3l-11 2l-12 -5l-5 -26l-4 -23l-3 -25l-2 -31l-5 -33l-6 -40l-5 -14l-16 -7l-29 -1l-36 4l-4 12l1 24l4 25l5 24l3 25l3 24l3 22l4 34l-5 10h-56l-14 2l-9 13l-2 17l1 30l4 12l20 7l28 -1h28l19 9l5 24l2 23
l2 27l5 10l-2 10l2 13l3 27l-5 11l-17 2l-13 -1l-35 2l-15 4l-6 16l1 18l2 30l7 10l27 3l27 -1h32l10 7l3 23l3 29l5 25l4 32l4 27l3 24l3 25l8 9l14 4h16l30 -1l14 -3l5 -12l-1 -17l-3 -33l-5 -23l-3 -28l-4 -26l-2 -26l-4 -28l7 -9l13 2l14 -1l28 -1l13 3l8 32v14l5 25
l2 27l4 29l5 29l2 30l5 10l10 4l27 2l34 1l11 -9l3 -14l-2 -13l-4 -29l-5 -30l-6 -58l-4 -29l2 -21l24 -3l11 1h25zM266 319l3 10l1 12l3 29l7 4l-6 3l1 19l4 17l1 18l-14 7l-20 -1l-31 1l-10 -10l-4 -22l-5 -41l-8 -40l-1 -37l11 -6l14 1l29 1l14 -2l8 10zM170 434l4 5
l-7 6l-13 1l5 -13l8 5zM287 240l-10 8l-3 -18l10 5l5 -4zM148 471l15 2l4 12l-12 -4zM143 381l-9 -8l15 2zM337 491l7 9l-8 4zM315 286l7 13l-6 -7l-9 1zM168 237l10 9l-10 -1v-8zM72 468l7 5l-9 4zM256 237l-1 11l-6 -6zM170 518l-6 2l-4 -6zM192 571l-4 -2l5 -8zM316 390
l2 -5l4 6z" />
    <glyph glyph-name="dollar" unicode="$" horiz-adv-x="384" 
d="M356 213l3 -12l-2 -12l2 -14l-2 -28l-5 -30l-10 -24l-13 -21l-16 -21l-23 -20l-13 -7l-26 -10l-12 -10l-1 -20v-34l-6 -11l-8 -4l-23 1l-35 1l-10 6l-5 13l2 37l-4 14l-25 10l-13 9l-12 4l-9 10l-20 17l-14 21l-11 20l-7 26l-6 25l-1 29l-1 28v34l14 14l10 4l15 -1h19
l31 1l15 -3l9 -13l1 -18l-2 -28l2 -27l3 -12l9 -22l15 -15l12 -4l12 -1l16 2l15 10l10 12l4 13l2 30l-4 13l-7 28l-15 25l-18 22l-20 21l-22 21l-20 23l-20 20l-20 22l-17 23l-13 20l-3 9l-7 10l-12 33l-6 28l-3 31l2 41l8 34l16 28l17 24l23 20l14 7l29 14l9 10l-3 18l4 38
l16 8l13 2l12 -1l28 -1l16 -11l-2 -13l-3 -20l9 -28l13 -7l14 -3l6 -8l11 -4l27 -27l17 -28l12 -30l4 -25l3 -30l-1 -15l2 -26l-1 -10l-8 -19l-17 -3l-28 2h-25l-12 -2l-18 7l-3 11l1 13l-2 13l-1 26l-4 25l-8 20l-22 12l-9 1l-11 -2l-11 -5l-15 -17l-4 -13l-1 -26l11 -38
l14 -22l36 -42l19 -17l4 -7l13 -12l23 -24l21 -24l17 -24l10 -11l5 -10l13 -23l10 -25l7 -27zM201 655l-11 -6l21 -4l12 2l6 -11l-6 22l-22 10v-13zM104 628l1 -7l9 -6l16 -6l2 15l-6 4l-3 1l-8 -1l-5 6zM289 580l-14 1l-5 2l-2 -9l6 -9l10 6zM213 356l7 -1l5 -6l4 10l1 12
l-11 2l4 -7l-9 -5zM165 67l1 5l7 4l-21 2l2 10l-9 2l9 -23l8 3zM308 532l11 8l-10 5h-7l5 -10l-10 3v-10zM151 392l-15 9l6 -10l1 -8l-14 2l15 -5zM112 122l-4 6l-6 -13l8 -9zM129 63l3 7l-12 -3l6 -14zM120 482l5 -9l6 -6l8 -4l-6 10zM100 602l-8 -6l11 -3l2 17zM279 512
l-9 6l-1 -17zM64 169l13 5l-10 8zM240 626h-9l4 -5l-6 6l8 -15zM230 323l-2 15h-5l4 -7l-5 -9zM108 595l8 -1l-2 17zM109 501l-4 -11l8 -8zM87 605l-6 -14l9 1zM90 154l-11 5l5 -13zM67 548l-8 -2l7 -12zM204 352l-8 10l-2 -10h10zM91 92l8 9l-10 1zM270 607l-7 -8l6 -7z
M147 71l-9 5l6 -14zM288 561l1 9l-11 -5zM250 643l1 -6v-16l4 5zM107 145l-6 -2l14 2l-6 7zM179 658l3 -5v-14l4 12zM108 567l6 2l-7 9zM96 186l-3 -11l6 7l-2 9zM167 646l7 -2l-4 10zM158 409l9 -2l-12 6l1 -11zM152 663l-2 -8l6 1z" />
    <glyph glyph-name="percent" unicode="%" horiz-adv-x="674" 
d="M637 175l-1 -16v-48l-3 -30l-7 -23l-13 -24l-19 -21l-14 -9l-23 -10l-35 -7l-9 6l-6 -5l-28 -1l-31 4l-12 4l-26 11l-24 17l-8 12l-13 24l-3 14l-4 21l-1 27l-1 30l6 12l-7 3l1 32l2 30l8 29l10 16l1 8l9 7l2 8l25 17l28 10l32 6l31 2l8 -2l9 1l18 -4l23 -6l27 -11
l10 -13l10 -6l9 -13l6 -15l10 -31l-1 -8l3 -12v-12zM143 393l-15 3l-27 8l-7 7l-8 2l-16 12l-11 14l-14 27l-1 13l9 2v10l-8 -4l-6 14l-2 13l3 10l-5 26l2 17l-1 25l2 9v20l4 27l11 27l9 13l20 22l16 7l10 7l36 7l30 3l30 -2l29 -4l16 -7l24 -13l19 -16l6 -10l1 -11l9 -9
l6 -19l1 -31l3 -8v-16l-10 -6h10v-49l-3 -35l-7 -36l-11 -15l-3 -11l-13 -15l-21 -8l-10 -10l-15 -6l-33 -6l-29 -2zM365 332l-4 -7l-5 -17l-16 -28l-10 -8l1 -11l-13 -22l-14 -26l-16 -26l-14 -27l-9 -12v-8l-6 -7l-16 -28l-11 -13l-2 -15l-13 -15l-5 -12l-15 -32l-10 -12
l-14 -8l-16 -1l-13 2l-27 -1l-13 4l-4 11l6 14l17 30l16 9l-1 10l2 14l8 13l10 19l12 7l-5 7l16 24l16 32l15 28l16 23l2 10l6 8l14 30l30 50l4 11l11 13l1 10l13 15l5 19l9 -1l4 14l12 6l3 10l-13 -6l8 11l5 12l12 25l12 19l4 11l16 27l15 29l16 27l20 37l15 28l12 9v13
l8 16l17 24l26 3l26 1l4 -5l11 5l14 -5l2 -14l-8 -14l-14 -29l-16 -30l-17 -28l-30 -56l-8 -5l-1 -13l-6 -12l-19 -28l-16 -32l-12 -23l-12 -26l-18 -26l-8 -17l-17 -31zM163 648l-14 -8l-11 -11l-6 -14l1 -35l1 -25l-4 -11l3 -14l-1 -22l5 -15l24 -15h22l18 3l15 10l6 14
l2 18v27l5 1l-2 5l-3 11l-1 28l-2 31l-10 13l-15 7zM542 118l-2 8v21l1 25l-1 28l2 10l-10 24l-11 6l-15 3l-26 -2l-11 1l-14 -15l-4 -27l-1 -28l2 -27l-1 -12l1 -32l9 -21l28 -6l28 2l14 5l6 13zM260 660l-5 -16l-5 -3l-4 -11l20 3l-2 9l5 5v11l4 10l-10 1zM233 446l10 7
l-6 8l-6 -7l4 -3l-8 -5l4 -8l9 -4zM269 513l-6 5l6 7l-15 1l6 -14zM246 677l-8 7l2 -14l9 -2l6 4zM78 626l-4 -5l9 2l10 -4l2 6l-5 5zM280 251l10 6l1 9l-10 -6l-6 2zM366 437l3 -8l-6 -10l12 14l13 11l-12 1l3 -4l-8 -8zM70 543l6 -6l7 -8l5 3l-7 9zM156 439l5 -9l-2 10
l8 -6l-3 10l-14 2zM272 457l2 8l-8 5l-4 -9zM71 595l-2 -10l11 14v10zM261 474l15 7l-6 8zM86 480l5 3l7 -3l-5 7l-10 4zM293 555l1 9l-9 -3l7 -9l11 2zM343 362l12 1l-14 10zM408 284l3 -11v-7l7 9zM243 647l9 6l-6 9zM393 103l14 -2l-16 10zM572 248l-7 -8l8 -6zM179 428
l7 -5l-11 12l-6 -8zM503 283l4 9l-9 4zM56 491h6v16zM79 525l-1 -9l10 -2zM270 639l-2 -11l7 -4zM440 576l3 -6l11 6h-14zM404 191l9 7l-9 2v-9zM324 340l-11 4l4 -8zM266 617l-6 -12l8 4zM305 304l6 3l-9 7zM419 262l9 1l-6 7zM282 536l7 1l-8 8zM265 531l9 9l-6 1zM89 555
l-4 -10l7 2zM469 41h-10l5 -6zM243 477l-6 1l2 -9zM80 547l-2 7h-7zM289 573l-1 -3h16zM421 538l-2 -6l9 3zM239 179h11l-11 4v-4zM405 243l-1 -4h10zM591 129l4 2l-14 2zM152 428l-6 8h-4zM261 602l-1 -3l12 4zM101 533l-1 -5l5 5h-4zM431 503l-3 4v-4h3zM573 266l-3 3v-3
h3zM320 363l-3 2v-2h3z" />
    <glyph glyph-name="ampersand" unicode="&#x26;" horiz-adv-x="587" 
d="M551 153l1 -20l-1 -14l-2 -29l-4 -24l-12 -26l-11 -15l-26 -20l-19 -6l-14 -7l-29 -3l-28 5l-32 11l-30 23h-18l-20 -13l-25 -12l-26 -10l-15 -1l-23 -2l-27 -1l-15 2l-32 8l-10 7l-12 2l-13 11l-18 14l-15 17l-13 20l-12 22l-7 25l-4 25l-2 27l2 28l4 31l5 14l13 35
l7 11l12 23l15 21l17 20l21 23l2 16l-9 24l-8 24l-6 22l-9 29l-5 40l1 17l-3 6l2 17l1 24l5 26l9 25l12 25l23 28l11 9l24 14l26 9l34 6h22l34 -5l13 -5l28 -14l21 -20l10 -14l12 -23l9 -39l4 -23l-4 -7l5 -15l-5 -31l-6 -27l-9 -23l-17 -29l-11 -20l-15 -16l-29 -31
l-27 -30l1 -13l8 -13l4 -12l9 -16l6 -19l10 -22l10 -21l14 -14l6 9l6 25l6 27l6 32l1 22l11 25l12 2l23 -3l26 2l26 -2l6 -10v-30l-6 -18l4 -9l-4 -30l-8 -10l1 -19l-5 -21l-8 -23l-9 -24l-14 -30l-6 -15l1 -20l23 -15l12 2l11 18l1 15l4 38l11 6l13 1l31 2l17 -2l10 -7z
M213 589l-1 -15l2 -30l6 -30l8 -29l10 -13l14 18l13 21l9 9l-2 8l9 27l3 28l-5 27l-6 13l-11 10l-13 3l-14 -4l-12 -11l-7 -15zM192 115l12 -6l15 -3h15l14 3l10 17l-21 36v7l-8 8l-5 9l-10 19l-11 24l-10 26l-10 1l-8 -12l-11 -25l-3 -35l4 -32l6 -14l9 -13zM345 104l14 1
l-22 20l8 5l-1 12l7 10l-17 -4l6 -5l-10 -5l3 -4l-1 -21zM278 72l5 -2l-7 9l-4 -7l-12 2l4 -9l-5 -9l-9 -4l10 -7l5 10zM196 401l11 6l-15 -2l-1 14l-16 -15l8 -7zM327 161l-8 2l-14 -1l13 -13l10 -4l-6 6zM217 441l-6 -11l8 4l-1 -15l3 -9l9 -5l-6 12l-2 14zM349 76l2 15
l-17 -5zM104 172l-7 7l-13 -5l1 -7l4 -3l4 9zM191 672l-1 -5l5 -9l10 11zM376 155l15 -13v14zM223 308l5 -11l7 3l8 -4l-9 9zM402 261l-8 9l-4 -16zM249 255l13 2l-11 7l-6 -2zM378 109l6 2l-19 3l4 -9zM409 286l-12 -4l17 -7zM257 233l12 -12l-6 18zM178 561l-1 -13l11 3z
M304 97l-3 5l-10 3l5 -10zM310 206l-5 -5l4 -12l3 5zM308 188l-8 -8l7 -8zM402 63l6 7l-17 -3zM261 212l10 -8l-10 18v-10zM286 188l7 -12l4 7zM386 120l8 -7l8 5zM211 389l4 -8l6 5l-6 4zM141 308l-10 3l3 -9zM344 170l-7 -2l1 -11zM217 39l-6 8l-2 -10zM277 210l9 -3l-3 9
zM246 35l-7 9l-1 -9h8zM187 345l-1 7l-4 -5l-6 -2l-5 -5l8 5h8zM229 53l3 9l-8 -2zM228 350l-4 7l-5 -4zM235 59l13 -5l-5 6zM376 273l2 -5l11 -2zM396 203l3 7l-6 2zM185 383l9 11l-10 -7zM378 132l-5 1l2 -9zM78 157l13 1l-3 2zM267 713l-2 2v-2h2zM276 234l-2 2v-2h2z
M326 626l-4 -4l8 7z" />
    <glyph glyph-name="quotesingle" unicode="'" horiz-adv-x="200" 
d="M150 670l-3 -8l-8 -3h11l-3 -35v-19l-1 -27l-2 -28l-1 -25l-2 -30l-2 -28l-10 -9l-22 -1l-10 2l-12 -3l-18 7l-9 30l2 19l-3 24l-2 25l-1 28l-1 30l-2 27l-1 26l-2 27l2 12l7 10l13 2l34 1l38 -2l10 -18v-12zM140 585l-6 -5l8 -9zM101 625v-6l11 1zM96 615l-4 3v-3h4z
" />
    <glyph glyph-name="parenleft" unicode="(" horiz-adv-x="248" 
d="M188 -49l10 -14l-8 -20l-22 -21l-3 9l-1 -13l-28 -21l-14 5l-21 21l2 9l-12 3l-7 9l-1 8l-11 4l-12 17l-10 20l-17 36l-6 31l-2 38l2 29l-2 19l1 31l-1 25v34l-1 29l2 14l-1 19l-1 27v27l3 13l-3 17v34l1 26l-1 27l1 28l1 35l-2 26v25l2 29l-2 14l2 15l-2 25l3 36l5 40
l14 35l14 26l9 4l5 13l8 10l21 23l16 17l9 1l27 -4l4 -10l11 -5v-12l12 -2l9 -9l-3 -9l4 7l7 -9l-4 -13l-9 -11l-23 -22l-14 -21l-14 -29l-3 -15l-4 -29l1 -13l-3 -11l2 -14l-1 -15v-31l1 -30l-1 -22l1 -41l-1 -28v-27l-1 -27l3 -11l-1 -24v-25l-2 -11l3 -35l-2 -24l-1 -30
l-7 -5l6 -12l2 -38l1 -32l-1 -27v-35l2 -21l-7 -2l5 -6l9 -30v-9l11 -15l17 -25zM68 83l6 13l-9 -6l8 11l-7 5l-8 -9l1 -4zM150 -61l10 2l-11 7l-12 -2zM99 -29l1 6l-11 -1l7 -13zM69 57l9 6l-12 1l-7 10zM98 53l11 1l-14 7zM88 -5l-5 -5l5 -7v12zM113 -23v5l-11 3zM92 360
l-4 -5l13 3zM78 -55l5 3h-5v-3z" />
    <glyph glyph-name="parenright" unicode=")" horiz-adv-x="248" 
d="M224 225l2 -17l-3 -34l2 -19l-1 -41l1 -22l-1 -29l-3 -29l-4 -32l-10 -26l-13 -21l-12 -21l-8 -8l-22 -25l-21 -23l-12 -7l-13 -1l-9 11l-12 9l-20 21l-4 15l-11 7l10 14l21 24l21 27l14 34v9l4 12l2 28l1 35v19l-1 27l2 22l-3 10l2 12v31l-1 23l1 24l-1 24l-1 32l2 35
l-2 30l1 40l1 31l-2 34l3 6l-2 30l5 14l-4 11l-1 20v35l-1 32l2 21l-4 -6l-8 28l-2 16l-7 5l-21 27l-12 12l-9 13l-8 17l7 12l11 9l7 11l16 13l9 11l20 4l22 -22l20 -23l11 -9l10 -20l-10 -8l19 -8v-6l17 -19l-6 -9l11 -7l7 -35l2 -36l-3 -33l4 -15l-3 -29l3 -28l-1 -30
l-1 -29v-58l1 -29l-3 -39l3 -10l1 -18l-5 -15l3 -12l1 -39l-4 -10l4 -12l-2 -8zM156 734l-7 -2l6 -10l11 -6l6 5l6 -7l4 1l-12 14l-3 10l-1 -9h-8zM171 596l1 9l-13 -3l8 -3l-4 -9zM188 366l-8 -6l1 -12zM171 305l14 -9l-6 11zM174 775l-13 -3l8 -3zM189 277l-4 3l-5 -9z
M147 739l-3 3v-3h3zM221 139l-3 3v-3h3zM61 -60l-2 3v-3h2z" />
    <glyph glyph-name="asterisk" unicode="*" horiz-adv-x="424" 
d="M387 574l6 -15l-5 -14l-18 -3l-13 4l-14 -3l-7 -5l-15 -1l-25 -3l-24 -3l-5 -11l11 -15l24 -22l24 -21l22 -20l6 -12l-5 -11l-18 -12l-23 -16l-26 -16l-14 -2l-9 14l-2 8l-13 29l-2 11l-13 23l-12 24l-10 -2l-18 -34l-4 -12l-10 -26l-12 -25l-11 -11l-12 3l-25 16l-25 19
l-19 20l10 17l14 9l8 9l14 1l-2 10l9 8l15 18l10 6l7 10l1 11l-17 3l-28 4l-23 4l-12 -1l-7 9l-6 -3l-17 -1l-11 4l-5 11l2 13l9 27l10 29l7 11l16 3l20 -10l19 -12l28 -17l34 -10l3 14l-3 14l-5 29l-6 29l-4 25l2 12l12 6h13l27 1l38 -1l10 -9l-1 -18l-6 -32l-5 -27l-4 -33
l5 -13l23 11l23 13l25 12l17 12l16 6l9 -4l9 -14zM297 440l-5 -2l-2 -9h7v11zM133 417l-1 12l-8 -6zM82 574l-1 16l-5 -14zM102 581l-7 -10l12 6z" />
    <glyph glyph-name="plus" unicode="+" horiz-adv-x="532" 
d="M498 355l1 -17l-2 -22l-11 -7l-32 -2l-13 2l-12 -1l-27 1l-28 -1h-33l-6 5l-10 -6l-7 -14l-2 -12l1 -26l-1 -36l1 -27l-1 -27l1 -29l-4 -14l-14 -5h-42l-26 -1l-11 5l-7 17l3 19l-2 16l1 16l-2 15l1 16l1 37v35l-5 13l-18 8l-2 -4l-14 1l-34 -3l-33 1l-28 1h-26l-18 8
l-3 15l-2 33l2 18l-2 13l5 13l11 5l12 2l11 -2l17 2l12 -2l31 2l8 -2l10 1l12 -2l28 1l22 6l5 13l-2 28l1 23l-2 15l1 36l-1 27l1 29l7 13l26 5l14 -1l28 1l14 -3l10 -5l4 -17v-23l-1 -23v-34l-1 -32l2 -13l-1 -14l1 -23l9 -6l20 1l17 -7l13 5l15 2l31 -1h64l11 -11l3 -15
l-2 -4v-31zM256 540l-10 -2l-1 -7h10l13 -10l-4 9zM447 371h12l-2 9h-9zM288 557l-2 -9l1 -8l8 4zM223 357l10 -1l-13 9l-6 -9zM205 382l-3 11l-6 -23zM265 414l8 -4l3 9h-3zM259 566l-8 -8l18 1h-6zM156 327v7l-13 -13zM80 361l8 4l-9 6zM148 372l-2 -12l6 2zM101 357l-4 8
l2 8l-6 -7zM267 543l3 -12l3 7zM251 289l-13 -3h14l1 10zM281 169l-3 3v-3h3z" />
    <glyph glyph-name="comma" unicode="," horiz-adv-x="188" 
d="M152 86l1 -9v-31l-1 -25l-6 -29l-8 -31l-12 -26l-14 -25l-18 -19l-11 -2l-8 3l-11 -3h-15l-13 5l2 18l9 16l9 9l1 9l7 7l9 29l-4 15l-26 2l-7 10l-1 21l4 26l-4 11l2 11l-2 30l3 17l14 8h62l27 -1l10 -7l2 -13zM66 62l5 10l-6 -2zM102 54l1 4l-10 1z" />
    <glyph glyph-name="hyphen" unicode="-" horiz-adv-x="319" 
d="M275 378l-1 -14v-27l-4 -15l-15 -8h-35l-16 2l-16 -1h-36l-17 5l-14 -4l-56 -2l-13 3l-8 14v15l1 24l-2 13l1 11l9 8l13 5h31l27 -2l38 1l32 1h54l17 -3zM102 348l2 9l-14 1z" />
    <glyph glyph-name="period" unicode="." horiz-adv-x="188" 
d="M144 46l6 -13l2 -15l-5 -13l-10 -5l-24 -2l-29 2l-28 -3l-14 3l-7 14v72l1 26l4 18l12 4h29l29 -1l26 1l12 -5l4 -26l1 -32l-2 -12l1 -13h-8z" />
    <glyph glyph-name="slash" unicode="/" horiz-adv-x="243" 
d="M276 780v-14l-8 -28l-8 -8l7 3l-8 -26l-7 -23l-4 -24l-4 -11l-6 -23l-7 -23v-8l-6 -9l-1 -9l-7 -25l-7 -3l3 -9l-2 -14l-10 -24l-1 -19l-5 -9l-1 -12l-6 -19l-10 -39l-10 -41l-5 -11l-1 -9l-5 -4l-2 -25l-5 -11l-1 -11l-9 -28l-12 -31l2 -12l-6 -15l-9 -38l-10 -37
l-5 -22l-3 -3v-9l-6 -18l-6 -25l-8 -24l-8 -31l-6 -23l-12 -37l-9 -8l-29 -1l-29 1l-15 7l-3 13l10 31l5 24l6 27l6 18l5 23l5 9l7 28l5 24l8 21l3 15l7 30l11 28l5 31l6 11l7 38l7 25l7 23l7 24l6 25l8 30l7 25l10 31l5 31l11 30l6 28l8 28l2 16l5 13l7 24l6 26l7 27l10 31
l3 20l6 12l6 5v3l10 5h29l32 -2zM153 479l12 -11l-2 19l-12 8zM88 251l10 13l-19 -8l4 -10l-10 -9l5 -4v8l10 1v9zM170 581l16 3l-1 10l-8 1l1 -10zM75 171l3 6l2 8l-10 -8l-13 -1zM47 146l10 -4l9 2l-10 8zM182 557l-1 4l-4 -13l-8 -1l10 -6zM75 153l-2 10l-13 2zM202 567
l5 -1l-2 8zM67 200l-7 1l7 -6v5zM116 352l-2 3l-2 -13zM150 572l-5 -3l16 3h-11zM149 442l7 5l-7 -2v-3zM83 230l-3 2v-2h3zM51 77l-2 3v-3h2z" />
    <glyph glyph-name="zero" unicode="0" horiz-adv-x="409" 
d="M378 417l2 -12v-86l-2 -30l-1 -33l2 -27l-4 -9l5 -15l-1 -17l-1 -32l-2 -35l-12 -35l-11 -24l-17 -24l-23 -21l-31 -17l-30 -8l-39 -4l-40 2l-36 8l-32 15l-23 18l-19 21l-7 13l-11 24l-11 35l-3 23l2 9l-1 24l-1 27l6 18l-6 6l-1 19l2 17l-1 15v72l7 -8l8 15l-8 -5l-7 8
v15l1 30l-3 36l3 18l-2 32l1 28l3 12l-5 6l1 21l4 20l-1 12l2 12l6 13l1 10l14 33l16 22l18 18l16 12l12 3l11 -1l8 10l15 6l35 4l13 -2l18 1l25 -1l33 -8l18 -8l24 -14l19 -18l19 -27l7 -15l12 -36l3 -35l1 -29v-61l1 -32zM254 164l1 19v44l-1 27l1 31v58l-1 18v71l2 11
l-2 9l-2 21l6 17l-1 35l-3 14v21l-2 28l-14 23l-13 8l-16 4l-14 -1l-21 -9l-8 -9l-8 -24l-3 -24l3 -12l-1 -12l-4 -9l4 -6v-139l-4 -29l3 -10l-1 -14l2 -36v-32l-2 -12l2 -22l-1 -23l-4 -16l4 -6l1 -11l4 -36l9 -14l14 -10l17 -4l16 -1l15 6l13 14l7 19zM133 515l4 10
l-12 -3l-1 -4l-12 -5l-13 4l-7 -7l-5 19l-12 1l10 -10l4 -15l12 1l9 -13l-4 -10l15 13l-7 5l6 9l8 -3zM97 636l-9 4l3 -25l8 -7l15 -13l-7 14l24 1l-9 15l-1 8l-4 -10l-11 -6h-10l4 12l4 16zM105 658l-3 -7l8 -2l-1 8l16 2v-8l7 -3l-11 -10l7 4l9 -3l2 20l-20 4zM349 194
h-11l-6 10l-3 -12l1 -10l10 -13l1 14zM113 181l8 -7l-1 13l-17 3l-8 -5l11 -9zM80 175l8 10l-5 6v11l-3 -9l-12 2v-12l6 4zM83 434v-10l-9 15l1 -13l13 -7l2 17l5 6l-5 -1l-6 2zM40 374l9 -6l-1 -13l14 12l-7 7h-15zM79 318l17 1l5 14l-11 1l-4 -13zM116 439l2 17l-20 -18z
M75 320l-11 -2l-8 -9l15 -6l-3 8zM301 218l9 1l3 10l-9 6l1 -8l-8 -8zM81 380l-7 -11l17 4l9 -7v9l-8 2l-11 -3v6zM317 303l10 -2l-5 17l-4 -6l-4 -1zM86 469l-21 -4l17 -7zM125 344l-4 4l-5 -9l-12 1l8 -9zM82 407l-4 -12l18 3zM90 587l-7 -2v-10l-4 -3l8 -3zM87 211l5 -11
l-1 -8l11 7zM104 574l-10 -6l1 -9l6 10l9 -6l3 7l-8 -3zM58 278l3 -9l4 -3l7 8zM308 199h11l-5 14zM129 592l-3 8l-8 -7l1 -10l4 8zM74 337l-6 -1l10 -7l6 12zM299 256l4 6l-10 -5l6 -18v17zM318 348l8 -3l-7 8l-8 -1l-5 4l4 -8h8zM304 330l5 -11l9 7zM125 160l-2 5l-10 -8
l-8 -3l3 -1zM313 386l-8 10l-8 -4zM106 373l2 -12l10 -4zM106 234h8l-13 6l-3 -9zM74 444v13l-8 -7zM84 564l-9 -13l9 2v11zM95 584l4 10l-10 -2zM77 496l13 -3l-13 10v-7zM154 474l-10 1l10 -9v8zM281 111l7 9l-7 1v-10zM169 695l-8 -5l2 -11l2 10zM93 549l8 -3v8zM137 680
l-3 -7h9zM60 169l3 -5l3 13zM290 113l6 -9l-1 9h-5zM327 328l5 -2l8 5zM107 622l1 5l-7 1zM62 240h9l-9 4v-4zM312 150l13 9l-6 -2zM121 300l-7 11l-1 -2zM303 135l14 -1l-8 2zM195 716l-6 -3v-3z" />
    <glyph glyph-name="one" unicode="1" horiz-adv-x="275" 
d="M227 108l-2 -22l2 -25l-3 -10l2 -9v-24l-9 -17l-26 -4l-22 2l-21 -1l-28 1l-11 5l-6 10l-1 14l2 28l-2 10l3 10l-2 8v29l1 31l-1 35v26l1 24l-2 26l1 29v54l2 12l-2 64l2 9l-1 9v25l-1 23l4 10l-4 11v35l-9 8l-12 -4l-24 -10l-23 -12l-13 -2l-10 7l-3 26l2 10l-2 11
l-1 44l5 15l22 17l52 28l27 20l17 7l5 9l7 6l10 -2v6l16 -2l3 7h17l12 -8l7 5l8 1l9 -19v-27l1 -34l-3 -16l3 -38v-32l-2 -24l3 -9l-3 -7l3 -17l-2 -39l1 -33v-34l-5 -22l5 -5v-52l1 -27l-1 -31l-2 -29l1 -35l1 -30l2 -33zM165 442l-17 -4l3 -10l5 6l15 -12l3 14zM175 651
l-8 1l6 -6l-8 3l6 -12l2 2l7 -3l8 10zM185 614l-12 11l-3 -8l5 -10zM166 319l15 2l-7 9l-16 -9zM148 450l3 9l1 12l-13 -13zM145 480l-8 8l13 -16l6 5l1 5l-3 7zM160 207l8 6v6l-12 -17l-12 1l8 -13zM180 598l-4 -7h7l18 6zM156 562v-13l-6 -6l9 2l10 -7l-9 11zM171 378
l4 -8l-2 16l-13 1zM153 508l-3 -6l14 -12zM173 527l-5 -5l-9 3l18 -8zM186 658l-6 11l-3 -9zM168 160l9 1l3 10zM178 206l2 6l-9 -3l11 -10zM151 265v-8l8 -5zM192 178l8 2l-4 7zM171 570l-7 -7l11 2zM133 299l4 7l-3 10zM191 511l-11 -7l7 -1zM174 254l13 6l6 11l-8 -10z
M187 408l10 -2l-1 4zM181 216l8 10l-7 -4zM109 349l3 1l-3 2v-3zM170 684l8 -12l2 -2zM206 400l-3 2v-2h3z" />
    <glyph glyph-name="two" unicode="2" horiz-adv-x="399" 
d="M368 576l2 -13l-1 -14l-7 -16l1 -18l-4 -24l-7 6l2 -14l-7 -20l-15 -38l-10 -16l-14 -25l-17 -30l-19 -30l-6 -13l-15 -27l-15 -28l-18 -26l-8 -20l-15 -28l-12 -23l-14 -34l11 -10l10 -3l17 4h12l23 -2l12 2l25 -2l13 1l27 1l29 -1l10 -9l2 -33v-34l1 -24l-10 -14
l-17 -3l-15 2l-17 -2l-17 1l-34 -1l-34 2l-17 -2l-34 1l-31 3l-7 9l-1 -11l-30 -1h-38l-7 4h-20l-4 13v14l5 9l-4 8l6 5l-8 2l4 18l5 32l7 27l11 29l12 24l6 18l11 20l13 26l9 10l3 13l15 24l17 24l7 15l14 25l14 23l14 27l8 8l16 23v10l5 6l2 10l4 7l12 30l5 8l2 16l5 33
l5 11l-6 7l3 8l-7 15l-20 16l-19 5h-16l-12 -5l-17 -14l-5 -12l-4 -25l1 -30l1 -26l-8 -16l-18 -3h-58l-24 2l-12 8v20l-2 36l1 33l2 21l4 7l2 13l14 30l8 11l19 21l11 9l28 13l11 9l23 8l12 1l-5 -6l17 9l12 -1l1 -11l4 13l29 -3l23 -3l4 -7l8 4l22 -8l26 -16l27 -26l9 -16
l16 -29l5 -19l-1 -9l4 -13zM204 669l-1 7v7l-7 -10l5 10l-11 -3l-6 14l2 -21h-10l11 -7l6 5l4 -8zM272 450l6 6l-2 11l-7 1l-14 -5l9 -4l-7 -9h15zM139 38l12 3l1 8l8 7l-7 1l-6 16l-6 -7l6 -8v-13h-11zM301 478l16 -1l-14 13h6l-3 9h-10l-3 -3l10 -11zM325 625l-12 -1
l-6 -11l-10 -6l4 -13l12 21zM168 693l-7 -1l7 -6l-16 -3v-8l17 7l4 -7v13zM131 674h4l10 -7l8 -1l-7 10l-12 10zM129 197l-10 -9l10 -4l-7 -10l7 6l7 -9l-2 16zM211 673l13 -11l5 12l-9 -4l3 9zM86 31l15 1l-2 15zM71 124l-2 15l-10 -3l6 -7l-2 -8zM123 66l8 -8l1 9l-14 6
l3 -16zM85 139l-1 -11l4 -9l11 4l-8 3zM89 618l2 16l-13 -11zM274 488l7 5l-12 5l1 -14zM288 669l-7 -8h7l7 16l-8 -4zM75 64l14 -4l-3 11zM147 28l2 -15l3 12l7 10zM205 70l-9 -5h8l5 -5l10 4h-9zM155 633l8 5l-18 7l6 -4zM246 644l-1 21l-9 -9l8 -1zM232 648v8l-14 3z
M263 663l-9 -4l15 -5zM179 269l-5 -11l8 -3zM233 670l7 -4l2 13zM286 525l-4 -6l13 -5zM255 420l1 7l-12 -4zM113 134l15 2l-10 4zM120 38l11 -2l-6 8zM151 706v-9l2 -2l4 6zM316 499l7 6l-5 6zM95 56l3 -7l5 7l-5 2zM186 702h-16l6 -4zM122 183h-8l-3 -8zM193 265l6 7l-7 2
zM107 62l5 5l-13 -2zM158 78l-4 -10l7 4zM124 655l-3 -5l6 -5zM108 105l11 6l-8 -1zM224 705l3 -8h4zM158 655l1 6l-5 -1zM185 642l-6 5l-9 4zM164 677l1 -7h3zM139 551l-3 2v-2h3zM141 56l-3 2v-2h3z" />
    <glyph glyph-name="three" unicode="3" horiz-adv-x="389" 
d="M359 188v-13l-1 -13l-1 -31l-6 -29l-12 -33l-20 -26l-25 -23l-15 -9l-22 -10l-32 -10l-13 -1l-29 -2l-28 5l-28 4l-31 16l-20 15l-17 18l-15 24l-11 38l-5 24v68l5 20l13 4l16 1h59l17 -3l8 -12v-15l-1 -29l1 -21l9 -25l9 -10l12 -6l14 -3l13 2l12 5l15 17l6 13l3 15
l-1 25l1 26v44l-5 37l-14 27l-21 5h-10l-22 4l-15 -1l-9 9l-3 13l1 13v31l2 29l8 8l16 3l31 2l15 7l11 10l8 17l3 32l1 27v33l-1 28l-3 9l-8 23l2 9l-11 -6l-16 6l-19 -1l-15 -9l-10 -12l-5 -14l-3 -31v-33l-9 -13l-13 -2l-26 1l-32 -3l-18 1l-13 6l-6 12l-1 20l1 36l3 25
l6 27l5 11l18 33l15 17l25 20l32 15l21 4l24 2l10 -5l5 5l23 -6l4 2l-1 5l14 -3l12 -6l15 -3l28 -13l11 -11l8 -3l19 -25l-2 -6l11 -3l8 -16l3 -12l6 -30v-38l2 -24l-3 -11l2 -12v-54l-9 -38l-17 -27l-16 -12l-9 -17l20 -17l7 -11l16 -22l7 -21l4 -25v-34zM205 699l8 -3
l4 18l11 -2l-12 12l-15 -2v-12l-9 -8l10 -12l3 -11l3 4zM314 473l1 11l-6 8l10 -3l-11 6l-19 1l-7 -12l22 7l-4 -15zM299 590l1 -6l-9 -3l-7 2l3 -10l7 3l-12 -11l12 -6l4 8l3 16l8 3zM284 537h-7l-8 -1l-9 -8l13 -6l6 -15l3 12l-6 7l-6 -2l1 10h8zM256 400l9 1l-2 9l1 11
l-9 -14l-7 4v-9h-7zM313 164l3 6l-5 6l-15 -5l5 -5zM313 215l19 5l-12 2l-6 9l-6 -12zM314 609l-9 -12l13 -2zM213 671l7 -7l2 13l6 -12l-5 15zM168 384l-1 -6l9 -5l2 8zM289 251l7 -1l4 5l1 9l-6 -10l-4 6zM218 355l4 11l-13 4l-3 -8l14 4zM293 465l-6 8l-6 5l6 -9l-4 -10z
M232 355l10 -5l-12 12l-6 -9zM297 524l-12 5l3 -8zM170 690l9 -4v7zM255 333l4 -2l-1 -4l6 -2l-9 14v-6zM255 351l8 4l-7 4zM312 285l-11 5l12 -8l8 5zM197 683l3 -9l4 5zM277 316l8 -1l-2 7zM269 411l-4 -10l6 1zM103 189l4 -7l3 7h-7zM273 439l-6 2l-4 -4zM180 727l-5 5
l8 -15zM266 690l3 3l-16 -7zM50 600h8l-10 3zM250 323l-3 4v-4h3zM266 312l3 -3v3h-3zM281 423l-3 2v-2h3zM56 617l6 -12l4 -7z" />
    <glyph glyph-name="four" unicode="4" horiz-adv-x="396" 
d="M385 228l3 -18l-2 -32l-9 -2l2 -13l-20 -6h-18l-11 -10v-17l1 -42l-3 -7l2 -11l-5 -3l6 -11l-2 -34l-4 -17l-15 -7l-15 1h-29l-27 -1l-24 6l-5 12v40l1 31l-1 25l3 5l-2 8l-1 24l-9 9h-31l-29 -1l-5 5l-23 -5l-26 1l-23 -1l-12 2l-16 -1l-16 2l-9 12l1 24l3 8l-4 13l4 10
l-4 22l6 17l13 30l11 25l10 26l13 26l6 18l15 33l11 27l9 22l11 14l1 10l7 15l11 30l13 30l16 37l8 15l10 26l11 27l13 29l9 11l15 6h77l17 -3l5 -16v-61l1 -28v-50l-2 -17l2 -12l-3 -10l4 -16l-2 -15l1 -44v-26l-2 -9l3 -26l-3 -17l2 -34v-37l-2 -27l7 -11l37 -1l10 -6
l4 -9zM199 263l10 12v36l2 9l-2 13l1 13l3 6l-4 14l2 35l-1 36l-4 13l-12 -13l-2 -14l-7 -12l-4 -14l-11 -26l-11 -25l-12 -30l-14 -33l-1 -17l19 -3h48zM341 210l5 -1l-4 8l6 10l-15 3l2 -9l-7 4l6 -14v-18l10 1zM266 131l16 -4l-7 10l4 6l-9 12l-9 -3l-7 8l-2 -10l6 -5
l9 5l4 -11zM308 187l-2 9l-7 7l-9 1l1 -23l8 5zM287 230l-6 7l-12 9l-15 -12h10zM130 225l11 9l-22 -1v-8l8 -2l-8 -4l7 -10zM280 263l5 3l9 -9l3 9l-2 4l-19 1zM209 198l-9 9l12 4l-14 4l-6 -9zM271 590l-15 -17l16 7l1 -8l7 4l-11 6zM271 95l5 -2l11 8l-15 3zM243 588
l-4 -18l6 6l10 -3zM280 218l-5 -17l13 5zM270 260l5 -11l12 4zM299 242l5 -2l-5 12l-9 -4zM280 27l10 10h-14zM273 534l-6 3l-3 -8l2 -8zM178 214l-8 9l11 3l-11 4l-2 -10zM239 527l-10 4v-5l13 -7zM205 564l14 3l-9 7zM209 495l14 -2l-9 10zM257 503l5 14l-16 -7h10z
M279 326l4 -10l7 12zM245 252l-1 -15l8 7zM190 571l9 -3l10 7zM223 563l10 -6l-3 11zM304 87l-13 -4l8 -4zM93 315l-8 -6l10 -3zM188 535h-10l2 -8zM262 182l-8 -4l9 -9l-3 8zM257 629l-2 -7l13 8zM216 620l-7 1l9 -7l1 14zM297 439l9 6l-9 2v-8zM182 442l7 -5l-1 9z
M237 342l-2 7l-3 -10zM273 64l5 -2l3 6zM161 161l-1 5l-2 -3zM272 323l8 8l-16 -15z" />
    <glyph glyph-name="five" unicode="5" horiz-adv-x="396" 
d="M366 227l-1 -21l2 -34l-3 -7l1 -8l-3 -21l-5 -36l-6 -17l-16 -28l-7 -3l-6 -15l-10 -11l-24 -18l-13 -5l-27 -8l-32 -5l-21 -1l-31 3l-31 6l-27 10l-24 16l-17 20l-17 21l-3 12l-6 12l-3 12l-6 29l1 13l4 10l-4 26l5 16l-6 2l2 15l14 8l10 2l31 -1h38l16 -3l6 -9v-12
l-1 -30l5 -28l8 -20l12 -10l14 -6l14 -1l14 4l13 9l9 15l3 18l4 8l-2 9l1 22v44l-1 28l4 12l-4 17l4 27l-3 8l2 12l-1 12l8 1l-5 7l-7 3l-3 12l-6 10l-11 7l-13 4l-24 -4l-19 -13l-12 -24l-9 -8l-21 -1l-17 2h-30l-23 5l-9 9l-2 15l2 16l-1 14l2 15l1 28v29l1 14l3 26l-2 20
l3 35l2 40v57l3 16v24l10 17l34 2l37 1h91l25 -2l19 2l32 -1l17 2l22 -4l10 -5v-26l-9 1l-7 -4l-3 -12l6 -2l4 7l8 -4l-3 -16l-6 -30l-5 -14l-11 -7l-14 -2l-13 1h-28l-27 -1h-23l-11 2l-4 7l3 -8l-18 1l-6 10l1 -8l-18 -5l-9 -10l2 -27l-2 -26v-24l-3 -37l8 -11l18 9l34 11
l1 -7l3 6l17 4l17 -3l13 1l23 -5l16 -7l22 -19l18 -20l14 -36l7 -35v-22l3 -16l-3 -10l1 -14v-83zM94 622h-12l-7 6v-13l8 -9l2 12l9 -12v16zM270 692l7 -5l4 -15l6 1l1 -15l2 14l-4 11l-7 6zM71 720l5 -7l3 -8l11 12zM85 459l9 10l-20 -13l1 -12zM200 644l-8 -18l9 -4z
M71 561l9 -14l4 13zM118 401l14 4l-13 7zM254 691l-4 12l-6 -18zM124 654l-12 -1l17 -5l-4 15zM145 63l12 -2l-13 10zM271 451l-11 -11l12 4zM88 567l8 -4l6 -4l-4 9zM43 125l1 11l-8 -4zM143 611l-12 1v-6zM105 601l-6 -3l10 2l7 11zM85 637l1 -7l8 11zM338 635l-8 -3l6 -5
zM79 432l3 7l-12 -10zM117 591l9 -5l-6 8l-11 -8zM107 399l2 5l-7 4zM111 639v4l-9 4zM87 674l-9 1l10 -5zM110 631h-3l-8 -9zM134 584l3 2h-3v-2z" />
    <glyph glyph-name="six" unicode="6" horiz-adv-x="404" 
d="M375 248l1 -21l-3 -13l2 -23l-1 -20l-2 -24l-2 -26l-4 -9l-2 -17l-12 -27l-16 -24l-20 -22l-12 -9l-11 -5l-28 -12l-33 -8h-37l-29 2l-29 5l-26 12l-20 12l-25 25l-14 24l-9 27l-11 34l1 15l-2 28l2 13l-1 17v65l-1 31v51l2 12l-2 13l1 30l-2 33l2 16l-1 18l4 25l-4 7v29
l1 31l1 23l4 27l9 30l6 8l21 34l20 19l30 18l18 5l30 6l34 2l35 -3l8 -3l30 -8l14 -7l25 -21l8 -16l9 -3l10 -13l12 -29l7 -31l2 -39l-1 -31l-5 -17l-12 -5h-54l-30 1l-12 9l-2 16l1 17l-3 37l-6 13l-10 11l-13 7l-24 2l-14 -5l-11 -9l-12 -25l-1 -11l-2 -27l2 -45l-5 -32
l4 -5l1 -12l2 -30l13 3l12 10l16 6l27 7l12 -1l9 2l13 -1l24 -3l30 -12l30 -24l6 -10l13 -21l7 -25l5 -26v-31l-2 -11l3 -13l-3 -10zM252 202l-2 19l1 29l-1 30l-1 29l-5 14l-9 9l-11 7l-13 3h-14l-14 -4l-15 -14l-10 -15l-3 -33l1 -17l-2 -36l2 -26v-30l3 -34l8 -19l15 -10
l24 -4l26 10l9 9l6 12l3 14v26zM98 487l-15 -7l10 -9l14 -2l-7 8l8 5zM81 311l5 5v8l-4 -8l-5 26l-5 -14zM62 508l-9 -10l11 1l7 -14v12zM84 498l-11 2l3 -10l13 1zM89 292l7 -14l-1 12l-8 10l-8 -6zM42 469l8 -11l7 -2l-11 17zM91 67l13 10l-6 7zM52 311l8 -1l8 1l-15 8z
M152 364l13 1l-13 10v-11zM83 167l-14 1l12 -9zM80 440v-14l6 7v4zM60 216l8 -1l6 -3l-2 8zM110 125l10 5l-10 2l-1 13zM70 185l-4 -5l11 -5zM108 523l-1 -8l11 -2l-5 3zM61 376l10 -6l-2 8zM94 367l-12 4l9 -9zM115 582l-8 -4l10 -2zM63 239l-4 -9h6zM104 112l3 5h-10z
M106 103l1 4h-5zM44 361l-2 3v-3h2z" />
    <glyph glyph-name="seven" unicode="7" horiz-adv-x="350" 
d="M340 686v-14l-1 -29l-4 -15l-8 -25l-6 -26l-6 -10l-6 -23l-12 -38v-6l-5 -4l-4 -19l-9 -33l-8 -32l-5 -24l-10 -34l-8 -34l-8 -33l-6 -29l-6 -28l-5 -29l-5 -28l-5 -33l-6 -30l-4 -26v-13l-7 -40l-7 -15l1 -9l-18 -9l-37 -2l-14 2l-13 -1l-29 1l-11 6l-3 21l1 14l4 12
l2 23l7 43l5 17l4 29l8 34l6 29l5 25l7 23l5 24l7 26l10 37l6 26l8 29l10 28l7 29l9 31l10 32l11 31l8 26l-1 11l-12 3h-85l-25 1l-27 -1l-28 2l-14 6l-3 31l2 21l-3 29l2 15l7 10l40 3l14 -2l10 2l12 -1l20 2l10 -2l13 1h24l25 -1h116l28 -1l9 -9l2 -14zM236 493l2 7l-5 7
h-14l-6 6l-3 -10l8 -9l12 -6zM240 453l-1 7l-10 2l-6 9l-1 6l-9 -5l11 -8l7 -12zM190 273l4 11l-16 8v-8zM201 660l5 6l-11 3l-6 -14zM245 532l-1 10l4 3l6 -1l1 8l-12 -7l-8 4zM42 671l15 3l-3 7l-9 -1zM265 610l15 10l-15 1v-11zM171 662l9 -9l7 9h-16zM224 530l15 -1
l-9 10zM256 636l-11 -1l-4 -13zM213 333l4 6l-9 7zM254 671l-9 -9l11 -7l-6 7zM79 653l4 8l-13 -7zM209 679l-2 -11l8 7zM177 312l6 -8l3 9zM184 634l15 13l-6 -3zM177 323l5 -4l3 4h-8zM140 220l-1 -2l6 -6z" />
    <glyph glyph-name="eight" unicode="8" horiz-adv-x="387" 
d="M362 187l2 -15v-16l-4 -33l-8 -34l-6 -14l-18 -28l-20 -21l-23 -17l-37 -16l-25 -4l-22 -1h-26l-43 8l-25 9l-15 12l-8 3l-19 19l-18 22l-6 12l-10 26l-7 25v13l-2 27v34l1 32l-2 29l4 31l6 27l7 12l15 23l10 9l9 14l-8 15l-20 26l-6 15l-10 33v18l-1 27v52l2 17l3 28
l6 18l4 22l6 8l11 22l15 17l16 11l23 15l13 5l25 8l27 4h26l29 -4l15 -4l34 -14l23 -15l19 -21l16 -25l14 -39l2 -15l2 -32l2 -34l-2 -12l2 -12l-1 -11l-2 -29l-5 -29l-6 -13l-11 -22l-18 -22l-2 -12l9 -11l17 -17l12 -28l10 -31l1 -14l-2 -11l2 -23l-2 -9l2 -28zM239 193
l2 13l-1 13l3 28l-1 15l-7 32l-10 14l-15 10l-18 5l-16 -3l-13 -8l-10 -12l-7 -15l1 -14l-3 -17l2 -15l-1 -32v-31l2 -32l4 -15l7 -14l9 -8l32 -7l16 6l11 7l10 16l3 15l2 35zM145 580l4 -3l-1 -15v-30l1 -25l-3 -10l2 -26l8 -28l8 -9l12 -7l12 -3l16 2l12 4l13 10l7 17
l2 17l-1 31l-1 33l2 15l-2 31l-5 14l-9 12l-12 8l-16 4l-17 -1l-13 -10l-8 -12l-4 -12zM235 385l3 7l-17 5l-10 -3l-8 -13l-13 5l-2 -7l8 -3l3 -7l28 10v13zM207 669h-4l5 -7l3 -11l8 6l-7 10l9 6zM258 315l8 11l-13 4l-3 -11zM263 342l-4 -8l15 1l-4 10zM244 390l-6 2
l9 -10l10 3l-6 6zM297 264l9 7l11 8l-15 -4l-6 -7zM194 359l13 2l-20 9zM274 594v-17l6 6l1 7zM272 272l-3 -9l14 -5zM100 441l7 13l-10 1zM77 446l14 3l-5 8zM96 584v-12l-9 -1l15 -4zM160 348l3 8l-5 5l-3 -7zM275 282l12 7l-11 2zM234 675l-6 -8l14 2zM163 383l15 1l-3 6
zM174 370l1 10l-10 -9zM248 657l-10 2l-5 -7zM104 540l1 8l-9 5zM122 581l-11 4l7 -5l-4 -12zM272 445l-5 2l4 -7l9 2zM311 441l1 7l-8 3zM220 353l1 6l-9 2zM296 245l4 8l-8 -2zM122 505l-10 5v-5h10zM183 366l2 6l-6 6zM131 359l18 -7l-6 5zM266 623l-4 -13l7 13h-3z
M115 314l-1 2l-8 2zM97 213l-4 6l-6 7zM252 352l10 4z" />
    <glyph glyph-name="nine" unicode="9" horiz-adv-x="395" 
d="M368 405l3 -16l1 -16l-1 -34l-1 -37v-32l1 -29l-4 -33l3 -7l1 -25l-1 -26l-4 -26l-5 -29l-6 -13l-10 -12l2 -4l-9 -15l-22 -25l-16 -5l-4 -9l-12 -8l-28 -10l-29 -4l-29 -2l-23 1l-30 3l-33 14l-30 21l-12 13l-17 25l-12 25l-6 28v36l-2 34l3 11l9 9l14 2l30 -1l28 2
l9 -4l10 1l8 -6l5 -23l-2 -13l4 -29l9 -20l8 -10l11 -6l15 -1l16 2l15 7l14 16l3 14l7 9l-4 7v24l1 25v27l-1 28l2 17l-10 20l-18 -8l-7 -7l-15 -5l-26 -5h-27l-27 5l-27 8l-24 18l-19 22l-15 32l-5 29l-2 30v32l4 15l-5 10v15l2 28l-1 24l1 23l5 40l12 38l6 17l8 12l20 23
l22 19l13 7l33 12l30 3l27 1h24l26 -4l24 -10l12 -3l25 -16l15 -14l15 -21l6 -12l13 -37l6 -28l3 -38v-29l-1 -35l-1 -32l2 -19l-3 -16v-15zM246 470l-1 19v49l1 19l-3 27l2 13l-8 3l-13 15l-12 6l-31 4l-3 -7l-19 -12l-7 -17l-4 -17l2 -15l-1 -21l1 -30v-29l1 -33l-1 -33
l7 -15l10 -13l11 -6l16 -4l33 11l16 26l3 28v32zM63 493l-8 -3l5 -21l5 -7l8 -1l-8 9l5 7l12 8l-9 13v-10l-10 -5v10zM110 488l10 -4l-2 8l-10 -2v8l-9 -1v-9l5 -9l-3 6zM60 433l7 5l-2 9l-13 -9l3 -10zM77 532l3 -4l6 -4l9 1l-11 11zM307 330l8 1l-9 6l2 7l-9 -17zM83 507
l-3 -4l5 -14l1 15l8 -1zM311 308l13 -10l-3 12zM97 455l-9 9l-1 4v-15zM96 373l-3 -9l11 -4zM333 580l-10 2l3 -9l12 9zM333 362l-10 3l-2 -9zM146 437l-8 -3l5 -10zM78 348l14 -6l-6 9zM80 564l-1 -10l-6 -4l12 4zM105 149l-8 -8l9 -1zM120 374l-1 10l-7 -8zM121 506l-6 -3
h-5l4 -7zM279 367l8 -2l6 7zM113 50l5 8l-4 7zM286 529l2 8l-9 -5zM89 133l-1 9l-5 -14zM110 605l-9 12v-5zM117 547l1 5l-8 2zM272 212l7 -6l-4 9zM65 548l-5 -6l5 -1v7zM329 455l6 6l-9 -8l-2 -5zM266 493l-1 -2h2z" />
    <glyph glyph-name="colon" unicode=":" horiz-adv-x="188" 
d="M34 361l1 13v53l9 10l15 2h32l36 1l15 -4l9 -8l2 -13l-1 -14l1 -32l1 -30l-4 -27l-8 -8l-15 -2l-15 1h-29l-32 2l-15 5v17zM155 45v-19l-5 -19l-18 -9h-17l-21 4l-15 -3h-33l-8 8l-3 12v31l-1 30l3 18l-3 16l7 18l22 3h30l33 1l15 -4l10 -11l-2 -15l4 -32l-1 -21z
M114 103h-12l8 -5l-2 -15l8 10zM107 389l-4 -5l7 -12l-4 -6l8 9zM89 57l11 -1l-12 11zM88 381l-11 -3l18 -3zM69 395l-3 -9l5 -8z" />
    <glyph glyph-name="semicolon" unicode=";" horiz-adv-x="188" 
d="M152 86v-37l-2 -31l-7 -37l-6 -22l-7 -7l-1 -14l-8 -14l-18 -25l-12 -7l-30 -3l-10 5h-10l-7 6l6 16l7 9l12 23l13 31l2 12l-11 7l-16 1l-10 11l-2 15l-1 32l1 31l1 30l7 12l16 4h60l29 -3l6 -32zM71 304l-13 -3l-15 2l-12 6v28l-1 28v31l2 32l10 9l14 2h30l28 -1l25 -3
l5 -12l3 -18l-6 -14l6 -11l2 -33l-2 -29l-6 -12l-14 -4h-27zM89 38l12 -2l4 2l-9 3l-27 7l9 -8zM95 87l-14 -1l8 -14v8zM107 63l-8 -5l15 3l2 8zM103 6l6 6l-9 8zM113 75l-11 3l11 -8v5zM106 396l-4 -1l9 -8zM58 397l2 -1l8 2z" />
    <glyph glyph-name="less" unicode="&#x3c;" horiz-adv-x="558" 
d="M510 181l2 -9l-3 -18l3 -14l-6 -18l-14 -2l-31 13l-26 12l-27 11l-25 13l-8 -1l-3 8l-17 4l-22 9l-28 12l-26 12l-21 8l-28 14l-25 10l-25 11l-26 12l-31 13l-23 12l-14 4l-31 16l-9 13l-1 27l1 28l2 21l8 8l11 6l26 11l25 13l15 4l29 14l50 22l20 8l26 14l9 2l18 9
l32 12l29 14l25 10l32 16l26 10l29 14l34 14l18 -4l1 -33l1 -32l-3 -30l-21 -20l-24 -9l-27 -12l-33 -8l-5 -8l-18 -8l-29 -12l-26 -13l-13 -4l-18 -7l-25 -11l-23 -11l-27 -11l-4 -16l21 -9l25 -12l26 -10l27 -12l14 -3l30 -15l21 -10l28 -13l37 -15l31 -13l27 -14l8 -10
l-1 -14l2 -14zM367 489l-10 5l7 -5l-8 -5l8 -4l11 1l8 8h-16zM396 220l-5 12l-4 -4l-8 -12l8 5zM451 191l8 2l-2 6l-10 2zM250 430l-4 1l-8 -7l7 -5zM192 307l3 9l-2 8l-5 -12zM102 383l12 -2l4 -9l-4 15zM315 481l-12 4l5 -5v-8zM239 438l-12 -9l9 3h8zM131 394l-8 -2l6 -6
zM205 309l8 -6v7zM412 221l-4 4l1 -13zM132 388l-2 -2l8 1zM303 240l-3 3v-3h3zM188 265l-2 3v-3h2zM429 200l3 2h-3v-2zM94 335l2 2h-2v-2z" />
    <glyph glyph-name="equal" unicode="=" horiz-adv-x="558" 
d="M511 282v-60l-10 -13l-14 -2l-15 1h-103l-8 -2l-11 2h-31l-33 -1l-33 1h-27l-28 -1l-27 2l-12 -2l-11 3l-15 -3l-33 2l-33 -2l-15 5l-7 18l2 9l-2 12l2 24l-1 28l9 12h58l12 2l12 -1l24 -1l27 1l20 -1h25l23 1l6 -2l17 2l25 -1l29 -3l21 4l20 -1l23 -2l20 3l14 -1l27 1
l11 -3l17 2l13 -2l10 -7l3 -11zM45 449l1 12v27l2 13l8 8l13 4h16l32 -3h29l25 1l23 -2l27 2h27l26 1l33 -2l33 1l17 -2l32 1l35 1l35 -2l13 2l35 -4l4 -11l-1 -12l2 -41l-2 -13l1 -12l-6 -11l-12 -4l-31 -1l-12 2h-26l-27 1l-28 -3l-14 1h-26l-12 2l-26 -1h-18l-28 -2
l-26 2l-28 -1l-24 1l-27 -1h-23l-20 3l-11 -3l-33 4l-6 14zM247 473h-6l3 -9l-9 -2l-12 4l8 -9l13 -2l13 10l11 -2l-6 -13l-5 11l-4 -20l11 -7l12 -1l-2 11l5 5l-5 19l6 13l-24 -8l-9 -7v7zM410 477l-12 -4l11 -9l-1 -17l12 -1l-3 10l12 -8l4 10l-2 14l-12 -4zM205 460
l-7 -10l-6 -5l2 11l-7 -9l5 -13l21 24zM278 262l9 -7l11 2l-11 10l-9 3v-8zM425 257l-4 15l-7 -17zM337 473v-4l8 -4l7 6zM292 471l-5 -15l11 -3l-6 9v9zM377 235l7 12l-13 -6zM388 467l-12 1l2 -9zM156 457l-8 4l4 -14zM288 443l10 1l-9 8zM162 471l5 -7l6 8zM339 461
l8 -10l7 -11l-5 13zM400 449v8l-8 -2zM188 467l-7 -3l15 -2zM132 475l-1 -6l8 -3zM319 462l-9 -11l12 11h-3zM131 226l-3 3v-3h3zM397 442l-2 3v-3h2z" />
    <glyph glyph-name="greater" unicode="&#x3e;" horiz-adv-x="558" 
d="M53 218l15 18l26 10l29 12l14 8l16 5l31 14l24 11l26 11l27 13l27 10l23 11l23 10l15 12l-16 10l-28 10l-32 16l-24 10l-32 13l-25 13l-28 10l-9 6l-11 3l-24 10l-32 14l-32 16l-8 12l-1 29v52l4 13l19 1l26 -11l25 -11l31 -16l32 -12l23 -10l22 -10l29 -11l29 -15l12 -3
l31 -16l22 -9l22 -8l9 -7l22 -9l25 -12l25 -9l30 -14l21 -12l7 -14l-1 -17l-1 -16l-1 -33l-9 -14l-12 -6l-25 -11l-25 -13l-25 -9l-25 -11l-27 -13l-28 -11l-27 -12l-22 -10l-26 -13l-26 -10l-29 -12l-25 -14l-29 -11l-8 1l-25 -15l-28 -13l-25 -9l-11 1l-6 18v16l-1 31
l3 13l-2 12zM395 389l10 2l14 -8l6 6l-7 7l-12 3l-9 -1zM207 472h9l-4 10l-11 2zM411 360l10 10h5l-6 12zM464 365h11l-18 2l2 -11l7 -2zM218 486l2 -12l7 9l-2 6zM331 436l-11 3l-3 -9l3 -7l2 10zM127 201l7 13l-13 -5zM436 354l-13 8l4 -8l-6 -5zM360 325l2 -7l-6 -10
l13 17h-9zM375 408l-8 -6l12 2zM344 293l7 -1l-4 8zM82 536l15 -2l-5 4zM413 325l-5 2l-8 -5zM284 275l6 9l-11 -12zM102 512l-1 12l-2 -3zM422 311l-3 3v-3h3z" />
    <glyph glyph-name="question" unicode="?" horiz-adv-x="342" 
d="M321 627l4 -15l2 -31l-2 -32l-6 -34l-14 -38l-11 -8l9 4l-12 -22l-18 -35l-15 -23l-19 -28l-14 -24l-11 -27l-7 -23l-4 -24l-4 -13l-1 -36l-7 -15l-12 -3h-45l-22 1l-11 12l-1 18l1 30l3 8l-1 12l2 11l4 28l7 27l8 26l10 24l10 22l16 29l16 30l12 26l4 15l7 25l6 25
l-5 30l-10 16l-12 7h-15l-13 -4l-10 -8l-7 -11l-4 -12l-8 -10l4 -12v-14l-1 -33l-6 -13l-15 -5h-69l-14 5l-5 13v56l5 10l-4 9l4 20l11 36l8 12l5 13l24 24l25 18l26 11l34 7h32l33 -4l28 -11l29 -19l20 -22l16 -24zM206 53l1 -15l-2 -29l-8 -8l-11 -3h-38l-8 7l-4 -6
l-18 -2l-18 1l-9 11l-2 15l3 13l-3 30l2 31l-1 15l4 11l15 4l14 1l28 -1l31 2l20 -5l4 -13l-2 -20l2 -15v-24zM180 332l-6 2l-11 6l5 -17l-16 -4l10 -2l13 3zM146 231l8 9l-9 12l-8 1v-13l8 3zM199 672l7 -3l2 15l-8 -1zM177 669l7 10l2 11l-7 -12l-11 -4zM150 70l6 -3l9 10
l3 8zM166 60l-2 2l-8 -9l4 -12zM286 591l2 -22h5l-2 12zM243 534l12 2l-15 9zM132 295l9 -12l8 -2l-7 9zM253 457l1 12l-10 -3zM231 471l3 13l-8 -3zM143 44v5l-18 -6zM249 514l-2 -11l8 1zM163 278l4 -4l5 14zM143 294l13 8l-13 -3v-5zM158 687l10 -12l-6 12h-4zM241 655
l5 -5l11 -2zM272 524l-1 9l-4 -3zM123 67v-6h6zM239 426l-3 3v-3h3zM127 625l-3 2l-1 -2h4z" />
    <glyph glyph-name="at" unicode="@" horiz-adv-x="638" 
d="M611 367l-1 -13v-14l-2 -27l-8 -33l-1 -11l-5 -11l-15 -34l-10 -20l-10 -10l-17 -20l-22 -18l-11 -5l-31 -14l-13 -2l-32 -3l-10 3h-12l-20 7l-14 11l-12 13l-8 16l-15 2l-16 -9l-3 -7l-10 -8l-24 -8l-31 -4l-15 1l-15 5l-15 8l-10 10l-19 22l-10 33l-3 31l4 28l7 32
l13 32l8 10l8 20l14 9v9l7 10l23 21l10 7l27 14l27 5l29 -3l23 -7l8 -9l11 -4l14 15h20l11 3l29 -2l13 -3l6 -12l-7 -18l-7 -27l-13 -29v-15l-5 -14l-10 -35l-9 -30l-10 -28l5 -25l11 -9l30 -2l12 8l22 12l4 13l16 22l4 14l6 29l6 41l-3 13l1 13l4 12l-4 7l-14 41l-12 26
l-20 29l-15 13l-19 17l-30 18l-30 13l-19 5l-14 1l-27 1h-23l-13 -3l-33 -9l-23 -10l-28 -16l-33 -24l-5 -8l-21 -26l-19 -31l-11 -22l-2 -13l-6 -12l-6 -23l-4 -25l-1 -29l1 -30l4 -30l10 -29l12 -29l17 -27l16 -23l19 -19l23 -19l12 -14l15 -6l9 1l18 -6l34 -8l30 -3l32 2
l15 -1l9 4l24 7l29 11l26 16l13 11l12 -1l8 -8l25 -30l-3 -17l-29 -22l-27 -16l-20 -7l-38 -13l-17 -2l-34 -5h-29l-27 2l-25 3l-24 7l-12 1l-20 9l-11 2l-27 16l-31 20l-25 21l-9 12l-2 14l-5 -8l-11 9l-6 10l-14 21l-12 24l-9 13l-9 23l-5 24l-5 10l-1 12l-5 25l1 14
l-3 10l1 13l-1 27l3 29l4 27l9 23l1 10l10 26l10 22l20 34l22 27l17 21l18 12l4 6l28 20l19 12l12 3l17 10l20 7l21 6l34 7l9 -1l13 2h27l31 -3l23 -4l36 -9l12 -6l25 -12l22 -13l21 -15l6 -8l20 -18l17 -21l14 -23l11 -22l13 -24l1 -12l9 -38zM368 359l-2 15l-7 14l-15 5
l-14 -3l-14 -6l-22 -21l-14 -25l-12 -26l-4 -26l-8 -13l6 -36l7 -13l10 -9l29 2l7 7l7 -1l11 26l10 24l10 36l7 17zM200 271l2 -21l5 4l-4 15l11 -8l2 10h-16zM215 180l7 1l-3 3v9l-10 -10zM88 185v9l-7 -11l-4 1l6 -6zM160 119l-13 4l3 -9zM408 183l8 -10l-1 14zM229 174
l-7 7l-4 -10zM77 267l-11 -2l11 -6v8zM234 218l-6 4l-8 -7zM228 208l-9 -1l13 -1l1 6zM162 76l-7 7l-3 -2zM490 197v5l-6 1zM480 163l9 1l-9 2v-3zM513 484l-1 3l-2 -3h3z" />
    <glyph glyph-name="A" unicode="A" 
d="M409 28l1 -12v-11l-7 -5l-18 -2l-28 1l-14 8l-7 -8h-42l-11 7l-5 12l-3 23l-1 22l-4 10l-2 19l1 9l-2 7l-4 23l-8 16l-19 -2l-37 2l-30 -2l-12 -6l-4 -27l-5 -24l-4 -27l-2 -24l-6 -25l-6 -9l-14 -4h-63l-26 -1l-11 6l-4 21l4 10l1 16l6 30l6 33l4 26l6 28l1 16l5 26
l6 23l4 36l4 17l4 28l4 10v9l3 23l11 10l-9 1l4 19l6 19l-1 13l3 13l5 29l5 30l5 25l2 11l4 18l1 12l7 33l4 27l5 34l5 28l5 14l-2 6l3 10l10 7l4 8l18 -1l29 1l25 -4l6 7l19 -3l17 1l17 -2l10 -11l7 -31l4 -29l5 -31l5 -25l4 -32l8 -23l2 -24l4 -23l-5 -10l6 -8l-1 -6l6 -7
l2 -16l-4 -4l7 -7l1 -16l5 -15l3 -21l-10 -7l13 -5l2 -20l7 -34l4 -27l5 -36l6 -23v-12l7 -23l3 -26l6 -38l7 -37l4 -28l5 -30zM213 261h15l13 7l1 13l-3 27l-6 26l-4 28l-5 24l-4 31v16l-5 19l-7 17l-12 -43l2 -10l-2 -13l-4 -32l-5 -27l-5 -31l-3 -30l3 -20l15 -3z
M255 469l8 2l7 -7l4 7l-7 7l-13 3l8 8l8 -6l9 3l8 7l-16 7l-10 -4l-9 14l7 -14l-12 -1l6 -5l-1 -12zM293 271l12 1l8 -8l-3 10h-11l6 6l-2 18h-19l6 -2l3 -13v-12zM259 548l-6 3l2 -14l7 2l7 -2l-1 11h-9zM142 453l8 -2l4 15l-18 -8zM286 486l-7 -1l4 -12l11 -1zM135 306
l13 8l-10 4l-8 -12l10 -6zM69 231l1 3l-1 10l-6 -31l-10 2l6 -8l8 10zM246 198l-3 7l-12 2l10 -13zM274 388l16 5l-9 8zM304 152l6 -1l2 12l-14 -7zM156 487l-9 -12h13zM284 414l8 -7h3l-2 11zM172 621l-8 5l-6 -11zM135 362l14 4l2 6l-2 3l-5 -7zM297 338v-10l6 7l-10 14z
M299 435l-10 -4l7 -8zM268 454l2 -6l8 1l-1 6zM151 358l8 5l-7 8zM315 305l-12 -6l9 -4zM79 197l9 2l-5 10zM295 446l-4 7l4 9l-10 -13zM146 549l2 10l-10 -4zM270 607v10l-9 -9zM172 647l-5 -5l12 -6zM311 254l10 -7v9zM194 591l-2 -7l15 8zM277 532l-7 -9l5 -6zM121 307
l2 7l14 10l-13 -4zM326 107l-2 12l-7 3zM147 287v7l-10 -6zM163 502l11 -3l-10 9zM295 397l-2 -9l8 4zM135 341l8 -6l1 7zM119 287l15 -2l-15 6v-4zM266 409l2 10l-7 -13zM294 233l5 -7l3 4zM136 398l3 -4l6 4h-9zM304 224l6 -1v6zM272 417l4 7l3 14zM327 143l-3 4v-4h3z
M111 337l-3 2v-2h3zM158 538l-3 2v-2h3zM167 434l-3 2v-2h3zM119 191l-2 2v-2h2zM295 213l2 2h-2v-2z" />
    <glyph glyph-name="B" unicode="B" horiz-adv-x="428" 
d="M411 229v-13l1 -14v-35l-2 -25l-7 -36l-10 -27l-7 -11l-19 -24l-22 -19l-25 -13l-21 -7l-24 -4l-26 -1l-37 -1h-35l-31 -1l-23 2l-28 -1h-36l-13 14l-2 29v25l1 34v31l6 2l2 9h-8l-3 10l4 7l-2 27v27l2 20l-2 14v52l-1 28l3 38l-3 30l2 14v31l-1 30l1 30l7 -2l-6 4l-2 11
l2 31l-2 14v34l1 29v29l-1 28l4 37l15 7l14 1l22 -2l37 2l20 -3l11 2h23l29 2l28 -2l29 -2l25 -6l26 -12l9 -8l9 -4l15 -11l24 -33l14 -37l-2 -10l3 -7l4 -36l1 -38l-1 -37l-5 -34l-15 -32l-18 -24l-11 -10l-1 -16l16 -13l14 -16l16 -29l4 -18l3 -4v-11l4 -11l3 -24z
M283 210l8 6l-10 -4v15l-1 25l-5 13l-3 25l-27 21l-14 4l-32 2l-16 -5l-6 -16v-15l1 -29l-1 -29v-29l1 -28l-1 -29l2 -16l10 -9l31 1l15 -4l9 7l12 3l12 11l6 15l7 34l-1 8l6 3zM171 453l7 2l-1 -13l4 -17l35 -1l24 4l17 12l12 22l3 11v13l2 30l-3 31l-7 30l-17 26l-25 4
l-15 6l-8 -4l-14 1l-8 -3l-2 -10l3 -14l-3 -32l2 -12l2 -33l-2 -36l-8 -3zM121 659l-11 -3l18 -5l8 6l2 7l-2 10v-10l-12 -5h-3zM71 242l2 -9h12l9 4zM272 356l-4 -15l8 5l5 11zM109 217l15 5l3 3l-20 -5l-7 -11l7 2zM133 637l3 10h-9l-5 -6zM352 388l-2 13l-9 3v-7l8 3
l-6 -5zM150 617l-13 -1l11 -12zM87 200l9 -4l8 11l-9 -9l-4 16zM120 555l-7 13l-7 -10zM134 430l-11 -13l9 -4zM168 675h-7l2 -10l9 2zM362 491l5 2l-16 7l7 -13zM305 439l2 -10l13 5zM137 393l8 9l-12 -3l-5 -6h9zM103 346l6 4l-2 6l-13 -9zM260 355l-12 2l-1 -11zM327 412
l5 -5l10 8l-8 1zM338 450l-17 6l7 -10zM323 150l10 1l-6 6l-7 3zM314 548l-3 -8h14zM190 638l-12 -6l12 -3v9zM217 393l-3 -11l10 6zM293 410l5 13l-9 -6zM116 430l-10 2l12 -11zM318 468l10 5l-9 4zM120 706l-1 -9l9 9h-8zM117 247l-7 -5l8 -4zM352 447l-5 8l1 -15z
M344 193l3 12l-7 -7zM152 681l-7 1l11 -10zM335 524l1 -9h6zM99 392l-11 -4l3 -4zM91 113l6 1l-8 7zM84 560l-2 3l1 -8l8 3zM77 259h-5l8 -9zM112 639l-3 -6l12 15zM118 294l6 3l-7 -2zM190 377l-2 2v-2h2z" />
    <glyph glyph-name="C" unicode="C" horiz-adv-x="416" 
d="M262 471l1 8l-2 26v32l-1 31l-12 28l-11 15l-19 4h-14l1 11l-2 10l-8 1l5 -22l-23 -12l-13 -17l-5 -16l1 -13l-2 -11l1 -22v-25l2 -21l-2 -8l1 -17l-1 -30l1 -29v-23l-1 -27v-120l-2 -25l2 -14l2 -27l4 -25l8 -10l10 -8l11 -5l30 -4l24 14l7 15l6 23l-1 21l2 22l-2 24
l2 9l-1 10v23l8 18l13 3h41l29 1l12 -3l9 1l13 -6l2 -6l2 -37l1 -28v-59l-2 -14l-5 -25l-8 -25l-9 -23l-18 -20l-20 -20l-25 -17l-31 -13l-35 -4l-22 -2h-25l-27 5l-29 6l-15 6l-11 9l-11 5l-20 17l-15 16l-5 20l-5 2l-11 12l-1 18l-13 21l-1 25l1 27l-3 12l-1 32l2 15
l-2 17l2 17l-1 13v100l4 11l-5 12l6 14h-3l-2 19v80l1 27l-2 10l6 19l-2 14l12 42l16 31l14 16l24 22l9 4l14 11l26 9l27 7l21 1l11 3l26 -1l26 -2l25 -6l27 -13l26 -19l25 -25l11 -15l3 -14l6 -13l10 -30l3 -32v-33l3 -20l-3 -29l2 -21l-10 -18h-15l-29 -1l-30 -1l-29 1
l-15 10zM64 484l-5 -9l1 -7l5 6l9 -7l-3 10l9 4l4 10l-14 15l10 7l-9 14l3 -8l-8 -7l1 -23l4 10l11 -10l-7 -4zM110 443l-9 2l7 -4l3 -6l-6 -7l10 -15l7 5l10 3l-15 11l5 13zM77 378l7 -2l-2 10l7 1l-9 14l9 13l-15 -9l5 -7l-8 -13l11 1zM109 292h10l-6 7l-12 7l-9 -1l5 -5
l3 -11zM73 224l7 -10l9 8l-6 13l-11 -8l-10 3zM90 520l-6 -14l10 -11l3 23zM125 102l7 3l2 -3l6 17l-8 -8l-13 10zM103 103l7 3l-4 -13l14 2l-12 21zM58 412l-9 7l-6 -11l3 -11zM47 159l5 -4l5 -13l5 5l-10 19l-13 -6zM130 603l2 10l-11 6l-3 -13zM66 125l22 5l-1 7l-8 1z
M97 79h4l-5 5l5 7l-17 -5l9 -2l-5 -9zM164 76l1 -8l14 -11l-5 12zM73 459l-19 -7l23 4l10 -3l-5 7zM105 615l8 3l-4 6l-11 -8l1 -6zM188 50l1 -4l11 -1l2 8zM73 308l13 8l-6 2l-10 -6zM108 136l7 11h-10l-6 5l7 -8zM77 546l12 -1l-12 11v-10zM102 480l-21 -4l9 -4zM68 432
l8 7l-10 6zM49 472l-5 -8l13 10l-6 6zM78 450l8 -9h12zM82 201l3 -8l11 4zM68 208l-11 3l7 -11zM110 52l8 4l-9 7zM273 476l-6 -10l12 5zM109 227l6 3l-17 -4l8 -5zM120 166l12 -10l-3 9zM159 48l-10 15l5 -15h5zM125 549l-8 -1l11 -3l6 5zM270 105l-3 -8h9zM313 536l10 -5
l-4 9zM98 178l9 4l-6 5zM91 188l-1 -10l-1 -17l3 13zM72 140l-10 7v-6zM184 34l-7 -10l-2 -11zM62 282l6 -4l2 -8l5 4zM63 568l-1 -6l7 -5zM223 624h5l-10 9zM205 69l-2 -5l6 -6zM314 631l-3 -1l7 -10zM114 216l10 -4l-7 4h-3zM105 406l5 -1l-17 5zM341 189l2 1l-2 2v-3z
M63 118l-2 2v-2h2z" />
    <glyph glyph-name="D" unicode="D" horiz-adv-x="440" 
d="M415 238l1 -22l-2 -23l-1 -29l-4 -30l-7 -26l-12 -28l-16 -25l-16 -15l-19 -14l-26 -14l-26 -9l-23 -3l-25 -2l-26 1l-27 1l-15 -2l-28 2l-21 -1h-59l-12 3l-4 9l4 11l-2 14l-5 11l2 11l-1 17l2 40l-2 23v26l14 15l-13 6l1 22l-2 22l2 13l-2 12l4 21l-3 16v132l2 17
l-3 31v114l1 29l1 31l-2 33l2 12l-2 21l6 9l35 5h20l12 -2h26l27 1l36 -2l32 2l13 -2l42 -7l18 -8l16 -5l14 -9l6 -9l13 -6l9 -9l-5 -14l10 7l12 -16l12 -25l8 -25l4 -24v-13l3 -34v-32l-6 -8l-12 2l18 -5l1 -19v-52l-8 -11l6 -13l2 -10l-2 -29l2 -36l-2 -10l2 -9l-1 -24z
M281 486l4 19l-5 11l4 15l-3 14v15l-5 13l-7 18l-10 9l-10 1l-37 8l-14 -1l-19 -5v-34l-1 -38v-24l1 -24l-2 -19l2 -19l-2 -33l2 -30l-2 -25l1 -24l-1 -30l1 -34v-34l-1 -30l2 -32l-2 -34l4 -21l19 -5l13 1l27 3l13 5l19 15l6 22l3 24v53l2 23l-2 12l2 10l-2 10l-1 25l3 13
l-3 32l1 27v36l1 28l1 25zM224 665l4 -8l20 -8l5 -15l12 5l-1 6l-11 2l11 7l-13 7h-9l-3 7zM379 484l-17 9l-21 -3l6 -11l10 -1l12 6h10zM344 618l-11 6l2 -8l9 -3l11 -11l12 -2l-12 17l6 4zM360 570l-9 -12l-11 -2l8 -3l-12 -10l18 6l-4 -5l3 -4l18 -9l-10 9l-4 13l-4 3z
M353 443l7 -12l8 9l-1 10l-12 12l-13 4l-8 7l21 -19l7 -9l-2 -7zM382 532l-4 15l-13 -4l7 1l5 -7v-10l-10 2l-3 -7l2 -8l11 6zM321 412l4 12l-1 12l-9 -1l1 -17l4 -14zM367 507l-4 9l-12 1l-3 -6l7 -8zM338 449l-5 4l-10 -13l12 -9zM332 494l12 4l-9 -2l-9 10l-8 5l5 -12
l-3 -8l5 -1zM335 596l-3 -6l7 -3l3 10l7 7l-9 3zM311 659l-9 10v-16l17 3l-4 7zM349 400l9 8l-6 14l3 -8l-13 8l5 -8zM322 625l-7 -3l-10 4l17 -13l5 9zM312 484l6 12l-4 9l-6 -13zM321 465l6 9l-4 8l-7 -7zM331 583l-18 -1l5 -10zM244 680l3 -5v-9l11 17l-10 -5l1 8z
M105 598l-7 -4l-11 -5h16zM345 539l7 -17l4 9zM321 531l-7 -6l17 -4zM97 174l12 -7l-4 10zM136 601l-15 2l8 -7zM348 589l8 6l-8 4v-10zM327 566l-1 -17l-5 -6l9 8zM359 372l7 -2l1 11zM398 320v8l-9 -8h9zM368 576l2 -8l-2 -10l6 9zM90 609l-7 -4l14 -2zM375 444v-8l8 3z
M148 70l7 11l1 10zM190 688l4 -3l8 8zM381 370l-2 -3l13 -5zM60 22l-4 10l-4 -1zM379 308l-3 4v-4h3z" />
    <glyph glyph-name="E" unicode="E" horiz-adv-x="392" 
d="M371 41v-21l-2 -12l-8 -8l-30 -2l-14 2h-27l-22 -2l-22 3l-15 -3l-12 1l-27 -1l-32 2l-28 -1l-22 1h-49l-11 5l-5 18l-1 13l1 35l-2 14l1 29l-1 30l2 23v28l-2 31v28l2 26l-3 8l2 34v59l2 19l-3 15l2 23l-2 31l2 26l-1 28l-2 22l2 11l-2 12l2 13l-1 12l1 25v58l2 22
l-2 12l7 10l26 5l7 -3l13 2l11 -2l17 2h116l27 -1l37 -1l37 2l6 -6l9 2l7 -19l-2 -11l3 -8l-1 -16l-1 -26l-3 -27l-14 -8l-18 1l-27 1l-9 -2l-17 3l-6 -2h-37l-28 2l-16 -2l-9 -5l-4 -13l2 -29l-2 -8l1 -9l-2 -11l2 -12v-28l1 -26l-2 -19l8 -14l12 -2l13 1l30 2l11 -2l25 -1
l26 1l10 -6l4 -13l-2 -13l3 -13l-1 -29l-1 -27l-6 -10l-14 -4l-16 1l-37 -2l-18 3l-39 -3l-7 -18v-25l-6 -2l7 -8l-2 -14l2 -14l-1 -13l1 -26l-3 -21l2 -23l4 -29l14 -4h63l8 2l8 -1l26 -1l26 2l24 -2l19 -6l2 -10l2 -32zM144 397l-9 -1l-4 8l9 -1l-13 2l-7 -7h7l7 -8l10 -6
l7 -1l-3 9l9 -1l3 9l-15 5zM158 629l-1 11l-8 -4l-1 -8l-10 -3l3 -8l8 5l1 -7l9 -2l-7 7zM110 334l7 -6l-3 -9h9l-2 11l2 12zM78 563l-5 -10l6 -14l13 1l-14 11v12zM74 498l2 -3l10 14l-7 -4l2 10l-12 -8zM99 302l6 2v10l-9 6l-2 -6zM155 343l6 10l-8 10l1 -6l-3 -8h-8z
M146 323l5 6l-14 -7l-1 9l-8 -6l13 -6l2 -6zM131 469l-2 -6l9 -8l2 16zM106 577l9 -6l7 4l-5 5l-2 5zM101 535l2 -11l16 11h-18zM106 440l-2 -13l7 2l6 6l1 5l-5 -4zM138 506l-14 15l-4 -12l8 1zM78 413l-2 -7l13 4l-2 8zM97 153l8 11l-12 3zM136 647l-5 3l11 -9l7 8l-8 -1
l-4 9zM69 392l10 -6v15zM173 93l-8 7l-13 1l5 -5zM153 57l-2 6l3 7l-4 5l-4 -13zM90 261l-8 -9l7 -9zM104 622l-5 6l6 -15l-4 -7l11 15zM87 518l2 10l-9 6zM72 357l-10 5l3 -11zM121 108l5 -8l6 9zM97 493l-3 10l-5 5l1 -9zM331 38l7 -1l-7 14v-13zM85 334l-2 -12l8 3z
M195 396l4 -12l5 7zM133 341l8 7l-8 4v-11zM117 615l-3 -6l8 -12zM96 403l6 -13l-2 11l4 7zM134 250l6 3l-10 3l-1 -5zM106 248l13 -3l-6 6zM130 89l3 6l-9 2zM132 607l4 8l-7 1zM121 631l-3 -5l9 -3zM217 373l7 -5l5 11l-7 -9zM119 490l-6 -2l-4 -6zM142 515h-5l8 -4z
M228 331l-3 3v-3h3zM354 658l-3 3v-3h3zM76 519l-3 2v-2h3z" />
    <glyph glyph-name="F" unicode="F" horiz-adv-x="397" 
d="M369 638v-14l-4 -12l-10 -6l-10 4l-4 -5l-20 1h-64l-31 1l-36 -1l-9 -8l-2 -16v-58l1 -26l-2 -20l2 -25l-2 -12l2 -12l-3 -8l6 6l14 1l31 -1h54l34 -4l5 -10l2 -25l-2 -12v-23l-2 -35l-11 -7l-12 -1l-31 4l-36 -4l-28 6l-11 -2l-11 -13v-47l2 -27l-2 -12l2 -10l-2 -26
l-1 -25l3 -12l-2 -17l-1 -24l2 -32l-1 -32l-2 -29l-10 -8l-12 -1h-92l-10 4l-5 11l-1 28v25l-2 35l2 12l-2 23v29l1 31v116l-1 31l3 11l-2 13v33l2 27l4 1l-5 13l1 12l-3 15l2 14l1 22l-2 30l-1 32l2 32l3 9l-4 18l1 34l-2 27l5 30l16 6l12 -1l37 3l21 -1l30 -1h94l9 -11
l6 11h48l33 -1l13 -9v-15l2 -37zM196 392l3 -11l17 -9v11l12 4l-6 5l-13 -10zM96 504l-8 2l13 -11l10 13l-12 6zM130 616l1 -8l14 4l-5 5l5 6zM122 666l-2 -12l10 11l8 -9l-7 15zM85 459l1 6l-7 -9l8 -2l9 1l-3 7zM280 353l5 3l-10 4l-5 -18zM159 367l-2 10l-3 10l-3 -20h8z
M95 300l5 6l-13 3v-4zM118 647l-9 5l-4 -10zM107 626l-10 2l5 -12zM137 509l8 6l-7 7zM107 460l5 9l-9 3zM191 347h7l-4 13zM120 567l-5 9l-5 -9h10zM84 267l11 2l-11 6v-8zM281 367l-12 -1v-7zM186 386l-5 -10l7 -2zM83 328l-2 -6l14 3zM68 571l-5 -6l10 -3zM52 661l9 -1
l1 8zM99 537l3 11l-8 -5zM145 594l9 4l-7 5zM82 523l8 13l-8 -5v-8zM81 370l1 -8l7 6zM144 648l5 3l-12 -1l-8 4l9 -6h6zM163 654l-4 11l-4 -1zM133 416l16 8l-10 -2zM80 657l-11 -9l10 7l7 -10zM135 673l-3 -2l11 -1zM177 398l-1 -2l7 -5zM93 400l-3 2v-2h3zM88 511l3 2h-3
v-2z" />
    <glyph glyph-name="G" unicode="G" horiz-adv-x="439" 
d="M393 77l1 -15v-41l-7 -20l-25 -2h-28l-12 13l-6 16l-14 2l-10 -10l-25 -17l-30 -11l-31 -4h-32l-41 8l-11 6l-21 9l-21 17l-17 19l-15 23l-12 25v7l-5 9l2 8l-6 20v12l-1 19l-1 24l-1 29l1 30l2 16l-3 20l2 33l1 27l-2 14l1 29l-2 15l3 9l-2 17l6 17l-6 14l1 26l-1 26v59
l5 29l10 27l14 28l10 12l21 23l13 9l29 18l17 4l35 8l31 1l33 -2l33 -8l13 -6l19 -10l17 -13l18 -16l13 -18l15 -28l7 -28l5 -13l1 -13l4 -33l-1 -24l2 -24l-4 -28l-9 -9h-39l-34 -1l-24 3l-8 -3l-11 11l-2 36l-2 39l-2 23l-8 23l-8 10l-10 8l-15 5h-15l-14 -6l-12 -10
l-8 -13l-6 -27v-35l1 -23l-2 -40v-34l2 -11l-1 -33l-1 -29l-10 -3l11 -6v-118l-9 -10l9 -9l-4 -16l3 -19l6 -32l5 -12l9 -10l14 -9l16 -2l26 4l13 7l9 11l9 25l2 25l-2 13l4 26l-2 8l-1 29l-9 7l-20 2h-28l-12 16l-1 14l2 24l-2 26l2 14l13 13l11 -2l13 1l26 1h28l29 -2
l13 2l13 -1h34l12 -5l4 -12l1 -14l-2 -9l2 -12v-49l-1 -27l1 -40v-51l-2 -28v-27l3 -10zM114 122l12 5l-7 7l11 1l5 9l-16 -2l-8 -17l-7 1l-5 -8zM44 362l11 -5l7 -15v-8l5 6l2 8l16 2l-8 6l-11 -3l-8 7zM162 40l9 4l-7 10l-7 -13l-7 -2l-11 8l6 -12l12 -6zM74 152l1 -7h-7
l7 -11l7 4l-1 6l2 24l-5 -6l-3 -3zM90 76l10 -3l14 7l-8 7l-24 -9zM73 98l2 8l12 3l-4 8l-11 6l2 -14l-11 -5zM114 53l4 -1l2 14l-11 -4l-9 1l4 -12l11 -6l-8 8h7zM150 85l-6 -17l-6 -7l15 2zM194 35l1 -8l11 3l10 10zM90 175l14 -4l-3 7l-9 4l-9 -12zM212 60l-9 -7l8 -2
l14 8zM70 287l7 7l-5 7l-9 -10zM72 245l14 -5l7 2l-6 9l-5 -5zM103 277l-9 11l-7 -6l5 -5h11zM132 104l4 6l-8 -5l-3 -23l7 14v8zM240 24l6 11l-2 6l-6 -8zM62 305l-2 -7l12 8l-6 5zM91 337l-1 -15l8 1zM120 48l13 3l-3 11l-4 -11zM77 400l-11 -5l6 -6zM101 106l3 -12l12 7
l-9 -2zM119 157l7 2l-8 9zM97 138l7 4l5 1l-12 2v-7zM61 229l8 -1l-1 8zM62 152l-2 -8l4 10l-7 5zM107 262l-5 -2l7 -2zM62 111h3l-5 8z" />
    <glyph glyph-name="H" unicode="H" horiz-adv-x="465" 
d="M419 95l1 -22l-1 -33v-25l-4 -11l-10 -5l-12 1l-10 -2l-3 5l-14 -5l-30 1l-27 1l-16 4l-5 19l-1 28v32l2 35l-1 26v117l-1 25l-6 18h-24l-27 2l-11 -2l-13 2l-14 -1l-12 -4l-4 -21l3 -29l-2 -27v-31l1 -31v-124l-3 -29l-7 -8l-13 -2l-29 -1l-27 2l-21 -2l-15 1l-12 5
l-5 12l-2 30l1 25l2 21l-2 13l2 29l-1 14l-1 28l-1 24l3 24l-2 16l1 35v57l-1 20l1 33l1 29l-2 25l1 11l-2 15l1 32l-1 31l2 13l-1 14v25l1 25l-1 26l2 24l-2 13l2 18l-2 14l2 14l11 9h23l33 1h42l14 -4l9 -11l-3 -15l2 -28l-1 -29l2 -29l-2 -10l2 -14l-1 -13l-2 -27l3 -12
l-4 -9l3 -9l-3 -22l4 -21l-2 -28l2 -13l11 -5h32l5 -7l15 -1l-6 9h12l23 -2l12 3l6 19l-1 14l3 12l-3 12l-1 23l3 13l1 41l-4 11l2 49l-2 18l1 26l2 24l6 9l-8 -5l1 16l6 10l15 3l25 3l11 -2l12 1l25 -1h23l10 -4l4 -16l-2 -32l-6 1l7 -20l1 -18v-48l1 -24l-2 -15l1 -31
l-2 -27l2 -8l-1 -13v-30l1 -35v-73l-2 -36l2 -12l1 -29l-2 -11l1 -22l-1 -18v-59l2 -9l-1 -13zM356 468l6 -10l-2 7l10 4l12 -3l-8 20l-9 -9l-12 13l5 7l-13 -9l7 -11l7 -3zM225 366l8 3l-14 21l-4 -7l10 -7l-17 -8l-7 -8l-9 -3l8 -14l3 12l10 10zM375 645l-11 -4l-1 10
l-14 -6l-1 -13l7 1l4 9v-9l16 1l9 -3zM323 388l26 -3l8 6l6 -10l3 6l-13 7l-7 -3l-19 -1l-4 11l-9 -4zM98 360l9 -16l8 7l-10 14l-1 12l-11 -4l9 -4zM337 361l13 -3l-16 26l-3 -12zM323 358l-9 2l7 -2l-6 -8l2 -11h-6l1 -10l3 7l6 1v11l6 4l-2 11l-4 -5h2zM300 357l-6 -8
l15 -4l-4 23h-3zM328 612l-1 -9l6 -18l3 19zM327 273l11 -1l-1 13h-8zM259 372l9 13l5 6l-17 5l8 -10zM132 423l4 12l-15 -4l7 -6l-5 -7zM333 678h-6l1 -14h9zM366 424l10 -5l14 3l-15 3l-13 6zM330 543l4 6l-12 -5l6 -20zM318 599l-3 -14l4 -2l8 11zM372 531l-6 -3l5 18
l-10 -21l11 -3v9zM118 427h-15l6 -9zM143 573l-3 12l-4 7l-2 -9zM125 293l-6 11l3 -6l-7 -3l-1 -7zM347 288h8l2 4l-14 3zM329 490l-15 9l4 -9h11zM334 646l-4 6l-6 -3l7 -7zM336 300l7 9l-2 11zM362 318l4 3l1 5l-12 -4zM187 368l-8 -11l10 3zM136 489l10 -8l-1 9zM121 386
l-9 -1l7 -8zM117 195l-7 -19l8 11zM289 374l-8 -5l8 -4v9zM360 517l-18 6l9 -7zM371 591l-5 -5l9 -5zM368 666l1 6l-11 -1zM334 486l-6 -1l-1 -11zM81 355l8 -6l-4 11zM326 458l5 1l-1 2l-7 7zM377 505v-8l6 3zM364 580l-11 -5l19 6zM309 371l12 5l-20 -6zM327 639l-8 -10
l7 6zM120 265l-3 2v-2h3zM382 300h-2v-1z" />
    <glyph glyph-name="I" unicode="I" horiz-adv-x="219" 
d="M175 89l2 -13v-31l-4 -37l-7 -9l-25 -1l-9 3l-9 -2l-33 1h-29l-14 6l-3 17v17l1 26l-2 20l1 16l-1 24l1 30l-1 24l-1 35l2 14v29l2 20l6 7l-9 -1v37l2 10l-1 31l3 18l-3 6v51l-1 31l2 15l-2 34l4 12l-4 14l2 23l-2 9l1 26l-2 27l3 12l-2 27l2 16v27l7 11l12 3l35 -3l39 3
l23 -2l4 -12l4 10l7 -10v-14l1 -27l-2 -26l1 -19v-28l-1 -27l2 -28l-2 -30v-84l2 -13l-2 -15l2 -10l-2 -19v-30l-2 -23l3 -13l-8 -8l8 -3v-41l-1 -31l1 -28v-27l-1 -35l-1 -18l3 -17zM108 671l-1 -8l-3 -13l10 7l12 4v9l10 6l-8 7l3 -8zM68 296l9 -6l14 -6l-6 6l3 27l-5 -7
l-4 7l-2 -14zM92 535l-8 -9l4 -13l1 7l13 -7zM123 602l9 -8l5 6l-3 4l-13 10zM84 451l-3 -8l3 -14l9 14l-4 3zM87 123l8 12l-5 9l-10 -8l7 -5v-8zM94 367l-1 -9l11 -1l1 10h-11zM131 162l13 11l-10 7zM116 495l-11 -4l-7 -12l13 11l6 -6zM99 283l-6 -1l2 -12l11 17zM104 347
l9 2l-10 5l-10 -6zM118 510l-1 -10l8 4l-6 8l-9 7zM123 323v7l-9 7v-5zM117 557l-8 6l-2 -4l4 -7zM49 530l-1 -1l10 -3l-6 13zM68 441l8 12l-10 -3zM108 152l1 8h-4l-5 -8h8zM85 393l9 -3l-1 11zM137 575l5 7l-11 3zM114 386l4 -16l4 7zM69 605l9 9l-11 -1zM99 134l6 -6
l1 14zM95 494l-7 -11l8 1zM131 478l-8 -10l9 2zM130 121l9 -5l-6 9l-12 -9zM58 523l-5 -4l9 -6zM133 439l-10 1l5 -7zM99 205l1 -9l6 10zM135 385h7l-10 9zM103 241l10 3l-10 3v-6zM135 692l-1 -4l15 3zM109 593l-4 -8l4 -6v14zM102 621l-5 -5l6 -4zM113 175l1 -5l8 6z
M77 595l-1 -6l7 -3zM144 401v-6l7 4zM90 379l14 -5l-10 6zM119 284l2 -8l3 -7zM140 191l-2 3v-3h2zM105 579l-2 2v-2h2z" />
    <glyph glyph-name="J" unicode="J" horiz-adv-x="418" 
d="M373 490l-1 -22l1 -18v-51l1 -44l-2 -25l2 -16l-1 -16l-2 -27l2 -27l-1 -29l2 -25l-2 -12v-33l-4 -33l-10 -25l-13 -24l-14 -20l-18 -16l-19 -17l-13 -5l-19 -9l-28 -7l-27 -1h-28l-26 3l-21 8l-21 7l-18 13l-19 17l-12 15l1 8l-20 21l-10 28l-6 29l-2 27l3 26l-3 11
l1 14v32l8 10l-9 33l5 16l12 7h64l35 -3l8 -13l3 -16l-1 -10l2 -13l-2 -13l2 -13l-2 -12l-1 -29l2 -32l3 -22l8 -14l25 -17l27 5l17 13l8 27l1 17l1 33v28l-1 28l1 25v26l-1 30v29l2 25l-3 13l2 22l-1 30v28l1 28l-1 33l1 32l-2 31l2 24l-1 25l1 24l-1 24l6 11l9 6l22 -1
l15 2l19 -2l17 1h33l9 -10l2 -13v-26l-1 -27l1 -26l-1 -27l2 -12l-3 -24l1 -13l1 -26v-29zM107 78l13 12l-2 -8l8 6l5 14l-3 5l-9 -1l-7 -10zM193 31l-5 11l6 13l-9 -10l1 -13l-5 -6l-9 11l-6 -6l8 -1l7 -11l5 2zM107 258l-8 -12l4 -13l-2 -8l5 9v9l10 9l-3 7l2 6zM103 185
l-4 -14l17 -7l-3 16zM112 64l3 -5l2 -9v9l8 -1l4 11l-15 5zM219 50l1 -8l6 10l-4 8l-14 11v-8zM158 40l8 3l6 -4l-8 14l-11 -1zM196 34l13 9l-3 12v-8l-7 3l-3 -8v-8zM109 156l11 2l-7 5l-14 -6l12 -9zM305 391l-7 -7l-5 2l3 -9l9 5l9 -15l-8 16zM295 186l5 -6l7 -11l9 6
l-9 3zM84 131l5 -11l1 15l-9 7zM314 288l14 -2l-7 6l-9 4l-5 7zM78 264l-8 -6l8 -1l-5 -7l11 6zM288 404l-11 -6l4 -8l5 6zM263 322l16 -2l-6 9zM254 50l-8 17l-2 -10zM90 91l7 4l7 -1l-17 7zM144 46l-9 1l-3 20l-1 -22zM92 185l9 9l-9 2v-11zM63 197l10 -6l3 8zM335 379
l-8 -6l-4 -5l6 -1zM46 103l7 -7l1 11zM314 453l-14 -6l7 -9l-2 8zM290 145l13 13l-11 -5zM31 216l14 3l-7 4zM322 334l12 1l-5 6zM296 284l11 -3l-8 9zM77 210l5 -4v14zM148 90l-13 2l5 -6zM302 123l-6 -10l8 -4l-4 9zM301 505l-2 -8h8zM128 31l6 -2l-1 11zM213 31l4 7l-8 1
zM136 101l-4 -7h8zM328 392l2 11l-8 -17zM349 270l-6 -4l9 -3zM137 68v6l-9 11zM294 372l-2 -6l11 8zM273 56l-11 3l6 -6zM96 58l7 9l-10 -8zM100 22l9 11l-6 -4zM262 95l-2 -2l7 -4zM314 258l-6 -3l10 2zM284 413l-13 1v-1h13zM253 579l-3 2v-2h3z" />
    <glyph glyph-name="K" unicode="K" horiz-adv-x="434" 
d="M424 19l-6 -17l-9 -4l-19 1h-29l-27 -1l-10 2l-9 -2l-12 2l-14 9l-2 12l-9 25l-6 24l-1 18l-5 7l-5 19l-11 32l-6 22l-7 27l-7 26l-13 36l-2 17l-3 8l-13 -5l-15 -30l-8 -27v-14l-4 -18l3 -22l1 -32l-1 -29l-1 -30l2 -30v-27l-3 -13l-14 -6l-16 -1h-30l-28 1l-29 2l-10 8
l-3 15v59l1 27v48l-1 22l2 26l-2 16l1 27v28l-1 27l3 12l-3 12l2 9l-2 25l1 27v27l-1 30l2 37l-2 20v62l1 32l-2 24l3 15l-2 17l1 15l-2 33l3 14l16 9l33 1l40 -2l23 2l14 -7l5 -17v-17l-1 -33v-25l-1 -27l3 -35l-2 -14l-1 -27l1 -32l4 -16l11 13l6 17l14 31l3 13l14 31
l10 25l11 25l14 36l10 24l9 24l6 7l33 4h59l26 -4l7 -14l-10 -30l-6 -10l-10 -20l-10 -23l-2 -11l-6 -9l-13 -33l-11 -24l-22 -52l-13 -26l-13 -31l1 -17l5 -8l1 -12l5 -11l5 -27l6 -7l5 -19l-6 -13l15 -16l9 -26l9 -30l9 -29l9 -30l8 -22l2 -12l6 -19l6 -23l10 -21l1 -12
l9 -22l5 -20zM92 393l11 -1l-4 15l-10 -11l-3 7l8 6l-23 -11l7 1l3 -11zM97 305l-2 -7l-4 7l-7 -7l13 -10l11 5l-8 4l21 4h-18zM236 457l3 -6l-2 -5l8 3l6 -5l9 -3l-3 11l-10 7zM86 262l11 -14h6l-12 13l-2 15l11 -9l-2 11l7 8l-6 -4l-12 -3zM77 324l-4 -14l9 6l9 -1l-2 10z
M264 497l-3 9l-14 -10l13 -11l-3 8zM187 345l6 10l-3 3l-13 4l2 -8l9 -3l-10 -3zM133 106l16 2l-15 3l-9 9v-9l-3 -7zM152 212l7 5l3 5l-14 2l-4 -11zM118 294l4 -9l-8 -11l9 5l8 -2l-5 6l4 9zM162 349l-1 -14l11 14l-9 10zM88 336l-1 6l6 4l-5 6l-10 -9zM185 368l1 9l-8 1
l-7 -4zM99 173v9l-3 2l-13 -16l6 5h10zM242 287l12 5l4 14l-8 -4l2 -6zM81 150l7 2l5 -4l2 9l-9 -3l-6 5zM131 346l-12 -5l14 -5zM146 256l-3 14l-2 -9h-13zM189 387l8 4l-8 -1l4 7l-11 -5zM209 372l12 2l-6 7zM280 279l3 8l-10 5zM104 110l-3 10l-6 -11zM126 230l3 -8l7 11
zM245 516l4 -9l2 16zM143 241l5 -13l8 2l-9 5zM162 322l-8 -8l8 -2v10zM122 240l4 6l12 -4l-12 9zM62 375v-12l6 6zM113 367l-6 -1l8 -5l5 1zM116 198l5 -8l4 7zM236 499l-4 -6l13 3zM245 282l10 -3l-3 7zM76 241l1 -8l5 -8l-2 10zM118 398l-11 7l6 -5l7 -12zM142 541l1 -7
l7 5zM261 421l-7 5l-3 -5h10zM194 377l13 -3l-1 4zM98 505l-9 8v-5zM135 484h-3l3 -13v13zM269 393l-7 2l-1 -4zM250 433l3 7l-8 -9zM242 324h-9v-3zM106 379l-3 3v-3h3zM120 475l5 1l-14 -1h9zM132 502l-3 2v-2h3zM91 543l-2 3v-3h2zM307 273l-2 3v-3h2zM213 477l-3 3
l11 -13zM229 368h5l-9 1zM193 333l-2 2v-2h2zM170 288l-2 2v-2h2z" />
    <glyph glyph-name="L" unicode="L" horiz-adv-x="370" 
d="M355 78v-33l-2 -34l-13 -12l-24 -1l-14 10h-9v-9l-36 1h-56l-29 -2l-11 3h-32l-4 7l-9 -9l-17 5l-22 -5l-22 1l-11 17v29l1 31l-1 32v30l1 30v68l1 35l-1 30l-1 29l3 28l-3 16l1 31v34l-2 12l1 11l1 35l-1 27v78l2 22l-2 9v58l3 25l17 7l32 -1h61l11 -3l8 -8l2 -16
l-1 -33v-27l1 -27l-2 -20l2 -21l-3 -24l2 -17v-27l-2 -52l2 -30l-2 -37l3 -22l-3 -22l2 -31v-90l1 -26l-3 -37l4 -29l9 -8l18 -2l37 5l38 -2h23l28 1l20 -7zM157 40l13 1l-12 12l-2 14l3 4l11 -5l-2 10l5 5l-8 6l-8 -9l-12 11l-8 -5l8 -1l6 -18l-10 -9l-6 7l-5 -2l9 -8
l-5 -4l7 -15zM315 61l-4 2l-11 1l-7 4l2 -4l-3 -6l-16 5l12 -6l6 -15l16 -11l3 18l-4 3v-8l-5 10zM148 97v19l-5 9l-8 -5l5 -2l-2 -6l2 -8zM76 439l-4 -6l20 2l2 6l-9 4l-5 5zM117 394l-7 6l-8 -1l-8 -6l6 -4zM103 39l8 10h-3l-14 -14l-5 -9l11 4zM173 42l6 -8l-1 18l6 -11
l-2 11l-11 3zM291 85l-14 -8l12 -9zM84 83l8 -5l7 20zM273 35l9 9l-9 -5l3 9l-9 -2l-2 -6zM126 366l-8 -9l9 -5l6 6l-5 2zM138 375l-10 7l-10 -2l8 -6zM95 233l8 -3l-9 12l-9 -15zM113 39l6 1l5 5l-10 7zM239 32v11l-2 11l-8 -2l7 -9zM74 219l8 3l5 2l-2 3l-3 6zM188 72
l-13 -2l9 -9zM128 449l9 -14l-2 7l6 6zM82 425l12 -6l-4 7l-9 6zM199 44l10 6l-14 3zM117 539h-13l11 -8zM267 97l-1 -12l9 4zM132 159l11 7l-10 3zM104 146l3 11l-10 -4zM108 487l-11 -3h9l8 -5l-4 7l2 9zM130 96l-3 13l3 -18l-4 -10l4 -9v24zM87 71v-7l13 8zM307 88l-4 -8
l10 2zM81 264l-11 1l6 -7zM150 254l7 5l-12 1zM77 205l3 -8l5 7zM78 104v4l-15 -1zM208 72l3 -8l6 3zM105 165l11 8h-7zM108 90l8 7l-2 5zM184 11v6l-9 -7zM119 338l-5 1l2 -11zM215 49l-6 1l6 -9v8zM251 48l4 -1l-1 9zM139 542l-3 -1l13 -7zM222 33l3 11h-3v-11zM117 196
l8 2l-8 2v-4zM202 83l-6 -2l15 1zM110 17l-3 3v-3h3zM171 262l-3 2v-2h3zM58 305l-1 -1l2 1h-1z" />
    <glyph glyph-name="M" unicode="M" horiz-adv-x="589" 
d="M542 179l2 -13l-2 -33l-1 -28l2 -28l-1 -9v-28l-2 -31l-10 -10l-28 -1l-12 2l-12 -2l-13 1l-28 1l-13 6l-4 35l-1 27l2 26l1 28v29l-1 29l-1 30v33l2 11l-1 30v85l-1 29l3 10l-6 11l-5 -7l-6 -32l-6 -31l-7 -30l-1 -14l-6 -14l1 -14l-4 -22l-7 -16l-1 -20l-7 14l4 -32
l-8 -41l-5 -29l-5 -9l2 -9l-4 -19l-4 -23l-8 -41l-7 -27l-28 -5l-26 2l-13 -2l-17 13l-4 11l-2 15l-6 32l-5 26l-5 23v13l-4 20l-7 31l-4 25l-6 28l-5 30l-6 28l-3 27l-7 27l-4 25l-5 30l-6 13l-6 -12l3 -32l-4 -17l3 -7l-1 -21l2 -9l-3 -21l3 -21l-2 -14l2 -11l-5 -14l3 -9
v-12l-3 -10l5 -11v-45l1 -27l-2 -13l1 -11l-3 -13l2 -20v-25l-2 -29l-8 -9l-12 -3l-26 -1h-27l-32 3l-10 12l-2 11l1 10l-1 25v28l1 28l-1 30v60l-1 29l3 28l-2 17l1 29l-2 29l2 29l-1 33l1 25l-2 12l4 24l-2 28v25l-2 12l2 12l-1 13v24l1 29l-1 23l1 26l-2 11l2 24v24l8 10
l12 3l12 -2l32 2h33l32 1l23 -2l11 -5l9 -11l4 -11l5 -28l5 -32l4 -29l7 -13v-13l3 -13l-1 -10l4 -10l6 -33l7 -29l4 -25l2 -19l5 -20l3 -20l4 -18l-2 -8l3 -8l6 -28l11 1l7 27l4 30l7 28l1 18l6 17l2 16l10 7l-7 7l4 18v13l3 14l5 29l6 33l5 10l1 13l5 18l-1 12l5 13l1 12
l5 9l-1 20l6 12l12 7l31 1l31 -1l33 -1l37 2l17 -4l7 -15l1 -18l-2 -29l3 -32l-2 -17l-3 -28l3 -17v-51l1 -26l-3 -36l2 -9v-25l-3 -11l4 -11l-2 -12l1 -22l-2 -13l4 -54l-2 -13l-1 -21l1 -27l1 -26zM277 203l6 -5l10 -10l-6 11l-11 19l-13 -4l15 -3l-5 -6l-4 -10l-8 -5l8 1
l6 -9l-4 -7l13 -3v10l-5 8zM472 259l2 -12l11 4h-5l-5 10l5 10l-3 8l-11 -15h-13l-7 5l6 -14l10 -2l5 6h5zM294 243l-10 6l-5 -6v-4l13 1l-1 -10l18 6l-7 2l1 6l-4 3zM266 290l-2 14l-15 -12l-13 3l7 -13l7 -2l1 12l8 1zM480 539l-6 -18h14l5 7l12 4l-16 2l-3 -7zM235 450
l4 7l-12 -5l9 -19l13 9l-7 7l-10 -3zM121 247l11 3l-9 1l-1 13l7 7l-14 -5l-5 -13zM319 124l5 6l-5 10h-12l-9 -4l8 -10l3 7l6 2zM491 371l12 1l-6 6l7 7l-19 -2l-2 -10zM218 376l8 -1l8 1l7 6l-14 15l1 -14zM146 618l-7 -5l2 -13l10 2l6 5zM187 495l8 -7l15 -17l14 -10
l-6 12l-21 17zM108 634l-7 -7l13 -7l9 9l-6 5h-9zM261 341l-12 4l-2 -18l7 4l1 9l2 -9l12 8zM456 457l-5 7l-4 -6l7 -7l21 1l-5 7zM501 583l-3 18l-6 8l-1 -11l2 -10l-1 -7zM467 533l8 5l10 8l-12 1l-12 -4zM474 395l-13 8v-7l2 -7l17 -4zM272 154l9 -6l-2 12l-12 1l-9 -2
l4 -7zM332 230l-10 8l-9 1l6 -6l-3 -8l5 -2zM225 360l6 -8l14 4l-4 10l-13 -2l14 -6zM492 486l-10 -9l9 -7l-4 -5l12 4l-7 9v8zM482 558l-7 -1l16 1l9 9l-16 1zM317 203l13 10h-11l-11 3zM448 297l-4 -15l7 9l10 -3l-3 10zM470 655v-22l10 10zM535 617l-17 -3l-3 4l-12 -8
h17zM93 568l-10 7l6 -15l12 2zM99 310l12 3l7 8l-6 -4l-11 4zM411 661l-9 -18l16 11zM294 158l13 14l-16 1l4 -3zM113 197l3 -13l11 10zM480 423l14 6l4 6l-11 -2zM107 128l14 -3l-14 14v-11zM361 261l5 7l-10 6l2 -12zM494 619l-8 19l1 -19h7zM425 611l3 7l-12 -4l5 -5
l13 -1zM329 393l2 -12l7 3l4 10l-6 -7zM326 190l11 4l-18 4zM353 304l7 -1l-7 8l-9 -3zM97 514l3 12l-12 -12h9zM110 594l-7 -2l11 -12zM268 314l6 10l-9 -4l1 -14zM110 416l2 8l-4 2l-5 -7zM343 319l14 2l-8 6zM253 231h1l-17 9l8 -10zM508 514l12 4l-18 2zM190 465l-2 3
l-4 7l-3 10l2 -10l-1 -9zM467 330l9 -13l-4 11l1 8zM128 120v11l-8 3zM112 512l-7 2l10 -9l1 12zM501 314l-6 -8l9 -2zM100 421l-8 -5l7 -6zM362 238l1 11l-8 -7zM202 466l8 1l-8 4l-8 -12zM340 297l1 16l-5 -4zM91 493l-1 -12l6 -3zM462 413l-1 -10l8 2zM259 237l-5 -6h12z
M423 603l8 -6l1 8zM408 567l7 4l-5 6zM240 261l-3 -5l10 -4zM469 523l-11 -1l5 -5zM314 256l3 5l-12 -2zM441 427l6 -3l4 7zM353 351l-7 -1l2 8l-6 -13zM335 334l4 -8l3 6zM292 221l-3 -3l10 -6zM503 474l1 -10l10 -2l-8 4zM281 134l5 1l2 8zM469 368l2 5l-4 8zM452 351
l3 -5l2 7zM329 144l6 -1l-6 6v-5zM344 240l-1 -8l3 -3zM126 489l-1 5l-6 4zM266 172l-4 2l11 -11zM307 280l-9 -2h7l8 6zM302 109l-3 4v-4h3zM248 211l-3 3v-3h3zM442 159l-3 2v-2h3zM112 538l-2 2v-2h2z" />
    <glyph glyph-name="N" unicode="N" horiz-adv-x="467" 
d="M422 109v-16l1 -16l-1 -29v-35l-13 -12l-22 -3l-33 2l-33 -1l-11 9l-5 12l-10 26l-6 19l-11 28l-8 22l-9 23l-8 25l-9 24l-11 30l-10 27l-11 31l-9 20l-2 12l-12 31l-14 33l-8 5l1 -32l-1 -29v-41l-5 -10l5 -15v-88l1 -33l-1 -29l1 -28l-1 -28l-1 -27l-7 -14l-34 -4l-9 2
l-12 -2l-9 1h-26l-16 3l-8 13v11l2 24l-2 13l1 13l-1 31l1 32v27l1 28l-2 29l1 28v26l2 19l-2 27v30l1 28l-2 28l3 8l-1 22l-1 30l1 29l-1 29v35l1 35l-2 32l2 18l-2 42l5 28l14 6l18 2l13 -3l27 2l20 -2l13 1l11 -6l7 -13l10 -27l9 -27l9 -26l9 -27l10 -26l12 -28l7 -31
l10 -20l1 -9l6 -18l9 -18l9 -31l14 -37l9 -15l5 28l-2 24l2 28v264l4 10l11 6l14 1l27 -1h21l25 -1l11 -4l6 -9l2 -13v-27l-4 -31l4 -7l-1 -11v-26l-1 -31l1 -30v-58l-2 -41l2 -12l-10 -9l11 -10v-52l-5 -12l4 -13v-20l-2 -10l2 -10l-1 -22l2 -17l-1 -17v-30l2 -27l-1 -26
l-2 -25zM324 177l11 5l1 15l14 16l-19 -10l-2 -11v11l12 16l-19 -8l3 -12l-9 -11l9 -3l8 2zM109 420l12 2l-4 4l3 8l-16 11l-1 -11l-4 -4v-5l-6 -12zM368 258l2 13l-14 -12l6 -12l-9 -2l13 -13l4 5l8 -4l-12 13l-5 11zM346 102l9 5l-1 11l-15 -9l6 12l-14 -14l8 1zM335 239
l6 -16l10 12l-10 6zM344 361v-2l7 -9l12 7l-8 6zM122 591l7 -5l7 1l8 6l5 11l-16 -12zM188 473l-3 13l-12 -4l-2 -14l8 10zM191 458l7 -4l8 1l-1 15zM122 342l-3 9l-7 -1l7 -7l-2 -13h7l5 -6zM340 491l11 13l-13 2zM138 486l9 2l-10 3l-4 -3l-3 -9l12 3zM124 457h8l-4 11
l-9 -2zM91 569l-6 -8l21 3l1 7l-6 -6zM195 444l21 -3l-6 9zM294 196l12 -8l6 10zM283 261l1 -10l14 18zM324 152l5 13l-10 -1zM99 545l-4 -9l9 4l4 7zM361 207l12 3l-19 5zM231 371l11 5l-8 7zM289 242l-9 -1l5 -12zM350 140l-5 10l-10 -2zM110 476l-5 -8l11 -2zM129 450
l-8 -7l11 -2zM342 133l-6 -7l15 2zM170 567l-7 3l1 6l-12 -5zM334 247l4 11l-9 -2zM358 101l10 10l-10 -1v-9zM239 344l-2 -11l10 10zM364 474l-10 3l6 -10zM82 553l1 -3l8 3l-3 6zM310 277l6 -9l5 6zM382 222l-4 6h-12zM170 492v9l-8 -2zM180 558l-9 4l7 -11zM292 182l-6 4
l-1 11l-3 -12zM378 389l-2 7l-7 -7h9zM92 450l-6 5l-3 -8zM118 546l7 8l-7 11l4 -12zM345 302l2 8l-8 -4zM129 430v-8l7 10zM331 282l9 -4v5zM216 279l3 3l-3 12v-15zM379 403l8 -4l-5 8zM81 427l11 -1l-5 4zM113 455l6 -3l-11 8l8 -12zM61 13l5 13l-5 -7v-6zM108 440l-5 -6
v-1zM228 295l-3 2v-2h3zM160 509l-3 2v-2h3zM346 386l1 -1l5 1h-6zM369 592l-3 2v-2h3zM127 513l-2 2v-2h2z" />
    <glyph glyph-name="O" unicode="O" horiz-adv-x="422" 
d="M396 449l2 -32l-2 -20l2 -17l-9 -19l6 -12l-6 -11l8 -4v-14l-1 -31l1 -26v-35l-3 -14l3 -18l-1 -21v-32l-3 -16l-11 -35l-11 -20l-15 -22l-18 -19l-24 -18l-24 -12l-21 -5l-18 -1l-18 -6h-28l-35 4l-29 6l-22 8l-27 18l-21 19l-7 11l-8 6l-11 21l-11 26l-6 31l-2 33v62
l2 33l-2 13v32l1 27v28l-1 36v22l1 24l-2 21l3 9l-2 16l2 17l7 -5l-8 15l1 32l-2 12l2 14l4 25l5 8v12l15 33l13 16l24 24l23 17l11 3l23 10l46 8h19l29 -2l14 -2l13 -5l17 -2l19 -6l8 -6l5 -8l13 -3l7 -9l9 -5l13 -14l17 -24l11 -24l-2 -7l10 -26l-1 -21l3 -8l-3 -16l4 -12
l-1 -12l-13 6l9 -11l5 -27l-1 -13v-30zM268 286l9 -6l-8 9l-5 10v26l2 11v34l-3 9l1 12l-1 30v62l2 30l-2 14l1 29l5 -9l7 14h-13v15l-4 14l-8 12l-11 8l-34 12l-22 -11l-15 -15l-6 -11l-5 -30l1 -14v-29l-4 -9l5 -12l-2 -8l2 -9l-1 -9v-18l-1 -23l2 -13l-1 -25l-1 -36
l1 -23l-4 -10l4 -37v-83l-1 -30l6 -25l6 -13l10 -11l17 -7l12 -2l12 1l22 8l13 13l5 12l3 26l1 29l-2 12v25l-1 33zM293 676l-10 -18l10 -16h9l6 8l-7 -14l-13 -7l-10 7l-7 13l-5 -15l9 -5l11 -5l2 -8l9 -4l-4 -7l-6 5l9 -23l14 -2l13 2l-8 3l-13 17l9 7l-1 -9l14 7l8 1
l-5 17l-5 3l10 6l-6 12l10 9l-10 1l-8 11l-6 -10l11 -2l-2 -9h-12l-10 4l8 4l-14 7v10zM175 686l-4 6l-4 -13l9 -12l6 10l4 -8l12 7l5 -5l-4 -9l7 -11l15 2l-6 12l-9 -6l11 13l-11 1l3 12l-9 -1l-8 -4l-3 7zM224 677l-3 7l-5 -4l13 -11v8l4 -18l-3 7l4 -11l6 -2l10 1l6 5
l-3 13h-14l5 13zM316 541l-5 5l-15 -4l11 -9l4 3l6 -6l-6 -6l9 -14v11l6 3l-2 9l3 10zM304 446l10 15l-13 -4l4 13h-17l1 -9l8 5l3 -27l-6 -2l8 -6zM329 579l-1 -9l7 9l9 -1l9 13l-13 1l3 9l-4 -2zM260 706l-3 -7l-6 -8l6 -12l18 -4l3 4l-2 8l-2 -9l-14 2v12l3 9l7 2z
M169 655l-1 -5l9 6l-2 7l-6 5l-12 -3l-4 -11l6 7zM97 377l6 8l-9 -1l-5 7l-8 -9l5 -10l8 2l-6 5zM135 689l2 -9l11 1l2 17zM299 569l-6 -2l7 -6l13 -7l-5 16zM304 632l10 -6l4 6l5 -9l-19 -3v12zM346 523l1 10l-5 9l-3 -17l3 -10zM353 487l-1 -15l-2 -9l12 13zM307 491l6 10
l-8 14l-8 -6l10 -4v-14zM287 499l9 13l-9 12v-25zM233 702l-10 -7l3 -10l10 10zM358 256l8 -9h12l-10 10zM317 356l9 10l-8 9l-3 -6zM287 333v-6l12 7l-1 11zM325 385l5 3l-10 7l-2 8l-4 -6zM392 329l-8 -6l-1 -9l7 2zM92 419l4 -9l-9 -5l10 -4l3 6zM340 645v-9l-4 -11l9 4z
M187 713l-5 -6l13 5l-9 9zM241 645l9 -10l-1 14zM284 643l-8 15l-3 -8zM260 617l11 -6l6 9l-7 -3h-10zM325 560l-11 2l10 -11zM350 391l3 8h-12zM288 578l1 9h-10zM210 724l-2 -8l12 4zM107 646l-1 -11l8 1zM107 629l-9 -4l6 -7zM116 526l-12 8v-7zM58 551l3 -7l-2 -6l9 -1z
M371 294l-9 4l9 -13v9zM345 494l3 10l-10 -7zM377 335l3 7l-8 7zM356 447l1 14l-6 -9zM331 245l2 8l-10 -3zM360 274l-7 -8l16 8h-9zM351 414l9 10h-7zM377 467l-2 -8h8zM368 596l1 -7l8 7h-9zM306 333l-10 -8l14 5zM138 470l-2 -7l8 -2zM44 490l3 5l-10 2zM329 591l1 6
l-9 -4zM334 567l2 -5l9 1zM47 523l-8 1l5 -6zM95 256l-4 -1l6 -9zM347 656v-4l9 -1zM206 634l8 3l5 6zM287 379l8 6l-1 3zM139 589l-2 6l-2 -6h4zM233 64l-3 3v-3h3zM96 543l-3 2v-2h3zM271 298l-2 2v-2h2z" />
    <glyph glyph-name="P" unicode="P" horiz-adv-x="439" 
d="M418 466l-2 -17v-19l-7 -35l-8 -24l-20 -32l-23 -22l-9 -2l-10 -10l-27 -10l-36 -8l-26 -3h-55l-14 -3l-4 -18l1 -25v-28l-1 -27l2 -54l-3 -28l2 -34v-30l-1 -27l-6 -8l-17 -5l-13 2l-16 -1l-16 2l-32 -2l-20 3l-8 5l-6 23l1 13l1 24l-1 23v33l2 9l-1 12v26l1 33v62
l-2 19l1 33l-1 31l1 31v37l-1 29l2 26l-2 30l1 18l-2 17l2 31l-1 27l2 13l-1 16l-1 31l1 30l2 27l7 11l11 2h34l35 -1l30 1l30 -1h62l31 -3l29 -8l23 -11l28 -20l16 -20l14 -20l4 -12l8 -25l1 -13l5 -20l-1 -15l4 -35v-54zM232 395l17 3l18 7l15 28l2 23l4 37l-1 19l-2 31
l-3 8l-11 36l-9 11l-12 7l-34 6l-20 -2l-7 2l-11 -6v-135l-1 -37l2 -8l-1 -15l5 -13l15 -2h34zM102 327l-16 4l-2 -11h15l-2 -11l6 9zM123 43l2 8l-14 7l-8 8l-5 -4l5 -11l6 6zM108 301l-4 4l-5 -7l8 -7l11 7l-4 11zM108 169l-2 10l7 6l-5 7l-8 -15zM200 321l-3 5l-7 5
l-11 -10l14 6l-6 -9zM296 392l-3 -7l-4 -7l13 6zM76 404h-7l13 -16zM83 32l6 10l-12 -2zM280 343l11 11h-10zM92 372l6 6h-18zM311 365l-4 10l-12 3zM201 337l-11 12l2 -12h9zM87 360l12 -2l-8 10zM128 408l13 7l-11 2zM89 287l-13 -5l10 -4zM125 462l-8 3l-1 -12zM129 148
l8 2l-5 11zM127 325l-11 -7l9 -2zM286 369l-1 9l-9 -3zM137 372v10l-8 8zM222 315l12 -3l-15 10zM110 239l5 -10l-1 16zM74 427l2 -9l6 7zM86 259l-1 -5l12 1zM115 222l7 -9l-9 14l-3 -11zM123 170l5 -4l10 1zM174 355l3 -4l2 10zM204 356h4l5 7zM258 331l-7 7l5 -6l-10 -5z
M322 585l-2 3v-3h2zM84 531l-3 2v-2h3zM132 256l-3 2v-2h3zM349 384l-2 2v-2h2z" />
    <glyph glyph-name="Q" unicode="Q" horiz-adv-x="422" 
d="M262 -136l3 4l-9 2l3 -12l-8 1l-16 6l-28 15l-20 18l-23 30l-10 27v12l-4 16l-11 15l-33 14l-14 10l-25 23l-18 26l-13 28l-9 33l-1 21v50l-2 24l3 14l-3 13v13l1 27l2 33l-3 12l1 31l1 29v29l-2 26l2 27l-1 25l1 34l1 33l5 32l10 30l10 21l16 19l25 25l14 9l23 11l34 10
l29 4l26 1l23 -2l23 -4l21 -5l26 -13l17 -11l14 -11l18 -19l17 -24l3 -9l8 -20l4 -24l-1 -11l4 -7v-28l1 -31v-78l1 -21l-2 -31l2 -21l-2 -17l1 -21l-1 -27l2 -9l-2 -12l2 -13l-1 -12v-42l-2 -46l-1 -32l-5 -18l-1 -13l-5 -11l-11 -12l1 -11l-12 -12l-15 -18l-29 -25l-10 -2
l-5 -7l-11 -4l-16 -1l-1 -10l-15 5l-14 -13l22 1l8 -4l5 -13l37 -9l16 1l7 -4l12 -1l8 -12v-28l-3 -6l3 -23l-2 -26l-6 -10l-9 4l-10 -2l-26 -5l-32 5l-8 6l-8 2zM159 208l1 -13v-15l-3 -10l3 -16l10 -29l7 -13h11l15 -5l18 1l16 5l13 9l8 14l7 33l-1 34l-1 32v21l2 34
l-2 20l1 16l-1 39l3 18l-2 43v23l-2 40l2 18l-1 13l2 26l-1 11l-5 25l-5 12l-9 9l-26 12l-15 -1l-17 -5l-14 -10l-9 -14l-4 -16v-80l-4 -15l4 -12l-2 -26l1 -31l-2 -16l2 -26l1 -31l-2 -34l2 -37l-4 -9l5 -9l-3 -17zM305 108l9 20l-10 9l-7 -5l1 -12l-10 -6l-7 -11l9 -8l8 7
l-2 6h9zM340 246l9 2l-7 8l-9 -4l-9 -8l-1 -8l-8 -8h-7l-4 -13l9 9l11 -5l-3 13l9 -4l3 -7v12l9 4zM108 241l7 11l8 12l-15 -5l-7 5l3 -6l-5 -11l-15 -26h8l3 6l17 2l-10 3l4 16zM324 77l7 -8l8 4l-9 7h8l-15 3l6 10l-7 6l-12 5l5 -9l-3 -10l-10 -9l11 -2l5 1zM327 152
l10 -4l-6 13l-12 1l13 3l18 8l-21 1l-17 -11l3 11l-11 3l3 -15l10 -3zM310 314l-12 4l8 -4l5 -10l16 -3l5 -4l4 5l-1 5l-7 5l-15 4l10 -5zM108 374l-16 8l2 -10l15 -26zM197 58l-3 -8l12 2l4 9l-8 -2l12 18l-12 7l7 -9l-8 -5zM185 18l6 23l-11 -3l-2 -13zM311 193l1 6l-6 11
l2 -8l-12 4l12 -18l-10 -5l11 1zM226 60l2 -12l6 -12l5 3l-4 8l-1 11zM239 16l14 7l-11 3l-16 1zM338 261l-3 7l13 -4l-8 9l-12 -3l-1 -10zM108 129l15 9l6 -5l-10 10l-15 -5zM231 10l20 2l-17 4l-8 -4l-5 -3l9 -8zM183 64l11 1l-14 10l-4 -7l-10 -2zM345 375l-3 12l-6 9
l-4 -13l7 -2zM348 347l2 7l-19 -5l9 -5zM234 -45l3 10l-15 10zM104 303l15 15l-10 3l-6 -3l8 -6zM334 33l11 9l-8 3l-7 -6zM312 136l5 5l9 1l-9 11zM294 -60l-2 -7h8l6 11zM273 -62l2 -12l10 14zM225 -120l9 15h-9v-15zM311 350l5 11l-6 9l4 -7l-8 -4zM261 11l-6 7l-1 -10
l7 -6v9zM82 249l3 9l5 8l-12 -7zM330 379l-4 -13l11 5zM247 43l8 -9l-4 13l-11 1zM237 -10l-9 -5l14 -5zM315 195l17 -1l-5 7zM323 455l-7 -9l21 11zM96 177l10 2l-6 9zM345 -74l-4 -8l10 -5zM270 64l10 10h-10v-10zM353 136l1 4l-9 -2l2 -8zM98 471l-12 -10l13 3zM225 77
l6 -8l13 -3zM69 214h9l-5 9zM352 227l13 3l-5 5zM313 566l-10 -10l6 -2zM329 398l-14 -4l6 -4zM61 295l5 -13l3 8zM327 183l11 -4v7zM252 -33l-10 -10l9 -3l-3 6zM206 3h11l4 6zM286 -122l2 7l-12 -7h10zM316 123l-2 -8l8 -3zM107 279l-10 -9l8 1zM65 226l5 8l-7 1zM136 283
l-6 -1l5 -9zM302 514l4 11l-7 6l4 -8zM152 153l-10 -3l15 -1zM335 513l-6 4l1 -8l10 6zM197 15l11 6l-7 1zM306 471h-5l4 -9zM117 638v-5h9zM315 127l8 2l7 7zM336 -51l-3 -4h10zM117 386l-5 8v-8h5zM145 61l10 2l-10 2v-4zM337 102l8 -5l-14 13zM89 341l-2 -4l4 -6z
M108 193l3 -17v9zM127 80l-1 3l-3 -8zM326 466l-1 -6l5 16zM335 208l5 2l-12 -2h7zM297 60l5 6l-9 -8zM353 71l1 -5l2 3zM360 201l-5 7l-6 6zM133 174l-5 -2l-1 -3zM333 327l-1 -10l1 3v7zM112 405l-3 2v-2h3zM315 412l-2 2v-2h2z" />
    <glyph glyph-name="R" unicode="R" horiz-adv-x="440" 
d="M414 17l-8 -16l-19 -2l-37 -2l-18 2h-33l-12 8l-11 32l-7 26l-8 31l-1 15l-7 10l-3 15l-6 23l-7 22l-2 15l-10 33v8l-6 10l-2 12l-6 23l-9 9l-13 2l-9 -7l-3 -16l1 -16l-1 -31v-29l1 -29v-29l-1 -30l1 -30v-28l1 -32l-12 -16l-12 -2l-13 1l-27 -1l-10 7l-13 -7l-30 1
l-12 5l-4 12v147l-1 28l6 11l-6 22l10 2l-10 2l1 14v35l-2 31l1 32l1 25v24l1 30l-1 34l-1 31l1 28l-1 25l2 13l-1 32v31l-1 31l1 29v27l3 13l9 9l13 1l31 1l35 -2l9 2l29 -1l30 -2l13 1l27 2l24 -1l19 -6l29 -8l17 -8l21 -14l9 -11l16 -21l15 -30l4 -14l5 -28l4 -26v-27
l1 -22v-34l-1 -27l-5 -35l-9 -32l-10 -18l-18 -21l-17 -14l-20 -9v-16l10 -35l10 -32l10 -31l9 -31l9 -33l10 -34l10 -31l8 -27zM218 405l16 -1l15 4l14 8l10 19l3 16l4 32l-1 12v28l-3 34l-4 17l-7 15l-12 13l-38 8h-16l-14 -3l-6 -18l-2 -36l1 -26v-29l-1 -28l2 -26
l-1 -27l4 -12l18 -3zM143 237l-15 -10l-3 -6l-9 -4l-4 -7l-1 -10l7 5l-1 8l13 2l-5 -11l15 1l-9 -3l11 -10l3 17l-10 7l1 10zM88 386l-5 -14l22 8l-9 2l4 18l3 3l16 12l-3 6l-4 -9l-17 -1l-7 -13l7 -15zM120 285l10 8l-5 10l-7 -11l-11 -8h9l2 -14l5 7l8 -1l-3 11zM308 149
l3 11l9 9l-6 17l-5 -11l-5 2l7 -7l-13 -16zM93 299l-8 -9l-8 -5h18l5 21l-10 10zM277 174l-1 -3l20 -5v12l-3 11l-3 -9zM89 629l5 -8l-1 -14l7 -11l6 9l-7 10l1 4zM305 464l5 -4l14 -9l-7 16l11 1l-17 1zM150 637l9 7l-8 5l-10 -5zM99 321l4 -6l11 12l12 4l-18 -4zM351 473
l-6 5l3 -12l10 5l-5 10zM266 318l9 9l-15 -5l-2 -6l3 -4zM147 327l7 9l-19 -2l10 -4l2 -9v6zM346 488l-1 10l-8 -5l-9 2l8 -5zM126 476l9 5h-13l-2 9l-3 -10zM340 454l-11 8l2 -14zM112 360l18 -6l-7 10zM138 425l5 10l-17 -8zM84 416l-3 7l-3 -17l8 4zM130 388l-7 4l-6 -1
l8 -9zM348 437l2 7l-13 -12h10zM332 132l9 2l-16 9zM143 382l9 -10v12zM121 402l-13 2l6 -4l5 -8zM136 118l5 6l-10 -1l-6 -3zM288 152l1 11l-10 -12zM136 503l-13 -7l17 2zM320 519l-6 -9l9 -2zM353 462l5 -7l7 8zM107 156l5 -5l5 12zM86 328l2 -7l9 7h-11zM125 366l6 6
l-8 4zM116 522l-6 -4l15 -2zM294 247l2 -8l8 4zM82 258h-6l6 -11v11zM131 609l-7 -3l7 -6v9zM65 213l9 4h-8l-9 -7zM334 555l-7 2l1 -9zM332 518l1 7l-9 -3zM125 395l8 1l-2 7zM291 381h-8l5 -7zM95 282l-6 -2l12 2l-1 7zM331 392l6 -11l12 -2l-10 3zM327 619l-4 -4l7 -3z
M107 255l12 -6l-4 5zM189 359l3 -2v11zM96 212h6l-6 5v-5zM361 498v-5l5 -2zM139 406l10 3l-10 -1v-2zM111 503l5 1l7 5zM74 184l-3 3v-3h3zM100 341l-2 3v-3h2z" />
    <glyph glyph-name="S" unicode="S" horiz-adv-x="412" 
d="M394 160l-2 -16l-3 -28l-7 -15l-16 -35l-11 -14l-15 -18l-20 -14l-22 -13l-26 -10l-27 -5l-24 -2l-35 1l-29 3l-30 12l-27 15l-24 20l-18 25l-14 25l-2 11l-5 7l-6 27v14l-2 44v24l1 24l8 11l15 5l14 -2l13 1l14 -2l38 2l13 -3l7 -8l1 -15l2 -33v-32l3 -18l16 -29l18 -12
l44 -2l3 6l17 13l9 21v31l-8 32l-16 30l-1 10l-8 4l-9 13l-20 21l-20 19l-38 36l-20 20l-20 23l-20 25l-17 26l-14 26l-12 31l-2 17l9 2l-11 7l-3 21v25l3 30l6 28l8 22l17 28l22 23l26 18l30 13l13 -6l8 11h21l6 4h27l27 -2l11 -5l29 -7l16 -8l14 -10l12 -12l7 -4l10 -13
l12 -17l12 -24l7 -22l3 -26l3 -29v-28l1 -27l-4 -12l-15 -6l-25 -1l-24 1h-22l-11 5l-8 -5l-14 13l-2 12l2 13l-2 21v24l-11 32l-9 10l-19 9l-19 -1l-12 -3l-18 -15l-5 -11l-8 -27l5 -14l1 -12l9 -19l14 -26l19 -22v-7l16 -10l12 -13l19 -18l26 -25l23 -24l-3 -14l11 5l1 -9
l8 1l6 -10l12 -11l16 -27l16 -26l2 -12l10 -18l5 -20l6 -33v-36zM263 296l3 -3l11 -7l10 -2l-4 11l-8 3l-2 6l-10 2l-10 -6l6 -14zM147 433l13 -2l-17 16l-3 9l-9 6l6 -18l-8 -4l3 -7h15zM270 269l18 -3l-12 8l8 5l-15 5l-7 -5l2 -13zM82 539l3 -10l1 8l-2 8l5 10l-13 14
l-3 -5l5 -2l3 -11l-6 -10zM305 283l-4 1l-2 -7l10 -1l10 10l-6 1l-3 10zM307 231l12 10l1 8l-7 -6l-9 8l5 -6l-10 -10zM201 374l13 -9l7 6l-22 12zM103 535l-7 -17l19 12zM171 404l7 -1v10l-15 -13l2 -21l1 13zM121 512l17 10l-22 5l8 -5l-4 -5zM142 467l18 1l-10 5l-9 10z
M274 350l-7 5l-2 -8l8 -6l10 1zM310 605l3 -7l12 1l-8 9zM287 638l10 7l-2 19l-6 -5l6 -13zM91 608l-3 -5l-6 -12l12 5zM313 612l1 15l-11 -4zM98 558l-2 -5l-5 -8l10 9l5 -16l-1 14zM268 323l-10 -4l5 -9zM305 75l-1 10l-9 -14zM226 376l5 -13l3 -3l-4 10l2 12zM352 178
l-5 3l-2 -13l5 3zM264 376l-6 -11h9zM208 454l-14 -3l7 -5zM329 99l-8 -1l10 -10zM119 616l-5 -8l9 -2zM291 210l9 -12l-3 13zM181 451l5 -11l1 -8l2 11zM296 266l-7 -12l15 15zM301 608l1 6l-12 -1zM144 419l-14 1l3 -5zM356 174l9 3l-1 7zM316 632l-13 2v-5zM92 524l5 8
l-9 -2zM280 64l-2 13v-7l-5 -8zM100 603l-3 -6l11 2zM336 246l-1 -16l4 8zM352 190l-7 5l-6 -3zM333 182l-7 -7l5 -1zM317 165v-6h7zM340 155l-15 -4l1 -2zM186 461l-9 -6l7 1zM340 106l2 7l-4 2zM169 468v5l-6 -14zM322 545l8 5l-8 -2v-3zM240 297l-4 5l-6 5zM113 468l-3 3
v-3h3zM121 500l-6 1v-1h6z" />
    <glyph glyph-name="T" unicode="T" horiz-adv-x="391" 
d="M385 649l2 -22l-6 -19l-19 -5l-24 4l-20 -2l-19 -1h-29l-8 -18l1 -21v-36l-2 -21l2 -15v-34l1 -31l-4 -6l3 -14l-1 -30l1 -46l-2 -9l3 -28l-1 -28l-7 -6l7 -12v-13l-1 -29v-32l1 -31v-38l-1 -24l1 -24l-4 -40l3 -8l-14 -10l-12 -2l-26 1h-31l-33 1l-11 5l-4 10l-2 34
l2 15l-1 15l-1 30l1 29v50l2 25l-2 27l1 28v52l-1 26v59l1 38l14 2l-5 14l-4 -9l-7 18l2 16l-1 38l3 8l-2 12l4 14l-4 5l2 21l-7 20l-13 1h-55l-13 3l-36 4l-2 14l-1 29v29l2 28l4 10l11 5l12 -1h27l27 -1h20l31 -1h28l27 1l5 -14v13l39 1h28l23 1h29l26 -2l20 2l17 -6
l4 -18l-1 -30v-21zM219 658l-18 -9l6 -9l-3 -7l8 3l2 13h15l6 13l-9 6zM187 681l7 -8l21 5l-1 9l-8 3h-7zM155 406l10 1l13 -3l-12 18l-11 -10l-12 -3zM288 645l-8 2l-18 -7l-2 -8l9 5l10 -3zM164 662l-3 -4l-9 2l10 -7l3 -11l9 6zM142 544l13 -6l3 13l-4 5zM219 561l-8 9
l-13 2l-5 -7l5 3l9 -6zM202 407l7 8l-10 16l2 -15l-7 -5zM52 677l6 -7l9 6l-9 9zM232 673v-7l8 -3l15 -10l-12 13zM192 195l22 -1l-19 9zM183 284l10 -2l-3 12l-7 -1v-9zM67 651l13 -1l-13 14v-13zM170 689l12 -14l-3 10l-9 14v-10zM177 439l-3 -6l10 -4l2 10h-9zM225 452
l-11 -6l1 -10l4 8l4 -2zM216 173l-3 4l-5 6l-3 -14zM149 685l1 16l-8 5zM297 669l8 7l-6 7l-3 -5zM355 691l2 5l-11 1l3 -9zM218 358l10 -1l9 5l-10 1zM200 391l1 12l-10 -8zM272 679l4 -11l8 5zM183 217l6 -2l-5 7l-12 5zM238 688v-12l13 11l-7 -4zM229 628l2 10l-9 2z
M181 543l-7 2l-3 8l-2 -11zM260 615l4 6l-16 -5zM174 197l11 -9l-3 8zM272 668l-5 -13l5 1v12zM227 694l-4 -8l8 1zM172 605l-2 5l-9 -6zM102 665v-7l7 7h-7zM169 629l-11 12l6 -11zM156 677l-6 1l6 -9v8zM181 393h-8l8 -5v5zM169 185l-3 3v-3h3z" />
    <glyph glyph-name="U" unicode="U" horiz-adv-x="458" 
d="M414 495l-2 -2l-1 -34l2 -27l-8 -7l6 -2l2 -12l-1 -15l1 -29v-31l-1 -31l2 -28l-2 -14v-23l2 -13l-1 -12l-1 -33l2 -28l-3 -11l1 -11l-4 -12l-8 -29l-16 -29l-19 -24l-24 -21l-32 -17l-8 -1l-24 -7l-28 -4l-25 -1l-29 1l-15 4l-29 7l-28 13l-12 9l-22 21l-19 22l-6 12
l-10 24l-4 20l-4 25l-2 39l2 7l-2 32l2 28l-2 14l2 20l-2 28l1 26v51l-1 42l2 25l-2 18v61l1 33v31l-1 33l2 10l-2 14l2 22l-1 27l8 15l24 2l33 -1h31l28 -2l8 -10l1 -13v-57l1 -30l-2 -7l2 -8l-2 -16l1 -29v-29l-1 -32v-67l2 -32l-2 -23l1 -16v-62l-2 -30l2 -16v-63l1 -31
l6 -17l11 -18l13 -5h35l15 3l12 12l7 16l5 31l-1 36v33l1 32l-2 12l1 13v27l4 23l-3 13v76l-1 31v35l-1 32l3 14l-3 25l2 17l-1 26l-1 28l5 28l-4 13v17l3 15l18 6h34l31 -4l15 3l17 -1l11 -7v-22l3 -12l-2 -12l1 -32l-2 -36l2 -15l-2 -18l2 -7l-4 -26l3 -8zM376 605h-3
l-4 3l-2 17l-12 -3l11 -14l-9 -17v-9l4 9l15 9h7zM362 535l2 -10l-3 -6l-6 -4l-9 7l-9 -19l7 6l8 1l9 -2l-2 5l5 12l8 1zM351 317v9l-8 6l4 8l-9 -9l1 -10zM348 609l4 9l-12 -1l4 -13l11 -1zM334 527l-5 5l-4 -8l12 1l-1 9l-9 8v-5zM388 562l2 10l-12 1v-9zM356 415l2 -8
l5 -13h3l-7 11l6 10l-4 8zM382 442l-1 10l-7 6l-3 -8zM322 501l-6 1l11 -5l-3 -8l8 16l-10 4v-8zM343 431h7l-12 3l3 13l-9 -10l3 -7zM314 390l-4 -8h18zM366 670l-10 -3h8l5 -5l2 11l-7 5zM377 581l-10 6l6 -11l14 1zM339 482l11 8h-17zM369 562l-5 -7l-8 -6l10 -1z
M105 364l12 -9l-3 11zM329 672l-1 -22l2 14h9zM350 493l5 8l8 -1l-13 6v-13zM295 243l5 9l-10 -3zM339 601l-9 -2l9 -6v8zM375 376l5 15l-3 5zM351 570l8 11l-6 -7l-8 8zM338 546l3 6l-8 2zM354 558l10 10l-6 -3zM363 633l-3 3v-8zM323 392l6 -2l1 3zM328 276l-3 3v-3h3z
" />
    <glyph glyph-name="V" unicode="V" horiz-adv-x="420" 
d="M224 326l4 7v8l-5 7l5 27l4 30l7 27l2 27l9 41l1 15l4 25l6 35l6 33v15l4 12l4 30l5 32l5 17l14 8h69l28 2l13 -7l2 -17l-4 -15l-2 -15l-6 -12l3 -8l-6 -22l-2 -18l-6 -15v-18l-4 -9v-12l-5 -29l-4 -13l-5 -30l-6 -14l-1 -12l-4 -24l-12 -58l-5 -24l-5 -23l-1 -13l-3 -20
l-7 -24l-1 -14l-7 -25l-6 -32l-4 -29l-5 -25l-7 -21v-9l-3 -22l-6 -30l-7 -29l-2 -20l-10 -15l-30 -3h-56l-34 4l-6 10l-7 28l-1 17l-7 28l-7 37l-6 32l-6 29l-4 28l-5 15l-6 32l2 13l-7 14l-5 26l5 5l-6 6l-7 26l-1 16l-7 31l-5 27l-7 31l-1 18l-6 14l-2 15l-5 34l-7 32
l-7 36l-7 30v12l-5 12l3 7l-7 15l-4 33l11 10l16 1l24 1h30l32 -1l18 -9l3 -11v-10l5 -13l1 -13l4 -25l4 -27l5 -26l5 -34l3 -24h-7l10 -16l3 -19l6 -32v-15l5 -17l5 -33l7 -34l1 -16l4 -29l-1 -15l10 -13l6 20zM239 117l5 -10l6 4l-13 14h-19l1 -7l-14 -9l11 -2l17 15z
M136 392l-5 -8l10 -7l7 -2l-3 19zM235 94l4 11l-10 -6l-7 -11l6 -6zM156 125l-2 -7l7 -7l9 7l-5 5zM137 254l10 -7v16l-6 4zM225 67l-8 15l-11 -2zM180 116h12v9h-8zM88 432l11 -3l-2 14l-9 -3l7 -4zM287 454l-4 -5l7 -9l5 4zM156 245l1 -9l7 4l2 7zM144 278h14l-9 9z
M282 285l12 2l-3 8zM122 494l-16 -8l10 -1zM121 270h12l-8 8zM209 137l-12 -1l9 -7zM253 183l13 12l-11 1l3 -7zM210 188l2 -10l7 -1l-3 6zM104 391l12 2l-19 4zM304 377l10 1l-5 8zM101 459l-6 -10l8 4l-2 15v-9zM174 215h-9l6 -8zM140 234l2 -10l4 15zM207 172l-14 2l8 -6
zM131 509l-4 9l-4 -7zM118 374l1 -7l9 -6zM263 441l2 -7l6 7h-8zM264 219l2 6h-9zM280 422l5 -11l6 -4zM290 366l10 -4l-12 6l-5 -7zM294 305l2 2l-8 8zM128 260l2 -3l7 4zM165 262l-7 4v-4h7zM260 79l-1 7l-5 8zM287 423l-3 3v-3h3zM252 260l-1 -3v-6z" />
    <glyph glyph-name="W" unicode="W" horiz-adv-x="618" 
d="M602 722l7 -15l-3 -18l-4 -27l-5 -33l-7 -40l-5 -31l-4 -11v-12l-5 -31l-4 -8l1 -16l-6 -21l-3 -23l-4 -25l-3 -21l-5 -17l-1 -13l-7 -34l2 -8l-3 -10l-5 -34l-8 -14l3 -13l-2 -8l-4 -30l-4 -11l-1 -22l-5 -19l-6 -37l-6 -35l-4 -30l-7 -38l-8 -16l-25 -2h-28l-27 -2
l-28 9l-5 12l-6 35l-5 23l-6 41l-4 31l-5 35l-6 27l-4 23l-6 33l-3 25l7 3l-10 11l-4 33l-4 13l-2 19l-8 12l-8 -26l-4 -31l-5 -35l-4 -26l-6 -30l-7 -38l-4 -30l-3 -27l-4 -14l-4 -27l-5 -28l-6 -35l-4 -24l-11 -11l-14 -2h-70l-13 2l-9 8l-4 30l-5 12l-1 14l-5 29l-5 30
l-5 27v13l-4 11l-1 11l-6 25l-4 33l-2 24l-4 8l-4 31l-4 23l-4 33l-6 27l-6 32l-4 27l-3 22l-4 16l-3 29l-8 28l-2 28l-4 11l-1 19l-6 33l-5 32l-6 30v16l9 9l16 3h15l32 -2l17 2l22 -1l14 -13l4 -14v-9l5 -33l4 -30l4 -31l4 -30l5 -31l4 -30l3 -36l4 -14l3 -27l4 -26l4 -28
l2 -33l12 -11l-1 9l3 12l2 25l4 13l4 26l4 14l-1 12l7 33l3 27l4 13l4 25l-1 12l3 11l8 35l-1 9l2 13l3 22l3 9l2 23l5 30l10 19l34 4h30l29 -2l8 -7l4 -14l6 -41l2 -34l6 -11l4 -23l3 -31l6 -31l3 -28l4 -27l6 -37l4 -13v-12l4 -29l6 -35l6 -17l6 9l3 28l7 15l-4 5l5 19
l2 20l2 29l4 30l4 27l6 32l2 34l6 23v19l4 28l5 30l5 31l7 10l15 3l34 1l35 -1zM156 311l-4 -2l-2 8l-19 -5h-8l4 -8l8 -2l8 -6l13 -2l-4 7zM444 113l-6 10l-5 8l-3 -10l2 -8l-17 16l-4 -13l9 -8l-6 13l18 -11l-9 -6h13zM136 228l-5 -6l12 1l15 10l4 7l-5 3l-16 1l6 -8
l-11 4v-12zM169 133l9 1l-9 12l-7 -4l-5 4l1 1l-7 -7l6 4l-2 -11l3 -13zM332 504l9 2v-9l4 -12l6 12l-2 12l-6 -1v10l-6 -8l-16 -9l8 -5zM152 203l7 4l8 -11l4 8l-15 8l-8 9l-6 -6l8 -10l-8 -11l8 4l5 -9zM314 549l-10 4l-9 4l-8 -6l14 -17l4 12zM174 291l-12 -3l-11 -5
l-18 9l8 -7l-4 -12l20 5l-1 -6l5 10zM169 147l9 9l8 10l4 9l-2 13l-11 -12l4 -12l-7 -7zM125 265l4 -12l9 3l9 8l-10 -4l-1 11l-11 6v-12zM300 498l6 5l-10 1l-1 8l-9 -7v-10l7 -6zM132 190l9 5l-8 17l-9 -5l3 -10zM252 352l-13 11l1 9l-4 -14l6 -8l1 -11zM225 194l-8 7
l-6 8l2 -8l-7 3l10 -18l4 6zM133 332l-4 -6l3 -2l14 4l-6 7l-4 9zM210 228l-3 -6l16 7l2 13zM480 441l4 -14l6 -8l6 11h-7zM107 345l11 -5l11 -4l-3 10zM490 323l-10 3l-6 -9l13 -1zM125 416l-8 -2l9 -10l16 6l-10 -3zM500 581v-7l7 -4l5 11h-12zM506 390h14l-8 6l-7 9z
M216 159l15 7l-17 4zM489 304l8 -2l-10 9l-9 -4l10 -10l-4 7h5zM374 387l-6 7l-2 -9l9 -10zM247 467l-2 -10l7 5l7 -5l7 10l-7 -5zM275 559l4 11l-9 -2l-3 -9h8zM363 354l12 -10l-6 16zM467 279l-5 -3l10 1l-2 -9l5 7l-4 12zM328 597v-16l8 6zM146 150l8 11l11 -3l-20 7
l3 -9zM247 422l-3 -11l14 8l-1 2l-8 -4zM181 191l-5 6l6 7l-14 -11zM307 603l-9 7l-7 14v-11zM192 115l8 -9v11zM342 388l16 3l-6 4zM157 218l7 6l-4 8zM499 362l-11 6l2 -8zM386 289l9 3l-19 2zM336 515v6l9 5l-10 2zM403 92v1l2 8l-7 -1zM369 304l-3 7l-3 -5l-8 -1z
M109 334l-9 9v-6zM362 548l1 7l-8 -3zM309 567l8 -7l-7 12zM76 555l-6 -2l5 -6zM339 445l5 -1l-6 9zM80 479l12 3h-12v-3zM221 123l-3 8l-1 -9zM198 213l-2 3l-9 -2zM234 184l2 5l-9 -8zM160 256l7 -1l-7 5v-4zM521 607l-3 -1l-1 -9zM292 582l1 -5l3 10zM322 519l-2 -7l7 15
zM451 65l-3 2v-2h3zM120 357l-3 2v-2h3zM151 489h-2l2 -2v2zM158 148v-1l3 8zM240 373v-1l1 12z" />
    <glyph glyph-name="X" unicode="X" horiz-adv-x="400" 
d="M399 21l-5 -19l-21 -2l-29 -2l-29 -1l-27 1l-16 6l-9 14l-2 15l-13 31l-7 33l-9 24l-2 27l-6 4l-7 18l-7 32l-9 17l-9 -9l-3 -14l-8 -21l-8 -27l-8 -24l-8 -28l-7 -7l2 -8l-12 -36l-9 -32l-10 -11l-13 -3h-45l-13 4l-9 -5h-19l-15 3l-6 14l2 14l15 39l12 31l4 18l9 15
l9 30l11 33l10 25l8 23l14 35l10 31l13 37l8 8l-3 8l2 14l-10 26l-7 22v13l-12 17l-12 37l-2 19l-9 11l-11 37l-11 32l-5 9l-12 31l-7 22l-9 26l-10 27l3 13l12 4h28l34 1h36l16 -5l11 -27l8 -31l8 -28l12 -40l8 -25l-3 -10l9 -11l9 -27l9 9l6 11l1 10l6 24l4 8l9 29l7 30
l9 29l6 22l7 22l15 10l21 -9l-6 9l13 1l27 -1l28 -1h21l10 -9l-1 -13l-5 -13l-12 -30l-9 -27l-13 -40l-9 -16v-11l-7 -18l-13 -32l-14 -36l1 -2l-5 -7l-1 -16l-8 -15l-4 -14l-10 -32l-4 -24l5 -13l10 -29l4 -18l8 -14l-4 -13l10 -9l6 -13l9 -30l8 -29l7 -14l9 -28l6 -16
l11 -33l13 -30l2 -14l12 -38zM289 232l-2 5l-2 7l-9 -7l-10 1l3 -12h13l1 -7zM127 190l14 5l5 -12l13 9l-17 8l-2 4l-12 -5zM221 293l20 -1l-5 12l-10 1l-8 -8zM272 540l-5 6l-7 -12l3 -11l9 5l-4 5zM177 318l5 11l15 4l-6 5l-16 -6zM186 419l-14 8l4 -8l-9 -2l-3 -8l10 2
l7 8h5zM228 353l14 -1l-6 9l-11 1zM111 624l-5 -9l3 -3l11 4l-3 6zM299 135l2 12l-12 1zM217 318l8 5l-4 5l-6 3zM123 638l-10 10l-4 -9zM47 52h13l-3 10zM254 286l-6 2l9 -11l2 8l-6 9zM277 573l-2 -11l13 7zM130 157l-10 7l2 -12zM239 457l-4 -13l13 -8l-9 10v11zM157 181
l4 5l-14 -8l7 -4zM141 244l-4 -9l11 2zM235 428l4 10l-11 -6zM274 99l18 2l-13 3zM274 207l5 -8l-3 19zM159 327l8 -4l-1 9zM254 411l-6 6l2 -11zM243 277l-6 -3l14 -1zM168 357l1 -4l7 6zM123 573l-8 10l5 -9zM286 530l8 -2l11 -1zM64 57l2 3l-3 2zM308 578l-4 3v-3h4z
M268 267l3 1l-3 2v-3zM86 598l5 7l-1 1zM249 333l-2 3v-3h2zM275 304l-3 2v-2h3zM237 348l-3 2v-2h3z" />
    <glyph glyph-name="Y" unicode="Y" 
d="M414 715l-6 -28l-10 -30l-12 -35l-6 -6l1 -12l-8 -23l-8 -22l-7 -23l-10 -28l-11 -32l-14 -30l-1 -18l-7 -16l-8 -28l-10 -28l-10 -29l-9 -29l-6 -7l5 -12l-1 -28v-32l1 -28l-2 -12l2 -26l-2 -29l2 -9l-2 -9v-31l2 -38l-1 -26l-9 -10l-16 -3l-14 1l-27 -1l-29 1l-28 1
l-9 10l-1 15l-1 29v103l2 16l-2 34v26l2 31l-2 8l3 16l-4 12l-10 33l2 15l-7 -3l-9 28l-5 20l-11 28l-11 34l-13 35l-1 13l-11 26l5 10l-12 14l-6 19l-11 34l-10 25v10l-5 13l-9 24l-8 34l7 9l12 2h73l33 -3l7 -7l7 -26l10 -31l7 -30l4 -7l3 -13l7 -25l9 -29l10 -37l9 -34
l9 -6l7 13l3 15l9 34l9 33l5 18l6 25l8 27l7 29l7 17l10 32l33 5h36l8 -2l26 3l13 -2zM199 381l-13 -2l2 -16l9 8l9 4l23 8l-7 9l-10 13l-10 2v-6l9 -5l6 -13zM116 642l-12 9l2 -9l8 -6l-3 -20l18 6v9h-12l4 7zM96 605l5 10l-13 -5l12 -14zM91 581l-2 7l3 12h-10zM131 478
l14 -6l-3 14l-3 -8h-8zM208 299l2 13l-8 -6zM253 478l-6 3l8 -9l7 7zM116 584l5 -5l7 9zM113 563l7 8h-10zM195 358l7 -14l-1 13zM124 526h12l-8 6zM286 526l-4 -7l4 -10v17zM128 602l-4 9l-12 -3l7 1zM85 676l2 -6l7 8zM175 325l8 2v7zM243 397l6 -3l-1 9zM220 243l1 -7
l5 7h-6zM168 517l-12 -10l-2 -5zM267 404l3 9l-5 -6zM160 324l5 3h-8zM310 497l-4 4v-4h4zM224 163l-3 2v-2h3zM99 697l-3 2v-2h3z" />
    <glyph glyph-name="Z" unicode="Z" horiz-adv-x="397" 
d="M377 704v-15l-1 -14l1 -28l-6 -24l-9 -25l-6 -8l-5 -22l-15 -23v-13l-4 -8l-7 -23l-9 -21l-7 -20l-20 -46l-2 -10l-10 -13l-2 -16l-20 -50l-10 -26l-11 -28l-11 -27l-9 -25l-7 9l4 -11l-3 -13l-6 -12l-12 -32l-11 -33l11 -8l18 -1h64l26 2l29 -2l33 -1l11 -13v-18l1 -33
l1 -39l-5 -10l-18 -4l-38 -2h-26l-28 1h-59l-31 -2l-13 1h-63l-23 -1l-5 2l-5 -2l-18 1l-13 9l-3 18v55l6 22l10 20l9 27l8 22l9 20l7 19l6 9l7 24l9 24l8 23l7 14l12 30l12 27l11 26l7 24l10 23l8 23l12 25l11 29l20 52l12 27l-1 10l-11 5l-16 -1l-12 2l-31 -2h-35l-31 1
l-27 -1l-13 3l-4 30l1 28l2 28l-5 12l7 12l11 6h26l32 -1l12 2l26 -1l25 -2l27 2l25 -1l30 2l24 -2l22 1h50l11 -6zM250 692l-8 -2l4 -8l10 -5l-7 -8l-1 -8l10 -3l3 14zM206 418l14 -8l-4 7l8 7l-8 -2l7 12l9 9l-6 8l-7 -7l3 -6l-10 -8l1 -12h-7zM265 463l10 3l-12 21
l-13 -10h8l8 -3zM278 672l1 -7l11 4l3 -12l-1 -6l12 4l2 11l-8 -9l-10 16zM257 423l-4 3l-12 1l-2 -8l10 -5zM258 572l-9 -8l14 -8l7 5l-6 2zM105 86l-17 1l8 -17l1 13l16 -5zM309 609l-6 6l-5 -10l-12 7l3 -11h6zM102 52l6 -5h7l-3 4l-2 15zM222 468l-4 -8l12 1l6 9z
M168 345l-8 -7l18 -3l-4 9zM250 508l9 -9l-1 10l-12 12zM265 539l3 4l-10 7l-5 -10zM269 640l3 8l-9 5l-1 -12zM243 501l6 3l-15 2l2 -11zM195 300v7l6 7l-12 -3zM259 451l-6 -6l9 -7zM330 648l11 -2l-2 8zM259 457l-1 5l-7 7v-7zM149 255l5 8l-12 -3zM198 362l-9 5l9 -10
l7 3zM207 630l-6 9l-4 -7zM323 631l8 4l-9 4zM279 606l-3 -4l12 -1zM277 587l-18 14l8 -9zM235 633l1 9l-7 -14zM196 276l3 7h-5zM281 494l-4 -6l11 9zM263 354l-3 3v-3h3zM160 247l-2 4v-4h2z" />
    <glyph glyph-name="bracketleft" unicode="[" horiz-adv-x="269" 
d="M223 -84l1 -12l-4 -11l-12 -5l-14 1l-29 -1l-28 2l-13 -2l-32 1l-23 -1l-25 1l-19 9l-2 12v28l2 9l-1 14v31l-1 32l1 28v57l1 28v57l-1 29v29l3 35l-4 21l2 16l-1 31l-1 27l3 26l-3 22l2 14l-2 25l-1 34l3 13l-1 13l-1 27l2 27v25l-2 27l2 12l-2 20v29l2 26v26l-1 29v37
l5 16l14 3l31 2l28 -1h60l27 -1l13 2l20 -8l3 -14l-1 -31v-29l-10 -10l-29 -1l-15 2l-33 -2l-10 -7v-59l1 -26v-58l-1 -29v-29l-1 -29v-32l1 -21v-56l-1 -30l1 -33l-3 -12l3 -13l-2 -14l2 -26v-26l-2 -25l2 -12l-1 -11l2 -16l-1 -14l-1 -27l1 -35l1 -28l-2 -26l2 -13l-3 -33
l3 -14l15 -8h21l28 1l27 -4l7 -19l-3 -13l3 -9zM133 801l-4 -3l6 -6h17l-7 6zM75 545l4 -13l7 5zM150 -80l-7 10v-3l2 -2l-9 2l-4 -10l9 7l4 1zM79 693h-7l-7 4l8 -11zM56 591v-7l13 7h-13zM94 516h-8l-8 -10zM93 704l7 6l-11 1zM161 -68l5 1l-7 7zM135 -69l-11 8l6 -8h5z
M79 605l4 -5l-5 -7l8 6zM133 757l4 1l-8 6zM110 -56l8 2l-11 1zM67 455l-3 2v-2h3z" />
    <glyph glyph-name="backslash" unicode="\" horiz-adv-x="243" 
d="M275 -44l-1 -20l-23 -6l-13 2l-14 -2l-15 1l-20 16l-4 11l-7 25l3 23l-7 -6l-12 42l-7 22l-4 23l-9 28l-6 19v15l-7 11l-4 14l-7 29l-7 31l-10 28l1 15l-6 11l8 -3l-11 15l3 5l-8 9l-6 27l-10 31l-5 28l-10 32l1 22l-8 1l-3 14l-7 27l-10 34l-1 12l-6 13l-1 11l-4 9v9
l-7 22l-5 10l-1 10l-7 30l-11 30v9l-4 15l-7 23l-6 23l-4 20l17 13l30 2l28 -1l13 -17l6 -17l8 -30l5 -24l8 -22l5 -25l7 -25l7 -24l8 -29l8 -28l6 -27l7 -26l7 -24l7 -26l6 -22l6 -25l8 -27l7 -25l7 -22v-9l4 -13l8 -34l11 -39l7 -18l-1 -9l5 -7l4 -21l9 -31l7 -29l10 -32
l6 -26l8 -33l14 -46l1 -13zM120 408l-14 -6l4 -7l23 7zM19 711l8 -9l-3 7l6 9l-6 12l-7 -11zM100 435l9 4l-19 6l4 -11zM148 250l14 5l-12 7zM174 225l-9 -2l-9 2l-5 -13l5 8l9 -1zM179 99l10 -6l-1 10zM107 443l-6 12h-10l10 -5zM179 168l-2 -5l12 -5zM218 8l-2 -6l8 -9z
M66 565v-7l9 2zM160 124l4 -1v13zM223 -24l-4 9l2 -17zM138 241l6 2v6zM121 314l11 1v1z" />
    <glyph glyph-name="bracketright" unicode="]" horiz-adv-x="269" 
d="M245 45l1 -14l-1 -29v-86l-4 -23l-18 -5h-18l-24 2l-25 -3l-31 1h-64l-12 5l-4 17l-2 29l2 28l9 12l17 1h60l11 8l2 17l-2 33v27l1 27v56l-2 26l2 11l-1 13l2 23l-1 26v34l-1 29l1 35v63l3 31l-2 9v25l-2 34l2 35l-2 17l3 18l-3 14l2 21l-2 11l1 24l1 29l-2 25l1 23
l-2 12l-14 7l-16 -1l-30 2l-17 -2l-16 6l-5 17l1 19v32l5 13l13 6l33 -1h84l29 2l16 -1l15 -4l6 -13v-15l1 -35l-3 -10l3 -14l-1 -30v-36l-1 -25l1 -28l1 -35l-1 -24l1 -28l-2 -31l1 -16v-55l1 -32l-1 -29l-1 -27l2 -29l-2 -32l1 -15v-33l2 -26l-3 -27l2 -25l-1 -33v-83z
M196 284l15 7l-12 10l-3 -9l-12 1zM93 790l12 1l9 8l-5 4l-6 -7l-6 3l1 9l-6 -7zM210 700l-9 1l-6 -4l9 -2l7 -6l5 5zM204 626l-10 1l-9 -7l7 -1zM202 572l-13 4l9 -12zM184 150l11 -1l11 -4l-14 10zM206 674l-1 4l-13 -2l9 -1l2 -8zM183 52l8 3l-4 10zM186 623l3 6l-14 2z
M202 457l-10 -1l18 -1l1 7zM174 -24l12 -4l-3 8zM189 314l2 7h-12zM177 470l-7 -9h9zM203 417l-14 -9l9 3l-4 -13zM135 793l6 8l-12 -1l6 -4v-3zM196 525l11 6l-2 5zM194 95l4 -7l1 10l-13 -6zM203 433l1 11l-6 -12zM198 584l3 16l-4 -9zM221 674l-2 3v-3h2zM178 173l-3 2
v-2h3zM176 544l-2 2v-2h2z" />
    <glyph glyph-name="asciicircum" unicode="^" horiz-adv-x="542" 
d="M493 330l3 -18l-14 -10l-19 1l-11 -2l-13 1l-23 -2l-25 2l-11 5l-8 12l-14 32l-13 37l-9 22l-10 29l-5 5l-5 15l-14 31l-13 34l-7 18l-11 17l-7 -6l-8 -16l-13 -33l-8 -23l-10 -22l-15 -35l-11 -29l-10 -27l-12 -32l-16 -29l-12 -5h-44l-26 -1l-25 2l-7 8l9 35l9 18
l16 39l10 9l2 19l13 27l11 27l15 34l8 22l7 14l12 29l12 31l16 37l7 11l9 23l8 23l9 10l12 5l13 -2l13 2l10 -3l11 2l18 -1l14 2l10 -5l7 -9l7 -16l14 -30l9 -21l-1 -9l15 -23l13 -27l10 -25l-1 -11l10 -12l3 -14l-10 -2l9 -1l8 -7l-1 -8l8 -3l6 -18l14 -37l9 -25l-11 -1
l18 -10l-5 -19l13 3l16 -38zM383 464l6 -9h10l-13 15l-14 4l4 -6v-19l9 5zM330 520l7 -7l6 -4l9 10l-10 -1l-7 5zM347 492l12 -7l-6 8l-11 11l-6 -8zM285 678l10 2l-17 13l-1 -13l5 6zM305 571l16 9l-10 -2l2 12h-4zM296 699l-1 -9l9 -15l-1 14zM277 618v4l-9 7v-11h9z
M164 474l-4 4v6l-5 -11zM154 449l-3 -9l7 9l-7 6zM228 604l-4 6l-13 9zM319 482l4 2l-5 6zM395 383l2 2l-9 6zM214 586l-3 9l-5 6zM381 481h-7l12 -2zM366 421l-3 4v-4h3z" />
    <glyph glyph-name="underscore" unicode="_" horiz-adv-x="391" 
d="M405 -105v-12l-1 -21l-8 -8l-12 -2l-13 1l-27 -1l-28 1l-16 -2l-27 1h-33l-9 4l-5 -2l-7 3l-4 -5l-11 1l-12 -2l-31 1l-35 2l-29 -2h-32l-27 1l-34 -2l-12 5l-6 12v23l1 28l15 12h70l4 -11l1 11l12 2l16 -2l18 1l34 -1h30l29 2h34l19 -6l10 5l30 -1l5 -7l2 7l22 1h29
l23 -1l13 -7l3 -14zM305 -119l8 12l-10 -4l-1 11l-7 -1l6 -22zM169 -111l7 -1l-2 11l-12 -2zM235 -124v11l-10 -9zM304 -85l6 -11l5 7zM243 -110l5 6l-13 -4zM150 -109l1 5l-9 1zM190 -110l5 3l-4 5zM219 -76l9 -8l-2 5z" />
    <glyph glyph-name="grave" unicode="`" horiz-adv-x="160" 
d="M128 810l4 -15l-2 -14l-17 -5h-48l-6 5l-12 5l-12 21l-7 6l-12 21l-13 13l-3 8l-7 5l-11 19l-16 20l-11 19l3 10l11 3l14 -2l18 3h55l18 -4l8 -12l13 -25l3 -15zM51 866l-2 3l-10 17l2 -13zM8 914l-3 3v-3h3z" />
    <glyph glyph-name="a" unicode="a" 
d="M409 34l2 -12v-11l-13 -12h-10l-24 1l-13 -2l-27 1h-26l-15 8l-5 16l-1 21l-2 16l-4 12l1 10l-4 10v13l-4 23l-8 19l-28 -1h-28l-29 1l-12 -5l-5 -13v-12l-5 -28l-6 -31v-18l-5 -25l-8 -12l-13 -4h-80l-15 3l-11 9l6 35l7 36l6 40l5 22l1 13l5 27l5 24l10 62l6 26l1 18
l4 18l4 31l7 8v19l3 21l6 36l6 32l6 31l4 24l4 28l6 30l5 28l4 27l4 13v13l4 13l2 20l9 15l12 4l28 -2h29l14 2l19 -1h25l14 -4l7 -10l7 -27l3 -28l6 -31l5 -35l4 -23l7 -26l1 -17l6 -33l7 -33l5 -30l7 -32l-2 -9l5 -11l4 -35l7 -32l3 -23l5 -23l3 -23l7 -34l3 -25l5 -27
l12 -62l4 -30zM185 262h15l30 1l12 11l-3 23l-6 41l-3 23l-7 41l-2 26l-5 29l-7 13l-8 -26l1 -11l-3 -17l-5 -35l-4 -26l-5 -25l-3 -25l-5 -31zM297 237l15 3v4l-18 5l-3 -10l-6 -10h-8l-6 7l-13 -4l17 -9l11 2zM268 205l9 -6l4 -8l5 14h-18zM125 471l-3 -11l13 -9zM264 458
l-6 -1l4 -13l7 7zM190 543l7 11l-10 -3l-6 -9zM198 598l-2 -4l11 -7l2 8zM175 185l12 4l-6 10zM183 612l-6 3l-3 -9l17 5zM120 435l1 -9l11 17zM249 507l-7 -8l15 1zM116 115l6 9l-11 2zM279 498l-4 6l-13 5l6 -6zM286 537l-1 -9l9 -2zM124 345l-10 6l2 -9zM199 242l8 -10
l-2 9zM261 173l3 10l-8 -11zM245 461l-5 9v-9h5zM162 192l3 4l-6 6zM216 620v-4l10 5zM240 642v-5h6zM262 261l6 -6l10 -13l-7 11zM172 534l-9 -1l11 -1zM200 606l-5 1l13 -3z" />
    <glyph glyph-name="b" unicode="b" horiz-adv-x="428" 
d="M412 183l1 -13l-2 -12l-2 -28l-6 -24l-11 -31l-8 -12l-18 -21l-25 -21l-14 -7l-26 -9l-12 -2l-29 -2l-27 -1l-25 -1l-30 -1l-34 1l-29 1l-29 -1l-26 1l-14 15l-1 16l-1 33l1 31l1 36l-2 31v32l1 33v50l1 20l-3 21l3 45l-1 28v28l-1 29l1 30l-1 31l2 16l-1 18v54l-1 31
l2 29l-2 25l1 26l12 15l19 2l12 -1l25 -1h52l13 2l31 -1l32 -1l31 -2l36 -8l17 -7l27 -16l10 -11l22 -30l11 -29l7 -29l1 -32l2 -33v-31l-3 -27l-5 -27l-10 -18l-18 -28l-18 -15l-1 -11l21 -16l16 -19l14 -28l6 -23l4 -25l1 -25l2 -23zM280 182l3 18l-1 15l-3 31l-5 30
l-6 15l-27 23l-31 2l-26 -1l-7 -13l2 -32v-33l-2 -22l1 -29v-29l1 -31l7 -11l17 -3l32 1l17 5l14 10l9 15zM179 588l-1 -13l1 -13l-2 -17l2 -17v-57l-2 -27l3 -14l13 -5l17 -2l10 3h19l12 8l10 10l7 14l6 34l-1 15l2 14l-4 36l-4 18l-7 14l-9 10l-12 6l-15 3l-34 2l-10 -8z
M107 381l-6 10l12 7l3 8l-14 -2l-3 -15l-7 -6l11 -3zM171 353l4 10l-7 -9l-9 -7v-4l12 -3v13zM96 112l7 8l-17 5zM105 360l13 -6l2 11zM151 326l-1 1l-11 3l9 -15zM114 420l1 20l-8 -14zM117 445l-4 10l-15 -7l9 2zM138 237h10l-11 11zM133 656l-9 -3l11 -7zM112 99l-5 6
l1 6l-7 -11zM179 357l4 -9l6 9h-10zM155 388l7 -4l5 10zM259 389l8 2l-5 6h-4zM106 319l-8 -1l4 -8zM139 82l7 10l-13 -9zM110 336v9l-7 -2zM124 582l-5 -12l6 2zM318 332l-5 7l-1 -10zM126 354l4 7l-7 2zM127 151l-12 2v-4zM106 245l3 7l3 9l-8 -15zM349 570l2 -8l5 -6z
M75 398l20 -1l-12 1l5 1zM145 394l-3 3v-3h3zM89 370l3 2h-3v-2zM346 405l-3 2v-2h3zM312 310l-3 2v-2h3z" />
    <glyph glyph-name="c" unicode="c" horiz-adv-x="416" 
d="M390 204l1 -14l1 -32l-2 -23l-8 -28l-7 -24l-9 -18l-9 -9l-8 -13l-13 -14l-13 -7l-9 -8l-11 -6l-28 -11l-26 -7l-25 -1h-24l-30 2l-31 8l-26 11l-8 8l-11 4l-7 8l-8 4l-8 11l-18 21l-13 27l-12 36l-3 31l-1 29l1 29l-1 27l1 26v25l-1 31l2 30l-1 29v27l1 26l-1 26v90
l2 33l4 10l2 16l11 27l13 21l17 23l13 12l22 14l29 13l27 9h17l17 3h18l32 -3l14 -3l25 -7l23 -12l24 -17l11 -13l19 -22l7 -14l11 -31l5 -30l2 -33l2 -34l-2 -13l1 -16l-2 -15l2 -13l-9 -15l-16 -1h-32l-29 -1l-33 2l-9 7l-3 17l1 34l-1 25l2 28l-6 28l-17 22l-12 7l-14 3
h-15l-14 -5l-11 -10l-12 -25l-2 -15l-1 -29v-30l2 -29l-2 -14l1 -10v-128l1 -27l-1 -25l1 -24l-2 -31l1 -25v-27l2 -17l5 -13l15 -15l11 -5l25 -4l25 10l9 11l5 11l6 23l-2 21l1 17l1 27l-2 13l2 30l5 12l11 6l28 1h59l19 -6l6 -9v-20l2 -25zM77 327l-5 6l6 -12l-13 -3
l16 -12l3 18zM61 289l6 1v8l-7 5zM96 244l9 -1l-4 16zM92 294l-12 4v-17l5 11zM72 227l9 1l9 -1l-7 7zM44 336l14 -6l5 7l-8 -3zM92 283l13 4l-6 3zM86 206l-4 -2l8 -11zM68 265l6 -4l9 -5l-10 9h-5zM76 180l13 4l-6 2zM131 106l5 -2l5 8zM92 83l2 6l-7 -1z" />
    <glyph glyph-name="d" unicode="d" horiz-adv-x="440" 
d="M415 250l1 -11l-1 -12l-1 -31v-21l-4 -27l-5 -28l-10 -29l-12 -22l-8 -9l-5 -10l-8 5l2 -8l-13 -14l-16 -10l-13 -8l-27 -8l-32 -8l-11 1l-15 -3h-25l-26 1l-28 1l-29 -1l-29 1l-29 -2l-15 2l-9 8l-2 15l-1 30l2 19l-1 29l1 26v26l-1 28l2 28l-2 26l2 12l-1 12v151l-1 26
v25l2 27l-2 16v34l-1 33l3 29l-3 25l2 14l-1 14l2 27v35l20 8l27 2l29 -1h31l27 1l27 -1l32 -1l30 -4h14l29 -10l31 -18l18 -13l8 -9l14 -20l14 -28l11 -33l3 -19l-1 -13l4 -34l-1 -29v-25l2 -26l-3 -45l2 -31v-52l-2 -12l2 -24v-27zM281 476l1 15l12 6l-11 3l-3 11l2 29
l-7 35l-8 14l-15 11l-15 4l-28 3h-20l-10 -8l-2 -14l1 -28l-1 -29v-56l2 -28l-3 -12l3 -13l-2 -26l1 -35v-30l-2 -26l2 -11l-1 -17l2 -34l-4 -22l4 -46l-3 -30l4 -22l10 -7l13 -2l29 3l27 11l9 9l6 11l3 12l4 25v62l1 29l-2 32l2 19l-2 37l1 29v29l1 29zM147 642l-8 -1
l4 -18l7 8l9 2zM131 561l7 -8l11 1l-11 5l-4 9zM89 477l5 -4l7 -6v9zM98 623l-9 2v-10zM114 515l5 -2l1 7l-10 -1zM88 588l7 -1l-1 11zM89 607l6 -8l3 8h-9zM89 669l-6 -9l6 4l7 1zM87 121l8 2l-11 5zM92 245l-1 9l-6 -7zM80 440l-4 -6l8 -2zM110 327l2 -5l9 -1zM127 614
h-20l8 -2zM188 689l-2 -3l5 -8zM83 584l-2 1l-4 -10zM344 323l-3 2l-2 -3zM96 399l-1 -8l3 12zM373 393l-2 2v-2h2z" />
    <glyph glyph-name="e" unicode="e" horiz-adv-x="392" 
d="M371 90l1 -20l-2 -27l2 -27l-6 -13l-14 -4h-74l-29 1l-21 -2h-35l-28 1l-27 -1l-27 1h-54l-11 7l-1 20l-1 31v61l-1 32v31l1 31v25l1 28l-1 26v98l1 41l-2 28l1 26v52l1 28l-2 3l1 25l13 -8l-12 10l9 5l-1 9l-8 2v42l-1 27l2 20l5 18l5 3l20 4l33 -1l26 1h29l13 -6l8 6
l26 -1h31l30 -1l21 2l28 -1l28 -4l7 2l7 -23v-74l-10 -17l-12 -3l-13 2l-30 1l-31 -3l-31 1h-47l-11 -7l-2 -16l1 -17v-68l-5 -9l5 -6l-1 -14v-29l15 -9l19 1h37l9 -8v8l17 -1l18 2l16 -4l8 -20l-2 -9l2 -21l-1 -28l-2 -25l-9 -9h-104l-21 -5l-2 -17v-63l-6 -12l6 -4v-27
l1 -26l-1 -32l9 -10l24 -2l43 1l21 -1l32 1l33 1l16 -2l15 -6zM122 591l-12 1l-12 -3l-7 1l20 -6l2 -6zM107 628l-10 -8l13 -5l5 8zM78 365h4l11 6l-10 4zM135 644l-11 2l-13 -2l10 -4zM99 272l13 7l-13 11l6 -12zM60 598l3 11l5 6l-14 2l7 -7zM94 597l-2 12l-5 -2l-7 -8
l8 4zM133 545l12 2l-5 9zM140 634l-5 6l-7 -5l1 -4zM90 495l-10 -1l6 -10zM100 326l-2 6v8l-7 -8zM124 391l15 6l-8 3zM106 518l8 12h-11l5 -4zM182 416l-4 -5h11l7 -6l-5 6zM101 166l-2 5l-11 -6zM90 514l1 4l-12 15zM103 608l5 -7l3 8zM92 416l-5 -6h10zM152 512v10
l-6 -18zM97 501l12 5l-9 1zM105 475l4 4l-8 4zM125 552l8 2l-8 3v-5zM71 400v5l-8 -5h8zM96 312l3 -7l-3 -5l4 5zM117 145l3 1l-3 2v-3zM142 627l3 2h-3v-2z" />
    <glyph glyph-name="f" unicode="f" horiz-adv-x="397" 
d="M370 659l-2 -16v-18l-5 -14l-13 -5h-154l-13 -3l-4 -12l-1 -17l1 -36l1 -24l-1 -32v-41l10 -13h17l40 -1h27l32 1l16 -10v-47l2 -24l-9 -21l1 -11l-21 -4l-30 1l-30 -2l-16 2l-31 -2l-8 -12v-33l1 -32v-28l-1 -27v-52l-2 -26l2 -13v-35l1 -30l-4 -14l-9 -8l-33 -1l-32 -1
l-46 2l-8 7l-1 11l-2 25l1 11l1 26l-2 27l2 14l-2 15l1 29l1 27l-3 12l2 17l-1 33l1 34l-1 35l1 27v27l-2 24l4 8l-2 15l1 26l-1 29l-1 27l2 28l-2 24l2 62l-2 37l1 15l-2 15l2 9l-1 11l11 15l22 1l23 1h89l28 -2l24 3l33 -2l13 1l25 -2l24 3l26 -6l6 -11l-2 -16l2 -10z
M99 319l17 -7l-10 13zM113 606l-7 -14l15 10zM146 659l-9 -2l7 -2l10 5l-4 9zM115 672l6 -11l7 10zM135 598v9l-10 -6zM300 361l-13 8l3 -8h10zM120 400l-10 10l3 -10h7zM318 396l-10 -2l6 -4zM105 212l2 5l-9 -1zM74 594l11 -6l-11 9v-3zM110 383l-4 1l-4 -6zM114 528l-4 4
v-4h4zM138 444l3 1l-3 2v-3zM88 568l-3 2v-2h3z" />
    <glyph glyph-name="g" unicode="g" horiz-adv-x="439" 
d="M393 32l1 -14l-8 -15l-18 -4l-30 -1l-11 7l-10 18l-10 11l-7 -7l-31 -23l-29 -11l-34 -5h-28l-28 4l-28 8l-25 13l-24 21l-20 27l-15 31l-7 22l-5 24v18l-3 11l2 16l-1 14l1 25l-2 12l2 13v28l-2 26l2 12l-1 13l2 14l-2 30v31l1 28l1 30l-2 16l2 17l-3 16l3 16l-1 17v33
l6 34l10 28l13 25l19 23l16 12l5 7l9 4l29 16l29 8l25 4l12 -1h26l26 -3l26 -7l29 -14l26 -18l11 -12l16 -23l12 -23l9 -22l4 -26l3 -28v-36l2 -12v-30l-8 -16l-35 -4l-34 2l-13 -2l-14 2l-13 -1l-10 8l-3 13v13l-1 24l-2 30l-3 30l-6 14l-20 18l-15 3h-15l-14 -6l-11 -9
l-7 -12l-6 -28v-54l-1 -23v-31l1 -30l1 -29l-2 -13l1 -13l1 -26v-28l-1 -28v-31l-1 -32v-34l1 -28l3 -16l7 -14l11 -12l20 -8l22 2l21 4l16 18l5 16l3 27l11 4l-11 3l-2 11l2 10l-1 31l-2 25l-11 4h-17l-33 3l-7 10v56l1 27l9 10l11 1h52l24 1h25l25 -1l17 2l26 -2l7 -21
l1 -12l-2 -29l2 -26v-55l-1 -32v-25l3 -13l-3 -29l-1 -27l2 -31v-39zM115 536l-6 -1v-18l8 -2l-2 19l14 -7l-4 10zM100 471l12 -1l-4 11l-13 2zM103 572l18 -18l-9 23zM68 379l10 1l4 12l-7 -3zM343 134l6 8l-11 -5l-2 -9l3 -3zM307 273l-5 -8l12 8l-7 8v-8zM149 647l9 2
l-14 9zM60 534l-13 5l8 -10zM149 72l-9 8l-2 6l-5 -5zM273 93l2 3l-8 2zM101 545l-10 -2l19 3zM86 576l-2 3v-3h2zM112 435l-3 2v-2h3zM76 489l-3 2v-2h3z" />
    <glyph glyph-name="h" unicode="h" horiz-adv-x="465" 
d="M421 141l-2 -19v-89l-5 -29l-28 -6l-11 2l-11 -2l-19 2l-16 -1l-31 1l-8 7l-3 12l1 16l-2 16l1 14l-1 22l2 25l-1 31l1 30v25l-2 24l2 25v24l-3 31l-35 3h-58l-13 -13l-1 -12v-24l-2 -24l2 -26v-26l-2 -16v-29l1 -30l-1 -26l2 -12l-1 -27l-1 -28l-6 -11l-13 -3l-29 1
l-26 1l-33 -1l-16 3l-7 8l-2 14l1 33v20l2 13l-3 15l2 15l-2 28l2 18l-1 30l1 31l-1 32v39h13l-12 2v19l-1 10v64l1 30l-2 13v26l1 33v56l-1 34l1 33v59l-1 28l11 17l17 2l28 -1h30l13 2l16 -1l13 -4l6 -19v-52l-1 -27l1 -35l-2 -29l3 -24l-2 -12v-53l2 -36l13 -8h72l17 2
l6 10v43l1 36v29l-2 13l1 15v55l1 33l-2 32l2 16l7 12l14 2h32l37 1l36 -2l5 -20l1 -21l-1 -32l1 -35v-30l-1 -24v-29l-1 -33l2 -33v-55l-2 -32l3 -8l-2 -27l-1 -28l2 -28l1 -30l-2 -33l1 -33l-1 -32zM129 349l-11 9l-7 -2l-4 -9l12 -1zM373 323l-4 8l2 7l-13 1l3 -12z
M386 302l-1 9l-9 7l-9 -4zM332 401l-10 2v-4h5l6 -12l8 1zM94 367l4 9l-4 13h-5zM368 353l7 -7v12l-8 7zM356 348l9 -8l-3 13l-14 1zM345 305h10l-5 5l-11 4l4 -12zM152 374l4 7l-14 11zM89 408h-11l10 -6l10 13zM354 196l-7 10l-5 -9zM135 300l10 1l-12 13l4 -10zM366 402
h15l-8 7zM352 386l8 -5l-9 9l-9 -7zM311 222l-1 8l-8 -5zM320 335l15 2l-15 2v-4zM378 376l-1 -6l9 -2zM92 241l9 2l-9 3l-2 10zM377 390v-6l9 8zM127 510v-4l11 5zM217 369l5 2l-3 7zM350 338v4l-9 1zM170 364l8 7l-12 -7h4zM299 372l1 -5h4zM296 340l4 9l-1 2zM342 250
l6 13l-11 -23zM310 237l-2 2v-2h2zM91 118l-2 2v-2h2zM108 399l-2 2v-2h2z" />
    <glyph glyph-name="i" unicode="i" horiz-adv-x="219" 
d="M174 88l3 -14l-1 -31l-2 -34l-14 -10h-23l-25 1l-28 -1l-29 -1l-10 8l-2 29l1 29l-1 31v102l-1 28l2 14l-1 29l-1 30l1 29v30l1 30l-2 24l2 23v112l-1 30l1 29l-2 27l3 11l-2 33l1 27l4 13l12 6h60l29 2l16 -3l9 -7l2 -12v-25l1 -26l-2 -15l1 -15l1 -31l-2 -30l-6 -18
l7 -1l-2 -13l3 -13l-2 -8l1 -30l-1 -34l1 -31l-1 -31l-1 -30l2 -62l-1 -30v-28l-1 -34l2 -30l1 -28l-1 -27zM135 592l10 4l-19 4zM109 205l11 -6v9zM107 598l-2 -7l10 -5zM96 187l6 4v1zM78 466l-3 2v-2h3zM81 569l8 -3l6 -2z" />
    <glyph glyph-name="j" unicode="j" horiz-adv-x="418" 
d="M373 197l-1 -13l2 -16l-2 -35l-6 -27l-5 -13l-14 -27l-19 -25l-10 -7l-11 -13l-13 -10l-12 -5l-30 -14l-16 -4h-17l-27 -1l-37 3l-17 5l-25 11l-21 15l1 6l-10 2l-4 5l-22 22l-12 23l-12 26l-5 23l-3 23l1 30l2 28l-2 29l-1 35l1 25l10 14l18 1l37 -1l33 2l17 -3l10 -10
l2 -33l-2 -19l2 -17l-2 -16l1 -32v-29l8 -28l8 -9l12 -8l12 -3l16 2l15 6l9 12l6 14l3 16l2 31l-2 26l1 15v61l-1 35l4 19l-5 17l5 12l-2 12l-3 25l6 32l-4 8v26l4 8l-4 16l10 8l-9 3l-1 27l1 35l-3 29l3 13l-1 17v58l4 11l-1 14l12 8l14 -1l15 3l15 -2h62l7 -9l4 -11
l-1 -27l1 -29l-1 -27l-1 -30l2 -13l-2 -8l1 -34l-1 -32l1 -29v-86l-6 -16l5 -4l3 -16l-2 -30l-8 -5l8 -6l-1 -40l1 -26v-31l-5 -7zM277 425l-10 -6l23 -13l-3 -11l9 3l-3 -11l7 2l2 7l-2 4l2 6l-9 -4l3 7l-11 6zM273 375l6 12l3 -11l3 11l-8 5l-9 -1l-3 -13l3 -8l8 -3z
M305 348l-3 -22l10 6l4 17zM292 494l-12 5l-4 -7l6 -6zM281 257h17l-9 13l-1 -8zM315 283l4 -3l8 1l9 -5l-12 17l1 -9zM332 198l8 -3l-5 11l-8 2zM335 497l2 11l-13 -4zM329 362l14 -1l-3 9zM353 307l-8 -11l13 5zM284 471l6 8l-8 6zM303 575l3 -8l6 12zM329 531l-9 -2l7 -7
zM336 379l8 4l-12 3zM290 295l4 -9v-9l1 19zM301 244l7 5l1 7zM284 585l4 -7v-3l3 6zM355 275l1 4l-8 2zM327 423l-5 -2l-8 -8zM322 503l-3 3v-3h3zM260 229l-3 2v-2h3z" />
    <glyph glyph-name="k" unicode="k" horiz-adv-x="434" 
d="M425 16l-2 -11l-13 -7h-23l-27 1h-25l-10 2l-14 -2l-11 2l-10 8l-3 12l-11 34l-6 25l-7 25l-6 23l-8 25l-7 25l-5 20l-10 33l-8 27l-10 27l-8 -5l-12 -26l-12 -24l-2 -32v-29l3 -26l-1 -13l-1 -27v-88l-5 -11l-13 -6l-29 2h-31l-27 -2l-14 2l-13 12v19l-1 35l2 25l-2 21
l2 41l-2 22l6 10l2 9l-5 -6l1 17l-2 14v23l-2 31v33l1 31l1 32v31l-1 30v55l1 39v27l-2 60v27l2 28l-2 12l2 11l-3 15l4 12l12 7l14 1h62l31 -1l9 -7l2 -10l-1 -13l1 -22v-57l-1 -28l2 -12l-1 -22v-64l3 -13l12 13l6 17l13 32l3 12l11 24l10 24l11 24l10 25l10 26l13 28
l4 15l6 7l19 3l13 -1l25 1h26l26 -1l15 -9l-3 -18l-8 -23l-7 -10l-4 -12l-16 -38l-14 -31l-12 -30l-15 -34l-14 -29l-10 -29l-7 -12l-6 -19l7 -26l9 -32l12 -29l8 -28l8 -26l7 -26l8 -24l10 -25l2 -14l9 -29l10 -33l12 -33l8 -29l7 -24l9 -23zM153 291l14 12l2 8l-5 7
l-11 -7l5 -8l-7 4l4 -10zM194 377l1 8l-10 2l-6 -6l-1 -7l3 -9l2 12h11zM230 395l5 -5l-2 9l-15 -2l-5 -13zM146 440l-14 6l4 -16zM103 369l7 7l-14 12zM106 122v8h-7l-6 -10zM111 312l3 3l2 13l-11 -9zM77 241l5 19l-9 -11zM103 409l-5 11l-8 -5zM147 371l-12 -5l9 -5z
M147 382l5 -8l8 8h-13zM100 267l2 -14l7 3zM126 300l3 -10l6 10h-9zM146 426l11 9l-8 1zM117 318l9 -7v7h-9zM82 399v7h-9zM109 235l-9 1l4 -7zM75 337l7 -9l1 7zM69 482l6 -5l6 4zM161 65l6 1l-8 7zM146 621l-1 -6l7 -1zM94 471l10 -2l-10 5v-3zM262 373l8 -2l-8 5v-3z
M142 85l-4 4v-4h4zM220 320l-3 3v-3h3z" />
    <glyph glyph-name="l" unicode="l" horiz-adv-x="370" 
d="M351 53l3 -10l-2 -32l-14 -12l-12 1l-16 -2l-54 2h-54l-30 1l-60 -2h-29l-30 2l-9 12l-1 24v33l1 28v29l-1 26l2 12l-2 18v64l1 31v30l-3 30l2 26v30l-1 30l2 11l-2 20l1 30v30l1 26l-1 25v67l1 24l-1 25l2 35l13 7l28 -1h74l10 -5l6 -17l-1 -32v-27l1 -25v-59l-2 -12
l3 -13l-2 -30l2 -15l-2 -11l-4 -4l4 -20l2 -25l-2 -16l-2 -26l3 -27v-54l-2 -29l2 -32l-1 -14v-65l1 -32l10 -15h48l36 -1l25 1l14 -2l26 3l17 -9l2 -29zM98 199l-3 11l-10 -7zM77 490l5 1l-7 4zM121 497l-1 -8v-6zM160 469l1 2h-2z" />
    <glyph glyph-name="m" unicode="m" horiz-adv-x="589" 
d="M541 359l1 -14l1 -30l-1 -29l-2 -19l2 -24v-53l-1 -35l1 -33v-59l-1 -27v-24l-16 -13l-33 -1h-29l-33 3l-9 10l-1 11v36l2 20l-1 17l-1 23l2 8l-1 11l7 13l-7 6l-2 16l2 17v34l-3 15l3 18l-1 33l-1 32l2 16l-2 17l2 15l-2 22l6 8l-8 19l-6 -10l-2 -11l-5 -29l-6 -26
l-5 -32l-8 -26l2 -8l-5 -5l2 -12l-5 -15l-1 -17l-7 -5l4 -2l-8 -42l-9 -38l-2 -30l-4 -10l-4 -16l-2 -24l-8 -35l-6 -23l-27 -5l-13 2l-30 -1l-11 8l-11 41l-5 28l-7 34l-4 25l-6 32l-5 26l-6 28l-5 34l-4 21l-5 33l-5 30l-6 29l-5 25l-8 23l-5 -14l3 -34l-3 -34l3 -17
l-3 -19l1 -14l1 -27l-1 -26v-28l1 -30v-31l1 -29l-3 -28l3 -33l-2 -14l-1 -24l-18 -14h-16l-32 -1l-33 -1l-13 7l-6 30v24l1 24v30l1 36l-2 14l1 33l-2 21l2 15l1 30l-2 17l2 25l-2 16l1 37v25l-1 38l2 16l-3 8l3 26l-2 27l1 37v58l-1 30l2 35l-2 33l2 19l10 13l34 2h26
l32 -2l23 3l33 -3l11 -8l5 -12l1 -12l6 -24l5 -34l10 -37v-12l5 -28l4 -23l8 -34l2 -26l4 -28l5 -9l6 -29l6 -30l4 -28l7 -13l11 32l1 13l6 23v13l4 13l6 30l4 25l6 25l2 19l6 28l5 34l8 26l2 17l3 26l5 11v12l4 11l-1 10l11 17l17 2l28 2h31l32 -1l27 1l21 -3l6 -10l1 -31
l1 -34v-35l-1 -29v-30l2 -32l-3 -24l3 -12l-3 -11l2 -17l-1 -17v-79zM102 611l-3 -6l4 -3l5 -13v8l7 -12l3 10l6 2l-12 6zM463 610l2 -5v-10l12 13zM80 452l15 11l-16 -1zM241 239l11 -3l-3 8l-7 3zM482 556l-1 8l-7 6l2 -7l-10 4zM224 503l-4 -6l14 -7zM117 280l9 9h-11z
M79 373l-12 -12l12 4v8zM100 548l-13 3l3 -7zM129 614l3 -11l5 8zM448 681l-12 8l4 -9zM177 542l1 8l-9 3zM487 570l11 8l-1 6zM441 622l8 1l-7 14l3 -7zM297 189l-3 -5l10 -5zM354 432l4 -7l6 5zM148 528l-9 -9l7 1zM489 630v-5l9 4zM409 573l5 2l-10 5zM110 534l2 8l-5 -1
zM334 304l-3 -5l9 3zM472 400l-6 -3l9 -1zM87 568h-6l6 -5v5zM186 551l-2 8l-3 -1zM529 388l3 1l-9 4zM91 384l6 4l-9 -4h3zM487 536l-3 2v-2h3zM457 386l-2 2v-1z" />
    <glyph glyph-name="n" unicode="n" horiz-adv-x="467" 
d="M421 44l1 -14v-15l-6 -12l-29 -5l-10 2l-16 -1h-33l-19 10l-1 7l-6 10l-13 38l-13 32l-8 27l-13 31l-10 30l-11 28l-9 30l-1 15l-6 5l-11 23l-9 37h-3l-10 24l-11 29l-10 -12l3 -8v-30l1 -30l-2 -24l2 -22l-1 -34v-64l1 -31v-32l-1 -26v-29l-3 -28l-15 -5l-16 -1l-34 2
l-9 -3l-9 1l-23 2l-10 8l-3 12l1 29l-1 27v28l1 30l-2 14l3 12v16l-2 30v79l2 16l-2 15l2 27l-2 28l-1 31l2 15l1 19l-1 35v31l-2 28l2 13l-1 9l1 22v25l-1 28l2 16l-1 33v29l3 12l20 6l31 -1l27 1h24l14 -4l10 -22l14 -38l10 -30l10 -27l7 -22l-3 -11l12 -13l4 -11l11 -28
l8 -26l10 -26l8 -27l16 -44l9 -19l9 -9l2 28l-2 26l1 27l-1 26l2 29v25l-1 32l1 28l-1 24v34l2 26l-3 24l2 12l8 13l17 3h42l34 -1l14 -4l4 -11v-26l1 -26v-38l-2 -35l2 -22l-2 -19l1 -13l1 -26v-79l-2 -29l2 -13l1 -25l-2 -27l-1 -29l2 -54v-27l-1 -27l2 -28l-1 -35l-1 -24
l2 -12v-24zM149 428l-1 11l-17 -13l10 -5zM132 556l-1 -15l5 3l5 8l8 -7l2 9zM161 612l-3 -9l3 -10l-10 -13l16 5l-4 11zM140 596l-5 -1l-7 -7l1 -9l-7 -9l17 13l-4 3zM98 488l15 -2l-7 16zM83 458l10 -3l4 13l-12 -4zM126 615l-11 5l-9 -5h11l-2 -11zM160 491l-10 -15h12z
M92 530l-9 -1l5 -18zM172 493l2 5l-11 7l10 6l-13 -7l3 -6zM163 541l-9 -8l16 -3zM329 437l-7 12l-6 -11zM316 127l-3 -7l7 6l1 11l-5 3v-13zM376 428l-5 -10l12 -3zM111 564h-6l-8 -4l6 -6zM301 114l5 13l-10 -2zM154 570l7 10l-15 -6zM98 310l6 9l-6 8v-17zM173 516l4 9
l-11 -4zM141 500l-1 -9l9 1zM324 694l-7 -7h11zM149 562l-13 7l4 -8zM390 86l6 5l-11 3zM110 438l-3 10l-6 -4zM102 375l10 8l-5 10l1 -10zM359 147l-2 -9l8 2zM104 535l5 -4l7 8zM230 342l16 2l-2 4zM101 476l5 -6l3 10zM365 253v-7l9 -5zM83 574v-9l7 -9zM354 228l7 -2
l-4 10zM209 479l4 3l-10 -5l7 -6zM115 589l-4 -8l8 1zM344 182l-3 6l-6 -7zM341 139l6 2l-9 4zM363 431h-13l19 -3zM296 154l5 2l-8 4zM346 136l-1 -3l7 -4zM177 549l5 3l-10 -3h5zM137 400l-3 4v-4h3zM126 381l3 -5l5 -6zM365 127l-3 2v-2h3zM151 264l-2 3v-3h2z" />
    <glyph glyph-name="o" unicode="o" horiz-adv-x="422" 
d="M397 275v-12l-1 -27v-81l-3 -31l-10 -30l-8 -5l-1 -13l-9 -16l-20 -22l-25 -21l-26 -14l-12 -4l-24 -6l-32 -4h-31l-30 4l-27 6l-23 10l-10 8l-11 5l-7 9l-16 14l-21 25l-6 13l-9 19l-2 12l-5 34l-2 50l-1 32v27l2 20l-1 29v37l-1 30l-1 29l3 29l-1 13l-1 29l2 24l-2 33
l2 14l-2 27l3 14v13l7 24l18 36l15 20l25 23l24 15l22 9l31 6l7 4h52l32 -4l26 -6l12 -7l13 -4l33 -27l21 -25l13 -20l11 -33l6 -31v-33l2 -9l-2 -22v-61l1 -27l-1 -28v-64l1 -23l-2 -25zM265 313l-1 20l1 14l-2 32v27l1 27l-2 13l1 26v87l-4 27l-6 12l-13 11l-16 6l-17 1
l-23 -6l-12 -9l-9 -13l-5 -24v-36l2 -31l-1 -33v-34l1 -24l-1 -29l-2 -28l2 -16v-119l-1 -29l4 -34l10 -26l11 -10l18 -5h23l26 13l8 15l7 31l-3 34l2 36l-1 36zM57 535l-3 -12l13 -18l12 8l1 4l-9 -2l-10 3v12l2 16zM318 206l-12 6l-5 -19l9 5zM346 329l7 -11l-3 12l-12 11
l-1 -5zM113 467l-14 -10h14v10zM121 372l-5 8l-6 -13zM128 529l-5 -12h6l3 -3zM328 250l6 -9l6 6zM313 176l6 11l-11 -6zM96 299l-5 9l-5 -6zM96 173l-1 5l-9 -3zM76 482l-4 11v-11h4zM358 418l-3 5l-7 6zM309 435l-3 3v-3h3zM315 242l-3 2v-2h3z" />
    <glyph glyph-name="p" unicode="p" horiz-adv-x="439" 
d="M417 516l2 -13l-3 -27l2 -14l-3 -13l1 -14l-2 -16l-6 -28l-11 -25l-14 -21l-3 -8l-11 -10l-7 2v-9l-11 -8l-25 -12h-10l-7 -6l-26 -6l-37 -3l-28 -1h-30l-11 -17v-15l1 -32l-2 -31l1 -15v-28l2 -27l-2 -23l-1 -26l2 -26l-2 -13l1 -13l-3 -13l-14 -6h-93l-14 3l-8 16
l-3 12l2 12l1 24l-2 26l2 23l-2 11l2 15v99l1 25l-3 21l2 30l-1 30l1 30l-1 30l1 32l1 33l-1 29v64l-1 29l2 13l-1 14l-1 27v54l4 14l9 9l11 -1l14 2l33 -1l22 -2l30 2l27 -2l31 1h31l27 -3l23 -5l33 -15l23 -16l9 -9l17 -21l13 -24l7 -27l5 -24l2 -33zM287 489v19l-2 21
l-5 32l-4 7l-1 12l-9 14l-9 9l-13 4l-32 4l-19 -1l-14 -9v-18l-1 -27l-2 -28l1 -28l1 -30l-1 -34l1 -33l12 -9h19l23 1l32 9l10 11l7 16l5 35zM146 304l11 -1l-1 7l-8 6zM100 301l8 -9l8 4l-4 4zM75 477l11 8l5 -9l-1 16zM147 368l-1 -9l12 -5zM89 611l-2 -6h10zM106 477
l-9 -2l1 -15v10zM138 286v9l-6 1zM361 550l4 -6l-7 14zM103 586l2 -2l-5 10zM151 446l-3 2l2 -2h1z" />
    <glyph glyph-name="q" unicode="q" horiz-adv-x="422" 
d="M398 262l-2 -12l2 -19l-2 -10v-75l-7 -32v-9l-15 -33l-15 -21l-20 -23l-25 -17l-31 -14l-9 -7l2 -13l9 -9l11 -7l22 -5l12 1l27 -8l4 -21l-1 -14l1 -27l-2 -34l-10 -7l-26 -2l-26 1l-23 5l-39 12l-15 8l-4 8l-24 15l-8 9l-20 27l-11 27l-3 29l-13 12l-13 6l-25 14l-25 20
l-20 24l-8 14l-11 26l-8 33l-1 21v25l-2 34l2 27l-3 12l1 14v51l3 11l-3 11v16l1 32l-2 30l2 9l1 26l-1 25v61l1 29l4 33l4 5v8l16 39l9 11l22 26l25 18l32 15l35 8l27 2l27 1l28 -3l29 -8l27 -11l23 -17l21 -20l20 -27l13 -32l6 -34l2 -29v-29l-1 -27l2 -26v-53l-1 -25
l1 -26v-32l-2 -13l1 -14v-31zM261 577l6 2h-8l-5 13l-8 12l-20 8l-19 2l-16 -4l-14 -8l-11 -12l-4 -13l-4 -28l1 -28v-25l-2 -11l2 -12v-28l-1 -27l1 -30l2 -34l-3 -13l1 -15l1 -27l-1 -28v-25l-1 -41l1 -28l1 -29l4 -13l7 -12l10 -10l33 -7l19 5l14 7l12 18l3 15l1 32l1 27
l-2 19l1 12v56l2 24l-2 35l1 26l-2 24l2 13l-1 11l2 17l-1 15l-1 29v60zM58 430l4 -4l7 -6l-5 -6l11 5l-11 13l-1 16l11 2l-7 3l-8 12l4 -11zM346 551h-6l-3 -16l10 8zM84 497l4 -4l-5 12l-8 -1l1 -10zM118 344l3 3l-7 8l-4 -7zM87 509l10 8l-12 2zM324 612l-20 4l5 -14
l2 11zM195 3l10 -5l-8 8l2 9l-6 -5zM95 372l-11 14l1 -10zM323 504l7 7l-6 7zM140 348l5 -9l5 9h-10zM238 15l4 9l-10 -1zM320 517l-9 6l1 -10zM120 476l2 8l-11 -4zM204 51l-9 6l1 -9zM187 15l4 7h-10zM320 319l1 11h-6zM115 426l2 10l-7 -5zM72 635l2 -8l5 8h-7zM89 566
l-4 -6v-7zM206 57l-3 3v-3h3zM78 305l-2 2v-2h2zM68 578l-5 -4l12 9z" />
    <glyph glyph-name="r" unicode="r" horiz-adv-x="440" 
d="M414 17l-3 -12l-13 -6l-14 -1l-27 1h-56l-13 6l-8 19l-7 27l-8 33l-9 28l-8 24l-1 11l-7 23l-6 24l-8 26l-1 14l-8 18l-1 13l-14 27l-13 2l-9 -6l-2 -16v-99l-1 -27v-55l2 -54l-2 -26l-10 -11l-31 -1h-55l-29 2l-6 15l-1 31l2 28l-2 10l2 29l-1 33l1 28l-4 28l3 37l-1 19
l2 29l-2 24l2 30l-2 30l2 31l-1 33v33l-1 30l1 27l-1 33l2 30l-2 32v63l1 28l8 9l21 4l35 -3l36 3l13 -2h29l29 -1l27 1h25l10 -4l10 -1l8 -4l22 -6l27 -14l11 -10l17 -21l14 -24l12 -27l3 -23l5 -38l2 -27l-2 -12l2 -32l-1 -30l-5 -22v-12l-3 -11l-8 -25l-10 -18l-21 -24
l-31 -24l-1 -17l12 -39l8 -27l7 -25l6 -15l7 -31l10 -30l9 -29l16 -56zM221 404l16 1l16 6l13 10l7 14l5 32l1 41l-2 33l-6 37l-17 25l-33 7h-29l-13 -5l-1 -25l-2 -33l1 -20l1 -28l-2 -15l1 -13l1 -26v-28l8 -12l21 -3zM158 645l11 3l-8 9zM118 358l-11 -12l11 3v9z
M276 290l-4 -4l9 1v10zM102 306l-4 -8l7 3l-2 13zM109 303l12 -17l-3 10zM249 334l-2 6l-9 5l4 -6zM121 410l6 4l-13 2zM94 134l5 14l-4 -1zM94 200l7 -4l-7 9v-5zM79 325l-3 2v-2h3zM337 420l-2 2v-2h2z" />
    <glyph glyph-name="s" unicode="s" horiz-adv-x="412" 
d="M394 185l2 -15l-2 -34l-6 -28l-7 -16l-16 -28l-21 -26l-26 -20l-29 -17l-30 -7l-35 -4l-9 2l-11 -2l-32 3l-28 8l-32 12l-23 18l-22 23l-14 22l-15 34l-6 28l1 15l-4 37v26l2 27l8 11l14 4l14 -2h34l33 1l13 -3l6 -14l1 -17l1 -35l2 -29l10 -28l10 -13l14 -9l17 -3l26 4
l22 16l7 12l2 14l1 26l-7 28l-11 25l-18 27l-14 14l-19 21l-21 20l-22 20l-21 20l-19 22l-22 27l-18 24l-11 21l-16 33l-3 12l-5 21l1 10l-5 22l1 24l3 32l6 26l13 25l18 28l10 10l22 19l12 6l24 9l35 10l25 1h33l31 -6l30 -11l14 -11l16 -9l21 -24l14 -20l12 -26l7 -23
l2 -32l1 -35l2 -34l-5 -15l-15 -7h-15l-29 1l-16 -2l-27 2l-14 6l-4 12v15l1 23l-2 32l-3 13l-6 12l-8 9l-10 7l-14 5h-13l-14 -4l-12 -7l-12 -17l-3 -12l-1 -26l7 -29l14 -26l18 -25l24 -24l20 -19l20 -21l21 -21l22 -21l17 -21l18 -20l4 -9l10 -13l15 -31l11 -27l6 -23
l4 -25zM245 306l15 4l-15 3v-7zM248 336v-3l8 3h-8zM226 342l-2 2v-2h2z" />
    <glyph glyph-name="t" unicode="t" horiz-adv-x="391" 
d="M385 652v-15l1 -13l-3 -13l-13 -8l-18 1h-32l-24 2l-27 -2l-7 -13l1 -30l-2 -33l1 -29l-1 -25l2 -28l-2 -24l1 -28v-25l1 -28l-2 -30l2 -28v-29l-1 -28l-1 -29l2 -27l-2 -11l1 -14v-92l-1 -35l-7 -16l-13 -4h-77l-23 1l-11 13v14l-2 26l3 15l-1 13v29l-1 29l2 13l-1 25
l1 32l-2 32l2 26l-1 14v54l-1 28v56l1 29l-1 36v24l2 25l-2 32v28l-8 10l-14 2l-14 -1h-63l-16 3l-7 12l-3 34l1 28l4 38l11 5h13l33 2l26 -2l26 -1l28 2h26l19 -2l30 2l20 -2l35 2l32 1l30 -3l32 2l13 -7l3 -14l-2 -26l2 -12zM206 691l-1 -8l16 -6l-10 9l5 5h-10zM279 669
h9l-7 10l-8 -6zM203 655l7 9l-13 -9l-5 -6zM174 650v-9l9 5zM187 632l-7 1v-8zM209 318l-11 2l8 -7zM217 577v-4l13 5zM211 216l4 -7l-2 14zM168 615l-5 -1l-4 -9zM176 224l2 3l-2 2v-5z" />
    <glyph glyph-name="u" unicode="u" horiz-adv-x="458" 
d="M416 215v-17l-2 -34l-1 -26l-6 -25l-8 -26l-13 -24l-16 -21l-18 -19l-10 -5l-22 -12l-16 -5l-30 -9l-34 -4h-23l-23 1l-12 4l-27 7l-28 12l-23 16l-10 10l-17 21l-13 23l-11 28l-6 31l-2 33l3 24l-3 24l2 21l-1 25v153l1 27l-2 24l2 12v28l-1 30v30l2 13l-2 12l1 14
l-1 23v28l2 17v35l11 9l18 1l29 -2l54 2l13 -5l6 -11v-50l1 -28l-2 -23l2 -13l-1 -17l2 -35l-2 -15l1 -32l-2 -17l2 -12l-1 -11v-55l2 -21l-4 -8l2 -20v-116l1 -32l-1 -31l5 -33l6 -14l11 -10l15 -6h28l13 5l13 10l9 15l3 17l2 26l-1 29v116l2 25l-2 34v50l1 33v30l-1 29
l1 26l-2 25l2 24l1 26l-1 26v61l10 6l11 2h51l27 -1l23 -2l8 -19l2 -23l-2 -10v-40l1 -41l-2 -13l1 -15l-6 -5l8 -13l-2 -14l1 -26l-2 -19l2 -35v-34l-1 -33l1 -28l-2 -25l2 -27l1 -31l-3 -15zM81 591h-7l5 -14zM317 362l4 -12l5 7zM115 539l15 2l-9 4zM116 523l-4 11l2 -16
l7 3zM323 401l-10 9l4 -9l12 -2zM109 125l12 2l3 4zM324 452l6 9l-5 -1zM136 418v6l-6 -7zM290 443l4 -8v8h-4zM333 265l3 2l-6 6z" />
    <glyph glyph-name="v" unicode="v" horiz-adv-x="420" 
d="M400 723l11 -9v-17l-6 -30l-8 -34l-5 -35l-8 -34l-5 -25l-6 -32l-8 -36l-1 -13l-4 -13l-5 -29l-6 -29l-5 -31l-11 -35l2 -11l-5 -27l-4 -9v-12l-4 -19l-8 -35l-5 -29l-7 -34l-6 -25l-2 -28l-5 -10v-10l-4 -14l-6 -39l-10 -17l-30 -4l-17 2l-54 -2l-19 4l-12 30l-1 13
l-5 28l-7 33l-8 29l-2 20l-4 25l-6 24l-4 30l-8 31l-3 23l-7 30l-5 24l-3 26l-8 35l-5 30l-6 27l-6 29l-7 30v10l-6 27l-4 24l-6 26l-5 29l-6 36l-5 14l-2 14l1 14l7 8l14 2h30l30 1l28 -2l18 -6l6 -15l2 -17l4 -10l-1 -11l6 -32l2 -20l5 -23l2 -24l5 -14l1 -16l3 -24l4 -11
l4 -24l2 -29l5 -15l2 -16l3 -33l4 -9l1 -11l2 -23l5 -15l6 -32l8 18l2 12l7 5l-4 17l4 10v15l3 13l4 25l5 25l3 25l5 30l5 31l5 27l5 29l5 26l2 24l5 25l4 28l6 30l6 12l14 4h31l32 1zM232 136l8 1l5 11l-2 3l-9 -8l-10 4l-7 -3l6 -8h9zM175 111l10 3l-10 7l1 12l-9 -8z
M204 87l9 2l-9 6v-8zM173 100l5 5l-12 -1zM225 116l-2 5l-4 -3zM112 583l2 3l-3 2zM84 494l-3 3v-3h3z" />
    <glyph glyph-name="w" unicode="w" horiz-adv-x="618" 
d="M608 714v-22l-5 -20l-1 -15l-4 -15v-12l-8 -30l1 -12l-6 -25l-6 -29l-3 -31l-6 -28l-4 -22v-14l-8 -34v-15l-7 -33l-6 -34l-3 -25l-4 -35l-8 -29l-4 -29l-5 -32l-5 -31l-5 -30l-4 -7v-14l-4 -30l-5 -24l-5 -25l-12 -12l-16 -2h-19l-24 2h-33l-12 9l-4 12l-1 12l-6 25
l-3 23l-5 25l-5 33l-4 23l-4 25l-4 23l-3 23l-4 25l-10 56l-3 24l-5 28l-9 15l-7 -29l-4 -27l-4 -29l-5 -26l-4 -22l-4 -26l-6 -34l-5 -22l-2 -27l-6 -27l-5 -35l-7 -33l-4 -29l-13 -15l-9 -2l-22 1l-27 -1l-31 1l-12 7l-6 13l-6 34l-5 31l-4 29l-5 29l-6 29l-4 25l-4 23
l-6 35l1 13l-7 30l-5 24l-4 23v10l-6 29l-6 30l-4 30l-4 29l-6 29l-3 26l-5 25l-4 27l-6 27l-5 30l-5 35l-5 31l2 16l11 6l15 1l23 -2h56l12 -3l7 -9l3 -15l3 -22l4 -26l4 -27l2 -26l4 -27l5 -29l4 -24l1 -20l3 -24l5 -24l4 -37l6 -29v-18l3 -21l9 -11l5 30l7 38l4 32l6 33
l6 38l5 35l6 30l1 21l3 11l4 24l6 34l4 29l5 25l7 10l28 2h55l17 -6l7 -31l3 -26l6 -34l8 -48l6 -39l5 -39l5 -32l-1 -6l7 -28l4 -27l4 -28l4 -33l6 -15l7 18l5 25l3 33l4 29l5 24l1 26l2 21l5 23l4 33l3 27l4 11v17l4 27l5 28l4 36l9 13l13 2h19l25 -1l25 1l15 -2zM194 128
l3 2l10 -19l-7 25l1 9h-22v-10zM469 70l9 -6l-5 9l-10 21l8 3h-14l-6 3l5 -17zM168 247l-7 -5l9 -15l8 -10l4 6l-8 19zM157 201l-1 -9l-9 -11l12 1l9 -2l-4 8l5 9zM167 133h3l-3 4l-10 -11l-4 -10l16 -5l-2 10l-6 -6l-5 8zM289 582l14 -2l7 6l-22 2zM270 509l-11 -3l5 -9
l6 -2v14zM299 491l8 16l-12 -1l5 -6l-3 -4v-20zM330 525l15 -9l-2 9l-12 5zM135 194l4 17l16 -1l-19 2l-1 -10l-13 2zM313 564l-16 1l4 -9l8 6l11 -4zM217 162l1 -7l7 4l-6 15zM438 79l7 5l-7 4l-8 -5zM252 301l11 3l-13 8zM199 180l-14 1h-4l8 -7zM273 412l-1 6v12h-7z
M310 541l9 -5l-1 11zM183 195h-13l12 -4l11 6zM114 263l10 4l-9 12l4 -8zM309 605l-11 -4l10 -4zM372 328l-9 -3l7 -7zM397 172l-6 8l-6 -6zM446 64l-6 -9l7 -3zM241 401l11 -5l-1 7zM327 551l4 -18l1 13zM472 96l13 -1l-8 6zM275 385l3 5l-9 6zM218 130l5 5h-12zM183 77
l1 -7l7 3zM289 466l-7 1l7 -8v7zM240 286l-13 -9l7 2zM148 160v-4l9 -1zM487 119l-5 -4l9 4h-4zM296 426l-4 4l-6 2zM138 241l-2 2v-2h2zM168 268l-2 2v-2h2z" />
    <glyph glyph-name="x" unicode="x" horiz-adv-x="400" 
d="M398 21l-4 -18l-12 -4h-101l-11 7l-7 11l-2 11l-13 36l-1 13l-4 13l-8 27l-9 26l-10 35l-8 29l-8 14l-10 -10l-10 -36l-11 -37l-7 -28l-9 -22l-9 -28l-9 -33l-8 -12l-3 -11l-13 -5h-46l-35 -2l-15 2l-9 4l-6 8l6 24l11 31l13 36l9 21l8 25l12 11l-7 5l5 14l11 27l16 48
l5 7l1 12l9 19l10 30l9 23l7 27l-6 15l-7 26l-12 35l-10 26l-11 31l-12 33l-7 26l-13 31l-8 25l-11 36l-7 11l-4 12l-10 26l2 13l17 7l26 -2l35 1h37l15 -7l11 -27v-11l11 -31l10 -37l11 -40l4 -8v-6l4 -9l8 -27l8 2l5 15l9 32l6 13l8 37l11 29l3 15l13 42l10 15l19 5l20 -1
l14 -4l18 4l31 -1l14 -3l5 -10l-5 -19l-15 -39l-9 -8l3 -10l-2 -11l-13 -32l-9 -26l-20 -56l-8 -23l-10 -30l-13 -26l1 -10l-9 -15l-2 -16l-1 -28l12 -31l8 -27l8 -23l10 -31l8 -24l12 -27l9 -30l10 -30l11 -30l10 -32l8 -24zM287 168v8l-8 -4l2 6l-11 -4l6 -11zM172 330
l-2 10h10l3 8l-15 -2l-3 -12zM154 264l6 4l-5 9l-11 -7zM144 322h5l3 -8l12 10zM237 445l-7 -6l9 -9zM137 508l-4 -10l11 1zM246 253l4 -6l8 13zM268 547l-7 11l-4 7l1 -11zM127 250l2 -4l13 17zM141 477l3 15l-7 -9zM227 427l-12 5l11 -11zM147 369l10 -1l-2 7zM232 347
l-4 -3l7 -10zM105 537l3 8l-8 -2zM269 253l10 -2l-6 5zM260 311l3 3l-8 4zM274 184l-3 2v-2h3z" />
    <glyph glyph-name="y" unicode="y" horiz-adv-x="422" 
d="M395 725l13 -3l7 -10l-9 -33l-11 -28l-2 -12l-13 -35l-7 -22l-10 -29l-8 -23l-9 -26l-10 -27l-9 -28l-7 -26l-16 -44l-7 -23l-5 -9l-3 -16l-11 -30l-3 -29v-86l2 -27l-1 -15l-1 -32l1 -26l-2 -9l2 -14l-1 -13l2 -12l-3 -13l1 -13l-9 -10l-23 -3h-28l-30 1h-27l-13 9
l-3 15v59l1 33l-2 26l1 28v29l2 28l-1 22l-1 26l-1 24l-4 14l-10 28l-6 19l-8 21l-3 15l-11 36l-10 29l-8 22l-6 20l-10 32l-10 30l-10 27l-7 24l-7 23l-6 16l-13 33l-4 17l3 14l21 6l11 -1h56l26 1l16 -7l4 -15l8 -27l7 -30l9 -29l8 -29l8 -24l7 -28l8 -27l9 -28l6 -4l6 11
l8 33l8 28l8 29l8 31l9 34l8 31l7 13l2 15l7 16l6 -5l5 4l-4 5l18 2h60zM243 400l-13 5l-3 -4l16 -3l6 7l-9 7zM171 355l4 -9l15 3zM99 536l7 2l-10 3l-5 -10zM174 444l3 3l-5 8l-3 -5zM250 485l-5 -14l8 6zM233 138l-7 -13l7 2v11zM174 193l-10 -5l8 -3zM241 262l6 -2
l-1 11zM199 210l-9 12l1 -8zM237 354l7 6l-13 -3zM189 147h5l-1 10zM193 188l3 -6l1 12zM172 143l2 5l-9 -3zM197 410l-4 12l1 -12h3zM301 472l1 4l-9 -1z" />
    <glyph glyph-name="z" unicode="z" horiz-adv-x="397" 
d="M376 651l-4 -27l-5 -10l-10 -25l-5 -22l-5 -7l-3 -13l-7 -11l-10 -24l-11 -35l-9 -20l-9 -25l-12 -21l-1 -11l-5 -12l-19 -45l-14 -34l-10 -29l-12 -28l-11 -31l-12 -27l-9 -26l-12 -27l-3 -14l9 -9l32 1h27l23 -2l27 2l13 -3l12 2l24 2l10 -2l15 -10l2 -12l-1 -14l2 -17
l-2 -18v-37l-10 -10l-29 -1l-37 -1l-31 1h-58l-31 -1l-14 4l-12 -3l-29 3l-3 3l-6 -7h-29l-31 1l-21 5l-5 10l-1 12l1 28l-1 25l4 13l10 22l2 11l15 33l10 29l7 20l13 30l18 45l9 25l18 44l11 26l10 30l9 20l12 33l9 15l4 13l10 27l16 37l2 10l13 28l-2 12l-17 4h-34l-15 -2
l-30 3l-8 -3h-20l-15 2l-25 -1l-14 12l2 23l-3 11v61l8 9l11 3l11 -2l10 1h115l27 -1h26l27 1h27l26 -1l24 1l12 -3l7 -12v-57zM85 86l-5 -10l1 -13l12 3l-9 6l10 7zM244 520l7 6l-5 12l-12 -3zM164 268l-2 -13l10 9zM229 400l10 3l-2 10zM292 561l-9 8v-9zM181 58l-3 10
l-10 7zM109 137l10 5l-4 1l-10 -2zM138 162l-3 -5l12 -4zM177 276h-9l3 -8zM116 107l9 -3l-3 8zM256 646l-1 -4l13 -11zM241 12l10 2l-10 2v-4zM255 52l-5 -8h4zM93 40l-2 3v-3h2zM111 24l-2 2v-2h2z" />
    <glyph glyph-name="braceleft" unicode="{" horiz-adv-x="280" 
d="M235 -62l1 -14l1 -16l-4 -13l-13 -7l-19 -1l-16 2l-27 4l-24 4l-33 17l-23 20l-10 13l-13 23l-3 11l-6 10l-5 34l2 35l4 33l6 27l4 28l6 14l-2 10l5 14l5 30l6 30l4 28l-6 21l-7 12l-24 14l-13 1l-30 2l-13 20l-2 35l3 16l12 7l31 1l27 7l5 6l6 3l7 14l4 16l-2 16l-5 36
l-8 36l-6 29l-8 34l-5 32l-4 34l-1 35l6 37l14 32l10 14l6 4l5 8l26 19l23 12l36 7l28 2l20 -1l18 -6l3 -13l-1 -27v-26l-6 -9l-10 -5l-16 2l-26 -6l-11 -7l-11 -14l-7 -16l-5 -29l4 -25l2 -25l5 -23l1 -17l4 -13l3 -23l5 -25l4 -29l3 -31l-3 -29l-9 -28l-15 -26l-16 -11
l-4 -17l14 -10l4 -8l10 -7l12 -26l5 -27l2 -28l-2 -13l-4 -32l-4 -21l-3 -20l-5 -22l-4 -27l-3 -26l-3 -27l-1 -35l3 -14l6 -14l10 -11l13 -8l11 -3l30 -2l14 -8l4 -14zM90 93l20 2l-3 9l-12 -2l8 3l5 9l-15 -6zM88 141l5 -7l8 1v12zM115 180l-14 10l7 -11zM130 228l2 11
l-5 4zM106 693l5 6h-8zM124 267l-8 3l-7 -3h15z" />
    <glyph glyph-name="bar" unicode="|" horiz-adv-x="198" 
d="M146 14v-17l-1 -16l-4 -13l-12 -7l-20 5l-5 -7l-8 7l-7 -4h-26l-10 10l-1 17l3 32l-4 31l2 19v29l-1 31l1 25l6 7l-7 4l1 16l-1 31l1 34l-2 25l2 11l-1 29l2 31v29l-1 34l-1 28l2 28l-2 37v54l1 37l-2 13l4 20l-2 9l-1 34l1 28l-3 14l3 12v23l-1 26l1 29l6 19l10 2h23
l29 1l19 -5l5 -31v-25l1 -25v-27l-2 -11l2 -12l-2 -20l2 -10l-2 -11l2 -13l-1 -10l1 -22l-2 -10l2 -32v-22l-2 -12l1 -30l1 -31l-1 -27v-25l-5 -16l6 -5l-4 -11l3 -12v-56l1 -28l-2 -27l1 -31v-29l-2 -35l1 -17l2 -28l-2 -27l2 -17l-2 -30zM83 46l21 -2l-8 20l-7 -7zM98 201
l-1 13l-6 4l-4 -7zM107 511l3 -13l-11 4l-3 9l1 -15h17zM110 322l5 8l8 -4l-6 9l-7 -7h-12zM115 216h7l-11 12l-4 -9zM95 353l12 6l-11 5l-8 -3l7 -1v-7zM90 149v-11l12 21zM99 691l11 -1l-4 11zM74 92l7 -8l3 12zM101 103l5 6l-10 5zM114 545l-6 -2l-6 -4l8 -10l-4 8z
M94 439l-5 -3l10 2l2 12zM115 611l-6 8l4 -17zM95 126h-7l11 -8zM98 563l-7 -5l8 -2zM105 232l-6 10l3 -7l-1 -11zM134 371l-1 5l-7 -10zM98 421l-6 5h-8zM106 364l6 -5l-6 11v-6zM96 249l-7 1l9 -6zM92 287l5 6l-14 -6l10 4zM62 365h5l-5 3v-3zM99 489l-3 3v-3h3zM85 144
l-2 2v-2h2z" />
    <glyph glyph-name="braceright" unicode="}" horiz-adv-x="280" 
d="M295 369l-1 -15l2 -15l-6 -13l-30 -6l-9 1v8l-8 -9l-8 2l-23 -19l-6 -11l-4 -16l-1 -17l4 -16l7 -35l7 -34l6 -34l7 -29l7 -36l-2 -8l3 -28l-3 -26l-5 -28l-12 -28l-18 -25l-24 -22l-20 -9l-23 -8l-29 -4l-28 -1l-27 3l-7 19v29l1 23l17 12l9 -1l24 3l14 6l10 8l8 13
l5 16l5 32l-3 15l-4 31l-4 26l-3 29l-9 36l-6 43v24l-1 23l5 26l9 19l21 26l15 10l-22 26l-8 6l-12 22l-7 27l-2 31l5 18l-2 11l6 42l5 12v12l6 36l3 23l8 42v20l-7 29l-11 15l-13 12l-16 5l-30 2l-12 5l-4 16v16l-1 30l5 12l20 6l28 -1l40 -4l26 -10l22 -13l21 -19l8 -11
l13 -23l9 -36l2 -23l2 -28l-3 -13l-3 -35l-2 -5l-10 -20l4 -6l-3 -23l-11 -40l1 -11l-9 -7l4 -9l-4 -13v-16l-2 -26l5 -17l12 -18l9 1l21 -6l27 -1l13 -3zM168 634l-4 7l4 -12l9 -9l15 9l6 15l-12 -4l-8 -9zM178 720l8 6l-14 11l-11 -2l9 -6zM168 763l-9 4l-1 -6l6 -7l14 4z
M206 670l-6 5l-6 -8l9 -5zM155 416l12 -1l-12 4l-8 8l-3 -8zM189 756l-3 -10l11 -5zM190 697l2 16l-7 -8zM231 635l-1 13l-7 1zM174 609l8 -8l2 6zM159 601v7l-9 -2zM153 747l-6 -4h15zM150 250l-3 -5l14 4zM167 281l-4 -3h-7l11 -4v7zM151 470l-8 -3l8 -3v6zM142 268l3 -5
l6 3zM172 602l7 -9l2 4h-2zM183 672l9 1l-3 2z" />
    <glyph glyph-name="asciitilde" unicode="~" horiz-adv-x="567" 
d="M503 382l8 -11l5 -11l-2 -13l-11 -11l-16 -9l-2 -10l-20 -10l-13 1l-3 -15l-18 -6l-32 -6l1 5l-9 -6l-30 2l-29 4l-27 8l-21 11l-22 8l-6 7l-27 9l-38 11l-15 -2l-28 -6l-14 -7l-9 -8l-22 -19l-10 4l-22 26l-17 24l-4 13l8 12l15 16l22 18l31 17l30 8l28 1l22 1l13 -3
l13 1l12 -4l6 -5h9l18 -6l5 -7h11l13 -8l23 -10l32 -13l37 -3l18 5l15 7l15 14l8 4l10 9l11 -3l11 -10zM426 320l6 9l-1 17l-7 -6v-11l-16 16l1 -10l-9 3l5 -13h17zM457 340l-4 5l3 10l-14 -6zM308 334l11 8l-10 7zM354 363l-10 -2l11 -9zM387 347l-14 -1l10 -2l2 -8z
M376 332l-10 13l-8 4zM443 358l-8 2l3 -8zM339 346l15 -1l-8 4zM244 361l6 -2l-1 9zM192 383l2 11l-6 -15zM436 344l1 -4h8z" />
    <glyph glyph-name="exclamdown" unicode="&#xa1;" horiz-adv-x="243" 
d="M186 37v-31l-11 -5l-33 -2l-31 -1h-26l-19 2l-11 14l3 19l-2 8l4 31l-1 15l3 35l-1 14l3 30l-1 14l4 33v26l1 37l2 29l2 35l2 38l1 30l3 9l-3 15l3 36l2 32l7 12l18 2l37 1l17 -5l5 -19l-1 -11l2 -8l1 -21v-24l3 -33l-1 -28l2 -12l-4 -21l8 -27l-2 -20l4 -27v-26l2 -21
v-28l3 -24v-26l2 -25l-2 -24l2 -14zM63 629l1 27v29l-1 29l10 7l29 1l31 2l31 -1l14 -9l2 -16l-2 -17l3 -16l-2 -14l2 -13l-2 -37l-6 -9l-16 -4l-27 1l-28 -1h-29l-10 12v29zM129 240l-9 3l-7 -6h-7l-3 -7l14 -7l8 8zM124 301v-9l-9 1l6 -3l9 1z" />
    <glyph glyph-name="cent" unicode="&#xa2;" horiz-adv-x="368" 
d="M315 220l8 -10l2 -14l-2 -29v-32l-2 -33l-7 -30l-7 -14l-13 -21l-7 -5l-18 -15l-37 -19l-2 -22v-25l-1 -25l-14 -15h-17l-34 1l-21 5l-4 11l1 27l-1 37l-6 11l-25 11l-22 17l-20 19l-4 12l-11 23l-2 12l-4 48v55l1 27l-2 28l2 9l-2 23l1 24v41l1 38l-1 30l3 26l8 26l9 17
l21 28l10 8l30 15l11 9l2 18l-1 31l2 27l8 9l13 2l27 1l35 -5l7 -12l1 -17l-2 -14l1 -35l5 -12l10 -2l27 -14l12 -10l23 -29l12 -34l1 -17l4 -12v-26l-11 -17l2 -5h8l2 -28l-7 -14l-15 -5h-52l-18 2l-11 8l-2 15v63l-10 24l-12 9l-15 2l-16 -5l-9 -14l-5 -16l-2 -31l1 -17
l-2 -19l1 -14l2 -29l-4 -24l3 -13l-2 -19v-34l2 -29l-2 -20l3 -16l-5 -15l6 -17l9 -16l15 -8l15 -1l12 6l9 10l5 14l1 27l1 26v31l8 11l31 2l11 -4l10 4l14 1zM98 390v10l11 -1l-5 24l-8 9l7 2l3 5l13 1l-8 18l2 -16l-18 -4l-7 -7h-8v-15l-3 -8l6 6l4 -8l1 -8zM276 393
l-10 -1l1 -12l7 -2l10 3l6 11l-8 -3l-4 -4zM199 486l2 12l-11 -2l1 10l-9 -5l4 -11zM267 404l-5 10l-11 -16l9 -3zM237 492l-13 -1l-16 -3l6 -11l5 8zM259 119l16 6l-9 3h-12l4 -11l8 -9zM127 466l3 2l-2 8l-9 12v-15zM111 109l6 10h-17l4 -7zM153 489l-2 -8l8 3l6 9z
M178 484l1 20l-7 -14zM184 547h-13l11 -1l2 -10l7 8zM216 505l-9 -2l4 -11l4 11zM155 578l4 -6l11 7zM83 127l2 11l-11 -4v-4l8 4zM92 351l1 -9l8 13zM100 306h12l-12 7v-7zM95 411l3 -11l-8 2zM266 191l-7 -1l4 -11zM93 415l-7 1l17 6zM97 320l-11 -11l11 8l6 8zM82 439
l7 -1l-7 5v-4zM197 556l-2 -7h3zM52 302l-3 4v-4h3zM289 152l-2 3v-3h2zM91 103l-2 3v-3h2z" />
    <glyph glyph-name="sterling" unicode="&#xa3;" horiz-adv-x="461" 
d="M416 145v-17l-5 -35l-13 -40l-12 -19l-21 -23l-10 -5l-27 -11l-28 -6l-25 1l-34 4l-26 12l-13 3l-25 9l-25 4l-29 -3l-33 -11l-37 -16l-12 3l-5 12l-2 17l2 33v36l7 14l28 19l22 19l21 26l10 29l9 35l1 31l-3 29l-4 11l-9 7h-43l-28 -2l-12 4l-9 17v32l2 11l1 24l18 9h35
l8 9l-8 35l-7 25l-6 24l-1 20l-4 23l2 13l1 28l8 29l7 21l8 19l12 18l15 20l11 8l23 15l28 13l26 6l43 2l13 -3h13l31 -10l27 -16l15 -13l18 -21l5 -16l10 -10l10 -29l4 -29v-29l3 -35l-4 -16l-14 -12l-13 -1l-13 2h-54l-12 6l-4 14v32l-2 32l-5 12l-10 12l-10 8l-14 3h-13
l-16 -5l-12 -11l-8 -14l-3 -13v-13l-1 -23l3 -12l4 -24l7 -29l8 -26l8 -29l5 -9l38 -2h58l12 -6l5 -13v-30l-2 -31l-8 -13l-22 -1h-38l-17 -2l-6 -13l1 -23l2 -26l-3 -26l-4 -25l-6 -18l-9 -28l-14 -19l-1 -12l12 -8l31 -7h23l11 4l9 8l8 17l6 32l-2 29l4 25l17 6l28 -1
l28 1l22 -4l8 -8l1 -12l-1 -29zM145 413l8 -3l6 11l-15 12l-8 -3l13 -10zM109 369l-1 6l-11 2l1 -8l-3 -9l9 1zM129 547l11 2l4 17l-8 -5zM160 624l-15 10l6 -15zM136 658l11 -18l3 9zM151 666l-3 -6l26 7zM111 549h10l-7 12zM352 589l-12 -15l13 7zM123 491l12 1l1 9z
M118 576l-3 -11l10 3zM234 674l1 -7l-8 -9l16 13zM91 547l1 -9l10 5zM254 670h-6l6 -12v12zM139 479l-5 -4l11 -3zM128 449l7 -5l-4 11zM108 74l2 -6l4 12zM123 591l-5 -7l5 4l9 -8zM273 368l-10 -2l15 -1zM128 501l-3 7l6 6l-9 -6zM152 498l4 -4v4h-4zM169 200l-3 2v-2h3z
" />
    <glyph glyph-name="currency" unicode="&#xa4;" horiz-adv-x="461" 
d="M419 496l-10 -9l-15 -22l-1 -18l3 -17l-1 -31l2 -31l-2 -35l2 -40l-4 -31l10 -17l24 -25l12 -15l-1 -17l-20 -24l-10 -3l-8 -10l-18 4l-28 28l-12 7l-16 -6l-34 -10l-36 -3l-35 -2l-47 6l-23 5l-7 6l-35 -2l-11 -8l-19 -20l-16 -5l-19 13l-5 9l-7 4l-12 19l2 8l7 11
l32 32l6 10l-1 26l-2 33l1 29l-2 14l1 26v27l3 12l-2 11l1 12v24l-9 11l-28 27l-9 15l6 16l22 23l12 8h13l10 -7l23 -24l14 -5l29 8l33 6l31 4l31 1l20 -2l25 -4l25 -5l25 -7l14 3l8 8l19 18l13 7l16 -6l26 -26l8 -16l-10 -16zM301 362l4 20l-4 13v29l6 4l-6 7l-6 18l-7 6
l-31 6l-31 2l-28 -2l-26 -5l-9 -12l-2 -9v-29l-3 -24l-7 -4l9 -5l-1 -10l3 -10l-3 -12l3 -10l-2 -17l1 -33l6 -14l10 -8l13 -5l14 -2l13 1l25 -2l37 6l13 7l7 12l1 15l1 41v26zM254 205l-9 8l5 13l-14 -7l6 -22l6 8l5 -10zM334 364l6 3l11 -14l1 19l-7 -1zM140 216l3 13
l-10 7l7 -14h-6zM128 246l6 -4l-4 12h-11zM341 431l-2 -5l12 -16zM345 240l7 1l-7 6l-6 -5zM118 229l10 1l-5 4l-5 4v-9zM408 194l-4 -7l12 2zM258 527l-7 -7l8 -2zM227 213l2 11l-7 -8l-11 5zM344 292l9 -7v7h-9zM125 338l-2 -5l10 -3zM113 340l5 1l-7 8zM355 230l-4 5
l-2 -5h6zM365 371l-3 2v-2h3z" />
    <glyph glyph-name="yen" unicode="&#xa5;" horiz-adv-x="462" 
d="M416 307l8 -10l3 -13l-1 -32l-3 -30l-12 -9l-16 -1l-9 9l6 -7l-11 -2l-13 1h-31l-26 -1l-25 3l-1 -12l-2 -33l3 -41l-1 -35l-1 -26v-58l-12 -10l-16 -2l-33 1l-26 -1l-13 2l-11 12v19l-1 37v30l-1 35v60l-4 15l-16 4l-31 1l-9 3l-16 -4l-16 1l-30 -1l-12 14l-3 24l2 21
l2 31l11 6l24 1h62l23 2l5 9l-3 12l-15 40l-12 6l-16 1l-13 -2h-40l-21 3l-8 20l-1 32l5 35l11 6l14 1h37l9 9l-2 13l-11 27l-8 25l-9 23l-2 14l-8 21l-8 25l-9 26l-8 23l-8 24v11l15 8h72l28 -2l8 -10l5 -12l8 -24l6 -26l8 -31l11 -33l3 -18l11 -41l6 -14l10 -32l8 -3l9 31
l9 32l16 56l9 31l5 25l6 15l7 30l8 21l10 4l15 1l23 1l14 -2l14 1l28 -1l12 -5l2 -13l-7 -21l-15 -40l-3 -14l-9 -26l-8 -25l-9 -27l-12 -30l-3 -17l-7 -16l5 -13l22 -5l4 4l33 -2l11 -9l2 -27l-7 -4l5 -6v-37l-11 -10l-28 -2h-59l-13 -4l-8 -13l-10 -33v-12l12 -6h15l27 -1
h23l29 2zM236 347l-6 -5l-5 -10l3 -12l11 7h-9l1 10h13l-6 9l5 9l7 19l21 8l-18 -2l-16 2l3 -8l-1 -9zM194 291l7 -15l-10 -2l12 -3l13 3l-8 6l-1 8zM246 291l7 11l-12 -12l-1 7l-11 1l4 -15l3 10l3 -7l-1 -9l8 5v9zM170 433l-1 -6l17 -5l2 -7l10 11l-19 2zM157 478h11l-6 6
l-1 7l-9 -3l-3 -8zM172 454l-4 -3l9 -3l9 -12l-1 11l3 7h-16zM279 246l7 2l-2 8l-9 2l-6 -8zM95 435l12 -7l-3 9l-12 6zM214 236l5 3l5 -9l8 3l-10 9zM281 274l5 -12l10 -8l-9 15zM357 274l11 -12l-2 12h-9zM210 342l-2 -16l7 3zM229 247l12 -6l-2 9zM197 463l-5 -9l10 -1z
M193 445l1 -10l9 1zM260 419l-5 -3l6 -12zM196 376l-8 -1l4 -9zM305 458l-2 -8l10 3zM117 259l7 8l-8 1zM199 373l5 -12v12h-5zM206 183l4 9l-7 1zM354 434l-6 -5l10 -2zM213 303l-5 -7l7 -2zM176 261v8l-7 -19zM296 492v-5l11 8zM269 211l-8 -4l9 -2zM305 519l-3 -6l11 8z
M287 536l-4 -9h4v9zM272 440l-3 -1l1 -8zM281 204l-3 4l-4 -3zM224 287l-3 2v-2h3zM350 409l-2 2v-2h2z" />
    <glyph glyph-name="brokenbar" unicode="&#xa6;" horiz-adv-x="198" 
d="M55 494l-3 9l3 12l-2 29l3 10l-3 11l1 14l-1 30l1 30l-1 36v34l2 29l-2 32l2 35l7 11l16 4l12 -2l13 2l22 -1l17 -7l3 -11v-35l-1 -33l2 -30l-1 -30v-25l-1 -34l1 -33l1 -30l-3 -15l1 -25l3 -11l-2 -18l1 -17l-8 -10l-12 -4h-52l-16 4l-5 17zM146 208l-1 -14l1 -14v-55
l-1 -28v-78l-7 -4l6 -10l-8 -14h10l-2 -17l-7 -12l-22 -2l-10 2l-18 -2l-21 1l-10 7l-4 29l3 28l-2 13l2 17l-2 12l1 29l-1 28v38l3 21l-3 10l3 11l-4 34l2 17v34l5 11l-5 6l4 15l15 4l31 1l29 -1l10 -7l2 -19l-5 -14l6 -7l-1 -25l1 -25v-20zM89 493l3 7l15 11l-6 5v10
l-10 -4l-4 -21zM100 232v13l-15 12l5 -14l6 -17h11zM97 263l-2 17l-11 4l8 -12l-8 4l5 -8zM92 121l8 4l4 -5l-3 7l-9 8l-9 -5l8 1zM100 89l9 14l-14 -4zM99 491l-3 -10l17 7zM108 505l-7 -8l14 -4zM110 181l11 -3l-10 13zM97 567l-2 12h-10l8 -7zM95 591l-5 7l3 -12l16 6z
M91 220l2 -8l-6 -5l6 -5l2 11zM107 576l-8 6l3 -12zM61 200l8 2l-9 6zM90 2l8 -1l-3 5zM82 110l-7 5v-3zM86 23l3 -3l3 1zM113 673l-2 2v-2h2z" />
    <glyph glyph-name="section" unicode="&#xa7;" horiz-adv-x="438" 
d="M391 266l2 -10l-2 -24l-4 -11l-5 -24l-7 -13l-15 -27l-12 -13l-14 -9l9 -20l11 -13l9 -15l10 -24l9 -27l4 -31l-2 -21l-4 -26l-9 -27l-17 -28l-18 -21l-7 2l-1 -8l-23 -14l-27 -11l-30 -5l-29 -2l-25 1l-27 7l-29 10l-20 13l-21 20l-19 22l-11 24l-8 28l-4 28v29l3 29
l7 10l15 3h13l25 -1l32 1l17 -6l7 -35l-1 -27l6 -23l6 -10l11 -8l12 -5l13 -1l14 2l11 6l17 16l2 12l4 8l-5 24l-13 23l-21 25l-14 10l-29 24l-24 20l-22 21l-13 9l-12 13l-21 21l-8 12l-13 15l-9 22l-11 13l-4 17l-7 29l1 11l-2 16l5 35l11 31l15 26l19 21l7 13l-6 11
l-15 21l-16 29l-8 24l-4 25l1 24l5 40l13 32l15 23l20 20l25 16l35 14l11 2l27 3h29l13 -3l26 -4l11 -4l29 -16l21 -17l19 -22l13 -20l10 -25l6 -26v-30l1 -32l-3 -16l-13 -10l-23 2h-28l-29 -1l-15 3l-6 10l-1 14l1 32l5 9l-11 16l-3 11l-7 9l-10 6l-17 5l-17 -2l-16 -7
l-9 -9l-6 -11l-2 -12l1 -25l12 -25l9 -10l22 -20l4 -13l8 1l16 -12l9 -4l17 -18l31 -27l26 -27l9 -6l5 -8l9 -8l18 -27l13 -23l9 -30zM259 200l11 6l8 15l6 27l-2 15l-5 15l-8 13l-46 48l-11 7l-10 10l-27 20l-15 -16l-8 -24l2 -28l13 -24l18 -21l22 -19l22 -20l19 -18z
M105 315l-3 -6l-2 1l-1 -9l7 5l10 1l2 11zM198 197l-12 3l-1 -11l9 -3l4 -4v15zM312 554l11 5l-11 6l1 8l-7 -6zM89 273l15 3l-5 12l-5 -11l-4 6zM125 4l9 -7l-5 14l-15 2zM288 383l-14 2l8 -15l-3 -7zM298 350l-1 4l-9 -4l14 -15zM301 364l5 -3l-1 -10l6 10l-3 8zM342 261
l7 1l-9 13zM336 549l-12 3l-1 -8zM150 189l7 -4l-4 15zM326 307l-8 12l6 -15h10zM256 389l4 -7l6 7h-10zM249 112l5 -2l7 10zM243 135l6 -6l3 7zM260 353l5 -8l3 7zM81 298l6 -6l-2 11zM89 352h-5l3 -8zM199 112l2 4l-9 1zM283 350h5l-5 5v-5zM370 270l-2 3v-3h2zM272 664
l-2 2v-2h2z" />
    <glyph glyph-name="dieresis" unicode="&#xa8;" horiz-adv-x="212" 
d="M228 842l1 -15l-1 -34l-5 -13l-13 -3h-13l-29 -2l-33 2l-9 5l-4 11l-1 11l1 25l3 9l-4 11l2 25l5 15l13 4l16 1l60 -2l9 -8l2 -14v-28zM90 871v-14l-1 -15l2 -19l-3 -35l-8 -10l-15 -3h-16l-15 3l-22 -3l-13 2l-11 6l-3 13v86l7 10l22 2l11 -3l27 4l29 -2l7 -10zM195 838
l-5 6l-9 5l3 -9zM43 838l9 -8l3 10l-7 -3zM162 848l7 -1l2 8zM43 838l-5 1l2 -7z" />
    <glyph glyph-name="copyright" unicode="&#xa9;" horiz-adv-x="720" 
d="M701 383l1 -13l-3 -25l-4 -31l-6 -16l-2 -14l-6 -13l-8 -27l-7 -13l-13 -22l-8 -7l-6 -14l-23 -28l-20 -21l-20 -18l-24 -18l-28 -17l-17 -5l-19 -12l-34 -12l-12 -1l-10 -5h-11l-31 -5l-28 -2l-19 4l-8 -2l-42 6h-12l-11 4l-23 6l-34 14l-29 15l-19 13l-21 16l-20 17
l-6 9l-13 10l-19 22l-16 24l-16 28l-12 30l-5 8l-2 14l-6 14l-1 14l-5 15l-4 32l1 26l-2 9l1 11l6 5l-6 9l4 35l5 28l5 15l10 8l-6 2l5 16l15 31l13 24l16 22l17 23l20 20l6 -3l1 8l20 18l23 16l30 18l33 13l25 11l23 5l35 2l12 3l28 2l32 -2l30 -4l27 -4l10 -4l19 -13l11 2
l28 -11l24 -14l19 -15l21 -13l12 -14l13 -10l11 -12l16 -20l18 -25l2 -7l11 -15l10 -25l11 -22l4 -15l7 -28l1 -15l4 -14l-4 -13l5 -21v-17zM635 378l-1 13l-3 23l1 9l-4 27l-4 13l-8 27l-11 26l-14 26l-12 20l-11 15l-8 5l-9 11l-21 18l-20 16l-27 14l-20 9l-11 3l-31 10
l-28 4l-32 4l-27 -3l-25 -4l-23 -3l-23 -8l-30 -13l-20 -12l-17 -12l-7 -2l-8 -9l-26 -23l-9 -14l-18 -25l-13 -25l-16 -39l-4 -19l-6 -16l-3 -30l1 -12l-1 -33l3 -6l-1 -12l2 -18l5 -18l6 -24l12 -33l8 -8l14 -24l19 -26l23 -25l14 -8l10 -10l27 -15l30 -15l32 -9l33 -7h15
l24 -3l15 2l31 3l16 4l35 10l30 12l14 10l16 7l14 13l6 -2l4 11l12 7l9 14l21 25l16 28l11 25l9 26l7 21l3 35zM482 509l3 -16l1 -17l-2 -16l2 -14l-4 -13l-10 -8l-14 -2l-27 2l-8 4l-7 14l1 17l-3 26l-5 12l-8 7l-12 1l-12 -2l-23 1l-30 5l-3 -6l-9 -6l-5 -10l-2 -12l1 -28
l-1 -23v-30l1 -30v-25l-2 -13l1 -34l9 -15l19 -5l16 1h27l9 -2l18 3l9 8l4 12l-1 13l3 13l-3 14l2 13l10 10l24 2l26 -3l8 -11l-1 -28l1 -28l-4 -21l-9 -23l-16 -18l-36 -16l-23 -3l-21 -1l-8 2l-24 -2l-44 5l-27 9l-19 18l-16 30l-3 22l-2 33l2 23l-2 26l2 23l-2 31l2 25
v43l7 25l14 22l21 15l21 10l12 1l27 1l29 1l12 -2l27 1l23 -6l15 -5l16 -12l10 -11l8 -13zM273 422l7 7l-11 -5l-11 1l13 -9l-11 -12l9 6zM277 396l-1 12l-9 -8zM580 606l11 3l-5 4zM31 390l5 -2l-9 11zM413 235h-6l-2 -5zM260 336l-3 2v-2h3zM260 398v6l-1 -1z" />
    <glyph glyph-name="ordfeminine" unicode="&#xaa;" horiz-adv-x="368" 
d="M355 216l1 -16l-6 -14l-21 -5l-26 2l-28 4l-24 15l-22 20l-16 -10l-14 -13l-14 -6l-28 -8l-30 -3l-26 3l-29 9l-26 20l-15 22l-4 17l-6 7l-7 29l1 15l-2 17l4 19v15l7 28l8 11l2 11l6 14l7 10l21 27l11 9l11 1v8l28 18l9 3l24 13l34 16l25 11l5 12l1 27l-3 27l-5 13
l-9 11l-11 6l-13 1l-17 -5l-8 -5h-6l1 -5l-3 -11l-2 -32l-4 -15l-10 -6h-28l-31 -2l-26 1l-13 14l-1 33l6 28l8 24l11 22l22 27l14 8l22 13l19 7l40 7h23l26 -2l15 -9l8 3l10 -9l8 2l16 -9l12 -10l21 -25l14 -28l6 -26v-19l2 -28l1 -33l1 -32l-2 -13l2 -15l-2 -17l1 -19v-57
l-1 -30v-58l2 -25l11 -6l8 -9l5 -14l-4 -7zM197 295l16 28l2 15l-1 28l1 28l1 24l-2 12l-10 5l-13 -7l-24 -17l-14 -14l-17 -29l-6 -24l-1 -28l3 -12l6 -12l12 -7l23 -3zM93 409l-1 -10l-14 5l-2 -2l6 -10l-6 -3l6 -4l8 12l7 4l-6 13l-13 -10zM258 442l15 -12l2 15l-5 -5
l3 9zM251 354l8 -2l2 11l-6 5l-5 1zM289 271l5 6l-4 7l-9 -9zM271 383l17 -8l-11 9l-4 15zM60 278l-6 12l-5 -10zM287 307l-11 -1l9 -9zM257 471l17 7l-9 2zM83 371l12 7l-9 2zM271 233l-2 3v-3h2zM108 714l-3 2v-2h3zM80 272l-2 2v-2h2z" />
    <glyph glyph-name="guillemotleft" unicode="&#xab;" horiz-adv-x="434" 
d="M224 230l4 -19l5 -12l2 -13l-7 -11l-17 -1l-33 1l-14 7l-9 13l-9 24l-7 6l-5 8l-16 25l-7 7l-17 21l-16 19l-7 5l-6 9l-16 14l-5 13l2 36l13 13l14 15l18 22l28 33l11 18l23 38l14 21l21 5l26 -1l18 -4l2 -18l-4 -11l-8 -23l-7 -23l-24 -48l-16 -30l-14 -22l4 -18l4 -7
l11 -20l14 -23l5 -13l12 -26zM381 484l-3 -16l-7 -10l-9 -23l-16 -32l-20 -29l-5 -15l18 -33v-10l9 -6l13 -21l14 -32l9 -23l10 -34l1 -16l-11 -9l-40 -1l-16 7l-9 10l-6 13l-15 25l-16 24l-18 24l-19 22l-20 21l-10 7l-5 10l-3 20l7 13l-7 2l6 18l16 13l7 10l11 10l19 24
l30 42l13 22l18 28l14 7l15 -2l15 2l17 -1l9 -11l-7 -36zM173 475l-3 -7l12 11z" />
    <glyph glyph-name="logicalnot" unicode="&#xac;" horiz-adv-x="520" 
d="M492 251l-1 -28l-4 -10l-13 -5h-14l-29 -1l-28 1l-10 5l-4 11l-1 15l6 13l-3 10l1 6l-4 16l1 20l-1 31l5 11l-4 12v27l-3 14l-9 4l-17 2l-33 -2h-27l-3 7l-19 -7l-14 1h-26l-26 2l-14 -2l-42 2l-13 -3l-26 4l-13 -4l-13 1h-51l-11 4l-4 15l1 17v30l4 35l11 6h73l32 -2
l23 2l32 -2l37 2l21 1l21 -3l22 1l24 1l31 -1l28 1h90l12 -5l5 -13l-2 -11l2 -24l-2 -28l1 -22l-9 -12l9 -13l1 -24l-5 -32l5 -16v-60zM343 459l5 14l-13 14l-1 -14zM238 468v9l-4 10l-9 -8l3 -12zM299 473l4 9l-8 -9l-8 -5l9 -8h-8l11 -11v24zM197 463l-3 11l7 3l-13 -1
l-1 -22zM442 384l-8 -10l8 -7l8 10zM450 254l-2 10h-9l-4 -16l6 7zM438 299l4 -10l10 5l-5 10zM259 457l7 14l-14 -2zM207 456l9 6l-9 -2l-4 17l-2 -8l3 -8l-5 -7zM152 450l3 2l-15 -1l3 -12zM393 463l10 13l-13 -1zM103 456l7 1l-6 9l-8 -12zM448 432h-14l-9 -8zM429 258
l6 14l-8 -1zM423 403l7 2l-8 12zM450 454l-8 -6l5 -7zM442 412l-1 9l-7 -8zM448 335l8 1l-1 8zM165 452l4 -5l1 14zM218 436l7 2l-5 6zM423 325l-2 -5l7 -5zM352 446l14 -9l-6 7zM434 227l2 8h-4zM442 455l-3 -1l3 -2v3z" />
    <glyph glyph-name="registered" unicode="&#xae;" horiz-adv-x="720" 
d="M697 432l3 -13l2 -21l-3 -30v-24l-4 -17l-4 -8l1 -9l-3 -18l-14 -36l-20 -42l-14 -22l-15 -21l-25 -24l-20 -24l-20 -14l-28 -19l-22 -9l-10 -7l-22 -8l-25 -7l-24 -8l-24 -2l-30 -2l-29 -1l-28 1l-28 5l-26 8h-10l-15 5l-28 13l-28 14l-26 17l-24 19l-22 21l-20 23
l-17 22l-11 21l-8 10l-11 26l-11 34l-11 37l-4 27l1 14l-3 10v13l6 8l5 14l-7 -12l-2 26l3 33l6 23l8 26l12 30l12 15l-1 11l7 6l4 11l7 8l3 10l15 16l24 25l21 21l10 6l31 24l11 3l6 6l20 9l36 14l30 9l9 -6l11 8l13 2l27 2h27l33 -2l26 -5l36 -12l19 -4l23 -9l20 -15l5 1
l31 -20l13 -11l32 -27l13 -18l8 -17l7 -1l12 -19l15 -26l15 -34l11 -34v-10l4 -9zM617 294l5 14l5 13v15l4 15v17l4 17l-4 35l-3 26l-6 29l-6 13l-8 23l-12 23l-13 19l-9 21l-7 2l-9 9l-25 24l-26 19l-26 14l-28 13l-17 4l-38 9h-13l-28 3l-10 -2l-26 -1l-44 -10l-27 -8
l-20 -11l-27 -16l-25 -19l-19 -20l-23 -29l-18 -28l-7 -16l-11 -30l-8 -24l-4 -35l-4 -38l2 -13l3 -24l5 -28l6 -25l9 -22l10 -21l15 -24l18 -23l23 -26l23 -18l21 -15l25 -10l26 -12l24 -6l34 -7l28 -1h28l11 3l30 6l27 7l27 12l22 11l27 16l27 27l19 20l8 13l15 23l10 21z
M462 393l4 -9l-16 -15l-3 -11l7 -22v-12l6 -7l-6 -4l8 -6l-4 -8l11 -12l-2 -14l11 -19l2 -34l-14 -4h-37l-16 14l-4 16l-7 31l-8 25v10l-5 9l-4 18l-9 19l-11 -5l-28 3l-14 -2l-19 -7l-2 -14v-39l1 -26l1 -29l-3 -14l-11 -9l-13 -1l-28 1l-14 7l-3 17l2 20l-1 16v30l-1 31
v60l1 27l2 33l-3 7l2 22l-2 17l1 15l2 38l12 9h60l36 -1l24 2l12 -2l12 2l11 -3l28 -3l15 -7l13 -10l9 -11l11 -24l-4 -7l7 -3v-16l3 -33l-2 -18l-7 -31l-7 -14zM397 415l10 6l5 11l1 18l-3 36l-9 14l-13 3l-27 1h-26l-27 -2l-4 -19l-1 -31l3 -35l18 -6l22 3l6 -6l17 5
l17 -5zM439 394l11 -7l8 5l-10 9zM267 474l-8 -3l9 -15l4 5zM265 391l-7 -3l18 -9zM374 536l-4 -5l13 1zM663 458l1 -7h8zM267 258h6l-10 6zM320 396l5 1l-8 4zM62 502l-2 -1l8 1h-6zM526 148l-3 2v-2h3z" />
    <glyph glyph-name="macron" unicode="&#xaf;" horiz-adv-x="231" 
d="M248 822l-1 -21l-3 -18l-10 -7h-26l-27 -1h-60l-12 6l-6 -6l-16 3l-20 -4l-15 2l-29 -1l-33 4l-6 21l-1 32l5 14l10 6l37 2l30 -1l41 1l24 -2l8 2l12 -1l37 -1l16 2l32 -1l11 -13zM141 809l11 5l-1 8l-9 -7l-9 2z" />
    <glyph glyph-name="degree" unicode="&#xb0;" horiz-adv-x="359" 
d="M301 663l6 -12l5 -13l2 -29l-2 -28l-6 -27l-11 -22l-20 -25l-10 -4l-7 -9l-17 -11l-31 -11l-33 -1l-27 1l-24 8l-27 14l-19 19l-19 27l-13 32l-1 13l-3 28l6 11l-1 15l6 16l19 33l7 4l5 9l16 12l27 14l33 8l30 1l33 -5l14 -8l9 -2l9 -7l3 -6l15 -9l12 -15zM186 538l16 4
l14 10l12 12l7 14l4 30l-2 16l-4 12l-17 21l-27 10h-29l-23 -16l-8 -11l-10 -26v-13l4 -16l12 -25l21 -16zM113 626l4 12l-15 -6zM241 528l1 5h-12z" />
    <glyph glyph-name="plusminus" unicode="&#xb1;" horiz-adv-x="558" 
d="M47 295l-2 12l1 26v33l3 19l20 6l12 -1l16 2l12 -2l24 2l12 -2l13 2l30 -1l36 4l3 9l1 14l-2 12l2 9v31l5 4l-6 1l1 14l-2 12l1 13l4 12l10 8l13 -1l14 3l16 -2h32l13 -14l2 -14l-2 -16v-33l-1 -27l7 -38l12 -1h85l33 -1l15 2l18 -1l11 -8l2 -14l1 -28l-2 -17l2 -23
l-8 -14l-17 -4l-16 2l-11 -2l-12 1l-25 -1l-24 1l-34 -1l-30 -3l-5 -17v-37l-2 -33l3 -15v-20l-5 -13l-18 -5l-12 1l-27 -3l-19 1l-21 9l-2 14l3 19l-3 13l2 32l-2 14v23l5 7l-6 11l-39 4l-23 -2l-29 -1l-12 3l-26 -1h-33zM510 64l2 -15v-33l-8 -14l-32 -3l-30 1l-29 -2
l-23 5l-20 -3h-32l-32 -1h-62l-27 1l-29 -2l-14 2l-10 -1h-70l-27 -1l-13 4l-6 11l-3 36l2 17l-2 19l5 16l16 6l20 -1l15 2l25 -1h62l17 -7l12 5l16 1l27 1l16 -4l19 4l34 1l11 -2l14 2l26 -3l24 2l11 -2l24 2l29 -2l28 1l10 -5l5 -11l1 -13zM249 352l-14 -8l20 -7l-1 -13
l-3 -4l7 2l19 -5l3 10l7 13l-10 -6l-5 -11l-5 6l-15 23l15 24l1 -9l10 -10h-12l15 -10h15l2 5l-6 9l7 15l-10 -9l-2 -10l-8 13l-11 10l19 4l-2 15l-18 2l4 -10l-13 -16v-7l-10 -4zM287 38l-1 10l-6 5l4 7l-2 4l3 6l-19 -7l-9 13l-9 -5l7 -6l-5 -8l4 -8h11l4 -7l9 7l-5 -5z
M262 303l-3 -12h16l17 -4l7 -8l-8 13l-15 10l-6 9zM333 336l-8 10l-9 -8l-1 11l-15 -19l8 -3l5 5l8 -4l6 6l9 -2v12zM189 335l3 -12l8 6l17 -8l6 7l-7 9l-7 5l-3 7l2 -13zM163 345l-3 -14l7 -6l4 8l10 -3l5 10l-12 -3l3 10zM227 62l7 -11l10 4l-2 5l-7 -8l-3 11l-12 2
l-8 -13l10 -6l2 5l5 -3zM269 205l5 -6l2 6l11 8l2 13l-6 -12l-8 -3l3 6l-3 13l-13 -4l4 -7l2 7l7 -21h-6zM271 185l5 -12l14 -2l-10 27v-13h-9zM222 357l-5 -8l22 -21l-7 9v15zM314 34l2 7l-6 8l-9 -6l-11 2l7 -6l10 -1zM292 318l-12 -6l3 -9l12 -4l-4 8zM106 55l8 -8l1 7
l10 10l-24 -7l4 -5zM268 477l-9 3l6 -15l11 5zM94 69l-1 -6l13 3v13zM346 329v-17l4 9l4 2l3 9zM270 441l5 12l-13 3zM289 491l-9 -7l-3 -6l8 -1zM353 43l5 5l6 7l-17 1l8 -2zM157 58l11 2l-14 9zM375 345l-9 -10l10 -9l-4 11zM270 64l7 -2l-18 -8zM235 38l10 -3v9zM125 38
l10 3l7 10zM180 69l11 1v7zM424 331l-9 4l15 -14zM280 497v9l-7 -14zM341 352l-7 4l2 -10zM95 324l-3 6l-9 -2zM315 489l-7 -5l8 -2zM314 60l-3 9v-7l-7 -5zM207 92v-5h10zM324 369l-5 -8l-1 -10zM150 312l3 13l-4 -4zM145 357l1 -5l8 -2zM384 376l-2 -4l7 -1zM298 475
l-1 -4l4 -11zM283 273l-3 3l-9 4zM307 366l-2 2v-2h2zM395 67l2 2h-2v-2z" />
    <glyph glyph-name="twosuperior" unicode="&#xb2;" horiz-adv-x="294" 
d="M278 369v-9l1 -12l-2 -12l1 -12v-26l-9 -9l-25 -4l-20 2h-22l-31 -1l-16 3l-18 -2h-29l-27 -2l-12 3h-44l-10 9l-2 15l2 14l1 24l4 12l12 29l20 31l20 27l40 46l20 26l23 28l9 21l9 29l-1 15l-9 15l-17 6l-19 -5l-7 -9l-3 -11l-1 -20l-6 -23l-14 -3h-30l-29 -1l-12 3
l-7 11l-2 28l5 35l-1 10l4 7l10 20l20 23l20 17l25 10l30 7h21l30 -3l34 -8l19 -13l22 -19l16 -29l5 -23l3 -33l-2 -23l-4 -24l-6 -16l-8 -12l-11 -24l-12 -17l-16 -21l-21 -26l-23 -27l-19 -25l7 -7l32 -1l29 1h27l13 -2zM65 328l12 7l-11 8zM131 683l5 4l-9 2zM121 321
l5 3h-5v-3zM235 629l-3 2v-2h3zM211 352l3 2h-3v-2z" />
    <glyph glyph-name="threesuperior" unicode="&#xb3;" horiz-adv-x="293" 
d="M278 411l-1 -12l-1 -30l-12 -9l8 -3l-8 -24l-16 -23l-28 -20l-33 -14l-19 -3l-31 -2l-28 4l-29 8l-27 16l-11 11l-17 25l-8 21l-3 27l1 37l13 14h9l33 2l22 -2l14 -6l7 -6l-1 -20l2 -14l11 -23l16 -5h13l15 11l7 14l2 35l-2 18l-5 14l-11 9l-13 2l-5 9l-8 -6l5 10l-10 -3
l-1 -7l-11 5l-5 11l2 14l-3 31l6 14h20l10 3l18 13l6 10l8 8l-5 6v31l-4 12l-12 9l-15 4l-14 -9l-11 -11l-2 -9l-5 -36l-15 -6h-18l-27 -1l-23 2l-9 11l-4 27l5 42l6 15l18 26l27 24l13 7l22 10l26 4l3 -8l-1 8l14 2l27 -2l33 -8l19 -12l19 -13l13 -24l7 -9l6 -17l-3 -17
l6 -12l-2 -31l1 -28l-3 -14l-9 -17l-11 -12l-1 -16l7 -6l14 -22l6 -29l-1 -15zM235 607l-12 5l-6 3l-7 -3l4 -15l9 10h12zM184 508l-5 14l-16 -3l3 -8l9 5l-8 1l9 1zM218 588l-15 1l3 -13zM196 520l-3 -8l16 -7l-7 11zM206 668l-2 -13l2 8l8 -8l3 -11v12zM160 514l1 5l-10 6
l1 -8zM38 627l5 -10l7 7zM196 363l9 -2l-2 12zM206 356l13 -8v7zM169 492l12 7l-11 1zM233 447l8 -5l-3 13zM217 597l3 -10l7 4zM198 669l-8 -9l9 1zM227 468l8 -1l-8 9l-1 -8h1zM53 600l2 8l-9 -1zM220 558l6 4l-11 3zM229 423l-4 11l-1 -7l-2 -1zM231 568l-8 12l3 -10z
M198 614l8 2h-8v-2z" />
    <glyph glyph-name="acute" unicode="&#xb4;" horiz-adv-x="161" 
d="M203 927l-3 -17l-17 -26l-17 -22l-17 -25l-17 -23l-8 -7l-4 -13l-14 -12l-13 -7l-22 1h-25l-16 5l-3 11l4 12l13 32l10 24l11 26l12 30l9 11l17 5l14 -1l28 -1l48 2z" />
    <glyph glyph-name="mu" unicode="&#xb5;" horiz-adv-x="405" 
d="M362 94l-1 -13l-1 -36v-31l-12 -16l-11 -2l-33 -1h-35l-12 7l-7 10l2 20l-4 13l-2 -13l-16 -10l-8 -10l-18 -14l-34 -10l-7 -10l1 -12l-1 -28l1 -30l-1 -28l-2 -25l-12 -7l-28 -3l-7 3l-20 -2l-12 7l-4 -6l-13 -1l-12 3l-8 18l1 26l-1 23l-1 37l1 25l3 24l-3 14v28l1 31
v34l-1 23l1 31l-2 34l4 13l-3 14v37l4 9l-4 19v15l-1 29l1 34l-1 31l1 30l1 29l-2 13l1 14v34l10 12l23 2l8 -2l13 1h25l30 -2l8 -13l2 -31l-2 -29l-3 9l-3 -11v-10l6 8l2 -14l-11 -14v-9l10 -4v-78l1 -30l-2 -14l2 -27l-1 -37v-63l2 -15l-2 -16l1 -15l5 -14l9 -10l13 -3
l25 6l13 14l17 25l-4 15v15l1 34v34l-1 29v35l1 32l1 27l-2 23l6 6l7 -1l-12 3l-2 17l1 26v26l1 34v27l6 10l14 4l32 1l34 -1l6 -4l7 4l16 -7l4 -26l-1 -28l-2 -36l2 -12l-2 -15l2 -18l-2 -13l1 -29l-3 -11l3 -16l1 -31l-1 -20v-147zM79 339l-1 -5l7 -8l-2 -10l9 -9l11 5
l-16 25l2 8zM90 258l3 -20l11 -8l2 16l-10 -1zM122 233v15l-8 7v-18zM269 394h-4l8 -5l3 -12l5 8l-5 15zM83 426l-8 1l9 -10l10 -1l-5 5l-3 12zM91 166l9 -4h13l-7 9zM100 -1l2 10l-13 -1l4 -7zM92 220l2 -16l8 7zM137 410l8 7l-13 3zM107 298l-14 -1l25 -6zM76 282l9 5
l-5 9zM97 -71l10 -1v10zM79 268l11 16l-9 -4zM109 179l-3 -8l14 5zM128 111l6 9l-6 6v-15zM79 302l10 4l-7 6zM88 87l-10 1l3 -8zM115 308l-9 -5h14zM102 466l-5 -6l11 2zM134 441l-6 3v-9zM130 285l-4 6l-3 -7zM310 401l-7 -3l19 2zM74 476l3 -4l7 2zM318 247l2 2l-2 2
l-2 -2zM192 -1l-3 3v-3h3zM108 -52l-3 2v-2h3zM120 -10l-3 2v-2h3zM286 123l-3 2v-2h3zM76 67l1 2h-2z" />
    <glyph glyph-name="paragraph" unicode="&#xb6;" horiz-adv-x="509" 
d="M461 3l-4 -10l6 -14l-1 -13l1 -29l-1 -36l-6 -11l-20 -3h-20l-28 -2l-8 6l-6 25l2 13l-1 13l1 26l-2 28l1 29l-2 14l2 39l-1 33v24l1 30l-1 23l1 37l1 42l-2 12l2 22l-1 18v50l3 12l-4 39v35l1 29l3 13l-4 6l1 12l6 20l-6 6l1 12l-2 14l7 29l-11 29l-38 4l-12 -7l-2 -14
v-66l1 -25l-2 -27l1 -11l-4 -12l4 -9l-3 -12l4 -14l-2 -14l1 -13l1 -25l-10 -11l7 -2l3 -24l-4 -24l2 -30l2 -29l-1 -29v-66l1 -35l-2 -25l1 -32l-2 -15l2 -7l1 -35l-2 -34l1 -31v-36l-2 -21l-16 -7l-31 -1l-14 6h-20l-5 11l2 12l-1 12l1 36l8 -4l-7 6l-3 11h6l-4 8l-1 9
l-2 27l2 11v36l5 6l-4 10l-2 35l2 12l-1 21l3 9l-4 17l2 27l2 17l-4 12v16l-13 8h-25l-30 5l-16 4l-27 11l-10 9l-14 7l-6 6l-3 8l-30 28l-8 13l-2 9l-6 8l11 6l-8 18l-1 -13l-15 23l1 15l-8 13l-3 18l4 15l-5 14l1 24v26l2 18l5 24l12 41l12 25l7 7l4 10l22 27l22 18l15 7
l34 16l25 5l24 3l35 -4l25 4l14 -2l14 2l25 -2l9 2h80l11 -3l34 1l11 -4l5 -15l-1 -32v-34l1 -25l-2 -25l1 -27l-6 -4l6 -9v-24l-2 -7l3 -15v-16l-4 -16l2 -14l-1 -13l2 -12l-2 -16l2 -18v-24l-4 -8l4 -15l1 -16l-2 -37l1 -39v-27l-1 -35l-4 -5l6 -22l-2 -30l1 -26v-33
l-6 -10l6 -6v-15l1 -25zM187 580l-9 -5v9l-8 6l-10 -9l-10 -5l11 -2l3 7l9 -8l22 -9l6 4zM109 524v10l-12 -7l7 -4l-14 -6l7 -16l-2 -9l12 10l-8 8l7 5zM168 625l-7 -2l6 -2l9 -7l-13 -1l7 -7l4 -1l6 -9l5 18l-11 6l3 10zM83 548l1 -6l11 1l4 10l10 5l-7 8l-9 -13l-10 1
l-8 4zM235 585l-13 -9l-9 -4l2 -8l24 13l-3 8h-1zM64 527l-8 -3l6 -11l9 -2l9 5l-9 -2v10zM175 293l12 -3l11 1l-11 13zM183 554l9 -2l-10 5l-9 8l-8 -3l10 -13zM225 634l-6 7l-9 -1l1 -26l2 12l6 10l2 -10zM268 481l-4 9l-11 -5l1 -10l7 -8l-1 10l-5 4h13zM84 590l-13 -3
l20 -18l-1 10l-7 2zM156 560l-13 -4l1 -8l8 3l9 10l-8 6zM192 329h13l-15 18zM100 603h-10l12 -15l4 9l-1 6l-9 -5zM45 463l9 11l-1 10l-8 -5v-16zM154 516l21 8l-1 12l-9 -11zM185 415l12 1l7 -8l-3 14l-13 -1zM177 668l-12 -6l-2 -10l11 -2l-6 4l9 4l-7 2zM237 460l-12 9
l1 -10l-3 -9zM269 560l-10 4l-3 -8h7l4 -7zM206 681l-5 -13l12 4l-3 7l5 2h-9zM256 379l9 7l3 12l-8 -6zM175 508l21 -2l-5 8zM187 710l-2 -8l12 2l-5 6l-1 7zM179 463l3 15l-9 7zM248 538l-4 -14l13 7zM142 655h-5l5 -6l4 -13l4 5zM228 624l2 -5l6 -6l2 12zM430 19l-12 2
l-1 -11zM141 361l9 -11l3 11h-12zM261 596l-17 2l11 -9zM260 519l4 6l-10 -4l5 -16zM205 473l5 13l-11 -5zM149 427l16 -3l-9 9zM195 663l4 -3l-4 10l-12 5zM22 514h8l-7 13zM205 319l9 -1l-5 12zM255 68l-4 -8l10 5l3 6zM154 606l-5 -7l8 -9zM152 713l-1 -11l10 11h-9z
M78 481l-3 -13l5 5l2 16zM107 406l11 2l-9 7zM388 442v13l-7 -9zM119 357l19 9h-10zM64 471l-4 -10l13 10h-9zM269 581l-4 -3l4 -6l6 -2zM231 425l11 4l-10 1l-9 -9zM411 498l-7 -3l10 -8zM188 484l6 12l-11 -8zM208 496l-12 5l5 -9zM241 451l-5 -8l9 -2zM271 21l2 -8l8 9z
M284 543h-8l7 -10zM205 387h4l-3 6l-9 1zM255 541l9 5l-10 3zM249 -61l-2 -6l12 -2zM246 111l6 -5l3 10zM68 486l9 13l-9 -5v-8zM389 464l-2 11l-5 -7zM71 425h-6l2 -11zM439 569l2 9l-8 -4zM167 542h-9l2 -7zM268 542v-9l7 9h-7zM226 609l1 8l-8 -1zM140 542l8 -9h7z
M208 590l-3 -7l8 -2zM77 361l2 5l-12 -1zM227 265l3 8l-11 -10zM96 408l-6 -3l6 -6v9zM156 680l-12 1l6 -5zM133 343l2 -12l4 2zM170 406h9l-1 17v-13zM133 610l14 -3l-14 6v-3zM265 110v-4l10 2zM238 382l10 3l-10 1v-4zM123 336l-3 4v-11l-3 -8zM289 338l-6 7l6 -13v6z
M131 376l6 13l-3 -1zM187 318v-8h4zM198 534l-8 11l5 -10zM207 691l-5 2l6 -7zM291 164l2 -1l6 8zM197 608l-4 1l8 -7zM92 560l-8 8l-5 3zM45 443l-3 4v-4h3zM253 578l-2 -2l9 4zM123 673l-3 2v-2h3zM129 638l-3 2v-2h3zM407 74l-2 2v-2h2z" />
    <glyph glyph-name="periodcentered" unicode="&#xb7;" horiz-adv-x="234" 
d="M191 363l-2 -10v-8l-5 -15l-9 -14l-11 -12l-13 -10l-23 -6l-25 1l-18 6l-11 7l-18 17l-8 16l-4 27l3 23l5 6l6 14l9 9l21 16l8 1l33 2l14 -9l7 3l6 -9h9l8 -10l17 -30zM108 322l6 9l-9 18l-12 -3l4 -7l-2 -9l5 8l1 -10zM134 334l9 6l-23 6l11 -7zM140 391l-2 2v-2h2z" />
    <glyph glyph-name="cedilla" unicode="&#xb8;" horiz-adv-x="213" 
d="M200 -134v-15l-4 -16l-13 -27l-11 -13l-33 -23l-14 -4l-29 -4l-29 2l-31 8l-14 10v20l3 21l15 9l32 -5h12l13 3l15 10l4 18l-4 19l-5 11l-15 -1l-22 -1l-12 -4h-13l-12 4l-14 11l-3 17l7 11l17 20l17 25l18 25l15 7l31 1l12 -7l-3 -17l-12 -13l-7 -16l7 -8l28 -3l17 -7
l17 -16l17 -26z" />
    <glyph glyph-name="onesuperior" unicode="&#xb9;" horiz-adv-x="250" 
d="M210 436l-1 -16v-19l1 -33l-2 -30l1 -33l-9 -9l-25 -2h-28l-27 1l-12 5l-5 13v15l-1 30l2 14l-3 12l3 22l-2 14v28l-1 29l2 26v30l-1 23l-16 3l-33 -17l-13 -3l-11 7l-3 13l1 13v26l-1 29l6 15l10 9l26 14l34 23l13 6l5 9l35 21l10 -2l9 3l33 -9l-2 -17l4 -22v-27l1 -31
l-1 -28v-27l1 -29v-27l-2 -28l3 -8l-2 -13l2 -12zM134 651l-3 -7l4 -2zM151 631l-2 2v-2h2z" />
    <glyph glyph-name="ordmasculine" unicode="&#xba;" horiz-adv-x="365" 
d="M339 372l2 -12l-3 -11v-31l-5 -25l-4 -8l-8 -27l-25 -33l-7 -4l-5 -8l-19 -12l-28 -12l-29 -7h-53l-17 4l-23 8h10l-8 4l-3 -4l-11 7l3 7l-11 -4l-17 13l-19 19l-14 22l-5 13l-9 29l-4 25l-2 31v94l1 36l-3 30l3 34l-1 23l2 23l6 20l1 12l5 13l15 30l24 28l31 20l7 2
l8 -2l2 8l34 6h17l28 1l25 -5l10 -6h10l15 -10l14 -5l21 -22l6 -14l8 -5l16 -40l8 -32l1 -32v-39l2 -27l-3 -32l2 -35v-34zM213 297l11 15l3 20l-3 33l1 15l1 30l-2 35l2 16l-1 34v78l-6 36l-11 17l-19 6h-16l-13 -7l-10 -12l-6 -15l-3 -33v-34l-1 -32l2 -33l-2 -20l1 -19
v-79l-4 -13h3l8 -31l9 -10l11 -8l11 -2l26 5zM286 488l10 2l-4 12l2 -10l-14 3l-3 10v-8l-8 -13zM77 328l5 8l6 7l-8 12l-10 -11l11 -3zM262 296l9 12l6 9l-10 -4l-2 -9l-4 11l-3 -11zM314 330l2 7l-7 5l-6 -8zM255 461l8 2l9 9l-13 -3zM97 522l1 -10l6 6l-1 11zM132 668
l5 7l-6 3l-5 -9zM61 573l-6 -9l9 1v12zM81 551l-10 -9h7l4 -4zM47 497h12l-8 9zM95 439l-9 9l-1 -10zM267 432l5 9l-12 -2zM90 394l6 12l-11 -9h3l4 -11zM98 278l8 1l5 8zM74 590l-1 -6l10 4zM281 463l1 5l-9 -1zM109 397l-12 -15l14 15h-2zM230 190l-3 3v-3h3zM309 438
l-3 2v-2h3zM138 420l-3 2v-2h3z" />
    <glyph glyph-name="guillemotright" unicode="&#xbb;" horiz-adv-x="434" 
d="M399 363l1 -14l-4 -12l-9 -13l-18 -15l-18 -24l-19 -23l-16 -23l-18 -28l-22 -34l-20 -5h-27l-18 11l2 21l10 20v12l7 9l1 12l8 14l9 17l14 30l15 22l4 9l1 19l-13 22l-15 23l-7 19l-7 11l-4 13l-13 29l-11 36l-1 17l10 7l14 1l35 -2l13 -9l13 -21l3 -19l17 -15l11 -16
l1 -8l10 -6l8 -11l14 -19l6 -3l24 -27l6 -12l-1 -5zM227 324l-13 -11l-11 -13l-14 -12l-11 -15l-16 -19l-7 -11l-9 -9l-5 -2l-3 -21l-15 -26l-25 -11l-25 1l-21 7l-4 2l4 25l9 22l8 24l11 25l6 9l5 14l15 17l3 9l13 30l-3 12l-23 35l-12 27l-13 27l-10 27l-11 31l-1 18l10 9
l33 2l19 -4l13 -12l13 -25l15 -27l19 -23l5 -15l11 -5l11 -15l26 -25l12 -15l2 -12l-3 -32zM266 193l9 5l8 9l-12 5l-7 8l5 -6l1 -12zM135 430l-4 -9l7 3l2 8l5 6l-17 -1zM196 331h6l-7 7l-3 -9l8 -6zM293 412l9 4l-10 5zM306 444l-10 -2l7 -6zM176 388l-2 -8l7 -4zM270 509
l-4 10v-16zM122 461l12 -4l2 8l-5 -6zM86 181l-3 3v-3h3z" />
    <glyph glyph-name="onequarter" unicode="&#xbc;" horiz-adv-x="686" 
d="M664 141v-15l1 -16l-2 -14l-12 -9l-32 -3l-2 -32l2 -32l-3 -16l-11 -11l-12 -1l-27 1l-15 -3l-28 5l-7 11l1 12l-3 26l2 13l-1 23l-14 7l-18 -1l-24 -1l-12 3l-14 -2l-26 2h-19l-12 9l-2 17l1 16l-1 29l6 21l10 20l15 32l13 30l13 27l8 10l7 17l10 22l5 15l13 27l16 29
l8 9l13 4h34l14 -2l14 1h32l10 -9l2 -14v-66l2 -33l-1 -14v-34l-4 -15l4 -29l-3 -27l17 -4l21 -1l9 -8zM393 362l-7 -11l-5 -12l-15 -28l-20 -29l-8 -20l-7 -10l-11 -23l-13 -23l-12 -23l-17 -29l-22 -42l-15 -27l-13 -23l-11 -19l-15 -26l-13 -12l-21 -2l-35 -1l-16 3
l-6 15l13 26l6 8l13 28l20 36l14 25l15 20l6 17l6 10l9 19l10 14l5 11l13 21l13 27l14 24l4 12l7 9l21 39l7 5l3 12l8 17l14 23l22 44l17 28l17 31l10 14l5 14l14 16l-2 6l21 36l8 19l17 28l18 34l8 6l9 22l14 6l18 -1l38 2l16 -17l-4 -13l-17 -28l-7 -14l-15 -27l-12 -25
l-15 -23l-7 -14l-16 -29l-12 -21l-10 -20l-16 -29l-18 -32l-14 -25l-13 -25zM121 557l-12 7l-18 -8l-33 -13l-15 2l-5 14l1 24l-2 30l4 14l-2 4l2 10l10 11l15 6l15 3l3 9l11 6l22 13l27 19l25 16l32 4l17 -2l12 -10l2 -17l-2 -17l1 -16l-1 -32v-67l1 -32l1 -30l-1 -33v-166
l-11 -8l-13 -2l-14 2l-28 -1l-29 -1l-11 6l-4 17l1 18v87l-3 41l3 25l-1 30v37zM512 178l5 11l-1 13l2 28l-2 16l-6 7l-11 -19l-12 -24l-10 -27l12 -7l11 -1zM168 414l7 8l-13 5zM176 444l18 -2l-14 11l3 -6zM525 83l9 -7l2 8zM565 163h9l-11 4l-3 -11zM121 633v-6l9 -3z
M465 615l-2 -1l9 1l4 6z" />
    <glyph glyph-name="onehalf" unicode="&#xbd;" horiz-adv-x="708" 
d="M423 297l1 8l5 21l-2 11l4 16l5 16l12 6l-6 3l10 15l26 23l32 15l31 5h32l17 -7l16 2l31 -15l8 -8l20 -17l8 -12l8 -21l6 -40v-27l-5 -29l-14 -27l-14 -31l-9 -9l-6 -12l-16 -16l-6 -11l-10 -7l-25 -33l-17 -25l7 -5l29 -1h24l20 2l8 -2l10 1l19 -6l5 -10v-29l-1 -35
l-6 -13l-14 -4h-33l-33 -1h-32l-34 1l-23 1l-33 -2h-30l-17 3l-8 12v15l2 33l3 8v8l7 16l21 36l16 18l5 11l13 14l22 26l27 31l23 34l15 28l4 31l-6 15l-14 11l-16 1l-8 -6l-9 -11l-5 -24l1 -14l-5 -15l-19 -4l-14 3l-13 -2l-14 1l-14 -2l-14 4l-6 10l-2 12v6zM434 462
l-2 -12l-15 -23l-11 -24l-14 -21l-7 -15l-14 -27l-10 -8l-2 -12l-9 -7l1 -10l-19 -29l-4 -11l-13 -26l-12 -18h-7l4 -7l-14 -26l-15 -26l-13 -28l-11 -15l-12 -20l-16 -33l-17 -29l-13 -26l-11 -6l-15 -3h-30l-30 2l-3 15l10 23l9 12l4 10l12 21l18 32l15 30l15 26l13 23
l10 3l-2 14l18 31l19 36l15 26l10 15l6 16l16 28l9 10l5 17l6 7l10 20l10 19l8 6l2 9l13 27l14 25l10 10l-2 6l24 42l14 25l8 14l17 34l9 4l4 16l10 21l11 23l21 24l13 2l14 -1l35 1l18 -8l-9 -29l-8 -11l-15 -30l-16 -28l-16 -27l-6 -16l-6 -9l-15 -25l-14 -27l-15 -28z
M111 554l-7 8l-26 -8l-3 -5l-12 -7l-14 -4l-12 9l-3 19l1 17v28l4 27l8 9l28 15l27 19l13 4l4 7l28 24l23 8h35l12 -9l1 -28v-29l2 -33l-3 -21l2 -13l-2 -18l2 -9l-2 -8l1 -23l1 -28v-110l-2 -12l3 -26l-2 -11l1 -27l-7 -21l-27 -3l-30 -1h-30l-11 8l-3 14l2 15l-2 20l1 24
l-2 37l3 12l1 30l-3 13l4 27l-4 9v51zM636 357l-10 9l-12 6l2 -8l13 -7l1 -9l-8 -14l-1 -6l18 11zM179 440l3 -8l-12 1l-1 -19l-8 -19l9 5l7 19l10 14zM159 343l-7 18l-12 -13l7 -4zM608 393l-7 -9l-2 -8h11l5 7zM160 417l-12 -5l3 -8l9 3v10zM528 115l-3 11l-12 -19z
M509 376l11 12l-9 -3l-9 2zM210 663l-9 -2l5 -15zM630 300l13 -3l-9 13zM627 254l2 7l-10 -3l-3 -8zM600 215l11 15l-10 -1zM173 336l7 7l-13 5zM472 310l-4 5l-4 8l-6 -7zM488 352l5 -5l10 14zM477 313l9 10h-11zM651 318l-5 -8l17 6zM540 371l8 -14l1 11zM313 319l9 4
l-10 5zM597 320l11 -5l-2 8zM486 87l-4 18l-2 -9zM205 579l-8 -5l-1 -9zM440 577l11 -14l-3 9zM182 412l6 -2v9zM304 360l-2 -5l11 2zM402 418l-3 3v-3h3zM391 428l-3 2v-2h3zM163 426l-3 2v-2h3zM594 202l-2 2v-2h2z" />
    <glyph glyph-name="threequarters" unicode="&#xbe;" horiz-adv-x="694" 
d="M150 278l-20 1l-30 6l-23 9l-27 19l-19 25l-11 28l-2 32l3 36l10 8l12 -1h25l27 2l12 -3l10 -18l-1 -10l4 -22l7 -11l12 -9l15 -3l14 5l12 16l1 11l7 25h-6l3 6l-6 26l-7 7l-11 6l-21 3l-21 7l-4 35l4 29l15 9l18 4l17 7l9 11l5 11l-2 18l-5 23l-9 24l-13 -7l-14 -1
l-13 -12l-7 -13l-2 -32l-3 -5l-22 -9l-18 1l-36 1l-14 5l-4 14l-1 19l3 29l7 27l7 13l8 9l15 19l10 7l25 16l13 5l37 7l16 -2l34 -4l11 -9l8 2l15 -8l27 -23l9 -15l11 -26l1 -17v-32l-3 -8l6 -5l-2 -12l-3 -28l-7 -14l-9 -12l-6 -17l19 -24l4 -26l6 -12l-4 -14l5 -15l-2 -23
v-21l-3 -13l-8 -23l-8 -12l-20 -24l-13 -7l-28 -13l-31 -7zM673 122l-1 -16l-2 -12l-10 -8l-27 -4l-7 -12v-55l-3 -15l-11 -9l-18 -1l-36 1l-25 1l-8 14l-1 16v24l-1 28l-8 10l-14 2l-14 -1l-37 1l-8 -3l-9 2h-29l-15 3l-7 15l3 24l-3 32l8 25l14 26l12 28l12 2l-11 1l6 12
l19 25l-1 12l16 30l14 34l18 36l10 1l-6 8l8 12l14 9l16 -4l10 5h38l30 -2l13 -6l5 -11v-14l-2 -32l2 -18l-2 -16l1 -19v-26l-1 -27l1 -27v-34l5 -12l30 -4l10 -10l2 -13v-28zM404 340l-8 -14l-15 -26l-13 -25l-12 -23l-14 -24l-16 -30l-14 -23l-13 -24l-11 -22l-10 -5l8 2
l-10 -18l-26 -48l-10 -10l-2 -11l-20 -32l-16 1l-4 -5l-12 -3l-8 5l-13 -4h-17l-15 8l2 16l9 17l14 25l7 9l12 26l16 25l9 19l16 22l8 25l8 12l16 30l19 34l19 35l19 32l11 21l12 22l11 22l13 23l7 5l3 11l12 24l11 3l-6 3l12 24l17 30l10 11l7 22l8 16l20 33l9 20l9 14
l15 29l17 31l15 20l10 5l36 -1l27 2l11 -5l-1 -14l-11 -23l-13 -23l-15 -26l-14 -31l-13 -19l-14 -28l-15 -25l-13 -25l-13 -24l-12 -21l-11 -21l-17 -22l-6 -13l-12 -28zM510 174l14 13l2 11l-2 12l1 30l-6 12l-7 -10l-4 -12l-9 -15l-13 -27v-11l12 -3h12zM543 381l5 -6
l-14 1l7 -10l2 -15l3 -6l11 8l-1 15l-5 15zM412 454l-8 -5h8l3 -10l-12 3l4 -10l-5 -4l7 -5l15 7l-6 7v8zM486 318l5 -5l-3 -9l7 -3l15 3l2 -3l-5 14l-2 -1zM234 367l8 7l-9 5l-7 -12v-19l7 11zM253 428l-9 -1l-9 -7l2 -8l7 -6v-8l1 9l-8 11l11 2l12 -1l-8 2zM183 504l8 8
l-1 10l-9 -4zM392 421l-7 -4l-4 -7l-2 -17zM202 331l6 5l-6 9l-8 -13zM325 215l-9 6l-1 -16zM585 302l2 10l-10 -2l-2 -4zM546 363l-4 5l10 2l2 -12zM533 336l3 5l-7 1l-7 -14zM230 579l-4 -3l1 -11l6 4zM435 474l-14 1l8 -9zM234 463l-6 -6l8 -11zM233 497l-9 3l1 -12z
M469 259l13 13l-10 -3zM460 254l-7 -9l15 7zM205 519l-7 -8h10zM523 367h-8l9 -10zM208 353l-1 -12l6 10l-10 7zM579 373l-8 -6l11 -1zM163 678l6 8h-9zM200 528l-6 11l4 -19zM230 397l8 -3l-10 7l-7 -7zM152 511l7 10l-8 -2zM523 385l-8 -10l8 3v7zM568 279l15 2h-11l-3 6z
M505 390l-1 -5l10 -1zM144 696l1 5l-9 1zM272 195h-5l1 -8zM155 310l5 6l-5 2v-8zM559 379l2 -5l6 3zM185 470l2 -4l6 4h-8zM574 258l-1 3l-7 -10zM517 301l9 6l-9 -3v-3zM457 474l-3 2v-2h3zM506 314h-1l-8 -5z" />
    <glyph glyph-name="questiondown" unicode="&#xbf;" horiz-adv-x="343" 
d="M328 150v-12l-5 -33l-2 -1l-3 -18l-14 -29l-9 -11l-6 -13l-33 -26l-33 -14l-20 -5l-24 -2l-9 1l-36 2l-25 8l-30 16l-17 13l-9 11l-17 20l-5 14l-8 26l-7 26l1 12l-2 15l4 31l8 28l1 13l10 21l11 23l16 29l15 21l21 34l18 31l9 26l10 31l5 32l1 32l4 12l14 6l14 1l24 -2
l28 1l11 -3l5 -20l-1 -34l-4 -26l1 -13l-5 -11v-13l-4 -10l-2 -19l-12 -30l-12 -29l-15 -28l-15 -24l-9 -24l-11 -26l-9 -22l-6 -31v-17l3 -17l7 -13l12 -10l15 -3l16 5l11 10l12 30l2 16v32l2 18l10 11l45 2h31l16 -5l4 -15v-21zM138 664l-2 38l4 3v11l14 5l15 2l36 -1h35
l10 -6l3 -8l1 -14l-1 -35l1 -39l-2 -18l-13 -10l-11 5l-2 -7l-27 1h-26l-26 1l-9 21v51zM134 339l6 -11l7 -9l1 11l6 -11l12 7l-19 5l6 9l-6 12l-9 -10zM159 446l2 -8l7 12zM269 165l-9 -2l6 -7zM270 97l3 8l-9 -3zM187 429l-3 -10l6 1z" />
    <glyph glyph-name="Agrave" unicode="&#xc0;" 
d="M409 28l1 -12v-11l-7 -5l-18 -2l-28 1l-14 8l-7 -8h-42l-11 7l-5 12l-3 23l-1 22l-4 10l-2 19l1 9l-2 7l-4 23l-8 16l-19 -2l-37 2l-30 -2l-12 -6l-4 -27l-5 -24l-4 -27l-2 -24l-6 -25l-6 -9l-14 -4h-63l-26 -1l-11 6l-4 21l4 10l1 16l6 30l6 33l4 26l6 28l1 16l5 26
l6 23l4 36l4 17l4 28l4 10v9l3 23l11 10l-9 1l4 19l6 19l-1 13l3 13l5 29l5 30l5 25l2 11l4 18l1 12l7 33l4 27l5 34l5 28l5 14l-2 6l3 10l10 7l4 8l18 -1l29 1l25 -4l6 7l19 -3l17 1l17 -2l10 -11l7 -31l4 -29l5 -31l5 -25l4 -32l8 -23l2 -24l4 -23l-5 -10l6 -8l-1 -6l6 -7
l2 -16l-4 -4l7 -7l1 -16l5 -15l3 -21l-10 -7l13 -5l2 -20l7 -34l4 -27l5 -36l6 -23v-12l7 -23l3 -26l6 -38l7 -37l4 -28l5 -30zM213 261h15l13 7l1 13l-3 27l-6 26l-4 28l-5 24l-4 31v16l-5 19l-7 17l-12 -43l2 -10l-2 -13l-4 -32l-5 -27l-5 -31l-3 -30l3 -20l15 -3z
M255 469l8 2l7 -7l4 7l-7 7l-13 3l8 8l8 -6l9 3l8 7l-16 7l-10 -4l-9 14l7 -14l-12 -1l6 -5l-1 -12zM293 271l12 1l8 -8l-3 10h-11l6 6l-2 18h-19l6 -2l3 -13v-12zM259 548l-6 3l2 -14l7 2l7 -2l-1 11h-9zM142 453l8 -2l4 15l-18 -8zM286 486l-7 -1l4 -12l11 -1zM135 306
l13 8l-10 4l-8 -12l10 -6zM69 231l1 3l-1 10l-6 -31l-10 2l6 -8l8 10zM246 198l-3 7l-12 2l10 -13zM274 388l16 5l-9 8zM304 152l6 -1l2 12l-14 -7zM156 487l-9 -12h13zM284 414l8 -7h3l-2 11zM172 621l-8 5l-6 -11zM135 362l14 4l2 6l-2 3l-5 -7zM297 338v-10l6 7l-10 14z
M299 435l-10 -4l7 -8zM268 454l2 -6l8 1l-1 6zM151 358l8 5l-7 8zM315 305l-12 -6l9 -4zM79 197l9 2l-5 10zM295 446l-4 7l4 9l-10 -13zM146 549l2 10l-10 -4zM270 607v10l-9 -9zM172 647l-5 -5l12 -6zM311 254l10 -7v9zM194 591l-2 -7l15 8zM277 532l-7 -9l5 -6zM121 307
l2 7l14 10l-13 -4zM326 107l-2 12l-7 3zM147 287v7l-10 -6zM163 502l11 -3l-10 9zM295 397l-2 -9l8 4zM135 341l8 -6l1 7zM119 287l15 -2l-15 6v-4zM266 409l2 10l-7 -13zM294 233l5 -7l3 4zM136 398l3 -4l6 4h-9zM304 224l6 -1v6zM272 417l4 7l3 14zM327 143l-3 4v-4h3z
M111 337l-3 2v-2h3zM158 538l-3 2v-2h3zM167 434l-3 2v-2h3zM119 191l-2 2v-2h2zM295 213l2 2h-2v-2zM271 810l4 -15l-2 -14l-17 -5h-48l-6 5l-12 5l-12 21l-7 6l-12 21l-13 13l-3 8l-7 5l-11 19l-16 20l-11 19l3 10l11 3l14 -2l18 3h55l18 -4l8 -12l13 -25l3 -15zM194 866
l-2 3l-10 17l2 -13zM151 914l-3 3v-3h3z" />
    <glyph glyph-name="Aacute" unicode="&#xc1;" 
d="M409 28l1 -12v-11l-7 -5l-18 -2l-28 1l-14 8l-7 -8h-42l-11 7l-5 12l-3 23l-1 22l-4 10l-2 19l1 9l-2 7l-4 23l-8 16l-19 -2l-37 2l-30 -2l-12 -6l-4 -27l-5 -24l-4 -27l-2 -24l-6 -25l-6 -9l-14 -4h-63l-26 -1l-11 6l-4 21l4 10l1 16l6 30l6 33l4 26l6 28l1 16l5 26
l6 23l4 36l4 17l4 28l4 10v9l3 23l11 10l-9 1l4 19l6 19l-1 13l3 13l5 29l5 30l5 25l2 11l4 18l1 12l7 33l4 27l5 34l5 28l5 14l-2 6l3 10l10 7l4 8l18 -1l29 1l25 -4l6 7l19 -3l17 1l17 -2l10 -11l7 -31l4 -29l5 -31l5 -25l4 -32l8 -23l2 -24l4 -23l-5 -10l6 -8l-1 -6l6 -7
l2 -16l-4 -4l7 -7l1 -16l5 -15l3 -21l-10 -7l13 -5l2 -20l7 -34l4 -27l5 -36l6 -23v-12l7 -23l3 -26l6 -38l7 -37l4 -28l5 -30zM213 261h15l13 7l1 13l-3 27l-6 26l-4 28l-5 24l-4 31v16l-5 19l-7 17l-12 -43l2 -10l-2 -13l-4 -32l-5 -27l-5 -31l-3 -30l3 -20l15 -3z
M255 469l8 2l7 -7l4 7l-7 7l-13 3l8 8l8 -6l9 3l8 7l-16 7l-10 -4l-9 14l7 -14l-12 -1l6 -5l-1 -12zM293 271l12 1l8 -8l-3 10h-11l6 6l-2 18h-19l6 -2l3 -13v-12zM259 548l-6 3l2 -14l7 2l7 -2l-1 11h-9zM142 453l8 -2l4 15l-18 -8zM286 486l-7 -1l4 -12l11 -1zM135 306
l13 8l-10 4l-8 -12l10 -6zM69 231l1 3l-1 10l-6 -31l-10 2l6 -8l8 10zM246 198l-3 7l-12 2l10 -13zM274 388l16 5l-9 8zM304 152l6 -1l2 12l-14 -7zM156 487l-9 -12h13zM284 414l8 -7h3l-2 11zM172 621l-8 5l-6 -11zM135 362l14 4l2 6l-2 3l-5 -7zM297 338v-10l6 7l-10 14z
M299 435l-10 -4l7 -8zM268 454l2 -6l8 1l-1 6zM151 358l8 5l-7 8zM315 305l-12 -6l9 -4zM79 197l9 2l-5 10zM295 446l-4 7l4 9l-10 -13zM146 549l2 10l-10 -4zM270 607v10l-9 -9zM172 647l-5 -5l12 -6zM311 254l10 -7v9zM194 591l-2 -7l15 8zM277 532l-7 -9l5 -6zM121 307
l2 7l14 10l-13 -4zM326 107l-2 12l-7 3zM147 287v7l-10 -6zM163 502l11 -3l-10 9zM295 397l-2 -9l8 4zM135 341l8 -6l1 7zM119 287l15 -2l-15 6v-4zM266 409l2 10l-7 -13zM294 233l5 -7l3 4zM136 398l3 -4l6 4h-9zM304 224l6 -1v6zM272 417l4 7l3 14zM327 143l-3 4v-4h3z
M111 337l-3 2v-2h3zM158 538l-3 2v-2h3zM167 434l-3 2v-2h3zM119 191l-2 2v-2h2zM295 213l2 2h-2v-2zM323 927l-3 -17l-17 -26l-17 -22l-17 -25l-17 -23l-8 -7l-4 -13l-14 -12l-13 -7l-22 1h-25l-16 5l-3 11l4 12l13 32l10 24l11 26l12 30l9 11l17 5l14 -1l28 -1l48 2z" />
    <glyph glyph-name="Acircumflex" unicode="&#xc2;" 
d="M409 28l1 -12v-11l-7 -5l-18 -2l-28 1l-14 8l-7 -8h-42l-11 7l-5 12l-3 23l-1 22l-4 10l-2 19l1 9l-2 7l-4 23l-8 16l-19 -2l-37 2l-30 -2l-12 -6l-4 -27l-5 -24l-4 -27l-2 -24l-6 -25l-6 -9l-14 -4h-63l-26 -1l-11 6l-4 21l4 10l1 16l6 30l6 33l4 26l6 28l1 16l5 26
l6 23l4 36l4 17l4 28l4 10v9l3 23l11 10l-9 1l4 19l6 19l-1 13l3 13l5 29l5 30l5 25l2 11l4 18l1 12l7 33l4 27l5 34l5 28l5 14l-2 6l3 10l10 7l4 8l18 -1l29 1l25 -4l6 7l19 -3l17 1l17 -2l10 -11l7 -31l4 -29l5 -31l5 -25l4 -32l8 -23l2 -24l4 -23l-5 -10l6 -8l-1 -6l6 -7
l2 -16l-4 -4l7 -7l1 -16l5 -15l3 -21l-10 -7l13 -5l2 -20l7 -34l4 -27l5 -36l6 -23v-12l7 -23l3 -26l6 -38l7 -37l4 -28l5 -30zM213 261h15l13 7l1 13l-3 27l-6 26l-4 28l-5 24l-4 31v16l-5 19l-7 17l-12 -43l2 -10l-2 -13l-4 -32l-5 -27l-5 -31l-3 -30l3 -20l15 -3z
M255 469l8 2l7 -7l4 7l-7 7l-13 3l8 8l8 -6l9 3l8 7l-16 7l-10 -4l-9 14l7 -14l-12 -1l6 -5l-1 -12zM293 271l12 1l8 -8l-3 10h-11l6 6l-2 18h-19l6 -2l3 -13v-12zM259 548l-6 3l2 -14l7 2l7 -2l-1 11h-9zM142 453l8 -2l4 15l-18 -8zM286 486l-7 -1l4 -12l11 -1zM135 306
l13 8l-10 4l-8 -12l10 -6zM69 231l1 3l-1 10l-6 -31l-10 2l6 -8l8 10zM246 198l-3 7l-12 2l10 -13zM274 388l16 5l-9 8zM304 152l6 -1l2 12l-14 -7zM156 487l-9 -12h13zM284 414l8 -7h3l-2 11zM172 621l-8 5l-6 -11zM135 362l14 4l2 6l-2 3l-5 -7zM297 338v-10l6 7l-10 14z
M299 435l-10 -4l7 -8zM268 454l2 -6l8 1l-1 6zM151 358l8 5l-7 8zM315 305l-12 -6l9 -4zM79 197l9 2l-5 10zM295 446l-4 7l4 9l-10 -13zM146 549l2 10l-10 -4zM270 607v10l-9 -9zM172 647l-5 -5l12 -6zM311 254l10 -7v9zM194 591l-2 -7l15 8zM277 532l-7 -9l5 -6zM121 307
l2 7l14 10l-13 -4zM326 107l-2 12l-7 3zM147 287v7l-10 -6zM163 502l11 -3l-10 9zM295 397l-2 -9l8 4zM135 341l8 -6l1 7zM119 287l15 -2l-15 6v-4zM266 409l2 10l-7 -13zM294 233l5 -7l3 4zM136 398l3 -4l6 4h-9zM304 224l6 -1v6zM272 417l4 7l3 14zM327 143l-3 4v-4h3z
M111 337l-3 2v-2h3zM158 538l-3 2v-2h3zM167 434l-3 2v-2h3zM119 191l-2 2v-2h2zM295 213l2 2h-2v-2zM329 854l13 -2l6 -13l2 -16v-27l-3 -13l-12 -4l-13 2l-24 7l-24 11l-25 15l-14 12l-14 6l-25 3l-1 -4l-13 -10l-7 3v-5l-10 -10l-24 -14l-20 -5l-8 -5l-22 -6l-16 7l-4 18
l3 37l9 11l12 7l25 17l42 42v-10l9 23l11 14l11 6l34 -2l16 -7l1 -9h4l10 -10l18 -23l11 -10l17 -18l15 -7zM272 852v-6l9 2zM197 871l5 -3l1 8z" />
    <glyph glyph-name="Atilde" unicode="&#xc3;" 
d="M409 28l1 -12v-11l-7 -5l-18 -2l-28 1l-14 8l-7 -8h-42l-11 7l-5 12l-3 23l-1 22l-4 10l-2 19l1 9l-2 7l-4 23l-8 16l-19 -2l-37 2l-30 -2l-12 -6l-4 -27l-5 -24l-4 -27l-2 -24l-6 -25l-6 -9l-14 -4h-63l-26 -1l-11 6l-4 21l4 10l1 16l6 30l6 33l4 26l6 28l1 16l5 26
l6 23l4 36l4 17l4 28l4 10v9l3 23l11 10l-9 1l4 19l6 19l-1 13l3 13l5 29l5 30l5 25l2 11l4 18l1 12l7 33l4 27l5 34l5 28l5 14l-2 6l3 10l10 7l4 8l18 -1l29 1l25 -4l6 7l19 -3l17 1l17 -2l10 -11l7 -31l4 -29l5 -31l5 -25l4 -32l8 -23l2 -24l4 -23l-5 -10l6 -8l-1 -6l6 -7
l2 -16l-4 -4l7 -7l1 -16l5 -15l3 -21l-10 -7l13 -5l2 -20l7 -34l4 -27l5 -36l6 -23v-12l7 -23l3 -26l6 -38l7 -37l4 -28l5 -30zM213 261h15l13 7l1 13l-3 27l-6 26l-4 28l-5 24l-4 31v16l-5 19l-7 17l-12 -43l2 -10l-2 -13l-4 -32l-5 -27l-5 -31l-3 -30l3 -20l15 -3z
M255 469l8 2l7 -7l4 7l-7 7l-13 3l8 8l8 -6l9 3l8 7l-16 7l-10 -4l-9 14l7 -14l-12 -1l6 -5l-1 -12zM293 271l12 1l8 -8l-3 10h-11l6 6l-2 18h-19l6 -2l3 -13v-12zM259 548l-6 3l2 -14l7 2l7 -2l-1 11h-9zM142 453l8 -2l4 15l-18 -8zM286 486l-7 -1l4 -12l11 -1zM135 306
l13 8l-10 4l-8 -12l10 -6zM69 231l1 3l-1 10l-6 -31l-10 2l6 -8l8 10zM246 198l-3 7l-12 2l10 -13zM274 388l16 5l-9 8zM304 152l6 -1l2 12l-14 -7zM156 487l-9 -12h13zM284 414l8 -7h3l-2 11zM172 621l-8 5l-6 -11zM135 362l14 4l2 6l-2 3l-5 -7zM297 338v-10l6 7l-10 14z
M299 435l-10 -4l7 -8zM268 454l2 -6l8 1l-1 6zM151 358l8 5l-7 8zM315 305l-12 -6l9 -4zM79 197l9 2l-5 10zM295 446l-4 7l4 9l-10 -13zM146 549l2 10l-10 -4zM270 607v10l-9 -9zM172 647l-5 -5l12 -6zM311 254l10 -7v9zM194 591l-2 -7l15 8zM277 532l-7 -9l5 -6zM121 307
l2 7l14 10l-13 -4zM326 107l-2 12l-7 3zM147 287v7l-10 -6zM163 502l11 -3l-10 9zM295 397l-2 -9l8 4zM135 341l8 -6l1 7zM119 287l15 -2l-15 6v-4zM266 409l2 10l-7 -13zM294 233l5 -7l3 4zM136 398l3 -4l6 4h-9zM304 224l6 -1v6zM272 417l4 7l3 14zM327 143l-3 4v-4h3z
M111 337l-3 2v-2h3zM158 538l-3 2v-2h3zM167 434l-3 2v-2h3zM119 191l-2 2v-2h2zM295 213l2 2h-2v-2zM347 907l7 -12l2 -16l-1 -16l-4 -13l-9 -27l-31 -29l-16 -8l-20 -5l-13 1l-24 1l-9 4l-33 13l-27 13l-14 3l-16 -8l-5 -17l-6 -11l-14 -5l-13 -1l-18 2l-12 11l-3 17l6 32
l9 22l16 20l30 19l35 6l29 -5l24 -9l26 -13l28 -7l14 4l6 13l3 15l12 7l24 2zM279 819l1 10l-14 -1zM186 844l5 6l-11 7l-2 -1z" />
    <glyph glyph-name="Adieresis" unicode="&#xc4;" 
d="M409 28l1 -12v-11l-7 -5l-18 -2l-28 1l-14 8l-7 -8h-42l-11 7l-5 12l-3 23l-1 22l-4 10l-2 19l1 9l-2 7l-4 23l-8 16l-19 -2l-37 2l-30 -2l-12 -6l-4 -27l-5 -24l-4 -27l-2 -24l-6 -25l-6 -9l-14 -4h-63l-26 -1l-11 6l-4 21l4 10l1 16l6 30l6 33l4 26l6 28l1 16l5 26
l6 23l4 36l4 17l4 28l4 10v9l3 23l11 10l-9 1l4 19l6 19l-1 13l3 13l5 29l5 30l5 25l2 11l4 18l1 12l7 33l4 27l5 34l5 28l5 14l-2 6l3 10l10 7l4 8l18 -1l29 1l25 -4l6 7l19 -3l17 1l17 -2l10 -11l7 -31l4 -29l5 -31l5 -25l4 -32l8 -23l2 -24l4 -23l-5 -10l6 -8l-1 -6l6 -7
l2 -16l-4 -4l7 -7l1 -16l5 -15l3 -21l-10 -7l13 -5l2 -20l7 -34l4 -27l5 -36l6 -23v-12l7 -23l3 -26l6 -38l7 -37l4 -28l5 -30zM213 261h15l13 7l1 13l-3 27l-6 26l-4 28l-5 24l-4 31v16l-5 19l-7 17l-12 -43l2 -10l-2 -13l-4 -32l-5 -27l-5 -31l-3 -30l3 -20l15 -3z
M255 469l8 2l7 -7l4 7l-7 7l-13 3l8 8l8 -6l9 3l8 7l-16 7l-10 -4l-9 14l7 -14l-12 -1l6 -5l-1 -12zM293 271l12 1l8 -8l-3 10h-11l6 6l-2 18h-19l6 -2l3 -13v-12zM259 548l-6 3l2 -14l7 2l7 -2l-1 11h-9zM142 453l8 -2l4 15l-18 -8zM286 486l-7 -1l4 -12l11 -1zM135 306
l13 8l-10 4l-8 -12l10 -6zM69 231l1 3l-1 10l-6 -31l-10 2l6 -8l8 10zM246 198l-3 7l-12 2l10 -13zM274 388l16 5l-9 8zM304 152l6 -1l2 12l-14 -7zM156 487l-9 -12h13zM284 414l8 -7h3l-2 11zM172 621l-8 5l-6 -11zM135 362l14 4l2 6l-2 3l-5 -7zM297 338v-10l6 7l-10 14z
M299 435l-10 -4l7 -8zM268 454l2 -6l8 1l-1 6zM151 358l8 5l-7 8zM315 305l-12 -6l9 -4zM79 197l9 2l-5 10zM295 446l-4 7l4 9l-10 -13zM146 549l2 10l-10 -4zM270 607v10l-9 -9zM172 647l-5 -5l12 -6zM311 254l10 -7v9zM194 591l-2 -7l15 8zM277 532l-7 -9l5 -6zM121 307
l2 7l14 10l-13 -4zM326 107l-2 12l-7 3zM147 287v7l-10 -6zM163 502l11 -3l-10 9zM295 397l-2 -9l8 4zM135 341l8 -6l1 7zM119 287l15 -2l-15 6v-4zM266 409l2 10l-7 -13zM294 233l5 -7l3 4zM136 398l3 -4l6 4h-9zM304 224l6 -1v6zM272 417l4 7l3 14zM327 143l-3 4v-4h3z
M111 337l-3 2v-2h3zM158 538l-3 2v-2h3zM167 434l-3 2v-2h3zM119 191l-2 2v-2h2zM295 213l2 2h-2v-2zM333 842l1 -15l-1 -34l-5 -13l-13 -3h-13l-29 -2l-33 2l-9 5l-4 11l-1 11l1 25l3 9l-4 11l2 25l5 15l13 4l16 1l60 -2l9 -8l2 -14v-28zM195 871v-14l-1 -15l2 -19l-3 -35
l-8 -10l-15 -3h-16l-15 3l-22 -3l-13 2l-11 6l-3 13v86l7 10l22 2l11 -3l27 4l29 -2l7 -10zM300 838l-5 6l-9 5l3 -9zM148 838l9 -8l3 10l-7 -3zM267 848l7 -1l2 8zM148 838l-5 1l2 -7z" />
    <glyph glyph-name="Aring" unicode="&#xc5;" 
d="M409 28l1 -12v-11l-7 -5l-18 -2l-28 1l-14 8l-7 -8h-42l-11 7l-5 12l-3 23l-1 22l-4 10l-2 19l1 9l-2 7l-4 23l-8 16l-19 -2l-37 2l-30 -2l-12 -6l-4 -27l-5 -24l-4 -27l-2 -24l-6 -25l-6 -9l-14 -4h-63l-26 -1l-11 6l-4 21l4 10l1 16l6 30l6 33l4 26l6 28l1 16l5 26
l6 23l4 36l4 17l4 28l4 10v9l3 23l11 10l-9 1l4 19l6 19l-1 13l3 13l5 29l5 30l5 25l2 11l4 18l1 12l7 33l4 27l5 34l5 28l5 14l-2 6l3 10l10 7l4 8l18 -1l29 1l25 -4l6 7l19 -3l17 1l17 -2l10 -11l7 -31l4 -29l5 -31l5 -25l4 -32l8 -23l2 -24l4 -23l-5 -10l6 -8l-1 -6l6 -7
l2 -16l-4 -4l7 -7l1 -16l5 -15l3 -21l-10 -7l13 -5l2 -20l7 -34l4 -27l5 -36l6 -23v-12l7 -23l3 -26l6 -38l7 -37l4 -28l5 -30zM213 261h15l13 7l1 13l-3 27l-6 26l-4 28l-5 24l-4 31v16l-5 19l-7 17l-12 -43l2 -10l-2 -13l-4 -32l-5 -27l-5 -31l-3 -30l3 -20l15 -3z
M255 469l8 2l7 -7l4 7l-7 7l-13 3l8 8l8 -6l9 3l8 7l-16 7l-10 -4l-9 14l7 -14l-12 -1l6 -5l-1 -12zM293 271l12 1l8 -8l-3 10h-11l6 6l-2 18h-19l6 -2l3 -13v-12zM259 548l-6 3l2 -14l7 2l7 -2l-1 11h-9zM142 453l8 -2l4 15l-18 -8zM286 486l-7 -1l4 -12l11 -1zM135 306
l13 8l-10 4l-8 -12l10 -6zM69 231l1 3l-1 10l-6 -31l-10 2l6 -8l8 10zM246 198l-3 7l-12 2l10 -13zM274 388l16 5l-9 8zM304 152l6 -1l2 12l-14 -7zM156 487l-9 -12h13zM284 414l8 -7h3l-2 11zM172 621l-8 5l-6 -11zM135 362l14 4l2 6l-2 3l-5 -7zM297 338v-10l6 7l-10 14z
M299 435l-10 -4l7 -8zM268 454l2 -6l8 1l-1 6zM151 358l8 5l-7 8zM315 305l-12 -6l9 -4zM79 197l9 2l-5 10zM295 446l-4 7l4 9l-10 -13zM146 549l2 10l-10 -4zM270 607v10l-9 -9zM172 647l-5 -5l12 -6zM311 254l10 -7v9zM194 591l-2 -7l15 8zM277 532l-7 -9l5 -6zM121 307
l2 7l14 10l-13 -4zM326 107l-2 12l-7 3zM147 287v7l-10 -6zM163 502l11 -3l-10 9zM295 397l-2 -9l8 4zM135 341l8 -6l1 7zM119 287l15 -2l-15 6v-4zM266 409l2 10l-7 -13zM294 233l5 -7l3 4zM136 398l3 -4l6 4h-9zM304 224l6 -1v6zM272 417l4 7l3 14zM327 143l-3 4v-4h3z
M111 337l-3 2v-2h3zM158 538l-3 2v-2h3zM167 434l-3 2v-2h3zM119 191l-2 2v-2h2zM295 213l2 2h-2v-2zM304 887l-1 -18l-2 -18l-5 -18l-13 -24l-14 -12l-31 -19l-30 -3l-28 4l-27 15l-13 12l-9 14l-10 22l-4 20v16l6 29l12 24l24 23l29 11l27 4l14 -2l30 -12l30 -29l10 -20z
M243 856l6 8l-4 20l-7 12l-20 13l-28 -1l-7 -11l-7 -28l3 -13l7 -12l12 -9l16 -3l12 5l10 8z" />
    <glyph glyph-name="AE" unicode="&#xc6;" horiz-adv-x="632" 
d="M609 56l2 -36l-4 -15h-12l-6 -5l-14 -2l-10 2l-26 -2l-12 3l-13 -3l-14 1h-55l-26 1l-11 -2l-14 2l-14 -1l-25 -2l-14 3l-29 -2l-16 1l-12 8l-3 16v57l2 23l-1 12l-1 26l-10 9l-13 1h-49l-28 -2l-11 -15l-2 -13l-7 -27l-8 -24l-7 -22v-9l-4 -6l-6 -21l-12 -12l-17 -1h-31
l-34 -1l-25 2l-10 6l-1 13l9 31l8 30l5 8l2 12l6 24l15 45l5 19l8 30l8 28l9 29l8 28l9 32l9 27l7 25l8 26l10 33l8 32l10 28l7 26l8 27l18 63l7 24l6 21l7 24l12 26l14 6l38 1l22 -2l10 2h24l25 -4l8 3h72l27 -1h26l27 3l15 -1h56l17 -5l7 -14l1 -15l-2 -23l3 -24l-2 -11
l1 -9l-7 -14l-15 -4l-15 1l-31 -1h-30l-16 -2l-34 1h-29l-11 -5l-2 -15l1 -16l-2 -14l2 -29l-1 -31l-5 -9l5 -20l1 -28l21 -7l9 2l20 -1l43 2l28 -3l17 -10l1 -13l-1 -27l1 -25v-26l-12 -11h-18l-2 10l-5 -12l-19 7l-6 -7h-30l-26 1l-13 -3l-7 3l-1 -25l1 -27l-2 -28l1 -28
v-54l-3 -33l16 -4l27 1l31 -2l36 2h37l39 -1l11 -12l2 -17zM214 286l2 -15l13 -4l33 -2l11 4l8 10l2 19l-3 19l2 16l-2 29l1 28l2 26v29l-2 16v35l-5 6l-11 -31l-9 -36l-9 -30l-6 -25l-9 -28l-5 -25l-7 -25zM341 507l-6 -11l10 4l8 11l19 2l-11 4v14l-2 -10l-13 -10v17
l12 14l-5 5l-10 -9l-6 -10l-9 -4l-4 10l8 4h-11l-7 -12l10 -4l7 -11v10h11zM278 650l-19 -20l3 1l7 9l12 -11l-9 -8l-5 6l8 -15l15 9l-9 8l7 3l-11 14h14l23 9l-6 2l2 8l-10 9l-3 -2l-3 -9l7 4l-11 -17h-12zM328 436l-13 -6l9 -6l22 1l5 -10l5 -4l8 5l-6 -9l9 -9l11 6l-6 12
l-7 4l-4 7l-11 -5v8h-6l-7 -4l-1 17zM371 683l-6 -10l3 -8l6 -5l8 -27l10 2l-7 3l-1 15l1 6zM396 349l-11 4l5 8l-8 9l-7 -9l-3 7l-3 -9l-7 5l3 -8l9 2l-1 -12l17 -1l-7 -6l12 6zM331 657l-5 1v-18l11 6l-6 7l8 6l2 -7l3 16l5 6l-11 5l-1 -16zM218 466l-18 12v11l-6 -10
l1 -9l-7 -6l12 2l8 -4zM218 494l4 -7l11 3l-3 10l-9 -3l-11 10l-1 -10l-7 -7zM436 363l-2 -7l11 -4l7 2l-5 7l6 19l-6 7l2 -10l-7 -8l3 -7zM366 251l16 8v4l-5 18zM347 345l17 -3l-3 9l-10 -2l-7 8l-8 -17zM313 401l11 4l12 1l-5 7l-15 2zM195 439l12 -2l-9 2l4 14l-12 7
l-2 -11zM318 505l-4 -8l12 -1l1 14l-14 4zM373 574l-5 3l-2 -6l-4 6l-3 -11l12 -8zM370 471l7 -5l4 4l-6 9l-7 1l-12 -5zM321 458l-11 -3l10 -2l9 -7l6 12h-14zM313 249l3 -9l14 -3l-6 13zM370 294l8 9l-4 11l-9 -11zM374 495l-4 11l-15 -2l9 -7l-2 -3zM358 286l10 -7v9
l-18 4l5 -14zM350 158l5 8l-9 3h-14zM354 208l2 6l4 4l-5 6l-11 -7zM256 613v-12l9 -8l-1 15zM337 401l15 -10l2 12l-5 3h-5l3 -10zM141 240l12 -1l-11 10l-6 -6v-8zM292 503l11 6l-11 9v-15zM304 470l14 -2l3 4l7 3h-13zM342 628l-2 9l-15 -13zM221 520l-10 -5l6 -7l6 4z
M205 554l-6 -7l10 1l-2 -7l8 6zM410 346l9 -5l4 7l-4 15l2 -13zM360 148l13 1l-6 9zM348 376l14 -6l5 6h-19zM233 529l1 -9l5 11l-12 5zM309 618l-2 -12l6 -14zM341 624l-2 -13l10 15zM445 37h10l-6 10zM371 206l-5 3l-4 -17zM396 528l-6 8l-3 -12zM449 29l20 3l-12 3z
M268 659l-6 2l-2 -15zM337 259l2 -9l9 6zM286 683l10 -1l-1 9zM325 553l-8 -4l4 -9zM289 639l10 -2l2 8zM317 369l8 7l-6 4zM272 673l-5 -5l2 1l18 2zM330 587l-2 -8l8 -2zM244 202l-8 15v-8zM355 678l10 -2l-10 8v-6zM346 283l-11 5l8 -9zM391 628l9 2l-7 5zM213 478l6 2
l-11 6zM382 64l4 -5l7 5h-11zM339 273l-3 -7l7 -2zM341 607l-8 -4l2 -5zM394 56l15 10h-5zM338 366h6l-8 8zM379 324l-3 7l6 7l-9 -6zM176 418l17 -14l-7 8zM352 554l-9 -6l3 -2zM355 84l9 -3l-10 6zM225 560l-5 -3l8 3v4zM432 341l2 3l-3 2zM340 454l-3 2v-2h3zM288 295
l-3 2v-2h3zM359 200l-3 2v-2h3z" />
    <glyph glyph-name="Ccedilla" unicode="&#xc7;" horiz-adv-x="416" 
d="M318 -134v-15l-4 -16l-13 -27l-11 -13l-33 -23l-14 -4l-29 -4l-29 2l-31 8l-14 10v20l3 21l15 9l32 -5h12l13 3l15 10l4 18l-4 19l-5 11l-15 -1l-22 -1l-12 -4h-13l-12 4l-14 11l-3 17l16 21l17 25l19 27l-18 3l-33 7l-15 6l-11 9l-11 5l-20 17l-15 16l-5 20l-5 2l-11 12
l-1 18l-13 21l-1 25l1 27l-3 12l-1 32l2 15l-2 17l2 17l-1 13v100l4 11l-5 12l6 14h-3l-2 19v80l1 27l-2 10l6 19l-2 14l12 42l16 31l14 16l24 22l9 4l14 11l26 9l27 7l21 1l11 3l26 -1l26 -2l25 -6l27 -13l26 -19l25 -25l11 -15l3 -14l6 -13l10 -30l3 -32v-33l3 -20l-3 -29
l2 -21l-10 -18h-15l-29 -1l-30 -1l-29 1l-15 10l-1 26l-2 26v32l-1 31l-12 28l-11 15l-19 4h-14l1 11l-2 10l-8 1l5 -22l-23 -12l-13 -17l-5 -16l1 -13l-2 -11l1 -22v-25l2 -21l-2 -8l1 -17l-1 -30l1 -29v-23l-1 -27v-120l-2 -25l2 -14l2 -27l4 -25l8 -10l10 -8l11 -5l30 -4
l24 14l7 15l6 23l-1 21l2 22l-2 24l2 9l-1 10v23l8 18l13 3h41l29 1l12 -3l9 1l13 -6l2 -6l2 -37l1 -28v-59l-2 -14l-5 -25l-8 -25l-9 -23l-18 -20l-20 -20l-25 -17l-31 -13l-22 -4l-3 -9l-12 -13l-7 -16l7 -8l28 -3l17 -7l17 -16l17 -26zM64 484l-5 -9l1 -7l5 6l9 -7l-3 10
l9 4l4 10l-14 15l10 7l-9 14l3 -8l-8 -7l1 -23l4 10l11 -10l-7 -4zM110 443l-9 2l7 -4l3 -6l-6 -7l10 -15l7 5l10 3l-15 11l5 13zM77 378l7 -2l-2 10l7 1l-9 14l9 13l-15 -9l5 -7l-8 -13l11 1zM109 292h10l-6 7l-12 7l-9 -1l5 -5l3 -11zM73 224l7 -10l9 8l-6 13l-11 -8
l-10 3zM90 520l-6 -14l10 -11l3 23zM125 102l7 3l2 -3l6 17l-8 -8l-13 10zM103 103l7 3l-4 -13l14 2l-12 21zM58 412l-9 7l-6 -11l3 -11zM47 159l5 -4l5 -13l5 5l-10 19l-13 -6zM130 603l2 10l-11 6l-3 -13zM66 125l22 5l-1 7l-8 1zM97 79h4l-5 5l5 7l-17 -5l9 -2l-5 -9z
M164 76l1 -8l14 -11l-5 12zM73 459l-19 -7l23 4l10 -3l-5 7zM105 615l8 3l-4 6l-11 -8l1 -6zM188 50l1 -4l11 -1l2 8zM73 308l13 8l-6 2l-10 -6zM108 136l7 11h-10l-6 5l7 -8zM77 546l12 -1l-12 11v-10zM102 480l-21 -4l9 -4zM68 432l8 7l-10 6zM49 472l-5 -8l13 10l-6 6z
M78 450l8 -9h12zM82 201l3 -8l11 4zM68 208l-11 3l7 -11zM110 52l8 4l-9 7zM109 227l6 3l-17 -4l8 -5zM273 476l-6 -10l12 5zM120 166l12 -10l-3 9zM159 48l-10 15l5 -15h5zM125 549l-8 -1l11 -3l6 5zM270 105l-3 -8h9zM313 536l10 -5l-4 9zM98 178l9 4l-6 5zM91 188l-1 -10
l-1 -17l3 13zM72 140l-10 7v-6zM184 34l-7 -10l-2 -11zM62 282l6 -4l2 -8l5 4zM63 568l-1 -6l7 -5zM223 624h5l-10 9zM205 69l-2 -5l6 -6zM314 631l-3 -1l7 -10zM114 216l10 -4l-7 4h-3zM105 406l5 -1l-17 5zM341 189l2 1l-2 2v-3zM63 118l-2 2v-2h2z" />
    <glyph glyph-name="Egrave" unicode="&#xc8;" horiz-adv-x="392" 
d="M371 41v-21l-2 -12l-8 -8l-30 -2l-14 2h-27l-22 -2l-22 3l-15 -3l-12 1l-27 -1l-32 2l-28 -1l-22 1h-49l-11 5l-5 18l-1 13l1 35l-2 14l1 29l-1 30l2 23v28l-2 31v28l2 26l-3 8l2 34v59l2 19l-3 15l2 23l-2 31l2 26l-1 28l-2 22l2 11l-2 12l2 13l-1 12l1 25v58l2 22
l-2 12l7 10l26 5l7 -3l13 2l11 -2l17 2h116l27 -1l37 -1l37 2l6 -6l9 2l7 -19l-2 -11l3 -8l-1 -16l-1 -26l-3 -27l-14 -8l-18 1l-27 1l-9 -2l-17 3l-6 -2h-37l-28 2l-16 -2l-9 -5l-4 -13l2 -29l-2 -8l1 -9l-2 -11l2 -12v-28l1 -26l-2 -19l8 -14l12 -2l13 1l30 2l11 -2l25 -1
l26 1l10 -6l4 -13l-2 -13l3 -13l-1 -29l-1 -27l-6 -10l-14 -4l-16 1l-37 -2l-18 3l-39 -3l-7 -18v-25l-6 -2l7 -8l-2 -14l2 -14l-1 -13l1 -26l-3 -21l2 -23l4 -29l14 -4h63l8 2l8 -1l26 -1l26 2l24 -2l19 -6l2 -10l2 -32zM144 397l-9 -1l-4 8l9 -1l-13 2l-7 -7h7l7 -8l10 -6
l7 -1l-3 9l9 -1l3 9l-15 5zM158 629l-1 11l-8 -4l-1 -8l-10 -3l3 -8l8 5l1 -7l9 -2l-7 7zM110 334l7 -6l-3 -9h9l-2 11l2 12zM78 563l-5 -10l6 -14l13 1l-14 11v12zM74 498l2 -3l10 14l-7 -4l2 10l-12 -8zM99 302l6 2v10l-9 6l-2 -6zM155 343l6 10l-8 10l1 -6l-3 -8h-8z
M146 323l5 6l-14 -7l-1 9l-8 -6l13 -6l2 -6zM131 469l-2 -6l9 -8l2 16zM106 577l9 -6l7 4l-5 5l-2 5zM101 535l2 -11l16 11h-18zM106 440l-2 -13l7 2l6 6l1 5l-5 -4zM138 506l-14 15l-4 -12l8 1zM78 413l-2 -7l13 4l-2 8zM97 153l8 11l-12 3zM136 647l-5 3l11 -9l7 8l-8 -1
l-4 9zM69 392l10 -6v15zM173 93l-8 7l-13 1l5 -5zM153 57l-2 6l3 7l-4 5l-4 -13zM90 261l-8 -9l7 -9zM104 622l-5 6l6 -15l-4 -7l11 15zM87 518l2 10l-9 6zM72 357l-10 5l3 -11zM121 108l5 -8l6 9zM97 493l-3 10l-5 5l1 -9zM331 38l7 -1l-7 14v-13zM85 334l-2 -12l8 3z
M195 396l4 -12l5 7zM133 341l8 7l-8 4v-11zM117 615l-3 -6l8 -12zM96 403l6 -13l-2 11l4 7zM134 250l6 3l-10 3l-1 -5zM106 248l13 -3l-6 6zM130 89l3 6l-9 2zM132 607l4 8l-7 1zM121 631l-3 -5l9 -3zM217 373l7 -5l5 11l-7 -9zM119 490l-6 -2l-4 -6zM142 515h-5l8 -4z
M228 331l-3 3v-3h3zM354 658l-3 3v-3h3zM76 519l-3 2v-2h3zM249 810l4 -15l-2 -14l-17 -5h-48l-6 5l-12 5l-12 21l-7 6l-12 21l-13 13l-3 8l-7 5l-11 19l-16 20l-11 19l3 10l11 3l14 -2l18 3h55l18 -4l8 -12l13 -25l3 -15zM172 866l-2 3l-10 17l2 -13zM129 914l-3 3v-3h3z
" />
    <glyph glyph-name="Eacute" unicode="&#xc9;" horiz-adv-x="392" 
d="M371 41v-21l-2 -12l-8 -8l-30 -2l-14 2h-27l-22 -2l-22 3l-15 -3l-12 1l-27 -1l-32 2l-28 -1l-22 1h-49l-11 5l-5 18l-1 13l1 35l-2 14l1 29l-1 30l2 23v28l-2 31v28l2 26l-3 8l2 34v59l2 19l-3 15l2 23l-2 31l2 26l-1 28l-2 22l2 11l-2 12l2 13l-1 12l1 25v58l2 22
l-2 12l7 10l26 5l7 -3l13 2l11 -2l17 2h116l27 -1l37 -1l37 2l6 -6l9 2l7 -19l-2 -11l3 -8l-1 -16l-1 -26l-3 -27l-14 -8l-18 1l-27 1l-9 -2l-17 3l-6 -2h-37l-28 2l-16 -2l-9 -5l-4 -13l2 -29l-2 -8l1 -9l-2 -11l2 -12v-28l1 -26l-2 -19l8 -14l12 -2l13 1l30 2l11 -2l25 -1
l26 1l10 -6l4 -13l-2 -13l3 -13l-1 -29l-1 -27l-6 -10l-14 -4l-16 1l-37 -2l-18 3l-39 -3l-7 -18v-25l-6 -2l7 -8l-2 -14l2 -14l-1 -13l1 -26l-3 -21l2 -23l4 -29l14 -4h63l8 2l8 -1l26 -1l26 2l24 -2l19 -6l2 -10l2 -32zM144 397l-9 -1l-4 8l9 -1l-13 2l-7 -7h7l7 -8l10 -6
l7 -1l-3 9l9 -1l3 9l-15 5zM158 629l-1 11l-8 -4l-1 -8l-10 -3l3 -8l8 5l1 -7l9 -2l-7 7zM110 334l7 -6l-3 -9h9l-2 11l2 12zM78 563l-5 -10l6 -14l13 1l-14 11v12zM74 498l2 -3l10 14l-7 -4l2 10l-12 -8zM99 302l6 2v10l-9 6l-2 -6zM155 343l6 10l-8 10l1 -6l-3 -8h-8z
M146 323l5 6l-14 -7l-1 9l-8 -6l13 -6l2 -6zM131 469l-2 -6l9 -8l2 16zM106 577l9 -6l7 4l-5 5l-2 5zM101 535l2 -11l16 11h-18zM106 440l-2 -13l7 2l6 6l1 5l-5 -4zM138 506l-14 15l-4 -12l8 1zM78 413l-2 -7l13 4l-2 8zM97 153l8 11l-12 3zM136 647l-5 3l11 -9l7 8l-8 -1
l-4 9zM69 392l10 -6v15zM173 93l-8 7l-13 1l5 -5zM153 57l-2 6l3 7l-4 5l-4 -13zM90 261l-8 -9l7 -9zM104 622l-5 6l6 -15l-4 -7l11 15zM87 518l2 10l-9 6zM72 357l-10 5l3 -11zM121 108l5 -8l6 9zM97 493l-3 10l-5 5l1 -9zM331 38l7 -1l-7 14v-13zM85 334l-2 -12l8 3z
M195 396l4 -12l5 7zM133 341l8 7l-8 4v-11zM117 615l-3 -6l8 -12zM96 403l6 -13l-2 11l4 7zM134 250l6 3l-10 3l-1 -5zM106 248l13 -3l-6 6zM130 89l3 6l-9 2zM132 607l4 8l-7 1zM121 631l-3 -5l9 -3zM217 373l7 -5l5 11l-7 -9zM119 490l-6 -2l-4 -6zM142 515h-5l8 -4z
M228 331l-3 3v-3h3zM354 658l-3 3v-3h3zM76 519l-3 2v-2h3zM338 927l-3 -17l-17 -26l-17 -22l-17 -25l-17 -23l-8 -7l-4 -13l-14 -12l-13 -7l-22 1h-25l-16 5l-3 11l4 12l13 32l10 24l11 26l12 30l9 11l17 5l14 -1l28 -1l48 2z" />
    <glyph glyph-name="Ecircumflex" unicode="&#xca;" horiz-adv-x="392" 
d="M371 41v-21l-2 -12l-8 -8l-30 -2l-14 2h-27l-22 -2l-22 3l-15 -3l-12 1l-27 -1l-32 2l-28 -1l-22 1h-49l-11 5l-5 18l-1 13l1 35l-2 14l1 29l-1 30l2 23v28l-2 31v28l2 26l-3 8l2 34v59l2 19l-3 15l2 23l-2 31l2 26l-1 28l-2 22l2 11l-2 12l2 13l-1 12l1 25v58l2 22
l-2 12l7 10l26 5l7 -3l13 2l11 -2l17 2h116l27 -1l37 -1l37 2l6 -6l9 2l7 -19l-2 -11l3 -8l-1 -16l-1 -26l-3 -27l-14 -8l-18 1l-27 1l-9 -2l-17 3l-6 -2h-37l-28 2l-16 -2l-9 -5l-4 -13l2 -29l-2 -8l1 -9l-2 -11l2 -12v-28l1 -26l-2 -19l8 -14l12 -2l13 1l30 2l11 -2l25 -1
l26 1l10 -6l4 -13l-2 -13l3 -13l-1 -29l-1 -27l-6 -10l-14 -4l-16 1l-37 -2l-18 3l-39 -3l-7 -18v-25l-6 -2l7 -8l-2 -14l2 -14l-1 -13l1 -26l-3 -21l2 -23l4 -29l14 -4h63l8 2l8 -1l26 -1l26 2l24 -2l19 -6l2 -10l2 -32zM144 397l-9 -1l-4 8l9 -1l-13 2l-7 -7h7l7 -8l10 -6
l7 -1l-3 9l9 -1l3 9l-15 5zM158 629l-1 11l-8 -4l-1 -8l-10 -3l3 -8l8 5l1 -7l9 -2l-7 7zM110 334l7 -6l-3 -9h9l-2 11l2 12zM78 563l-5 -10l6 -14l13 1l-14 11v12zM74 498l2 -3l10 14l-7 -4l2 10l-12 -8zM99 302l6 2v10l-9 6l-2 -6zM155 343l6 10l-8 10l1 -6l-3 -8h-8z
M146 323l5 6l-14 -7l-1 9l-8 -6l13 -6l2 -6zM131 469l-2 -6l9 -8l2 16zM106 577l9 -6l7 4l-5 5l-2 5zM101 535l2 -11l16 11h-18zM106 440l-2 -13l7 2l6 6l1 5l-5 -4zM138 506l-14 15l-4 -12l8 1zM78 413l-2 -7l13 4l-2 8zM97 153l8 11l-12 3zM136 647l-5 3l11 -9l7 8l-8 -1
l-4 9zM69 392l10 -6v15zM173 93l-8 7l-13 1l5 -5zM153 57l-2 6l3 7l-4 5l-4 -13zM90 261l-8 -9l7 -9zM104 622l-5 6l6 -15l-4 -7l11 15zM87 518l2 10l-9 6zM72 357l-10 5l3 -11zM121 108l5 -8l6 9zM97 493l-3 10l-5 5l1 -9zM331 38l7 -1l-7 14v-13zM85 334l-2 -12l8 3z
M195 396l4 -12l5 7zM133 341l8 7l-8 4v-11zM117 615l-3 -6l8 -12zM96 403l6 -13l-2 11l4 7zM134 250l6 3l-10 3l-1 -5zM106 248l13 -3l-6 6zM130 89l3 6l-9 2zM132 607l4 8l-7 1zM121 631l-3 -5l9 -3zM217 373l7 -5l5 11l-7 -9zM119 490l-6 -2l-4 -6zM142 515h-5l8 -4z
M228 331l-3 3v-3h3zM354 658l-3 3v-3h3zM76 519l-3 2v-2h3zM326 854l13 -2l6 -13l2 -16v-27l-3 -13l-12 -4l-13 2l-24 7l-24 11l-25 15l-14 12l-14 6l-25 3l-1 -4l-13 -10l-7 3v-5l-10 -10l-24 -14l-20 -5l-8 -5l-22 -6l-16 7l-4 18l3 37l9 11l12 7l25 17l42 42v-10l9 23
l11 14l11 6l34 -2l16 -7l1 -9h4l10 -10l18 -23l11 -10l17 -18l15 -7zM269 852v-6l9 2zM194 871l5 -3l1 8z" />
    <glyph glyph-name="Edieresis" unicode="&#xcb;" horiz-adv-x="392" 
d="M371 41v-21l-2 -12l-8 -8l-30 -2l-14 2h-27l-22 -2l-22 3l-15 -3l-12 1l-27 -1l-32 2l-28 -1l-22 1h-49l-11 5l-5 18l-1 13l1 35l-2 14l1 29l-1 30l2 23v28l-2 31v28l2 26l-3 8l2 34v59l2 19l-3 15l2 23l-2 31l2 26l-1 28l-2 22l2 11l-2 12l2 13l-1 12l1 25v58l2 22
l-2 12l7 10l26 5l7 -3l13 2l11 -2l17 2h116l27 -1l37 -1l37 2l6 -6l9 2l7 -19l-2 -11l3 -8l-1 -16l-1 -26l-3 -27l-14 -8l-18 1l-27 1l-9 -2l-17 3l-6 -2h-37l-28 2l-16 -2l-9 -5l-4 -13l2 -29l-2 -8l1 -9l-2 -11l2 -12v-28l1 -26l-2 -19l8 -14l12 -2l13 1l30 2l11 -2l25 -1
l26 1l10 -6l4 -13l-2 -13l3 -13l-1 -29l-1 -27l-6 -10l-14 -4l-16 1l-37 -2l-18 3l-39 -3l-7 -18v-25l-6 -2l7 -8l-2 -14l2 -14l-1 -13l1 -26l-3 -21l2 -23l4 -29l14 -4h63l8 2l8 -1l26 -1l26 2l24 -2l19 -6l2 -10l2 -32zM144 397l-9 -1l-4 8l9 -1l-13 2l-7 -7h7l7 -8l10 -6
l7 -1l-3 9l9 -1l3 9l-15 5zM158 629l-1 11l-8 -4l-1 -8l-10 -3l3 -8l8 5l1 -7l9 -2l-7 7zM110 334l7 -6l-3 -9h9l-2 11l2 12zM78 563l-5 -10l6 -14l13 1l-14 11v12zM74 498l2 -3l10 14l-7 -4l2 10l-12 -8zM99 302l6 2v10l-9 6l-2 -6zM155 343l6 10l-8 10l1 -6l-3 -8h-8z
M146 323l5 6l-14 -7l-1 9l-8 -6l13 -6l2 -6zM131 469l-2 -6l9 -8l2 16zM106 577l9 -6l7 4l-5 5l-2 5zM101 535l2 -11l16 11h-18zM106 440l-2 -13l7 2l6 6l1 5l-5 -4zM138 506l-14 15l-4 -12l8 1zM78 413l-2 -7l13 4l-2 8zM97 153l8 11l-12 3zM136 647l-5 3l11 -9l7 8l-8 -1
l-4 9zM69 392l10 -6v15zM173 93l-8 7l-13 1l5 -5zM153 57l-2 6l3 7l-4 5l-4 -13zM90 261l-8 -9l7 -9zM104 622l-5 6l6 -15l-4 -7l11 15zM87 518l2 10l-9 6zM72 357l-10 5l3 -11zM121 108l5 -8l6 9zM97 493l-3 10l-5 5l1 -9zM331 38l7 -1l-7 14v-13zM85 334l-2 -12l8 3z
M195 396l4 -12l5 7zM133 341l8 7l-8 4v-11zM117 615l-3 -6l8 -12zM96 403l6 -13l-2 11l4 7zM134 250l6 3l-10 3l-1 -5zM106 248l13 -3l-6 6zM130 89l3 6l-9 2zM132 607l4 8l-7 1zM121 631l-3 -5l9 -3zM217 373l7 -5l5 11l-7 -9zM119 490l-6 -2l-4 -6zM142 515h-5l8 -4z
M228 331l-3 3v-3h3zM354 658l-3 3v-3h3zM76 519l-3 2v-2h3zM327 842l1 -15l-1 -34l-5 -13l-13 -3h-13l-29 -2l-33 2l-9 5l-4 11l-1 11l1 25l3 9l-4 11l2 25l5 15l13 4l16 1l60 -2l9 -8l2 -14v-28zM189 871v-14l-1 -15l2 -19l-3 -35l-8 -10l-15 -3h-16l-15 3l-22 -3l-13 2
l-11 6l-3 13v86l7 10l22 2l11 -3l27 4l29 -2l7 -10zM294 838l-5 6l-9 5l3 -9zM142 838l9 -8l3 10l-7 -3zM261 848l7 -1l2 8zM142 838l-5 1l2 -7z" />
    <glyph glyph-name="Igrave" unicode="&#xcc;" horiz-adv-x="219" 
d="M175 89l2 -13v-31l-4 -37l-7 -9l-25 -1l-9 3l-9 -2l-33 1h-29l-14 6l-3 17v17l1 26l-2 20l1 16l-1 24l1 30l-1 24l-1 35l2 14v29l2 20l6 7l-9 -1v37l2 10l-1 31l3 18l-3 6v51l-1 31l2 15l-2 34l4 12l-4 14l2 23l-2 9l1 26l-2 27l3 12l-2 27l2 16v27l7 11l12 3l35 -3l39 3
l23 -2l4 -12l4 10l7 -10v-14l1 -27l-2 -26l1 -19v-28l-1 -27l2 -28l-2 -30v-84l2 -13l-2 -15l2 -10l-2 -19v-30l-2 -23l3 -13l-8 -8l8 -3v-41l-1 -31l1 -28v-27l-1 -35l-1 -18l3 -17zM108 671l-1 -8l-3 -13l10 7l12 4v9l10 6l-8 7l3 -8zM68 296l9 -6l14 -6l-6 6l3 27l-5 -7
l-4 7l-2 -14zM92 535l-8 -9l4 -13l1 7l13 -7zM123 602l9 -8l5 6l-3 4l-13 10zM84 451l-3 -8l3 -14l9 14l-4 3zM87 123l8 12l-5 9l-10 -8l7 -5v-8zM94 367l-1 -9l11 -1l1 10h-11zM131 162l13 11l-10 7zM116 495l-11 -4l-7 -12l13 11l6 -6zM99 283l-6 -1l2 -12l11 17zM104 347
l9 2l-10 5l-10 -6zM118 510l-1 -10l8 4l-6 8l-9 7zM123 323v7l-9 7v-5zM117 557l-8 6l-2 -4l4 -7zM49 530l-1 -1l10 -3l-6 13zM68 441l8 12l-10 -3zM108 152l1 8h-4l-5 -8h8zM85 393l9 -3l-1 11zM137 575l5 7l-11 3zM114 386l4 -16l4 7zM69 605l9 9l-11 -1zM99 134l6 -6
l1 14zM95 494l-7 -11l8 1zM131 478l-8 -10l9 2zM130 121l9 -5l-6 9l-12 -9zM58 523l-5 -4l9 -6zM133 439l-10 1l5 -7zM99 205l1 -9l6 10zM135 385h7l-10 9zM103 241l10 3l-10 3v-6zM135 692l-1 -4l15 3zM109 593l-4 -8l4 -6v14zM102 621l-5 -5l6 -4zM113 175l1 -5l8 6z
M77 595l-1 -6l7 -3zM144 401v-6l7 4zM90 379l14 -5l-10 6zM119 284l2 -8l3 -7zM140 191l-2 3v-3h2zM105 579l-2 2v-2h2zM167 810l4 -15l-2 -14l-17 -5h-48l-6 5l-12 5l-12 21l-7 6l-12 21l-13 13l-3 8l-7 5l-11 19l-16 20l-11 19l3 10l11 3l14 -2l18 3h55l18 -4l8 -12
l13 -25l3 -15zM90 866l-2 3l-10 17l2 -13zM47 914l-3 3v-3h3z" />
    <glyph glyph-name="Iacute" unicode="&#xcd;" horiz-adv-x="219" 
d="M175 89l2 -13v-31l-4 -37l-7 -9l-25 -1l-9 3l-9 -2l-33 1h-29l-14 6l-3 17v17l1 26l-2 20l1 16l-1 24l1 30l-1 24l-1 35l2 14v29l2 20l6 7l-9 -1v37l2 10l-1 31l3 18l-3 6v51l-1 31l2 15l-2 34l4 12l-4 14l2 23l-2 9l1 26l-2 27l3 12l-2 27l2 16v27l7 11l12 3l35 -3l39 3
l23 -2l4 -12l4 10l7 -10v-14l1 -27l-2 -26l1 -19v-28l-1 -27l2 -28l-2 -30v-84l2 -13l-2 -15l2 -10l-2 -19v-30l-2 -23l3 -13l-8 -8l8 -3v-41l-1 -31l1 -28v-27l-1 -35l-1 -18l3 -17zM108 671l-1 -8l-3 -13l10 7l12 4v9l10 6l-8 7l3 -8zM68 296l9 -6l14 -6l-6 6l3 27l-5 -7
l-4 7l-2 -14zM92 535l-8 -9l4 -13l1 7l13 -7zM123 602l9 -8l5 6l-3 4l-13 10zM84 451l-3 -8l3 -14l9 14l-4 3zM87 123l8 12l-5 9l-10 -8l7 -5v-8zM94 367l-1 -9l11 -1l1 10h-11zM131 162l13 11l-10 7zM116 495l-11 -4l-7 -12l13 11l6 -6zM99 283l-6 -1l2 -12l11 17zM104 347
l9 2l-10 5l-10 -6zM118 510l-1 -10l8 4l-6 8l-9 7zM123 323v7l-9 7v-5zM117 557l-8 6l-2 -4l4 -7zM49 530l-1 -1l10 -3l-6 13zM68 441l8 12l-10 -3zM108 152l1 8h-4l-5 -8h8zM85 393l9 -3l-1 11zM137 575l5 7l-11 3zM114 386l4 -16l4 7zM69 605l9 9l-11 -1zM99 134l6 -6
l1 14zM95 494l-7 -11l8 1zM131 478l-8 -10l9 2zM130 121l9 -5l-6 9l-12 -9zM58 523l-5 -4l9 -6zM133 439l-10 1l5 -7zM99 205l1 -9l6 10zM135 385h7l-10 9zM103 241l10 3l-10 3v-6zM135 692l-1 -4l15 3zM109 593l-4 -8l4 -6v14zM102 621l-5 -5l6 -4zM113 175l1 -5l8 6z
M77 595l-1 -6l7 -3zM144 401v-6l7 4zM90 379l14 -5l-10 6zM119 284l2 -8l3 -7zM140 191l-2 3v-3h2zM105 579l-2 2v-2h2zM223 927l-3 -17l-17 -26l-17 -22l-17 -25l-17 -23l-8 -7l-4 -13l-14 -12l-13 -7l-22 1h-25l-16 5l-3 11l4 12l13 32l10 24l11 26l12 30l9 11l17 5l14 -1
l28 -1l48 2z" />
    <glyph glyph-name="Icircumflex" unicode="&#xce;" horiz-adv-x="219" 
d="M175 89l2 -13v-31l-4 -37l-7 -9l-25 -1l-9 3l-9 -2l-33 1h-29l-14 6l-3 17v17l1 26l-2 20l1 16l-1 24l1 30l-1 24l-1 35l2 14v29l2 20l6 7l-9 -1v37l2 10l-1 31l3 18l-3 6v51l-1 31l2 15l-2 34l4 12l-4 14l2 23l-2 9l1 26l-2 27l3 12l-2 27l2 16v27l7 11l12 3l35 -3l39 3
l23 -2l4 -12l4 10l7 -10v-14l1 -27l-2 -26l1 -19v-28l-1 -27l2 -28l-2 -30v-84l2 -13l-2 -15l2 -10l-2 -19v-30l-2 -23l3 -13l-8 -8l8 -3v-41l-1 -31l1 -28v-27l-1 -35l-1 -18l3 -17zM108 671l-1 -8l-3 -13l10 7l12 4v9l10 6l-8 7l3 -8zM68 296l9 -6l14 -6l-6 6l3 27l-5 -7
l-4 7l-2 -14zM92 535l-8 -9l4 -13l1 7l13 -7zM123 602l9 -8l5 6l-3 4l-13 10zM84 451l-3 -8l3 -14l9 14l-4 3zM87 123l8 12l-5 9l-10 -8l7 -5v-8zM94 367l-1 -9l11 -1l1 10h-11zM131 162l13 11l-10 7zM116 495l-11 -4l-7 -12l13 11l6 -6zM99 283l-6 -1l2 -12l11 17zM104 347
l9 2l-10 5l-10 -6zM118 510l-1 -10l8 4l-6 8l-9 7zM123 323v7l-9 7v-5zM117 557l-8 6l-2 -4l4 -7zM49 530l-1 -1l10 -3l-6 13zM68 441l8 12l-10 -3zM108 152l1 8h-4l-5 -8h8zM85 393l9 -3l-1 11zM137 575l5 7l-11 3zM114 386l4 -16l4 7zM69 605l9 9l-11 -1zM99 134l6 -6
l1 14zM95 494l-7 -11l8 1zM131 478l-8 -10l9 2zM130 121l9 -5l-6 9l-12 -9zM58 523l-5 -4l9 -6zM133 439l-10 1l5 -7zM99 205l1 -9l6 10zM135 385h7l-10 9zM103 241l10 3l-10 3v-6zM135 692l-1 -4l15 3zM109 593l-4 -8l4 -6v14zM102 621l-5 -5l6 -4zM113 175l1 -5l8 6z
M77 595l-1 -6l7 -3zM144 401v-6l7 4zM90 379l14 -5l-10 6zM119 284l2 -8l3 -7zM140 191l-2 3v-3h2zM105 579l-2 2v-2h2zM228 854l13 -2l6 -13l2 -16v-27l-3 -13l-12 -4l-13 2l-24 7l-24 11l-25 15l-14 12l-14 6l-25 3l-1 -4l-13 -10l-7 3v-5l-10 -10l-24 -14l-20 -5l-8 -5
l-22 -6l-16 7l-4 18l3 37l9 11l12 7l25 17l42 42v-10l9 23l11 14l11 6l34 -2l16 -7l1 -9h4l10 -10l18 -23l11 -10l17 -18l15 -7zM171 852v-6l9 2zM96 871l5 -3l1 8z" />
    <glyph glyph-name="Idieresis" unicode="&#xcf;" horiz-adv-x="219" 
d="M175 89l2 -13v-31l-4 -37l-7 -9l-25 -1l-9 3l-9 -2l-33 1h-29l-14 6l-3 17v17l1 26l-2 20l1 16l-1 24l1 30l-1 24l-1 35l2 14v29l2 20l6 7l-9 -1v37l2 10l-1 31l3 18l-3 6v51l-1 31l2 15l-2 34l4 12l-4 14l2 23l-2 9l1 26l-2 27l3 12l-2 27l2 16v27l7 11l12 3l35 -3l39 3
l23 -2l4 -12l4 10l7 -10v-14l1 -27l-2 -26l1 -19v-28l-1 -27l2 -28l-2 -30v-84l2 -13l-2 -15l2 -10l-2 -19v-30l-2 -23l3 -13l-8 -8l8 -3v-41l-1 -31l1 -28v-27l-1 -35l-1 -18l3 -17zM108 671l-1 -8l-3 -13l10 7l12 4v9l10 6l-8 7l3 -8zM68 296l9 -6l14 -6l-6 6l3 27l-5 -7
l-4 7l-2 -14zM92 535l-8 -9l4 -13l1 7l13 -7zM123 602l9 -8l5 6l-3 4l-13 10zM84 451l-3 -8l3 -14l9 14l-4 3zM87 123l8 12l-5 9l-10 -8l7 -5v-8zM94 367l-1 -9l11 -1l1 10h-11zM131 162l13 11l-10 7zM116 495l-11 -4l-7 -12l13 11l6 -6zM99 283l-6 -1l2 -12l11 17zM104 347
l9 2l-10 5l-10 -6zM118 510l-1 -10l8 4l-6 8l-9 7zM123 323v7l-9 7v-5zM117 557l-8 6l-2 -4l4 -7zM49 530l-1 -1l10 -3l-6 13zM68 441l8 12l-10 -3zM108 152l1 8h-4l-5 -8h8zM85 393l9 -3l-1 11zM137 575l5 7l-11 3zM114 386l4 -16l4 7zM69 605l9 9l-11 -1zM99 134l6 -6
l1 14zM95 494l-7 -11l8 1zM131 478l-8 -10l9 2zM130 121l9 -5l-6 9l-12 -9zM58 523l-5 -4l9 -6zM133 439l-10 1l5 -7zM99 205l1 -9l6 10zM135 385h7l-10 9zM103 241l10 3l-10 3v-6zM135 692l-1 -4l15 3zM109 593l-4 -8l4 -6v14zM102 621l-5 -5l6 -4zM113 175l1 -5l8 6z
M77 595l-1 -6l7 -3zM144 401v-6l7 4zM90 379l14 -5l-10 6zM119 284l2 -8l3 -7zM140 191l-2 3v-3h2zM105 579l-2 2v-2h2zM232 842l1 -15l-1 -34l-5 -13l-13 -3h-13l-29 -2l-33 2l-9 5l-4 11l-1 11l1 25l3 9l-4 11l2 25l5 15l13 4l16 1l60 -2l9 -8l2 -14v-28zM94 871v-14
l-1 -15l2 -19l-3 -35l-8 -10l-15 -3h-16l-15 3l-22 -3l-13 2l-11 6l-3 13v86l7 10l22 2l11 -3l27 4l29 -2l7 -10zM199 838l-5 6l-9 5l3 -9zM47 838l9 -8l3 10l-7 -3zM166 848l7 -1l2 8zM47 838l-5 1l2 -7z" />
    <glyph glyph-name="Eth" unicode="&#xd0;" horiz-adv-x="452" 
d="M428 245l-1 -13v-25l-1 -28l-5 -29l2 -11l-4 -11l-9 -33l-13 -23l-17 -21l-20 -17l-8 -9l-10 -4l-24 -12l-9 -1l-24 -7h-29l-34 -3h-28l-30 1l-31 -1l-28 2l-26 -2l-12 4l-9 16l-1 31l2 12l-2 11l1 10v22l2 30l-4 9l3 26l-2 9l2 31l-2 29l1 27l1 31l-3 12l-11 5l-28 3
l-8 7l-3 27v28l1 29l6 14h14l26 3l6 18l-2 11l3 31l-2 11l-2 29l2 31l-1 32l1 27l-1 30v33l1 38l10 6l12 3h24l31 -1l36 1h28l35 -1h26l30 -3l29 -8l30 -14l15 -12l27 -27l9 -14l6 -15l12 -29l3 -14l4 -29l1 -31v-62l1 -28l-4 -14l4 -7l-3 -25l2 -17v-48l1 -32l-2 -12l2 -9z
M295 376l4 15l-4 15l2 22l-3 18l9 7h-8l-2 46l4 9l-3 26l-2 25l-5 19l-17 21l-23 6l-28 2h-25l-4 -12l1 -22l-2 -26l1 -28v-27l-1 -30l2 -33l12 -7l34 -1l15 -9l2 -31v-28l-6 -18l1 -14l-12 -8l-32 1l-15 -5v-28l1 -29l-7 -10l5 -7l-2 -8l4 -13v-27l-2 -14v-26l3 -25l10 -7
h19l28 2l26 7l15 30l3 18l3 32l-3 29l3 31l-3 16l2 14l1 27l-1 26v29zM167 361l12 3l13 8l6 11l-9 -11h-12l-3 8l-1 -9l-8 3l-8 -4zM368 419l-7 10l-19 -9l2 -8zM364 471l-13 3l3 -7l14 -1l3 -6l16 4l-9 2l-12 10zM124 235l-5 16l-4 7h-10l3 -17l10 3zM110 495l11 -15l8 6
l-7 5l6 4h-18zM329 436v-9l-4 -8l6 7l11 -2l1 10zM387 534l-16 11l-2 -12l11 -7l-2 11zM342 494l-13 -5l10 -13zM111 379l8 2l-1 11l-9 -4zM137 250l9 -2l-6 10l-11 1zM94 284l-1 -14l12 6zM374 244l12 18l-15 -9zM358 500l-5 10l-6 -16zM146 445l11 7l-8 6zM113 565l-7 -10
l10 -3zM56 376l9 1l-2 13zM158 633l-16 -2l11 -6zM334 228l-1 -13l9 -1zM339 549l-4 -11l13 10zM135 391l2 11l-12 9l7 -9zM371 493l3 -9l6 15zM386 436l3 9l-10 1zM151 223h11l-10 8zM405 501l-1 -9l10 2zM103 67l15 4l-3 5zM396 270l-8 -4l5 -8zM162 104l9 7l-17 -4z
M106 417l-7 -6l9 -4zM338 233l8 8l1 11zM361 499l4 -9l4 11zM352 303l7 11l-9 -4zM94 106l5 9l-9 -2zM116 275l-7 -4l12 -3zM144 325l4 -5l4 11zM139 281l-15 6l12 -9zM366 448l11 6l-16 -3zM149 532l-6 11l-4 -3zM169 30l1 -5l10 9zM290 116l4 6l-8 2zM397 498l-4 2l-3 -12
zM360 519v-6l9 11zM383 515l9 -6l-8 11zM213 80l6 5l6 9l-7 -6zM405 343l9 6l-3 3zM210 349v-4l11 9zM63 411l-1 -5l8 -2zM347 461l-7 6l-9 2zM360 322l-5 10h-4zM319 528l-3 4l1 -14zM351 205l12 -1l-12 4v-3zM381 316l3 6l-8 -9zM97 496l2 -7l4 -7zM276 101l-3 4v-4h3z
M125 369l4 -3l-10 10zM355 316l-3 3v-3h3zM164 311l3 2h-3v-2zM418 319l-3 2v-2h3zM235 369l-2 3v-3h2z" />
    </font>
</defs>
</svg>
