<?xml version="1.0" encoding="utf-8"?>
<!-- Generator: Adobe Illustrator 25.0.1, SVG Export Plug-In . SVG Version: 6.00 Build 0)  -->
<svg version="1.1" id="Layer_1" xmlns="http://www.w3.org/2000/svg" xmlns:xlink="http://www.w3.org/1999/xlink" x="0px" y="0px"
	 viewBox="0 0 44 44" style="enable-background:new 0 0 44 44;" xml:space="preserve">
<style type="text/css">
	.st0{fill:#FFFFFF;}
</style>
<g>
	<g>
		<path class="st0" d="M38,0.1H6C2.8,0.1,0.1,2.8,0.1,6V38c0,3.3,2.6,5.9,5.9,5.9h15.7l0-15.6h-4.1c-0.5,0-1-0.4-1-1l0-5
			c0-0.5,0.4-1,1-1h4.1v-4.9c0-5.6,3.4-8.7,8.5-8.7h4.1c0.5,0,1,0.4,1,1v4.2c0,0.5-0.4,1-1,1l-2.5,0c-2.7,0-3.3,1.3-3.3,3.2v4.2h6
			c0.6,0,1,0.5,1,1.1l-0.6,5c-0.1,0.5-0.5,0.8-1,0.8h-5.4l0,15.6H38c3.3,0,5.9-2.6,5.9-5.9V6C43.9,2.8,41.2,0.1,38,0.1L38,0.1z
			 M38,0.1"/>
	</g>
</g>
</svg>
