<?xml version="1.0" encoding="utf-8"?>
<!-- Generator: Adobe Illustrator 25.0.1, SVG Export Plug-In . SVG Version: 6.00 Build 0)  -->
<svg version="1.1" id="Layer_1" xmlns="http://www.w3.org/2000/svg" xmlns:xlink="http://www.w3.org/1999/xlink" x="0px" y="0px"
	 viewBox="0 0 44 44" style="enable-background:new 0 0 44 44;" xml:space="preserve">
<style type="text/css">
	.st0{clip-path:url(#SVGID_2_);}
	.st1{clip-path:url(#SVGID_4_);}
	.st2{clip-path:url(#SVGID_8_);}
	.st3{clip-path:url(#SVGID_14_);}
	.st4{clip-path:url(#SVGID_18_);}
	.st5{clip-path:url(#SVGID_24_);}
	.st6{clip-path:url(#SVGID_26_);}
	.st7{filter:url(#Adobe_OpacityMaskFilter);}
	.st8{clip-path:url(#SVGID_30_);}
	.st9{enable-background:new    ;}
	.st10{clip-path:url(#SVGID_30_);fill:#FFFFFF;}
	.st11{clip-path:url(#SVGID_30_);mask:url(#SVGID_31_);}
	.st12{clip-path:url(#SVGID_33_);}
	.st13{clip-path:url(#SVGID_35_);fill:#FFFFFF;}
	.st14{clip-path:url(#SVGID_37_);}
	.st15{clip-path:url(#SVGID_43_);}
	.st16{clip-path:url(#SVGID_47_);}
	.st17{opacity:0.45;clip-path:url(#SVGID_53_);}
	.st18{clip-path:url(#SVGID_55_);}
	.st19{clip-path:url(#SVGID_59_);}
	.st20{clip-path:url(#SVGID_61_);}
	.st21{clip-path:url(#SVGID_65_);}
	.st22{clip-path:url(#SVGID_71_);}
	.st23{clip-path:url(#SVGID_75_);}
	.st24{clip-path:url(#SVGID_81_);}
	.st25{clip-path:url(#SVGID_83_);}
</style>
<g>
	<g>
		<defs>
			<path id="SVGID_1_" d="M14.8,22c0-4,3.2-7.2,7.2-7.2c4,0,7.2,3.2,7.2,7.2c0,4-3.2,7.2-7.2,7.2C18,29.2,14.8,26,14.8,22 M10.9,22
				c0,6.1,5,11.1,11.1,11.1c6.1,0,11.1-5,11.1-11.1s-5-11.1-11.1-11.1C15.9,10.9,10.9,15.9,10.9,22 M31,10.4c0,1.4,1.2,2.6,2.6,2.6
				c1.4,0,2.6-1.2,2.6-2.6c0-1.4-1.2-2.6-2.6-2.6C32.1,7.8,31,9,31,10.4 M13.3,39.6c-2.1-0.1-3.3-0.4-4-0.7c-1-0.4-1.7-0.9-2.5-1.6
				c-0.8-0.8-1.2-1.5-1.6-2.5c-0.3-0.8-0.6-1.9-0.7-4c-0.1-2.3-0.1-3-0.1-8.7c0-5.8,0-6.5,0.1-8.7c0.1-2.1,0.4-3.3,0.7-4
				c0.4-1,0.9-1.7,1.6-2.5C7.5,6,8.2,5.5,9.2,5.1c0.8-0.3,1.9-0.6,4-0.7c2.3-0.1,3-0.1,8.7-0.1c5.8,0,6.5,0,8.7,0.1
				c2.1,0.1,3.3,0.4,4,0.7c1,0.4,1.7,0.9,2.5,1.6c0.8,0.8,1.2,1.5,1.6,2.5c0.3,0.8,0.6,1.9,0.7,4c0.1,2.3,0.1,3,0.1,8.7
				c0,5.8,0,6.5-0.1,8.7c-0.1,2.1-0.4,3.3-0.7,4c-0.4,1-0.9,1.7-1.6,2.5c-0.8,0.8-1.5,1.2-2.5,1.6c-0.8,0.3-1.9,0.6-4,0.7
				c-2.3,0.1-3,0.1-8.7,0.1C16.2,39.7,15.5,39.7,13.3,39.6 M13.1,0.5c-2.3,0.1-3.9,0.5-5.3,1C6.4,2,5.2,2.8,4,4
				C2.8,5.2,2,6.4,1.5,7.8c-0.5,1.4-0.9,3-1,5.3c-0.1,2.3-0.1,3-0.1,8.9s0,6.6,0.1,8.9c0.1,2.3,0.5,3.9,1,5.3C2,37.6,2.8,38.8,4,40
				c1.2,1.2,2.4,1.9,3.8,2.5c1.4,0.5,3,0.9,5.3,1c2.3,0.1,3,0.1,8.9,0.1c5.9,0,6.6,0,8.9-0.1c2.3-0.1,3.9-0.5,5.3-1
				c1.4-0.6,2.6-1.3,3.8-2.5c1.2-1.2,1.9-2.4,2.5-3.8c0.5-1.4,0.9-2.9,1-5.3c0.1-2.3,0.1-3,0.1-8.9s0-6.6-0.1-8.9
				c-0.1-2.3-0.5-3.9-1-5.3C42,6.4,41.2,5.2,40,4c-1.2-1.2-2.4-1.9-3.8-2.5c-1.4-0.5-3-0.9-5.3-1c-2.3-0.1-3-0.1-8.9-0.1
				C16.1,0.4,15.4,0.4,13.1,0.5"/>
		</defs>
		<clipPath id="SVGID_2_">
			<use xlink:href="#SVGID_1_"  style="overflow:visible;"/>
		</clipPath>
		<g class="st0">
			<g>
				<defs>
					<rect id="SVGID_3_" x="-103.9" y="-103.9" width="252" height="251.9"/>
				</defs>
				<clipPath id="SVGID_4_">
					<use xlink:href="#SVGID_3_"  style="overflow:visible;"/>
				</clipPath>
				<g class="st1">
					<defs>
						<rect id="SVGID_5_" x="-103.9" y="-103.9" width="252" height="251.9"/>
					</defs>
					<clipPath id="SVGID_6_">
						<use xlink:href="#SVGID_5_"  style="overflow:visible;"/>
					</clipPath>
				</g>
				<g class="st1">
					<defs>
						<rect id="SVGID_7_" x="-65.9" y="-62.6" width="214" height="188.4"/>
					</defs>
					<clipPath id="SVGID_8_">
						<use xlink:href="#SVGID_7_"  style="overflow:visible;"/>
					</clipPath>
					<g class="st2">
						<defs>
							<rect id="SVGID_9_" x="-65.9" y="-62.6" width="214" height="188.4"/>
						</defs>
						<clipPath id="SVGID_10_">
							<use xlink:href="#SVGID_9_"  style="overflow:visible;"/>
						</clipPath>
					</g>
				</g>
				<g class="st1">
					<defs>
						<rect id="SVGID_11_" x="-87.6" y="-52.3" width="206.1" height="198.8"/>
					</defs>
					<clipPath id="SVGID_12_">
						<use xlink:href="#SVGID_11_"  style="overflow:visible;"/>
					</clipPath>
				</g>
				<g class="st1">
					<defs>
						<rect id="SVGID_13_" x="-62.5" y="-14.4" width="140.7" height="140.7"/>
					</defs>
					<clipPath id="SVGID_14_">
						<use xlink:href="#SVGID_13_"  style="overflow:visible;"/>
					</clipPath>
					<g class="st3">
						<defs>
							<rect id="SVGID_15_" x="-62.5" y="-14.4" width="140.7" height="140.7"/>
						</defs>
						<clipPath id="SVGID_16_">
							<use xlink:href="#SVGID_15_"  style="overflow:visible;"/>
						</clipPath>
					</g>
				</g>
				<g class="st1">
					<defs>
						<rect id="SVGID_17_" x="-42.8" y="8.7" width="113.6" height="113.6"/>
					</defs>
					<clipPath id="SVGID_18_">
						<use xlink:href="#SVGID_17_"  style="overflow:visible;"/>
					</clipPath>
					<g class="st4">
						<defs>
							<rect id="SVGID_19_" x="-42.8" y="8.7" width="113.6" height="113.6"/>
						</defs>
						<clipPath id="SVGID_20_">
							<use xlink:href="#SVGID_19_"  style="overflow:visible;"/>
						</clipPath>
					</g>
				</g>
				<g class="st1">
					<defs>
						<rect id="SVGID_21_" x="-50.2" y="16.1" width="112.2" height="108.7"/>
					</defs>
					<clipPath id="SVGID_22_">
						<use xlink:href="#SVGID_21_"  style="overflow:visible;"/>
					</clipPath>
				</g>
				<g class="st1">
					<defs>
						<rect id="SVGID_23_" x="-103.9" y="-103.9" width="252" height="251.9"/>
					</defs>
					<clipPath id="SVGID_24_">
						<use xlink:href="#SVGID_23_"  style="overflow:visible;"/>
					</clipPath>
					<g class="st5">
						<g>
							<defs>
								<rect id="SVGID_25_" x="-100.4" y="-75.4" width="200.7" height="103.3"/>
							</defs>
							<clipPath id="SVGID_26_">
								<use xlink:href="#SVGID_25_"  style="overflow:visible;"/>
							</clipPath>
							<g class="st6">
								<defs>
									<rect id="SVGID_27_" x="-100.4" y="-75.4" width="200.7" height="103.3"/>
								</defs>
								<clipPath id="SVGID_28_">
									<use xlink:href="#SVGID_27_"  style="overflow:visible;"/>
								</clipPath>
							</g>
						</g>
					</g>
				</g>
			</g>
		</g>
	</g>
	<g>
		<defs>
			<path id="SVGID_29_" d="M14.8,22c0-4,3.2-7.2,7.2-7.2c4,0,7.2,3.2,7.2,7.2c0,4-3.2,7.2-7.2,7.2C18,29.2,14.8,26,14.8,22 M10.9,22
				c0,6.1,5,11.1,11.1,11.1c6.1,0,11.1-5,11.1-11.1s-5-11.1-11.1-11.1C15.9,10.9,10.9,15.9,10.9,22 M31,10.4c0,1.4,1.2,2.6,2.6,2.6
				c1.4,0,2.6-1.2,2.6-2.6c0-1.4-1.2-2.6-2.6-2.6C32.1,7.8,31,9,31,10.4 M13.3,39.6c-2.1-0.1-3.3-0.4-4-0.7c-1-0.4-1.7-0.9-2.5-1.6
				c-0.8-0.8-1.2-1.5-1.6-2.5c-0.3-0.8-0.6-1.9-0.7-4c-0.1-2.3-0.1-3-0.1-8.7c0-5.8,0-6.5,0.1-8.7c0.1-2.1,0.4-3.3,0.7-4
				c0.4-1,0.9-1.7,1.6-2.5C7.5,6,8.2,5.5,9.2,5.1c0.8-0.3,1.9-0.6,4-0.7c2.3-0.1,3-0.1,8.7-0.1c5.8,0,6.5,0,8.7,0.1
				c2.1,0.1,3.3,0.4,4,0.7c1,0.4,1.7,0.9,2.5,1.6c0.8,0.8,1.2,1.5,1.6,2.5c0.3,0.8,0.6,1.9,0.7,4c0.1,2.3,0.1,3,0.1,8.7
				c0,5.8,0,6.5-0.1,8.7c-0.1,2.1-0.4,3.3-0.7,4c-0.4,1-0.9,1.7-1.6,2.5c-0.8,0.8-1.5,1.2-2.5,1.6c-0.8,0.3-1.9,0.6-4,0.7
				c-2.3,0.1-3,0.1-8.7,0.1C16.2,39.7,15.5,39.7,13.3,39.6 M13.1,0.5c-2.3,0.1-3.9,0.5-5.3,1C6.4,2,5.2,2.8,4,4
				C2.8,5.2,2,6.4,1.5,7.8c-0.5,1.4-0.9,3-1,5.3c-0.1,2.3-0.1,3-0.1,8.9s0,6.6,0.1,8.9c0.1,2.3,0.5,3.9,1,5.3C2,37.6,2.8,38.8,4,40
				c1.2,1.2,2.4,1.9,3.8,2.5c1.4,0.5,3,0.9,5.3,1c2.3,0.1,3,0.1,8.9,0.1c5.9,0,6.6,0,8.9-0.1c2.3-0.1,3.9-0.5,5.3-1
				c1.4-0.6,2.6-1.3,3.8-2.5c1.2-1.2,1.9-2.4,2.5-3.8c0.5-1.4,0.9-2.9,1-5.3c0.1-2.3,0.1-3,0.1-8.9s0-6.6-0.1-8.9
				c-0.1-2.3-0.5-3.9-1-5.3C42,6.4,41.2,5.2,40,4c-1.2-1.2-2.4-1.9-3.8-2.5c-1.4-0.5-3-0.9-5.3-1c-2.3-0.1-3-0.1-8.9-0.1
				C16.1,0.4,15.4,0.4,13.1,0.5"/>
		</defs>
		<use xlink:href="#SVGID_29_"  style="overflow:visible;fill:#FFFFFF;"/>
		<clipPath id="SVGID_30_">
			<use xlink:href="#SVGID_29_"  style="overflow:visible;"/>
		</clipPath>
		<defs>
			<filter id="Adobe_OpacityMaskFilter" filterUnits="userSpaceOnUse" x="-103.9" y="-103.9" width="252" height="251.9">
				<feColorMatrix  type="matrix" values="1 0 0 0 0  0 1 0 0 0  0 0 1 0 0  0 0 0 1 0"/>
			</filter>
		</defs>
		<mask maskUnits="userSpaceOnUse" x="-103.9" y="-103.9" width="252" height="251.9" id="SVGID_31_">
			<g class="st7">
				<rect x="-103.9" y="-103.9" class="st8" width="252" height="251.9"/>
				<g class="st9">
					<rect x="-7.5" y="-7.5" class="st10" width="59" height="59"/>
				</g>
			</g>
		</mask>
		<g class="st11">
			<g>
				<defs>
					<rect id="SVGID_32_" x="-103.9" y="-103.9" width="252" height="251.9"/>
				</defs>
				<use xlink:href="#SVGID_32_"  style="overflow:visible;fill:#FFFFFF;"/>
				<clipPath id="SVGID_33_">
					<use xlink:href="#SVGID_32_"  style="overflow:visible;"/>
				</clipPath>
				<g class="st12">
					<defs>
						<rect id="SVGID_34_" x="-103.9" y="-103.9" width="252" height="251.9"/>
					</defs>
					<use xlink:href="#SVGID_34_"  style="overflow:visible;fill:#FFFFFF;"/>
					<clipPath id="SVGID_35_">
						<use xlink:href="#SVGID_34_"  style="overflow:visible;"/>
					</clipPath>
					<rect x="-103.9" y="-103.9" class="st13" width="251.9" height="251.9"/>
				</g>
				<g class="st12">
					<defs>
						<rect id="SVGID_36_" x="-65.9" y="-62.6" width="214" height="188.4"/>
					</defs>
					<use xlink:href="#SVGID_36_"  style="overflow:visible;fill:#FFFFFF;"/>
					<clipPath id="SVGID_37_">
						<use xlink:href="#SVGID_36_"  style="overflow:visible;"/>
					</clipPath>
					<g class="st14">
						<defs>
							<rect id="SVGID_38_" x="-65.9" y="-62.6" width="214" height="188.4"/>
						</defs>
						<use xlink:href="#SVGID_38_"  style="overflow:visible;fill:#FFFFFF;"/>
						<clipPath id="SVGID_39_">
							<use xlink:href="#SVGID_38_"  style="overflow:visible;"/>
						</clipPath>
						<g transform="matrix(1 0 0 1 0 0)" style="clip-path:url(#SVGID_39_);">
							
								<image style="overflow:visible;" width="435" height="383" xlink:href="DA86D860.png"  transform="matrix(0.492 0 0 0.492 -65.9428 -62.6219)">
							</image>
						</g>
					</g>
				</g>
				<g class="st12">
					<defs>
						<rect id="SVGID_40_" x="-87.6" y="-52.3" width="206.1" height="198.8"/>
					</defs>
					<use xlink:href="#SVGID_40_"  style="overflow:visible;fill:#FFFFFF;"/>
					<clipPath id="SVGID_41_">
						<use xlink:href="#SVGID_40_"  style="overflow:visible;"/>
					</clipPath>
					<g style="clip-path:url(#SVGID_41_);">
						
							<image style="overflow:visible;" width="419" height="404" xlink:href="DA86D861.png"  transform="matrix(0.492 0 0 0.492 -87.5902 -52.2901)">
						</image>
					</g>
				</g>
				<g class="st12">
					<defs>
						<rect id="SVGID_42_" x="-62.5" y="-14.4" width="140.7" height="140.7"/>
					</defs>
					<use xlink:href="#SVGID_42_"  style="overflow:visible;fill:#FFFFFF;"/>
					<clipPath id="SVGID_43_">
						<use xlink:href="#SVGID_42_"  style="overflow:visible;"/>
					</clipPath>
					<g class="st15">
						<defs>
							<rect id="SVGID_44_" x="-62.5" y="-14.4" width="140.7" height="140.7"/>
						</defs>
						<use xlink:href="#SVGID_44_"  style="overflow:visible;fill:#FFFFFF;"/>
						<clipPath id="SVGID_45_">
							<use xlink:href="#SVGID_44_"  style="overflow:visible;"/>
						</clipPath>
					</g>
				</g>
				<g class="st12">
					<defs>
						<rect id="SVGID_46_" x="-42.8" y="8.7" width="113.6" height="113.6"/>
					</defs>
					<use xlink:href="#SVGID_46_"  style="overflow:visible;fill:#FFFFFF;"/>
					<clipPath id="SVGID_47_">
						<use xlink:href="#SVGID_46_"  style="overflow:visible;"/>
					</clipPath>
					<g class="st16">
						<defs>
							<rect id="SVGID_48_" x="-42.8" y="8.7" width="113.6" height="113.6"/>
						</defs>
						<use xlink:href="#SVGID_48_"  style="overflow:visible;fill:#FFFFFF;"/>
						<clipPath id="SVGID_49_">
							<use xlink:href="#SVGID_48_"  style="overflow:visible;"/>
						</clipPath>
						<g transform="matrix(1 0 0 1 0 0)" style="clip-path:url(#SVGID_49_);">
							
								<image style="overflow:visible;" width="231" height="231" xlink:href="DA86D867.png"  transform="matrix(0.492 0 0 0.492 -42.8194 8.7163)">
							</image>
						</g>
					</g>
				</g>
				<g class="st12">
					<defs>
						<rect id="SVGID_50_" x="-50.2" y="16.1" width="112.2" height="108.7"/>
					</defs>
					<use xlink:href="#SVGID_50_"  style="overflow:visible;fill:#FFFFFF;"/>
					<clipPath id="SVGID_51_">
						<use xlink:href="#SVGID_50_"  style="overflow:visible;"/>
					</clipPath>
					<g transform="matrix(1 0 0 1 0 0)" style="clip-path:url(#SVGID_51_);">
						
							<image style="overflow:visible;" width="228" height="221" xlink:href="DA86D862.png"  transform="matrix(0.492 0 0 0.492 -50.1992 16.0961)">
						</image>
					</g>
				</g>
				<g class="st12">
					<defs>
						<rect id="SVGID_52_" x="-103.9" y="-103.9" width="252" height="251.9"/>
					</defs>
					<use xlink:href="#SVGID_52_"  style="overflow:visible;fill:#FFFFFF;"/>
					<clipPath id="SVGID_53_">
						<use xlink:href="#SVGID_52_"  style="overflow:visible;"/>
					</clipPath>
					<g class="st17">
						<g>
							<defs>
								<rect id="SVGID_54_" x="-100.4" y="-75.4" width="200.7" height="103.3"/>
							</defs>
							<use xlink:href="#SVGID_54_"  style="overflow:visible;fill:#FFFFFF;"/>
							<clipPath id="SVGID_55_">
								<use xlink:href="#SVGID_54_"  style="overflow:visible;"/>
							</clipPath>
							<g class="st18">
								<defs>
									<rect id="SVGID_56_" x="-100.4" y="-75.4" width="200.7" height="103.3"/>
								</defs>
								<use xlink:href="#SVGID_56_"  style="overflow:visible;fill:#FFFFFF;"/>
								<clipPath id="SVGID_57_">
									<use xlink:href="#SVGID_56_"  style="overflow:visible;"/>
								</clipPath>
								<g style="clip-path:url(#SVGID_57_);">
									
										<image style="overflow:visible;" width="408" height="210" xlink:href="DA86D863.png"  transform="matrix(0.492 0 0 0.492 -100.3819 -75.4136)">
									</image>
								</g>
							</g>
						</g>
					</g>
				</g>
			</g>
		</g>
	</g>
	<g>
		<defs>
			<path id="SVGID_58_" d="M14.8,22c0-4,3.2-7.2,7.2-7.2c4,0,7.2,3.2,7.2,7.2c0,4-3.2,7.2-7.2,7.2C18,29.2,14.8,26,14.8,22 M10.9,22
				c0,6.1,5,11.1,11.1,11.1c6.1,0,11.1-5,11.1-11.1s-5-11.1-11.1-11.1C15.9,10.9,10.9,15.9,10.9,22 M31,10.4c0,1.4,1.2,2.6,2.6,2.6
				c1.4,0,2.6-1.2,2.6-2.6c0-1.4-1.2-2.6-2.6-2.6C32.1,7.8,31,9,31,10.4 M13.3,39.6c-2.1-0.1-3.3-0.4-4-0.7c-1-0.4-1.7-0.9-2.5-1.6
				c-0.8-0.8-1.2-1.5-1.6-2.5c-0.3-0.8-0.6-1.9-0.7-4c-0.1-2.3-0.1-3-0.1-8.7c0-5.8,0-6.5,0.1-8.7c0.1-2.1,0.4-3.3,0.7-4
				c0.4-1,0.9-1.7,1.6-2.5C7.5,6,8.2,5.5,9.2,5.1c0.8-0.3,1.9-0.6,4-0.7c2.3-0.1,3-0.1,8.7-0.1c5.8,0,6.5,0,8.7,0.1
				c2.1,0.1,3.3,0.4,4,0.7c1,0.4,1.7,0.9,2.5,1.6c0.8,0.8,1.2,1.5,1.6,2.5c0.3,0.8,0.6,1.9,0.7,4c0.1,2.3,0.1,3,0.1,8.7
				c0,5.8,0,6.5-0.1,8.7c-0.1,2.1-0.4,3.3-0.7,4c-0.4,1-0.9,1.7-1.6,2.5c-0.8,0.8-1.5,1.2-2.5,1.6c-0.8,0.3-1.9,0.6-4,0.7
				c-2.3,0.1-3,0.1-8.7,0.1C16.2,39.7,15.5,39.7,13.3,39.6 M13.1,0.5c-2.3,0.1-3.9,0.5-5.3,1C6.4,2,5.2,2.8,4,4
				C2.8,5.2,2,6.4,1.5,7.8c-0.5,1.4-0.9,3-1,5.3c-0.1,2.3-0.1,3-0.1,8.9s0,6.6,0.1,8.9c0.1,2.3,0.5,3.9,1,5.3C2,37.6,2.8,38.8,4,40
				c1.2,1.2,2.4,1.9,3.8,2.5c1.4,0.5,3,0.9,5.3,1c2.3,0.1,3,0.1,8.9,0.1c5.9,0,6.6,0,8.9-0.1c2.3-0.1,3.9-0.5,5.3-1
				c1.4-0.6,2.6-1.3,3.8-2.5c1.2-1.2,1.9-2.4,2.5-3.8c0.5-1.4,0.9-2.9,1-5.3c0.1-2.3,0.1-3,0.1-8.9s0-6.6-0.1-8.9
				c-0.1-2.3-0.5-3.9-1-5.3C42,6.4,41.2,5.2,40,4c-1.2-1.2-2.4-1.9-3.8-2.5c-1.4-0.5-3-0.9-5.3-1c-2.3-0.1-3-0.1-8.9-0.1
				C16.1,0.4,15.4,0.4,13.1,0.5"/>
		</defs>
		<clipPath id="SVGID_59_">
			<use xlink:href="#SVGID_58_"  style="overflow:visible;"/>
		</clipPath>
		<g class="st19">
			<g>
				<defs>
					<rect id="SVGID_60_" x="-103.9" y="-103.9" width="252" height="251.9"/>
				</defs>
				<clipPath id="SVGID_61_">
					<use xlink:href="#SVGID_60_"  style="overflow:visible;"/>
				</clipPath>
				<g class="st20">
					<defs>
						<rect id="SVGID_62_" x="-103.9" y="-103.9" width="252" height="251.9"/>
					</defs>
					<clipPath id="SVGID_63_">
						<use xlink:href="#SVGID_62_"  style="overflow:visible;"/>
					</clipPath>
				</g>
				<g class="st20">
					<defs>
						<rect id="SVGID_64_" x="-65.9" y="-62.6" width="214" height="188.4"/>
					</defs>
					<clipPath id="SVGID_65_">
						<use xlink:href="#SVGID_64_"  style="overflow:visible;"/>
					</clipPath>
					<g class="st21">
						<defs>
							<rect id="SVGID_66_" x="-65.9" y="-62.6" width="214" height="188.4"/>
						</defs>
						<clipPath id="SVGID_67_">
							<use xlink:href="#SVGID_66_"  style="overflow:visible;"/>
						</clipPath>
					</g>
				</g>
				<g class="st20">
					<defs>
						<rect id="SVGID_68_" x="-87.6" y="-52.3" width="206.1" height="198.8"/>
					</defs>
					<clipPath id="SVGID_69_">
						<use xlink:href="#SVGID_68_"  style="overflow:visible;"/>
					</clipPath>
				</g>
				<g class="st20">
					<defs>
						<rect id="SVGID_70_" x="-62.5" y="-14.4" width="140.7" height="140.7"/>
					</defs>
					<clipPath id="SVGID_71_">
						<use xlink:href="#SVGID_70_"  style="overflow:visible;"/>
					</clipPath>
					<g class="st22">
						<defs>
							<rect id="SVGID_72_" x="-62.5" y="-14.4" width="140.7" height="140.7"/>
						</defs>
						<clipPath id="SVGID_73_">
							<use xlink:href="#SVGID_72_"  style="overflow:visible;"/>
						</clipPath>
					</g>
				</g>
				<g class="st20">
					<defs>
						<rect id="SVGID_74_" x="-42.8" y="8.7" width="113.6" height="113.6"/>
					</defs>
					<clipPath id="SVGID_75_">
						<use xlink:href="#SVGID_74_"  style="overflow:visible;"/>
					</clipPath>
					<g class="st23">
						<defs>
							<rect id="SVGID_76_" x="-42.8" y="8.7" width="113.6" height="113.6"/>
						</defs>
						<clipPath id="SVGID_77_">
							<use xlink:href="#SVGID_76_"  style="overflow:visible;"/>
						</clipPath>
					</g>
				</g>
				<g class="st20">
					<defs>
						<rect id="SVGID_78_" x="-50.2" y="16.1" width="112.2" height="108.7"/>
					</defs>
					<clipPath id="SVGID_79_">
						<use xlink:href="#SVGID_78_"  style="overflow:visible;"/>
					</clipPath>
				</g>
				<g class="st20">
					<defs>
						<rect id="SVGID_80_" x="-103.9" y="-103.9" width="252" height="251.9"/>
					</defs>
					<clipPath id="SVGID_81_">
						<use xlink:href="#SVGID_80_"  style="overflow:visible;"/>
					</clipPath>
					<g class="st24">
						<g>
							<defs>
								<rect id="SVGID_82_" x="-100.4" y="-75.4" width="200.7" height="103.3"/>
							</defs>
							<clipPath id="SVGID_83_">
								<use xlink:href="#SVGID_82_"  style="overflow:visible;"/>
							</clipPath>
							<g class="st25">
								<defs>
									<rect id="SVGID_84_" x="-100.4" y="-75.4" width="200.7" height="103.3"/>
								</defs>
								<clipPath id="SVGID_85_">
									<use xlink:href="#SVGID_84_"  style="overflow:visible;"/>
								</clipPath>
							</g>
						</g>
					</g>
				</g>
			</g>
		</g>
	</g>
</g>
</svg>
